; NON-PLATED HOLES START AT T1
; THROUGH (PLATED) HOLES START AT T100
M48
INCH
T1C0.125984
T100C0.038000
T101C0.039370
T102C0.037250
T103C0.037222
T104C0.100000
T105C0.042000
T106C0.035000
%
T1
X018302Y018377
X001302Y001377
X018302Y001377
X001302Y018377
T100
X010302Y012377
X008302Y011377
X010302Y011377
X007302Y012377
X005802Y018377
X002802Y018377
X009302Y011377
X004802Y018377
X003802Y018377
X007302Y011377
X009302Y012377
X008302Y012377
T101
X009302Y002377
X013802Y002377
X013802Y001377
X007302Y002377
X005302Y002377
X004302Y002377
X015802Y002377
X015802Y001377
X008302Y002377
X014802Y002377
X006302Y002377
X014802Y001377
T102
X003649Y003840
X008649Y003840
X007649Y009840
X006649Y003840
X008649Y009840
X007649Y003840
X001649Y009840
X001649Y003840
X003649Y009840
X002649Y003840
X002649Y009840
X006649Y009840
T103
X017649Y003840
X014649Y003840
X013649Y009840
X009649Y003840
X010649Y003840
X016649Y009840
X015649Y009840
X013649Y003840
X017649Y009840
X005649Y003840
X010649Y009840
X015649Y003840
X009649Y009840
X014649Y009840
X004649Y003840
X004649Y009840
X005649Y009840
X011649Y009840
X012649Y009840
X012649Y003840
X016649Y003840
X011649Y003840
T104
X005702Y013377
X003302Y013377
X004502Y011477
T105
X007302Y017377
X007302Y016377
X007302Y015377
X005802Y015877
X002822Y015877
T106
X013302Y005377
X014302Y008377
X009302Y008377
X015302Y008377
X014302Y005377
X014802Y012377
X012302Y008377
X011302Y005377
X015302Y005377
X013302Y008377
X006302Y005377
X007302Y008377
X015802Y012377
X011802Y002209
X007302Y005377
X012302Y005377
X008302Y008377
X008302Y005377
X009302Y005377
X010302Y005377
X017802Y011877
X003302Y008377
X006302Y008377
X016302Y008377
X003302Y005377
X011302Y008377
X017802Y012877
X004302Y005377
X001302Y015877
X012802Y002209
X005302Y008377
X005302Y005377
X016302Y005377
X010302Y008377
X004302Y008377
X001302Y016877
T00
M30
