G04 MADE WITH FRITZING*
G04 WWW.FRITZING.ORG*
G04 DOUBLE SIDED*
G04 HOLES PLATED*
G04 CONTOUR ON CENTER OF CONTOUR VECTOR*
%ASAXBY*%
%FSLAX23Y23*%
%MOIN*%
%OFA0B0*%
%SFA1.0B1.0*%
%ADD10C,0.078000*%
%ADD11C,0.075000*%
%ADD12C,0.079370*%
%ADD13C,0.070555*%
%ADD14C,0.070583*%
%ADD15C,0.082000*%
%ADD16C,0.140000*%
%ADD17R,0.075000X0.075000*%
%ADD18R,0.070542X0.070570*%
%ADD19R,0.082000X0.082000*%
%ADD20R,0.048000X0.088000*%
%ADD21R,0.141732X0.086614*%
%ADD22C,0.048000*%
%ADD23C,0.024000*%
%LNCOPPER0*%
G90*
G70*
G54D10*
X730Y1138D03*
X830Y1138D03*
X930Y1138D03*
X1030Y1138D03*
X730Y1138D03*
X830Y1138D03*
X930Y1138D03*
X1030Y1138D03*
X1030Y1238D03*
X930Y1238D03*
X830Y1238D03*
X730Y1238D03*
G54D11*
X1780Y1188D03*
X1780Y1288D03*
X1580Y1238D03*
X1480Y1238D03*
G54D12*
X430Y238D03*
X530Y238D03*
X630Y238D03*
X730Y238D03*
X830Y238D03*
X930Y238D03*
G54D13*
X1765Y984D03*
X1665Y984D03*
X1565Y984D03*
X1465Y984D03*
X1365Y984D03*
X1265Y984D03*
X1165Y984D03*
X1065Y984D03*
X965Y984D03*
G54D14*
X865Y984D03*
X765Y984D03*
X665Y984D03*
G54D13*
X565Y984D03*
X465Y984D03*
G54D14*
X365Y984D03*
X265Y984D03*
X165Y984D03*
G54D13*
X1765Y384D03*
X1665Y384D03*
X1565Y384D03*
X1465Y384D03*
X1365Y384D03*
X1265Y384D03*
X965Y384D03*
G54D14*
X865Y384D03*
G54D13*
X1065Y384D03*
X1165Y384D03*
G54D14*
X765Y384D03*
X665Y384D03*
G54D13*
X565Y384D03*
X465Y384D03*
G54D14*
X365Y384D03*
X265Y384D03*
X165Y384D03*
G54D15*
X730Y1738D03*
X730Y1638D03*
X730Y1538D03*
X282Y1588D03*
X580Y1588D03*
G54D11*
X330Y538D03*
X330Y838D03*
X430Y538D03*
X430Y838D03*
X530Y538D03*
X530Y838D03*
X630Y538D03*
X630Y838D03*
X730Y538D03*
X730Y838D03*
X830Y538D03*
X830Y838D03*
X930Y538D03*
X930Y838D03*
X1030Y538D03*
X1030Y838D03*
X1130Y538D03*
X1130Y838D03*
X1230Y538D03*
X1230Y838D03*
X1330Y538D03*
X1330Y838D03*
X1430Y538D03*
X1430Y838D03*
X1530Y538D03*
X1530Y838D03*
X1630Y538D03*
X1630Y838D03*
X1280Y221D03*
X1180Y221D03*
G54D10*
X280Y1838D03*
X380Y1838D03*
X480Y1838D03*
X580Y1838D03*
G54D12*
X1380Y138D03*
X1480Y138D03*
X1580Y138D03*
X1380Y138D03*
X1480Y138D03*
X1580Y138D03*
X1580Y238D03*
X1480Y238D03*
X1380Y238D03*
G54D16*
X570Y1338D03*
X330Y1338D03*
X450Y1148D03*
G54D11*
X130Y1588D03*
X130Y1688D03*
G54D17*
X1780Y1188D03*
X1580Y1238D03*
G54D18*
X1765Y984D03*
G54D19*
X730Y1738D03*
X281Y1588D03*
G54D20*
X1630Y1588D03*
X1539Y1588D03*
X1448Y1588D03*
G54D21*
X1539Y1832D03*
G54D17*
X330Y538D03*
X130Y1588D03*
G54D22*
X522Y1737D02*
X730Y1738D01*
D02*
X480Y1838D02*
X479Y1778D01*
G54D23*
D02*
X678Y1288D02*
X678Y1388D01*
D02*
X678Y1388D02*
X1541Y1388D01*
D02*
X730Y1238D02*
X700Y1267D01*
D02*
X1730Y1388D02*
X1780Y1338D01*
D02*
X1780Y1309D02*
X1780Y1288D01*
D02*
X1541Y1388D02*
X1730Y1388D01*
D02*
X968Y1309D02*
X930Y1238D01*
D02*
X1430Y1088D02*
X1380Y1138D01*
D02*
X1730Y1088D02*
X1430Y1088D01*
D02*
X1330Y1338D02*
X982Y1336D01*
D02*
X1380Y1288D02*
X1330Y1338D01*
D02*
X1380Y1138D02*
X1380Y1288D01*
D02*
X1765Y984D02*
X1740Y1060D01*
D02*
X1541Y1388D02*
X1539Y1496D01*
D02*
X1539Y1549D02*
X1539Y1588D01*
D02*
X1230Y1538D02*
X1330Y1438D01*
D02*
X1380Y1438D02*
X1447Y1496D01*
D02*
X1330Y1438D02*
X1380Y1438D01*
D02*
X1448Y1549D02*
X1448Y1588D01*
D02*
X730Y1538D02*
X1198Y1538D01*
D02*
X430Y1288D02*
X630Y1138D01*
D02*
X660Y1138D02*
X730Y1138D01*
D02*
X330Y1338D02*
X376Y1315D01*
D02*
X1639Y77D02*
X1539Y74D01*
D02*
X1752Y285D02*
X1708Y190D01*
D02*
X1830Y338D02*
X1752Y285D01*
D02*
X1518Y97D02*
X1480Y138D01*
D02*
X1765Y984D02*
X1806Y954D01*
D02*
X1830Y936D02*
X1830Y788D01*
D02*
X1708Y190D02*
X1639Y77D01*
D02*
X1830Y788D02*
X1830Y338D01*
G54D22*
D02*
X479Y1737D02*
X330Y1736D01*
D02*
X480Y1838D02*
X479Y1778D01*
D02*
X282Y1644D02*
X282Y1588D01*
D02*
X330Y1736D02*
X282Y1688D01*
G54D23*
D02*
X1647Y202D02*
X1580Y138D01*
D02*
X1300Y310D02*
X1672Y310D01*
D02*
X1672Y310D02*
X1669Y224D01*
D02*
X1265Y384D02*
X1287Y337D01*
G54D22*
D02*
X1630Y1549D02*
X1630Y1588D01*
D02*
X730Y1638D02*
X1237Y1638D01*
D02*
X1333Y1710D02*
X1783Y1707D01*
D02*
X1280Y1638D02*
X1333Y1710D01*
D02*
X1780Y1488D02*
X1630Y1488D01*
D02*
X1783Y1707D02*
X1780Y1488D01*
G54D23*
D02*
X1114Y1063D02*
X1065Y984D01*
D02*
X1130Y1188D02*
X1130Y1088D01*
D02*
X1030Y1238D02*
X1103Y1201D01*
D02*
X1211Y307D02*
X1086Y307D01*
D02*
X180Y1438D02*
X233Y1493D01*
D02*
X1265Y384D02*
X1228Y331D01*
D02*
X130Y288D02*
X83Y329D01*
D02*
X380Y138D02*
X330Y188D01*
D02*
X330Y188D02*
X330Y238D01*
D02*
X280Y288D02*
X130Y288D01*
D02*
X330Y238D02*
X280Y288D01*
D02*
X1086Y307D02*
X1033Y138D01*
D02*
X233Y1493D02*
X680Y1488D01*
D02*
X703Y1510D02*
X730Y1538D01*
D02*
X58Y1124D02*
X180Y1238D01*
D02*
X180Y1238D02*
X180Y1438D01*
D02*
X83Y329D02*
X80Y488D01*
D02*
X1033Y138D02*
X380Y138D01*
D02*
X69Y599D02*
X58Y1124D01*
D02*
X80Y488D02*
X69Y599D01*
D02*
X864Y314D02*
X865Y384D01*
D02*
X830Y238D02*
X846Y259D01*
D02*
X965Y384D02*
X961Y314D01*
D02*
X943Y258D02*
X930Y238D01*
D02*
X765Y384D02*
X764Y325D01*
D02*
X748Y268D02*
X730Y238D01*
D02*
X630Y238D02*
X647Y265D01*
D02*
X664Y321D02*
X665Y384D01*
D02*
X547Y265D02*
X530Y238D01*
D02*
X565Y384D02*
X564Y321D01*
D02*
X430Y238D02*
X448Y268D01*
D02*
X464Y325D02*
X465Y384D01*
D02*
X1234Y427D02*
X1265Y384D01*
D02*
X981Y456D02*
X1216Y452D01*
D02*
X930Y538D02*
X966Y480D01*
D02*
X116Y918D02*
X97Y1052D01*
D02*
X1180Y915D02*
X116Y918D01*
D02*
X1230Y838D02*
X1196Y891D01*
D02*
X1230Y716D02*
X1230Y838D01*
D02*
X1280Y638D02*
X1230Y688D01*
D02*
X1730Y640D02*
X1280Y638D01*
D02*
X97Y1052D02*
X878Y1058D01*
D02*
X1730Y488D02*
X1730Y640D01*
D02*
X895Y1083D02*
X930Y1138D01*
D02*
X1765Y384D02*
X1740Y460D01*
D02*
X850Y515D02*
X946Y406D01*
D02*
X550Y515D02*
X646Y406D01*
D02*
X750Y515D02*
X846Y406D01*
D02*
X650Y515D02*
X746Y406D01*
D02*
X450Y515D02*
X546Y406D01*
D02*
X430Y566D02*
X430Y809D01*
D02*
X530Y566D02*
X530Y809D01*
D02*
X630Y566D02*
X630Y809D01*
D02*
X411Y449D02*
X255Y465D01*
D02*
X255Y465D02*
X250Y707D01*
D02*
X265Y732D02*
X330Y838D01*
D02*
X465Y384D02*
X430Y426D01*
D02*
X930Y638D02*
X980Y688D01*
D02*
X980Y688D02*
X1080Y688D01*
D02*
X1080Y688D02*
X1130Y738D01*
D02*
X1130Y766D02*
X1130Y838D01*
D02*
X930Y538D02*
X930Y609D01*
D02*
X205Y1546D02*
X205Y1721D01*
D02*
X233Y1493D02*
X205Y1546D01*
D02*
X222Y1746D02*
X280Y1838D01*
G04 End of Copper0*
M02*