G04 MADE WITH FRITZING*
G04 WWW.FRITZING.ORG*
G04 DOUBLE SIDED*
G04 HOLES PLATED*
G04 CONTOUR ON CENTER OF CONTOUR VECTOR*
%ASAXBY*%
%FSLAX23Y23*%
%MOIN*%
%OFA0B0*%
%SFA1.0B1.0*%
%ADD10R,1.968500X1.968500X1.952500X1.952500*%
%ADD11C,0.008000*%
%ADD12R,0.001000X0.001000*%
%LNSILK0*%
G90*
G70*
G54D11*
X4Y1965D02*
X1965Y1965D01*
X1965Y4D01*
X4Y4D01*
X4Y1965D01*
D02*
X1410Y1775D02*
X1410Y1645D01*
D02*
X1410Y1645D02*
X1668Y1645D01*
D02*
X1668Y1645D02*
X1668Y1775D01*
D02*
X1668Y1775D02*
X1410Y1775D01*
G36*
X1326Y1715D02*
X1326Y1713D01*
X1327Y1713D01*
X1327Y1711D01*
X1327Y1711D01*
X1327Y1710D01*
X1328Y1710D01*
X1328Y1708D01*
X1329Y1708D01*
X1329Y1706D01*
X1329Y1706D01*
X1329Y1705D01*
X1330Y1705D01*
X1330Y1703D01*
X1331Y1703D01*
X1331Y1702D01*
X1331Y1702D01*
X1331Y1700D01*
X1332Y1700D01*
X1332Y1698D01*
X1333Y1698D01*
X1333Y1697D01*
X1333Y1697D01*
X1333Y1695D01*
X1334Y1695D01*
X1334Y1694D01*
X1335Y1694D01*
X1335Y1692D01*
X1335Y1692D01*
X1335Y1690D01*
X1336Y1690D01*
X1336Y1689D01*
X1337Y1689D01*
X1337Y1688D01*
X1338Y1688D01*
X1338Y1686D01*
X1338Y1686D01*
X1338Y1684D01*
X1339Y1684D01*
X1339Y1682D01*
X1340Y1682D01*
X1340Y1681D01*
X1340Y1681D01*
X1340Y1679D01*
X1341Y1679D01*
X1341Y1677D01*
X1342Y1677D01*
X1342Y1676D01*
X1342Y1676D01*
X1342Y1675D01*
X1343Y1675D01*
X1343Y1673D01*
X1344Y1673D01*
X1344Y1673D01*
X1344Y1673D01*
X1344Y1671D01*
X1345Y1671D01*
X1345Y1669D01*
X1346Y1669D01*
X1346Y1667D01*
X1346Y1667D01*
X1346Y1665D01*
X1347Y1665D01*
X1347Y1663D01*
X1348Y1663D01*
X1348Y1661D01*
X1348Y1661D01*
X1348Y1660D01*
X1349Y1660D01*
X1349Y1658D01*
X1350Y1658D01*
X1350Y1657D01*
X1350Y1657D01*
X1350Y1655D01*
X1351Y1655D01*
X1351Y1653D01*
X1352Y1653D01*
X1352Y1651D01*
X1352Y1651D01*
X1352Y1649D01*
X1353Y1649D01*
X1353Y1648D01*
X1354Y1648D01*
X1354Y1646D01*
X1354Y1646D01*
X1354Y1645D01*
X1306Y1645D01*
X1306Y1646D01*
X1308Y1646D01*
X1308Y1646D01*
X1310Y1646D01*
X1310Y1647D01*
X1311Y1647D01*
X1311Y1648D01*
X1313Y1648D01*
X1313Y1648D01*
X1315Y1648D01*
X1315Y1649D01*
X1317Y1649D01*
X1317Y1650D01*
X1318Y1650D01*
X1318Y1650D01*
X1321Y1650D01*
X1321Y1651D01*
X1323Y1651D01*
X1323Y1652D01*
X1324Y1652D01*
X1324Y1652D01*
X1325Y1652D01*
X1325Y1653D01*
X1325Y1653D01*
X1325Y1715D01*
X1326Y1715D01*
G37*
D02*
G36*
X1304Y1715D02*
X1304Y1696D01*
X1259Y1696D01*
X1259Y1695D01*
X1257Y1695D01*
X1257Y1694D01*
X1255Y1694D01*
X1255Y1694D01*
X1253Y1694D01*
X1253Y1693D01*
X1252Y1693D01*
X1252Y1692D01*
X1250Y1692D01*
X1250Y1692D01*
X1248Y1692D01*
X1248Y1691D01*
X1247Y1691D01*
X1247Y1690D01*
X1245Y1690D01*
X1245Y1690D01*
X1244Y1690D01*
X1244Y1689D01*
X1242Y1689D01*
X1242Y1688D01*
X1241Y1688D01*
X1241Y1688D01*
X1240Y1688D01*
X1240Y1687D01*
X1237Y1687D01*
X1237Y1686D01*
X1236Y1686D01*
X1236Y1686D01*
X1234Y1686D01*
X1234Y1685D01*
X1232Y1685D01*
X1232Y1684D01*
X1231Y1684D01*
X1231Y1684D01*
X1229Y1684D01*
X1229Y1683D01*
X1228Y1683D01*
X1228Y1682D01*
X1226Y1682D01*
X1226Y1681D01*
X1224Y1681D01*
X1224Y1681D01*
X1223Y1681D01*
X1223Y1680D01*
X1222Y1680D01*
X1222Y1679D01*
X1220Y1679D01*
X1220Y1679D01*
X1219Y1679D01*
X1219Y1677D01*
X1219Y1677D01*
X1219Y1675D01*
X1220Y1675D01*
X1220Y1673D01*
X1221Y1673D01*
X1221Y1672D01*
X1222Y1672D01*
X1222Y1671D01*
X1222Y1671D01*
X1222Y1669D01*
X1223Y1669D01*
X1223Y1667D01*
X1224Y1667D01*
X1224Y1664D01*
X1224Y1664D01*
X1224Y1663D01*
X1225Y1663D01*
X1225Y1661D01*
X1226Y1661D01*
X1226Y1659D01*
X1226Y1659D01*
X1226Y1658D01*
X1227Y1658D01*
X1227Y1657D01*
X1228Y1657D01*
X1228Y1655D01*
X1228Y1655D01*
X1228Y1653D01*
X1229Y1653D01*
X1229Y1652D01*
X1230Y1652D01*
X1230Y1650D01*
X1230Y1650D01*
X1230Y1648D01*
X1231Y1648D01*
X1231Y1647D01*
X1232Y1647D01*
X1232Y1645D01*
X1232Y1645D01*
X1232Y1644D01*
X1233Y1644D01*
X1233Y1642D01*
X1234Y1642D01*
X1234Y1640D01*
X1234Y1640D01*
X1234Y1639D01*
X1235Y1639D01*
X1235Y1637D01*
X1236Y1637D01*
X1236Y1636D01*
X1236Y1636D01*
X1236Y1634D01*
X1237Y1634D01*
X1237Y1632D01*
X1238Y1632D01*
X1238Y1631D01*
X1238Y1631D01*
X1238Y1630D01*
X1239Y1630D01*
X1239Y1629D01*
X1240Y1629D01*
X1240Y1628D01*
X1240Y1628D01*
X1240Y1626D01*
X1241Y1626D01*
X1241Y1624D01*
X1242Y1624D01*
X1242Y1623D01*
X1242Y1623D01*
X1242Y1621D01*
X1243Y1621D01*
X1243Y1619D01*
X1203Y1619D01*
X1203Y1715D01*
X1304Y1715D01*
G37*
D02*
G36*
X1304Y1696D02*
X1304Y1645D01*
X1269Y1645D01*
X1269Y1647D01*
X1268Y1647D01*
X1268Y1651D01*
X1267Y1651D01*
X1267Y1655D01*
X1267Y1655D01*
X1267Y1659D01*
X1266Y1659D01*
X1266Y1662D01*
X1265Y1662D01*
X1265Y1666D01*
X1265Y1666D01*
X1265Y1670D01*
X1264Y1670D01*
X1264Y1673D01*
X1263Y1673D01*
X1263Y1681D01*
X1263Y1681D01*
X1263Y1685D01*
X1262Y1685D01*
X1262Y1689D01*
X1261Y1689D01*
X1261Y1692D01*
X1261Y1692D01*
X1261Y1696D01*
X1304Y1696D01*
G37*
D02*
G36*
X1355Y1645D02*
X1355Y1644D01*
X1269Y1644D01*
X1269Y1645D01*
X1355Y1645D01*
G37*
D02*
G36*
X1355Y1645D02*
X1355Y1644D01*
X1269Y1644D01*
X1269Y1645D01*
X1355Y1645D01*
G37*
D02*
G36*
X1355Y1644D02*
X1355Y1643D01*
X1356Y1643D01*
X1356Y1642D01*
X1356Y1642D01*
X1356Y1640D01*
X1357Y1640D01*
X1357Y1638D01*
X1358Y1638D01*
X1358Y1637D01*
X1358Y1637D01*
X1358Y1635D01*
X1359Y1635D01*
X1359Y1634D01*
X1360Y1634D01*
X1360Y1632D01*
X1360Y1632D01*
X1360Y1630D01*
X1361Y1630D01*
X1361Y1629D01*
X1362Y1629D01*
X1362Y1627D01*
X1362Y1627D01*
X1362Y1626D01*
X1363Y1626D01*
X1363Y1623D01*
X1364Y1623D01*
X1364Y1622D01*
X1364Y1622D01*
X1364Y1620D01*
X1365Y1620D01*
X1365Y1619D01*
X1244Y1619D01*
X1244Y1620D01*
X1246Y1620D01*
X1246Y1621D01*
X1248Y1621D01*
X1248Y1621D01*
X1249Y1621D01*
X1249Y1622D01*
X1251Y1622D01*
X1251Y1623D01*
X1253Y1623D01*
X1253Y1623D01*
X1254Y1623D01*
X1254Y1624D01*
X1256Y1624D01*
X1256Y1625D01*
X1257Y1625D01*
X1257Y1626D01*
X1259Y1626D01*
X1259Y1626D01*
X1261Y1626D01*
X1261Y1627D01*
X1263Y1627D01*
X1263Y1628D01*
X1264Y1628D01*
X1264Y1628D01*
X1265Y1628D01*
X1265Y1629D01*
X1267Y1629D01*
X1267Y1630D01*
X1269Y1630D01*
X1269Y1630D01*
X1271Y1630D01*
X1271Y1631D01*
X1271Y1631D01*
X1271Y1632D01*
X1271Y1632D01*
X1271Y1636D01*
X1270Y1636D01*
X1270Y1640D01*
X1269Y1640D01*
X1269Y1643D01*
X1269Y1643D01*
X1269Y1644D01*
X1355Y1644D01*
G37*
D02*
G36*
X1365Y1619D02*
X1365Y1619D01*
X1203Y1619D01*
X1203Y1619D01*
X1365Y1619D01*
G37*
D02*
G36*
X1365Y1619D02*
X1365Y1619D01*
X1203Y1619D01*
X1203Y1619D01*
X1365Y1619D01*
G37*
D02*
G36*
X1366Y1619D02*
X1366Y1617D01*
X1367Y1617D01*
X1367Y1616D01*
X1367Y1616D01*
X1367Y1614D01*
X1368Y1614D01*
X1368Y1613D01*
X1304Y1613D01*
X1304Y1454D01*
X1303Y1454D01*
X1303Y1456D01*
X1302Y1456D01*
X1302Y1460D01*
X1302Y1460D01*
X1302Y1463D01*
X1301Y1463D01*
X1301Y1464D01*
X1300Y1464D01*
X1300Y1468D01*
X1300Y1468D01*
X1300Y1471D01*
X1299Y1471D01*
X1299Y1475D01*
X1298Y1475D01*
X1298Y1479D01*
X1298Y1479D01*
X1298Y1483D01*
X1297Y1483D01*
X1297Y1487D01*
X1296Y1487D01*
X1296Y1491D01*
X1296Y1491D01*
X1296Y1495D01*
X1295Y1495D01*
X1295Y1499D01*
X1294Y1499D01*
X1294Y1502D01*
X1294Y1502D01*
X1294Y1506D01*
X1293Y1506D01*
X1293Y1510D01*
X1292Y1510D01*
X1292Y1514D01*
X1292Y1514D01*
X1292Y1519D01*
X1291Y1519D01*
X1291Y1522D01*
X1290Y1522D01*
X1290Y1526D01*
X1290Y1526D01*
X1290Y1530D01*
X1289Y1530D01*
X1289Y1534D01*
X1288Y1534D01*
X1288Y1538D01*
X1288Y1538D01*
X1288Y1542D01*
X1287Y1542D01*
X1287Y1545D01*
X1286Y1545D01*
X1286Y1549D01*
X1286Y1549D01*
X1286Y1553D01*
X1285Y1553D01*
X1285Y1557D01*
X1284Y1557D01*
X1284Y1564D01*
X1284Y1564D01*
X1284Y1568D01*
X1283Y1568D01*
X1283Y1572D01*
X1282Y1572D01*
X1282Y1576D01*
X1282Y1576D01*
X1282Y1579D01*
X1281Y1579D01*
X1281Y1583D01*
X1280Y1583D01*
X1280Y1587D01*
X1279Y1587D01*
X1279Y1590D01*
X1278Y1590D01*
X1278Y1594D01*
X1277Y1594D01*
X1277Y1598D01*
X1277Y1598D01*
X1277Y1602D01*
X1276Y1602D01*
X1276Y1606D01*
X1275Y1606D01*
X1275Y1609D01*
X1275Y1609D01*
X1275Y1613D01*
X1203Y1613D01*
X1203Y1619D01*
X1366Y1619D01*
G37*
D02*
G36*
X1188Y1713D02*
X1188Y1474D01*
X1145Y1474D01*
X1145Y1475D01*
X1145Y1475D01*
X1145Y1480D01*
X1146Y1480D01*
X1146Y1483D01*
X1147Y1483D01*
X1147Y1487D01*
X1147Y1487D01*
X1147Y1491D01*
X1148Y1491D01*
X1148Y1496D01*
X1149Y1496D01*
X1149Y1499D01*
X1149Y1499D01*
X1149Y1503D01*
X1150Y1503D01*
X1150Y1507D01*
X1151Y1507D01*
X1151Y1511D01*
X1151Y1511D01*
X1151Y1514D01*
X1152Y1514D01*
X1152Y1518D01*
X1153Y1518D01*
X1153Y1521D01*
X1153Y1521D01*
X1153Y1525D01*
X1154Y1525D01*
X1154Y1529D01*
X1155Y1529D01*
X1155Y1530D01*
X1155Y1530D01*
X1155Y1532D01*
X1156Y1532D01*
X1156Y1536D01*
X1157Y1536D01*
X1157Y1541D01*
X1157Y1541D01*
X1157Y1545D01*
X1158Y1545D01*
X1158Y1549D01*
X1159Y1549D01*
X1159Y1553D01*
X1159Y1553D01*
X1159Y1557D01*
X1160Y1557D01*
X1160Y1560D01*
X1161Y1560D01*
X1161Y1564D01*
X1161Y1564D01*
X1161Y1572D01*
X1162Y1572D01*
X1162Y1576D01*
X1163Y1576D01*
X1163Y1580D01*
X1164Y1580D01*
X1164Y1583D01*
X1164Y1583D01*
X1164Y1587D01*
X1165Y1587D01*
X1165Y1590D01*
X1166Y1590D01*
X1166Y1594D01*
X1166Y1594D01*
X1166Y1598D01*
X1167Y1598D01*
X1167Y1602D01*
X1168Y1602D01*
X1168Y1606D01*
X1168Y1606D01*
X1168Y1609D01*
X1169Y1609D01*
X1169Y1613D01*
X1170Y1613D01*
X1170Y1617D01*
X1170Y1617D01*
X1170Y1621D01*
X1171Y1621D01*
X1171Y1625D01*
X1172Y1625D01*
X1172Y1628D01*
X1172Y1628D01*
X1172Y1632D01*
X1173Y1632D01*
X1173Y1636D01*
X1174Y1636D01*
X1174Y1640D01*
X1174Y1640D01*
X1174Y1643D01*
X1175Y1643D01*
X1175Y1647D01*
X1176Y1647D01*
X1176Y1650D01*
X1177Y1650D01*
X1177Y1655D01*
X1178Y1655D01*
X1178Y1659D01*
X1178Y1659D01*
X1178Y1662D01*
X1179Y1662D01*
X1179Y1666D01*
X1180Y1666D01*
X1180Y1670D01*
X1180Y1670D01*
X1180Y1673D01*
X1181Y1673D01*
X1181Y1677D01*
X1182Y1677D01*
X1182Y1681D01*
X1182Y1681D01*
X1182Y1685D01*
X1182Y1685D01*
X1182Y1686D01*
X1182Y1686D01*
X1182Y1689D01*
X1183Y1689D01*
X1183Y1693D01*
X1184Y1693D01*
X1184Y1697D01*
X1184Y1697D01*
X1184Y1700D01*
X1185Y1700D01*
X1185Y1704D01*
X1186Y1704D01*
X1186Y1708D01*
X1186Y1708D01*
X1186Y1713D01*
X1187Y1713D01*
X1187Y1713D01*
X1188Y1713D01*
G37*
D02*
G36*
X1088Y1500D02*
X1088Y1499D01*
X1089Y1499D01*
X1089Y1499D01*
X1091Y1499D01*
X1091Y1498D01*
X1093Y1498D01*
X1093Y1497D01*
X1095Y1497D01*
X1095Y1497D01*
X1096Y1497D01*
X1096Y1496D01*
X1097Y1496D01*
X1097Y1495D01*
X1099Y1495D01*
X1099Y1495D01*
X1100Y1495D01*
X1100Y1494D01*
X1101Y1494D01*
X1101Y1493D01*
X1103Y1493D01*
X1103Y1493D01*
X1104Y1493D01*
X1104Y1492D01*
X1106Y1492D01*
X1106Y1491D01*
X1107Y1491D01*
X1107Y1491D01*
X1108Y1491D01*
X1108Y1490D01*
X1110Y1490D01*
X1110Y1489D01*
X1111Y1489D01*
X1111Y1489D01*
X1113Y1489D01*
X1113Y1488D01*
X1115Y1488D01*
X1115Y1487D01*
X1116Y1487D01*
X1116Y1487D01*
X1118Y1487D01*
X1118Y1486D01*
X1119Y1486D01*
X1119Y1485D01*
X1120Y1485D01*
X1120Y1485D01*
X1122Y1485D01*
X1122Y1484D01*
X1122Y1484D01*
X1122Y1483D01*
X1124Y1483D01*
X1124Y1483D01*
X1125Y1483D01*
X1125Y1482D01*
X1127Y1482D01*
X1127Y1481D01*
X1128Y1481D01*
X1128Y1481D01*
X1130Y1481D01*
X1130Y1480D01*
X1131Y1480D01*
X1131Y1479D01*
X1132Y1479D01*
X1132Y1478D01*
X1135Y1478D01*
X1135Y1478D01*
X1137Y1478D01*
X1137Y1477D01*
X1138Y1477D01*
X1138Y1476D01*
X1139Y1476D01*
X1139Y1476D01*
X1141Y1476D01*
X1141Y1475D01*
X1142Y1475D01*
X1142Y1474D01*
X1143Y1474D01*
X1143Y1474D01*
X1087Y1474D01*
X1087Y1500D01*
X1088Y1500D01*
G37*
D02*
G36*
X1188Y1474D02*
X1188Y1473D01*
X1087Y1473D01*
X1087Y1474D01*
X1188Y1474D01*
G37*
D02*
G36*
X1188Y1474D02*
X1188Y1473D01*
X1087Y1473D01*
X1087Y1474D01*
X1188Y1474D01*
G37*
D02*
G36*
X1188Y1473D02*
X1188Y1453D01*
X1087Y1453D01*
X1087Y1473D01*
X1188Y1473D01*
G37*
D02*
G36*
X1013Y1713D02*
X1013Y1713D01*
X1014Y1713D01*
X1014Y1708D01*
X1014Y1708D01*
X1014Y1704D01*
X1015Y1704D01*
X1015Y1700D01*
X1016Y1700D01*
X1016Y1696D01*
X1017Y1696D01*
X1017Y1692D01*
X1017Y1692D01*
X1017Y1688D01*
X1018Y1688D01*
X1018Y1685D01*
X1019Y1685D01*
X1019Y1681D01*
X1019Y1681D01*
X1019Y1677D01*
X1020Y1677D01*
X1020Y1670D01*
X1021Y1670D01*
X1021Y1667D01*
X1021Y1667D01*
X1021Y1663D01*
X1022Y1663D01*
X1022Y1659D01*
X1023Y1659D01*
X1023Y1655D01*
X1023Y1655D01*
X1023Y1651D01*
X1024Y1651D01*
X1024Y1648D01*
X1025Y1648D01*
X1025Y1643D01*
X1025Y1643D01*
X1025Y1640D01*
X1026Y1640D01*
X1026Y1636D01*
X1027Y1636D01*
X1027Y1632D01*
X1027Y1632D01*
X1027Y1628D01*
X1028Y1628D01*
X1028Y1623D01*
X1029Y1623D01*
X1029Y1619D01*
X1030Y1619D01*
X1030Y1615D01*
X1031Y1615D01*
X1031Y1611D01*
X1031Y1611D01*
X1031Y1608D01*
X1032Y1608D01*
X1032Y1604D01*
X1033Y1604D01*
X1033Y1600D01*
X1033Y1600D01*
X1033Y1597D01*
X1034Y1597D01*
X1034Y1592D01*
X1035Y1592D01*
X1035Y1589D01*
X1035Y1589D01*
X1035Y1585D01*
X1036Y1585D01*
X1036Y1582D01*
X1037Y1582D01*
X1037Y1578D01*
X1037Y1578D01*
X1037Y1574D01*
X1038Y1574D01*
X1038Y1570D01*
X1039Y1570D01*
X1039Y1567D01*
X1039Y1567D01*
X1039Y1563D01*
X1040Y1563D01*
X1040Y1555D01*
X1041Y1555D01*
X1041Y1551D01*
X1041Y1551D01*
X1041Y1548D01*
X1042Y1548D01*
X1042Y1544D01*
X1043Y1544D01*
X1043Y1541D01*
X1043Y1541D01*
X1043Y1536D01*
X1044Y1536D01*
X1044Y1532D01*
X1045Y1532D01*
X1045Y1529D01*
X1045Y1529D01*
X1045Y1525D01*
X1046Y1525D01*
X1046Y1522D01*
X1047Y1522D01*
X1047Y1518D01*
X1048Y1518D01*
X1048Y1514D01*
X1048Y1514D01*
X1048Y1510D01*
X1049Y1510D01*
X1049Y1506D01*
X1050Y1506D01*
X1050Y1503D01*
X1051Y1503D01*
X1051Y1499D01*
X1052Y1499D01*
X1052Y1495D01*
X1052Y1495D01*
X1052Y1491D01*
X1053Y1491D01*
X1053Y1487D01*
X1054Y1487D01*
X1054Y1484D01*
X1054Y1484D01*
X1054Y1480D01*
X1055Y1480D01*
X1055Y1476D01*
X1056Y1476D01*
X1056Y1472D01*
X1056Y1472D01*
X1056Y1468D01*
X1057Y1468D01*
X1057Y1464D01*
X1058Y1464D01*
X1058Y1461D01*
X1058Y1461D01*
X1058Y1457D01*
X1059Y1457D01*
X1059Y1453D01*
X967Y1453D01*
X967Y1454D01*
X967Y1454D01*
X967Y1456D01*
X967Y1456D01*
X967Y1459D01*
X968Y1459D01*
X968Y1462D01*
X969Y1462D01*
X969Y1467D01*
X969Y1467D01*
X969Y1471D01*
X970Y1471D01*
X970Y1474D01*
X971Y1474D01*
X971Y1479D01*
X971Y1479D01*
X971Y1483D01*
X972Y1483D01*
X972Y1486D01*
X973Y1486D01*
X973Y1490D01*
X973Y1490D01*
X973Y1493D01*
X974Y1493D01*
X974Y1497D01*
X975Y1497D01*
X975Y1501D01*
X975Y1501D01*
X975Y1505D01*
X976Y1505D01*
X976Y1509D01*
X977Y1509D01*
X977Y1512D01*
X977Y1512D01*
X977Y1516D01*
X978Y1516D01*
X978Y1520D01*
X979Y1520D01*
X979Y1527D01*
X979Y1527D01*
X979Y1530D01*
X980Y1530D01*
X980Y1534D01*
X981Y1534D01*
X981Y1539D01*
X981Y1539D01*
X981Y1542D01*
X982Y1542D01*
X982Y1546D01*
X983Y1546D01*
X983Y1549D01*
X983Y1549D01*
X983Y1553D01*
X984Y1553D01*
X984Y1557D01*
X985Y1557D01*
X985Y1561D01*
X985Y1561D01*
X985Y1565D01*
X986Y1565D01*
X986Y1569D01*
X987Y1569D01*
X987Y1572D01*
X987Y1572D01*
X987Y1573D01*
X988Y1573D01*
X988Y1576D01*
X989Y1576D01*
X989Y1580D01*
X990Y1580D01*
X990Y1584D01*
X990Y1584D01*
X990Y1587D01*
X991Y1587D01*
X991Y1591D01*
X992Y1591D01*
X992Y1594D01*
X992Y1594D01*
X992Y1599D01*
X993Y1599D01*
X993Y1603D01*
X994Y1603D01*
X994Y1607D01*
X994Y1607D01*
X994Y1610D01*
X995Y1610D01*
X995Y1614D01*
X996Y1614D01*
X996Y1617D01*
X996Y1617D01*
X996Y1621D01*
X997Y1621D01*
X997Y1625D01*
X998Y1625D01*
X998Y1629D01*
X998Y1629D01*
X998Y1633D01*
X999Y1633D01*
X999Y1637D01*
X1000Y1637D01*
X1000Y1644D01*
X1000Y1644D01*
X1000Y1648D01*
X1001Y1648D01*
X1001Y1652D01*
X1002Y1652D01*
X1002Y1655D01*
X1002Y1655D01*
X1002Y1659D01*
X1003Y1659D01*
X1003Y1663D01*
X1004Y1663D01*
X1004Y1666D01*
X1004Y1666D01*
X1004Y1671D01*
X1005Y1671D01*
X1005Y1675D01*
X1006Y1675D01*
X1006Y1679D01*
X1006Y1679D01*
X1006Y1683D01*
X1007Y1683D01*
X1007Y1688D01*
X1008Y1688D01*
X1008Y1689D01*
X1008Y1689D01*
X1008Y1692D01*
X1009Y1692D01*
X1009Y1695D01*
X1010Y1695D01*
X1010Y1699D01*
X1010Y1699D01*
X1010Y1703D01*
X1011Y1703D01*
X1011Y1707D01*
X1012Y1707D01*
X1012Y1710D01*
X1012Y1710D01*
X1012Y1713D01*
X1013Y1713D01*
G37*
D02*
G36*
X938Y1713D02*
X938Y1510D01*
X899Y1510D01*
X899Y1510D01*
X898Y1510D01*
X898Y1509D01*
X896Y1509D01*
X896Y1508D01*
X895Y1508D01*
X895Y1507D01*
X893Y1507D01*
X893Y1507D01*
X892Y1507D01*
X892Y1506D01*
X890Y1506D01*
X890Y1505D01*
X888Y1505D01*
X888Y1505D01*
X887Y1505D01*
X887Y1504D01*
X886Y1504D01*
X886Y1503D01*
X884Y1503D01*
X884Y1503D01*
X882Y1503D01*
X882Y1502D01*
X880Y1502D01*
X880Y1501D01*
X878Y1501D01*
X878Y1501D01*
X878Y1501D01*
X878Y1500D01*
X876Y1500D01*
X876Y1499D01*
X874Y1499D01*
X874Y1499D01*
X872Y1499D01*
X872Y1498D01*
X871Y1498D01*
X871Y1497D01*
X869Y1497D01*
X869Y1497D01*
X867Y1497D01*
X867Y1496D01*
X866Y1496D01*
X866Y1495D01*
X865Y1495D01*
X865Y1495D01*
X863Y1495D01*
X863Y1494D01*
X861Y1494D01*
X861Y1493D01*
X859Y1493D01*
X859Y1493D01*
X857Y1493D01*
X857Y1492D01*
X856Y1492D01*
X856Y1491D01*
X855Y1491D01*
X855Y1491D01*
X853Y1491D01*
X853Y1490D01*
X852Y1490D01*
X852Y1489D01*
X853Y1489D01*
X853Y1489D01*
X854Y1489D01*
X854Y1488D01*
X855Y1488D01*
X855Y1487D01*
X857Y1487D01*
X857Y1487D01*
X858Y1487D01*
X858Y1486D01*
X860Y1486D01*
X860Y1485D01*
X861Y1485D01*
X861Y1485D01*
X863Y1485D01*
X863Y1484D01*
X865Y1484D01*
X865Y1483D01*
X867Y1483D01*
X867Y1483D01*
X868Y1483D01*
X868Y1482D01*
X870Y1482D01*
X870Y1481D01*
X872Y1481D01*
X872Y1481D01*
X874Y1481D01*
X874Y1480D01*
X875Y1480D01*
X875Y1479D01*
X876Y1479D01*
X876Y1478D01*
X878Y1478D01*
X878Y1478D01*
X879Y1478D01*
X879Y1477D01*
X880Y1477D01*
X880Y1476D01*
X882Y1476D01*
X882Y1476D01*
X884Y1476D01*
X884Y1475D01*
X886Y1475D01*
X886Y1474D01*
X888Y1474D01*
X888Y1474D01*
X890Y1474D01*
X890Y1473D01*
X891Y1473D01*
X891Y1472D01*
X892Y1472D01*
X892Y1472D01*
X826Y1472D01*
X826Y1526D01*
X904Y1526D01*
X904Y1529D01*
X905Y1529D01*
X905Y1533D01*
X905Y1533D01*
X905Y1536D01*
X906Y1536D01*
X906Y1541D01*
X907Y1541D01*
X907Y1544D01*
X907Y1544D01*
X907Y1547D01*
X908Y1547D01*
X908Y1551D01*
X909Y1551D01*
X909Y1555D01*
X909Y1555D01*
X909Y1559D01*
X910Y1559D01*
X910Y1563D01*
X911Y1563D01*
X911Y1566D01*
X911Y1566D01*
X911Y1570D01*
X912Y1570D01*
X912Y1574D01*
X913Y1574D01*
X913Y1577D01*
X913Y1577D01*
X913Y1582D01*
X914Y1582D01*
X914Y1584D01*
X915Y1584D01*
X915Y1588D01*
X915Y1588D01*
X915Y1592D01*
X916Y1592D01*
X916Y1596D01*
X917Y1596D01*
X917Y1600D01*
X917Y1600D01*
X917Y1603D01*
X918Y1603D01*
X918Y1611D01*
X919Y1611D01*
X919Y1615D01*
X919Y1615D01*
X919Y1619D01*
X920Y1619D01*
X920Y1623D01*
X921Y1623D01*
X921Y1627D01*
X921Y1627D01*
X921Y1630D01*
X922Y1630D01*
X922Y1634D01*
X923Y1634D01*
X923Y1638D01*
X923Y1638D01*
X923Y1642D01*
X924Y1642D01*
X924Y1646D01*
X925Y1646D01*
X925Y1650D01*
X926Y1650D01*
X926Y1653D01*
X927Y1653D01*
X927Y1657D01*
X927Y1657D01*
X927Y1661D01*
X928Y1661D01*
X928Y1665D01*
X929Y1665D01*
X929Y1668D01*
X929Y1668D01*
X929Y1672D01*
X930Y1672D01*
X930Y1676D01*
X931Y1676D01*
X931Y1679D01*
X932Y1679D01*
X932Y1684D01*
X932Y1684D01*
X932Y1688D01*
X933Y1688D01*
X933Y1692D01*
X934Y1692D01*
X934Y1696D01*
X934Y1696D01*
X934Y1700D01*
X935Y1700D01*
X935Y1704D01*
X936Y1704D01*
X936Y1707D01*
X936Y1707D01*
X936Y1711D01*
X937Y1711D01*
X937Y1713D01*
X938Y1713D01*
G37*
D02*
G36*
X938Y1510D02*
X938Y1472D01*
X894Y1472D01*
X894Y1472D01*
X894Y1472D01*
X894Y1476D01*
X895Y1476D01*
X895Y1479D01*
X896Y1479D01*
X896Y1485D01*
X896Y1485D01*
X896Y1487D01*
X897Y1487D01*
X897Y1495D01*
X898Y1495D01*
X898Y1499D01*
X898Y1499D01*
X898Y1502D01*
X899Y1502D01*
X899Y1506D01*
X900Y1506D01*
X900Y1510D01*
X938Y1510D01*
G37*
D02*
G36*
X938Y1472D02*
X938Y1471D01*
X826Y1471D01*
X826Y1472D01*
X938Y1472D01*
G37*
D02*
G36*
X938Y1472D02*
X938Y1471D01*
X826Y1471D01*
X826Y1472D01*
X938Y1472D01*
G37*
D02*
G36*
X938Y1471D02*
X938Y1453D01*
X826Y1453D01*
X826Y1471D01*
X938Y1471D01*
G37*
D02*
G54D12*
X1337Y1845D02*
X1340Y1845D01*
X1361Y1845D02*
X1364Y1845D01*
X1389Y1845D02*
X1392Y1845D01*
X1336Y1844D02*
X1341Y1844D01*
X1360Y1844D02*
X1365Y1844D01*
X1388Y1844D02*
X1393Y1844D01*
X1336Y1843D02*
X1341Y1843D01*
X1360Y1843D02*
X1366Y1843D01*
X1387Y1843D02*
X1393Y1843D01*
X1335Y1842D02*
X1341Y1842D01*
X1360Y1842D02*
X1366Y1842D01*
X1387Y1842D02*
X1393Y1842D01*
X1335Y1841D02*
X1341Y1841D01*
X1360Y1841D02*
X1366Y1841D01*
X1387Y1841D02*
X1393Y1841D01*
X1335Y1840D02*
X1341Y1840D01*
X1360Y1840D02*
X1366Y1840D01*
X1387Y1840D02*
X1393Y1840D01*
X1316Y1839D02*
X1319Y1839D01*
X1335Y1839D02*
X1341Y1839D01*
X1360Y1839D02*
X1366Y1839D01*
X1387Y1839D02*
X1393Y1839D01*
X1315Y1838D02*
X1320Y1838D01*
X1335Y1838D02*
X1341Y1838D01*
X1360Y1838D02*
X1366Y1838D01*
X1387Y1838D02*
X1393Y1838D01*
X1315Y1837D02*
X1321Y1837D01*
X1335Y1837D02*
X1341Y1837D01*
X1360Y1837D02*
X1366Y1837D01*
X1387Y1837D02*
X1393Y1837D01*
X1315Y1836D02*
X1321Y1836D01*
X1335Y1836D02*
X1341Y1836D01*
X1360Y1836D02*
X1366Y1836D01*
X1387Y1836D02*
X1393Y1836D01*
X1315Y1835D02*
X1321Y1835D01*
X1335Y1835D02*
X1341Y1835D01*
X1360Y1835D02*
X1366Y1835D01*
X1387Y1835D02*
X1393Y1835D01*
X1315Y1834D02*
X1321Y1834D01*
X1335Y1834D02*
X1341Y1834D01*
X1360Y1834D02*
X1366Y1834D01*
X1387Y1834D02*
X1393Y1834D01*
X1315Y1833D02*
X1321Y1833D01*
X1335Y1833D02*
X1341Y1833D01*
X1360Y1833D02*
X1366Y1833D01*
X1387Y1833D02*
X1393Y1833D01*
X1315Y1832D02*
X1321Y1832D01*
X1335Y1832D02*
X1341Y1832D01*
X1360Y1832D02*
X1366Y1832D01*
X1387Y1832D02*
X1393Y1832D01*
X1315Y1831D02*
X1321Y1831D01*
X1335Y1831D02*
X1341Y1831D01*
X1360Y1831D02*
X1366Y1831D01*
X1387Y1831D02*
X1393Y1831D01*
X1315Y1830D02*
X1321Y1830D01*
X1335Y1830D02*
X1341Y1830D01*
X1360Y1830D02*
X1366Y1830D01*
X1387Y1830D02*
X1393Y1830D01*
X1315Y1829D02*
X1321Y1829D01*
X1335Y1829D02*
X1341Y1829D01*
X1360Y1829D02*
X1366Y1829D01*
X1387Y1829D02*
X1393Y1829D01*
X1315Y1828D02*
X1321Y1828D01*
X1335Y1828D02*
X1341Y1828D01*
X1360Y1828D02*
X1366Y1828D01*
X1387Y1828D02*
X1393Y1828D01*
X1315Y1827D02*
X1321Y1827D01*
X1335Y1827D02*
X1341Y1827D01*
X1360Y1827D02*
X1366Y1827D01*
X1387Y1827D02*
X1393Y1827D01*
X1315Y1826D02*
X1321Y1826D01*
X1335Y1826D02*
X1341Y1826D01*
X1360Y1826D02*
X1366Y1826D01*
X1387Y1826D02*
X1393Y1826D01*
X1315Y1825D02*
X1321Y1825D01*
X1335Y1825D02*
X1341Y1825D01*
X1360Y1825D02*
X1366Y1825D01*
X1387Y1825D02*
X1393Y1825D01*
X1315Y1824D02*
X1321Y1824D01*
X1335Y1824D02*
X1341Y1824D01*
X1360Y1824D02*
X1366Y1824D01*
X1387Y1824D02*
X1393Y1824D01*
X1315Y1823D02*
X1321Y1823D01*
X1335Y1823D02*
X1341Y1823D01*
X1360Y1823D02*
X1366Y1823D01*
X1387Y1823D02*
X1393Y1823D01*
X1315Y1822D02*
X1321Y1822D01*
X1335Y1822D02*
X1341Y1822D01*
X1360Y1822D02*
X1366Y1822D01*
X1387Y1822D02*
X1393Y1822D01*
X1315Y1821D02*
X1321Y1821D01*
X1335Y1821D02*
X1341Y1821D01*
X1360Y1821D02*
X1366Y1821D01*
X1387Y1821D02*
X1393Y1821D01*
X1315Y1820D02*
X1321Y1820D01*
X1335Y1820D02*
X1341Y1820D01*
X1360Y1820D02*
X1366Y1820D01*
X1387Y1820D02*
X1393Y1820D01*
X1315Y1819D02*
X1321Y1819D01*
X1335Y1819D02*
X1341Y1819D01*
X1360Y1819D02*
X1366Y1819D01*
X1387Y1819D02*
X1393Y1819D01*
X1315Y1818D02*
X1321Y1818D01*
X1335Y1818D02*
X1341Y1818D01*
X1360Y1818D02*
X1366Y1818D01*
X1387Y1818D02*
X1393Y1818D01*
X1315Y1817D02*
X1321Y1817D01*
X1335Y1817D02*
X1341Y1817D01*
X1360Y1817D02*
X1366Y1817D01*
X1387Y1817D02*
X1393Y1817D01*
X1313Y1816D02*
X1341Y1816D01*
X1360Y1816D02*
X1366Y1816D01*
X1387Y1816D02*
X1393Y1816D01*
X1312Y1815D02*
X1341Y1815D01*
X1360Y1815D02*
X1366Y1815D01*
X1387Y1815D02*
X1393Y1815D01*
X1311Y1814D02*
X1341Y1814D01*
X1360Y1814D02*
X1366Y1814D01*
X1387Y1814D02*
X1393Y1814D01*
X1311Y1813D02*
X1341Y1813D01*
X1360Y1813D02*
X1366Y1813D01*
X1387Y1813D02*
X1393Y1813D01*
X1311Y1812D02*
X1341Y1812D01*
X1360Y1812D02*
X1366Y1812D01*
X1387Y1812D02*
X1393Y1812D01*
X1312Y1811D02*
X1341Y1811D01*
X1360Y1811D02*
X1366Y1811D01*
X1387Y1811D02*
X1393Y1811D01*
X1313Y1810D02*
X1341Y1810D01*
X1360Y1810D02*
X1366Y1810D01*
X1387Y1810D02*
X1393Y1810D01*
X1315Y1809D02*
X1321Y1809D01*
X1360Y1809D02*
X1366Y1809D01*
X1387Y1809D02*
X1393Y1809D01*
X1315Y1808D02*
X1321Y1808D01*
X1360Y1808D02*
X1366Y1808D01*
X1387Y1808D02*
X1393Y1808D01*
X1315Y1807D02*
X1321Y1807D01*
X1360Y1807D02*
X1366Y1807D01*
X1387Y1807D02*
X1393Y1807D01*
X1315Y1806D02*
X1321Y1806D01*
X1360Y1806D02*
X1366Y1806D01*
X1387Y1806D02*
X1393Y1806D01*
X1315Y1805D02*
X1321Y1805D01*
X1360Y1805D02*
X1366Y1805D01*
X1387Y1805D02*
X1393Y1805D01*
X1315Y1804D02*
X1321Y1804D01*
X1360Y1804D02*
X1366Y1804D01*
X1387Y1804D02*
X1393Y1804D01*
X1315Y1803D02*
X1321Y1803D01*
X1360Y1803D02*
X1366Y1803D01*
X1387Y1803D02*
X1393Y1803D01*
X1315Y1802D02*
X1321Y1802D01*
X1360Y1802D02*
X1366Y1802D01*
X1387Y1802D02*
X1393Y1802D01*
X1315Y1801D02*
X1321Y1801D01*
X1360Y1801D02*
X1366Y1801D01*
X1387Y1801D02*
X1393Y1801D01*
X1315Y1800D02*
X1321Y1800D01*
X1360Y1800D02*
X1366Y1800D01*
X1386Y1800D02*
X1393Y1800D01*
X1315Y1799D02*
X1321Y1799D01*
X1360Y1799D02*
X1368Y1799D01*
X1385Y1799D02*
X1393Y1799D01*
X1315Y1798D02*
X1321Y1798D01*
X1360Y1798D02*
X1392Y1798D01*
X1315Y1797D02*
X1321Y1797D01*
X1361Y1797D02*
X1392Y1797D01*
X1315Y1796D02*
X1321Y1796D01*
X1362Y1796D02*
X1391Y1796D01*
X1315Y1795D02*
X1321Y1795D01*
X1362Y1795D02*
X1390Y1795D01*
X1315Y1794D02*
X1320Y1794D01*
X1364Y1794D02*
X1389Y1794D01*
X1315Y1793D02*
X1320Y1793D01*
X1365Y1793D02*
X1388Y1793D01*
X1317Y1792D02*
X1319Y1792D01*
X1367Y1792D02*
X1386Y1792D01*
X1845Y1691D02*
X1870Y1691D01*
X1844Y1690D02*
X1872Y1690D01*
X1842Y1689D02*
X1874Y1689D01*
X1841Y1688D02*
X1875Y1688D01*
X1840Y1687D02*
X1876Y1687D01*
X1839Y1686D02*
X1876Y1686D01*
X1838Y1685D02*
X1877Y1685D01*
X1838Y1684D02*
X1878Y1684D01*
X1837Y1683D02*
X1847Y1683D01*
X1869Y1683D02*
X1879Y1683D01*
X1837Y1682D02*
X1846Y1682D01*
X1870Y1682D02*
X1879Y1682D01*
X1836Y1681D02*
X1845Y1681D01*
X1871Y1681D02*
X1880Y1681D01*
X1836Y1680D02*
X1844Y1680D01*
X1872Y1680D02*
X1880Y1680D01*
X1836Y1679D02*
X1843Y1679D01*
X1872Y1679D02*
X1880Y1679D01*
X1835Y1678D02*
X1843Y1678D01*
X1873Y1678D02*
X1880Y1678D01*
X1835Y1677D02*
X1843Y1677D01*
X1873Y1677D02*
X1880Y1677D01*
X1835Y1676D02*
X1843Y1676D01*
X1873Y1676D02*
X1880Y1676D01*
X1835Y1675D02*
X1843Y1675D01*
X1873Y1675D02*
X1880Y1675D01*
X1835Y1674D02*
X1843Y1674D01*
X1873Y1674D02*
X1880Y1674D01*
X1835Y1673D02*
X1843Y1673D01*
X1873Y1673D02*
X1880Y1673D01*
X1835Y1672D02*
X1843Y1672D01*
X1873Y1672D02*
X1880Y1672D01*
X1835Y1671D02*
X1843Y1671D01*
X1873Y1671D02*
X1880Y1671D01*
X1835Y1670D02*
X1843Y1670D01*
X1873Y1670D02*
X1880Y1670D01*
X1835Y1669D02*
X1843Y1669D01*
X1873Y1669D02*
X1880Y1669D01*
X1836Y1668D02*
X1844Y1668D01*
X1872Y1668D02*
X1880Y1668D01*
X1836Y1667D02*
X1844Y1667D01*
X1871Y1667D02*
X1880Y1667D01*
X1836Y1666D02*
X1845Y1666D01*
X1870Y1666D02*
X1879Y1666D01*
X1837Y1665D02*
X1846Y1665D01*
X1869Y1665D02*
X1879Y1665D01*
X1837Y1664D02*
X1847Y1664D01*
X1869Y1664D02*
X1878Y1664D01*
X1838Y1663D02*
X1848Y1663D01*
X1868Y1663D02*
X1878Y1663D01*
X1839Y1662D02*
X1849Y1662D01*
X1867Y1662D02*
X1877Y1662D01*
X1840Y1661D02*
X1850Y1661D01*
X1866Y1661D02*
X1876Y1661D01*
X1840Y1660D02*
X1852Y1660D01*
X1864Y1660D02*
X1876Y1660D01*
X1837Y1659D02*
X1896Y1659D01*
X1836Y1658D02*
X1897Y1658D01*
X1836Y1657D02*
X1897Y1657D01*
X1835Y1656D02*
X1897Y1656D01*
X1835Y1655D02*
X1897Y1655D01*
X1836Y1654D02*
X1897Y1654D01*
X1836Y1653D02*
X1896Y1653D01*
X1838Y1652D02*
X1895Y1652D01*
X1837Y1632D02*
X1873Y1632D01*
X1836Y1631D02*
X1875Y1631D01*
X1836Y1630D02*
X1876Y1630D01*
X1835Y1629D02*
X1877Y1629D01*
X1836Y1628D02*
X1878Y1628D01*
X1836Y1627D02*
X1879Y1627D01*
X1837Y1626D02*
X1879Y1626D01*
X1839Y1625D02*
X1880Y1625D01*
X1839Y1624D02*
X1847Y1624D01*
X1854Y1624D02*
X1863Y1624D01*
X1870Y1624D02*
X1880Y1624D01*
X1838Y1623D02*
X1847Y1623D01*
X1855Y1623D02*
X1863Y1623D01*
X1872Y1623D02*
X1880Y1623D01*
X1838Y1622D02*
X1846Y1622D01*
X1856Y1622D02*
X1863Y1622D01*
X1873Y1622D02*
X1880Y1622D01*
X1837Y1621D02*
X1845Y1621D01*
X1856Y1621D02*
X1863Y1621D01*
X1873Y1621D02*
X1880Y1621D01*
X1836Y1620D02*
X1845Y1620D01*
X1856Y1620D02*
X1863Y1620D01*
X1873Y1620D02*
X1880Y1620D01*
X1836Y1619D02*
X1844Y1619D01*
X1856Y1619D02*
X1863Y1619D01*
X1873Y1619D02*
X1880Y1619D01*
X1835Y1618D02*
X1844Y1618D01*
X1856Y1618D02*
X1863Y1618D01*
X1873Y1618D02*
X1880Y1618D01*
X1835Y1617D02*
X1843Y1617D01*
X1856Y1617D02*
X1863Y1617D01*
X1873Y1617D02*
X1880Y1617D01*
X1835Y1616D02*
X1843Y1616D01*
X1856Y1616D02*
X1863Y1616D01*
X1873Y1616D02*
X1880Y1616D01*
X1835Y1615D02*
X1843Y1615D01*
X1856Y1615D02*
X1863Y1615D01*
X1873Y1615D02*
X1880Y1615D01*
X1835Y1614D02*
X1843Y1614D01*
X1856Y1614D02*
X1863Y1614D01*
X1873Y1614D02*
X1880Y1614D01*
X1835Y1613D02*
X1843Y1613D01*
X1856Y1613D02*
X1863Y1613D01*
X1873Y1613D02*
X1880Y1613D01*
X1835Y1612D02*
X1843Y1612D01*
X1856Y1612D02*
X1863Y1612D01*
X1873Y1612D02*
X1880Y1612D01*
X1835Y1611D02*
X1843Y1611D01*
X1856Y1611D02*
X1863Y1611D01*
X1873Y1611D02*
X1880Y1611D01*
X1835Y1610D02*
X1843Y1610D01*
X1856Y1610D02*
X1863Y1610D01*
X1873Y1610D02*
X1880Y1610D01*
X1835Y1609D02*
X1843Y1609D01*
X1856Y1609D02*
X1863Y1609D01*
X1873Y1609D02*
X1880Y1609D01*
X1835Y1608D02*
X1843Y1608D01*
X1856Y1608D02*
X1863Y1608D01*
X1873Y1608D02*
X1880Y1608D01*
X1835Y1607D02*
X1843Y1607D01*
X1856Y1607D02*
X1863Y1607D01*
X1873Y1607D02*
X1880Y1607D01*
X1835Y1606D02*
X1843Y1606D01*
X1856Y1606D02*
X1863Y1606D01*
X1873Y1606D02*
X1880Y1606D01*
X1835Y1605D02*
X1843Y1605D01*
X1856Y1605D02*
X1863Y1605D01*
X1873Y1605D02*
X1880Y1605D01*
X1835Y1604D02*
X1843Y1604D01*
X1856Y1604D02*
X1863Y1604D01*
X1873Y1604D02*
X1880Y1604D01*
X1836Y1603D02*
X1843Y1603D01*
X1855Y1603D02*
X1863Y1603D01*
X1874Y1603D02*
X1880Y1603D01*
X1836Y1602D02*
X1844Y1602D01*
X1854Y1602D02*
X1863Y1602D01*
X1875Y1602D02*
X1879Y1602D01*
X1836Y1601D02*
X1862Y1601D01*
X1836Y1600D02*
X1862Y1600D01*
X1837Y1599D02*
X1861Y1599D01*
X1838Y1598D02*
X1861Y1598D01*
X1839Y1597D02*
X1860Y1597D01*
X1840Y1596D02*
X1859Y1596D01*
X1841Y1595D02*
X1858Y1595D01*
X1843Y1594D02*
X1856Y1594D01*
X1848Y1593D02*
X1851Y1593D01*
X1837Y1570D02*
X1841Y1570D01*
X1836Y1569D02*
X1842Y1569D01*
X1836Y1568D02*
X1842Y1568D01*
X1835Y1567D02*
X1842Y1567D01*
X1835Y1566D02*
X1843Y1566D01*
X1835Y1565D02*
X1843Y1565D01*
X1835Y1564D02*
X1843Y1564D01*
X1835Y1563D02*
X1843Y1563D01*
X1835Y1562D02*
X1843Y1562D01*
X1835Y1561D02*
X1843Y1561D01*
X1835Y1560D02*
X1843Y1560D01*
X1835Y1559D02*
X1843Y1559D01*
X1835Y1558D02*
X1896Y1558D01*
X1835Y1557D02*
X1897Y1557D01*
X1835Y1556D02*
X1897Y1556D01*
X1835Y1555D02*
X1897Y1555D01*
X1835Y1554D02*
X1898Y1554D01*
X1835Y1553D02*
X1898Y1553D01*
X1835Y1552D02*
X1898Y1552D01*
X1835Y1551D02*
X1898Y1551D01*
X1835Y1550D02*
X1843Y1550D01*
X1890Y1550D02*
X1898Y1550D01*
X1835Y1549D02*
X1843Y1549D01*
X1890Y1549D02*
X1898Y1549D01*
X1835Y1548D02*
X1843Y1548D01*
X1890Y1548D02*
X1898Y1548D01*
X1835Y1547D02*
X1843Y1547D01*
X1890Y1547D02*
X1898Y1547D01*
X1835Y1546D02*
X1843Y1546D01*
X1890Y1546D02*
X1898Y1546D01*
X1835Y1545D02*
X1843Y1545D01*
X1890Y1545D02*
X1898Y1545D01*
X1835Y1544D02*
X1843Y1544D01*
X1890Y1544D02*
X1898Y1544D01*
X1835Y1543D02*
X1842Y1543D01*
X1890Y1543D02*
X1898Y1543D01*
X1835Y1542D02*
X1842Y1542D01*
X1890Y1542D02*
X1897Y1542D01*
X1836Y1541D02*
X1842Y1541D01*
X1891Y1541D02*
X1897Y1541D01*
X1836Y1540D02*
X1842Y1540D01*
X1891Y1540D02*
X1897Y1540D01*
X1837Y1539D02*
X1840Y1539D01*
X1892Y1539D02*
X1895Y1539D01*
X1870Y1516D02*
X1877Y1516D01*
X1867Y1515D02*
X1879Y1515D01*
X1865Y1514D02*
X1880Y1514D01*
X1862Y1513D02*
X1880Y1513D01*
X1860Y1512D02*
X1880Y1512D01*
X1858Y1511D02*
X1880Y1511D01*
X1856Y1510D02*
X1880Y1510D01*
X1853Y1509D02*
X1879Y1509D01*
X1851Y1508D02*
X1877Y1508D01*
X1849Y1507D02*
X1868Y1507D01*
X1846Y1506D02*
X1866Y1506D01*
X1844Y1505D02*
X1864Y1505D01*
X1842Y1504D02*
X1861Y1504D01*
X1840Y1503D02*
X1859Y1503D01*
X1837Y1502D02*
X1857Y1502D01*
X1835Y1501D02*
X1855Y1501D01*
X1833Y1500D02*
X1852Y1500D01*
X1830Y1499D02*
X1850Y1499D01*
X1828Y1498D02*
X1848Y1498D01*
X1826Y1497D02*
X1846Y1497D01*
X1824Y1496D02*
X1846Y1496D01*
X1821Y1495D02*
X1846Y1495D01*
X1820Y1494D02*
X1847Y1494D01*
X1819Y1493D02*
X1836Y1493D01*
X1839Y1493D02*
X1850Y1493D01*
X1818Y1492D02*
X1834Y1492D01*
X1839Y1492D02*
X1852Y1492D01*
X1818Y1491D02*
X1832Y1491D01*
X1839Y1491D02*
X1854Y1491D01*
X1818Y1490D02*
X1829Y1490D01*
X1839Y1490D02*
X1856Y1490D01*
X1818Y1489D02*
X1827Y1489D01*
X1840Y1489D02*
X1859Y1489D01*
X1818Y1488D02*
X1825Y1488D01*
X1842Y1488D02*
X1861Y1488D01*
X1818Y1487D02*
X1825Y1487D01*
X1844Y1487D02*
X1863Y1487D01*
X1818Y1486D02*
X1825Y1486D01*
X1846Y1486D02*
X1866Y1486D01*
X1818Y1485D02*
X1825Y1485D01*
X1849Y1485D02*
X1868Y1485D01*
X1818Y1484D02*
X1825Y1484D01*
X1851Y1484D02*
X1876Y1484D01*
X1818Y1483D02*
X1825Y1483D01*
X1853Y1483D02*
X1879Y1483D01*
X1818Y1482D02*
X1825Y1482D01*
X1855Y1482D02*
X1880Y1482D01*
X1818Y1481D02*
X1825Y1481D01*
X1858Y1481D02*
X1880Y1481D01*
X1818Y1480D02*
X1825Y1480D01*
X1860Y1480D02*
X1880Y1480D01*
X1818Y1479D02*
X1825Y1479D01*
X1862Y1479D02*
X1880Y1479D01*
X1819Y1478D02*
X1825Y1478D01*
X1864Y1478D02*
X1880Y1478D01*
X1819Y1477D02*
X1824Y1477D01*
X1867Y1477D02*
X1879Y1477D01*
X1821Y1476D02*
X1822Y1476D01*
X1869Y1476D02*
X1877Y1476D01*
X1837Y1456D02*
X1873Y1456D01*
X1836Y1455D02*
X1875Y1455D01*
X1836Y1454D02*
X1876Y1454D01*
X1835Y1453D02*
X1877Y1453D01*
X1835Y1452D02*
X1878Y1452D01*
X1836Y1451D02*
X1879Y1451D01*
X1837Y1450D02*
X1879Y1450D01*
X1838Y1449D02*
X1880Y1449D01*
X1871Y1448D02*
X1880Y1448D01*
X1872Y1447D02*
X1880Y1447D01*
X1873Y1446D02*
X1880Y1446D01*
X1873Y1445D02*
X1880Y1445D01*
X1873Y1444D02*
X1880Y1444D01*
X1873Y1443D02*
X1880Y1443D01*
X1873Y1442D02*
X1880Y1442D01*
X1873Y1441D02*
X1880Y1441D01*
X1873Y1440D02*
X1880Y1440D01*
X1873Y1439D02*
X1880Y1439D01*
X1873Y1438D02*
X1880Y1438D01*
X1872Y1437D02*
X1880Y1437D01*
X1871Y1436D02*
X1880Y1436D01*
X1871Y1435D02*
X1879Y1435D01*
X1870Y1434D02*
X1879Y1434D01*
X1870Y1433D02*
X1878Y1433D01*
X1869Y1432D02*
X1878Y1432D01*
X1868Y1431D02*
X1877Y1431D01*
X1868Y1430D02*
X1876Y1430D01*
X1867Y1429D02*
X1876Y1429D01*
X1866Y1428D02*
X1875Y1428D01*
X1866Y1427D02*
X1874Y1427D01*
X1865Y1426D02*
X1874Y1426D01*
X1838Y1425D02*
X1895Y1425D01*
X1836Y1424D02*
X1896Y1424D01*
X1836Y1423D02*
X1897Y1423D01*
X1835Y1422D02*
X1897Y1422D01*
X1835Y1421D02*
X1897Y1421D01*
X1836Y1420D02*
X1897Y1420D01*
X1836Y1419D02*
X1897Y1419D01*
X1837Y1418D02*
X1896Y1418D01*
X1847Y1398D02*
X1869Y1398D01*
X1845Y1397D02*
X1870Y1397D01*
X1844Y1396D02*
X1872Y1396D01*
X1843Y1395D02*
X1873Y1395D01*
X1842Y1394D02*
X1874Y1394D01*
X1841Y1393D02*
X1875Y1393D01*
X1840Y1392D02*
X1876Y1392D01*
X1839Y1391D02*
X1876Y1391D01*
X1839Y1390D02*
X1849Y1390D01*
X1867Y1390D02*
X1877Y1390D01*
X1838Y1389D02*
X1847Y1389D01*
X1868Y1389D02*
X1878Y1389D01*
X1837Y1388D02*
X1847Y1388D01*
X1869Y1388D02*
X1879Y1388D01*
X1836Y1387D02*
X1846Y1387D01*
X1870Y1387D02*
X1880Y1387D01*
X1835Y1386D02*
X1845Y1386D01*
X1871Y1386D02*
X1880Y1386D01*
X1835Y1385D02*
X1844Y1385D01*
X1872Y1385D02*
X1881Y1385D01*
X1834Y1384D02*
X1843Y1384D01*
X1872Y1384D02*
X1881Y1384D01*
X1834Y1383D02*
X1842Y1383D01*
X1873Y1383D02*
X1882Y1383D01*
X1834Y1382D02*
X1842Y1382D01*
X1874Y1382D02*
X1882Y1382D01*
X1834Y1381D02*
X1841Y1381D01*
X1875Y1381D02*
X1882Y1381D01*
X1834Y1380D02*
X1841Y1380D01*
X1875Y1380D02*
X1882Y1380D01*
X1834Y1379D02*
X1841Y1379D01*
X1875Y1379D02*
X1882Y1379D01*
X1834Y1378D02*
X1841Y1378D01*
X1875Y1378D02*
X1882Y1378D01*
X1834Y1377D02*
X1841Y1377D01*
X1875Y1377D02*
X1882Y1377D01*
X1834Y1376D02*
X1841Y1376D01*
X1874Y1376D02*
X1882Y1376D01*
X1834Y1375D02*
X1842Y1375D01*
X1874Y1375D02*
X1882Y1375D01*
X1834Y1374D02*
X1843Y1374D01*
X1873Y1374D02*
X1881Y1374D01*
X1835Y1373D02*
X1844Y1373D01*
X1871Y1373D02*
X1881Y1373D01*
X1835Y1372D02*
X1845Y1372D01*
X1870Y1372D02*
X1880Y1372D01*
X1836Y1371D02*
X1846Y1371D01*
X1869Y1371D02*
X1880Y1371D01*
X1837Y1370D02*
X1847Y1370D01*
X1868Y1370D02*
X1879Y1370D01*
X1837Y1369D02*
X1848Y1369D01*
X1867Y1369D02*
X1878Y1369D01*
X1838Y1368D02*
X1849Y1368D01*
X1866Y1368D02*
X1877Y1368D01*
X1839Y1367D02*
X1851Y1367D01*
X1865Y1367D02*
X1876Y1367D01*
X1820Y1366D02*
X1880Y1366D01*
X1819Y1365D02*
X1881Y1365D01*
X1818Y1364D02*
X1882Y1364D01*
X1818Y1363D02*
X1882Y1363D01*
X1818Y1362D02*
X1882Y1362D01*
X1819Y1361D02*
X1882Y1361D01*
X1819Y1360D02*
X1881Y1360D01*
X1821Y1359D02*
X1880Y1359D01*
X1893Y1340D02*
X1895Y1340D01*
X1891Y1339D02*
X1896Y1339D01*
X1889Y1338D02*
X1897Y1338D01*
X1888Y1337D02*
X1897Y1337D01*
X1886Y1336D02*
X1898Y1336D01*
X1884Y1335D02*
X1897Y1335D01*
X1882Y1334D02*
X1897Y1334D01*
X1881Y1333D02*
X1896Y1333D01*
X1879Y1332D02*
X1894Y1332D01*
X1877Y1331D02*
X1893Y1331D01*
X1876Y1330D02*
X1891Y1330D01*
X1874Y1329D02*
X1889Y1329D01*
X1872Y1328D02*
X1887Y1328D01*
X1870Y1327D02*
X1886Y1327D01*
X1869Y1326D02*
X1884Y1326D01*
X1867Y1325D02*
X1882Y1325D01*
X1865Y1324D02*
X1881Y1324D01*
X1864Y1323D02*
X1879Y1323D01*
X1862Y1322D02*
X1877Y1322D01*
X1860Y1321D02*
X1876Y1321D01*
X1858Y1320D02*
X1874Y1320D01*
X1857Y1319D02*
X1872Y1319D01*
X1855Y1318D02*
X1870Y1318D01*
X1853Y1317D02*
X1869Y1317D01*
X1852Y1316D02*
X1867Y1316D01*
X1850Y1315D02*
X1865Y1315D01*
X1848Y1314D02*
X1864Y1314D01*
X1847Y1313D02*
X1862Y1313D01*
X1845Y1312D02*
X1860Y1312D01*
X1843Y1311D02*
X1858Y1311D01*
X1841Y1310D02*
X1857Y1310D01*
X1840Y1309D02*
X1855Y1309D01*
X1838Y1308D02*
X1853Y1308D01*
X1837Y1307D02*
X1852Y1307D01*
X1836Y1306D02*
X1850Y1306D01*
X1835Y1305D02*
X1848Y1305D01*
X1835Y1304D02*
X1846Y1304D01*
X1836Y1303D02*
X1845Y1303D01*
X1836Y1302D02*
X1843Y1302D01*
X1837Y1301D02*
X1841Y1301D01*
X1843Y1281D02*
X1848Y1281D01*
X1841Y1280D02*
X1849Y1280D01*
X1840Y1279D02*
X1849Y1279D01*
X1839Y1278D02*
X1849Y1278D01*
X1838Y1277D02*
X1849Y1277D01*
X1875Y1277D02*
X1878Y1277D01*
X1837Y1276D02*
X1849Y1276D01*
X1874Y1276D02*
X1879Y1276D01*
X1837Y1275D02*
X1848Y1275D01*
X1873Y1275D02*
X1880Y1275D01*
X1836Y1274D02*
X1847Y1274D01*
X1873Y1274D02*
X1880Y1274D01*
X1836Y1273D02*
X1845Y1273D01*
X1873Y1273D02*
X1880Y1273D01*
X1836Y1272D02*
X1843Y1272D01*
X1873Y1272D02*
X1880Y1272D01*
X1835Y1271D02*
X1843Y1271D01*
X1873Y1271D02*
X1880Y1271D01*
X1835Y1270D02*
X1843Y1270D01*
X1873Y1270D02*
X1880Y1270D01*
X1835Y1269D02*
X1843Y1269D01*
X1873Y1269D02*
X1880Y1269D01*
X1835Y1268D02*
X1843Y1268D01*
X1873Y1268D02*
X1880Y1268D01*
X1835Y1267D02*
X1843Y1267D01*
X1873Y1267D02*
X1880Y1267D01*
X1835Y1266D02*
X1843Y1266D01*
X1873Y1266D02*
X1880Y1266D01*
X1835Y1265D02*
X1843Y1265D01*
X1873Y1265D02*
X1880Y1265D01*
X1835Y1264D02*
X1843Y1264D01*
X1873Y1264D02*
X1880Y1264D01*
X1835Y1263D02*
X1843Y1263D01*
X1873Y1263D02*
X1880Y1263D01*
X1835Y1262D02*
X1843Y1262D01*
X1873Y1262D02*
X1880Y1262D01*
X1835Y1261D02*
X1843Y1261D01*
X1873Y1261D02*
X1880Y1261D01*
X1835Y1260D02*
X1843Y1260D01*
X1873Y1260D02*
X1880Y1260D01*
X1836Y1259D02*
X1844Y1259D01*
X1873Y1259D02*
X1880Y1259D01*
X1836Y1258D02*
X1845Y1258D01*
X1873Y1258D02*
X1880Y1258D01*
X1836Y1257D02*
X1892Y1257D01*
X1837Y1256D02*
X1893Y1256D01*
X1837Y1255D02*
X1894Y1255D01*
X1838Y1254D02*
X1894Y1254D01*
X1839Y1253D02*
X1894Y1253D01*
X1840Y1252D02*
X1894Y1252D01*
X1842Y1251D02*
X1893Y1251D01*
X1844Y1250D02*
X1892Y1250D01*
X1873Y1249D02*
X1880Y1249D01*
X1873Y1248D02*
X1880Y1248D01*
X1873Y1247D02*
X1880Y1247D01*
X1873Y1246D02*
X1880Y1246D01*
X1873Y1245D02*
X1880Y1245D01*
X1873Y1244D02*
X1880Y1244D01*
X1874Y1243D02*
X1879Y1243D01*
X1875Y1242D02*
X1878Y1242D01*
X1839Y1219D02*
X1839Y1219D01*
X1837Y1218D02*
X1841Y1218D01*
X1836Y1217D02*
X1842Y1217D01*
X1836Y1216D02*
X1842Y1216D01*
X1835Y1215D02*
X1842Y1215D01*
X1835Y1214D02*
X1843Y1214D01*
X1835Y1213D02*
X1843Y1213D01*
X1835Y1212D02*
X1843Y1212D01*
X1835Y1211D02*
X1843Y1211D01*
X1835Y1210D02*
X1843Y1210D01*
X1835Y1209D02*
X1843Y1209D01*
X1835Y1208D02*
X1843Y1208D01*
X1835Y1207D02*
X1876Y1207D01*
X1894Y1207D02*
X1897Y1207D01*
X1835Y1206D02*
X1879Y1206D01*
X1892Y1206D02*
X1900Y1206D01*
X1835Y1205D02*
X1880Y1205D01*
X1891Y1205D02*
X1900Y1205D01*
X1835Y1204D02*
X1880Y1204D01*
X1891Y1204D02*
X1901Y1204D01*
X1835Y1203D02*
X1880Y1203D01*
X1890Y1203D02*
X1901Y1203D01*
X1835Y1202D02*
X1880Y1202D01*
X1890Y1202D02*
X1901Y1202D01*
X1835Y1201D02*
X1880Y1201D01*
X1890Y1201D02*
X1901Y1201D01*
X1835Y1200D02*
X1880Y1200D01*
X1890Y1200D02*
X1901Y1200D01*
X1835Y1199D02*
X1880Y1199D01*
X1890Y1199D02*
X1901Y1199D01*
X1835Y1198D02*
X1843Y1198D01*
X1873Y1198D02*
X1880Y1198D01*
X1891Y1198D02*
X1901Y1198D01*
X1835Y1197D02*
X1843Y1197D01*
X1873Y1197D02*
X1880Y1197D01*
X1891Y1197D02*
X1900Y1197D01*
X1835Y1196D02*
X1843Y1196D01*
X1873Y1196D02*
X1880Y1196D01*
X1892Y1196D02*
X1900Y1196D01*
X1835Y1195D02*
X1843Y1195D01*
X1873Y1195D02*
X1880Y1195D01*
X1894Y1195D02*
X1898Y1195D01*
X1835Y1194D02*
X1843Y1194D01*
X1873Y1194D02*
X1880Y1194D01*
X1835Y1193D02*
X1843Y1193D01*
X1873Y1193D02*
X1880Y1193D01*
X1835Y1192D02*
X1843Y1192D01*
X1873Y1192D02*
X1880Y1192D01*
X1835Y1191D02*
X1842Y1191D01*
X1873Y1191D02*
X1880Y1191D01*
X1835Y1190D02*
X1842Y1190D01*
X1873Y1190D02*
X1880Y1190D01*
X1836Y1189D02*
X1842Y1189D01*
X1874Y1189D02*
X1880Y1189D01*
X1837Y1188D02*
X1841Y1188D01*
X1874Y1188D02*
X1879Y1188D01*
X1838Y1187D02*
X1839Y1187D01*
X1876Y1187D02*
X1877Y1187D01*
X1848Y1152D02*
X1857Y1152D01*
X1847Y1151D02*
X1859Y1151D01*
X1846Y1150D02*
X1859Y1150D01*
X1846Y1149D02*
X1860Y1149D01*
X1846Y1148D02*
X1860Y1148D01*
X1846Y1147D02*
X1860Y1147D01*
X1846Y1146D02*
X1860Y1146D01*
X1846Y1145D02*
X1860Y1145D01*
X1846Y1144D02*
X1860Y1144D01*
X1846Y1143D02*
X1860Y1143D01*
X1846Y1142D02*
X1860Y1142D01*
X1846Y1141D02*
X1860Y1141D01*
X1846Y1140D02*
X1860Y1140D01*
X1846Y1139D02*
X1859Y1139D01*
X1846Y1138D02*
X1859Y1138D01*
X1847Y1137D02*
X1858Y1137D01*
X1843Y1105D02*
X1848Y1105D01*
X1841Y1104D02*
X1849Y1104D01*
X1840Y1103D02*
X1849Y1103D01*
X1839Y1102D02*
X1849Y1102D01*
X1838Y1101D02*
X1849Y1101D01*
X1875Y1101D02*
X1879Y1101D01*
X1837Y1100D02*
X1849Y1100D01*
X1874Y1100D02*
X1880Y1100D01*
X1837Y1099D02*
X1848Y1099D01*
X1873Y1099D02*
X1880Y1099D01*
X1836Y1098D02*
X1846Y1098D01*
X1873Y1098D02*
X1880Y1098D01*
X1836Y1097D02*
X1844Y1097D01*
X1873Y1097D02*
X1880Y1097D01*
X1836Y1096D02*
X1843Y1096D01*
X1873Y1096D02*
X1880Y1096D01*
X1835Y1095D02*
X1843Y1095D01*
X1873Y1095D02*
X1880Y1095D01*
X1835Y1094D02*
X1843Y1094D01*
X1873Y1094D02*
X1880Y1094D01*
X1835Y1093D02*
X1843Y1093D01*
X1873Y1093D02*
X1880Y1093D01*
X1835Y1092D02*
X1843Y1092D01*
X1873Y1092D02*
X1880Y1092D01*
X1835Y1091D02*
X1843Y1091D01*
X1873Y1091D02*
X1880Y1091D01*
X1835Y1090D02*
X1843Y1090D01*
X1873Y1090D02*
X1880Y1090D01*
X1835Y1089D02*
X1843Y1089D01*
X1873Y1089D02*
X1880Y1089D01*
X1835Y1088D02*
X1843Y1088D01*
X1873Y1088D02*
X1880Y1088D01*
X1835Y1087D02*
X1843Y1087D01*
X1873Y1087D02*
X1880Y1087D01*
X1835Y1086D02*
X1843Y1086D01*
X1873Y1086D02*
X1880Y1086D01*
X1835Y1085D02*
X1843Y1085D01*
X1873Y1085D02*
X1880Y1085D01*
X1835Y1084D02*
X1843Y1084D01*
X1873Y1084D02*
X1880Y1084D01*
X1836Y1083D02*
X1844Y1083D01*
X1873Y1083D02*
X1880Y1083D01*
X1836Y1082D02*
X1846Y1082D01*
X1873Y1082D02*
X1881Y1082D01*
X1836Y1081D02*
X1892Y1081D01*
X1837Y1080D02*
X1893Y1080D01*
X1837Y1079D02*
X1894Y1079D01*
X1838Y1078D02*
X1894Y1078D01*
X1839Y1077D02*
X1894Y1077D01*
X1840Y1076D02*
X1894Y1076D01*
X1842Y1075D02*
X1893Y1075D01*
X1845Y1074D02*
X1892Y1074D01*
X1873Y1073D02*
X1880Y1073D01*
X1873Y1072D02*
X1880Y1072D01*
X1873Y1071D02*
X1880Y1071D01*
X1873Y1070D02*
X1880Y1070D01*
X1873Y1069D02*
X1880Y1069D01*
X1874Y1068D02*
X1880Y1068D01*
X1874Y1067D02*
X1879Y1067D01*
X1876Y1066D02*
X1878Y1066D01*
X1838Y1043D02*
X1840Y1043D01*
X1837Y1042D02*
X1841Y1042D01*
X1836Y1041D02*
X1842Y1041D01*
X1835Y1040D02*
X1842Y1040D01*
X1835Y1039D02*
X1842Y1039D01*
X1835Y1038D02*
X1843Y1038D01*
X1835Y1037D02*
X1843Y1037D01*
X1835Y1036D02*
X1843Y1036D01*
X1835Y1035D02*
X1843Y1035D01*
X1835Y1034D02*
X1843Y1034D01*
X1835Y1033D02*
X1843Y1033D01*
X1835Y1032D02*
X1843Y1032D01*
X1835Y1031D02*
X1878Y1031D01*
X1893Y1031D02*
X1898Y1031D01*
X1835Y1030D02*
X1879Y1030D01*
X1892Y1030D02*
X1900Y1030D01*
X1835Y1029D02*
X1880Y1029D01*
X1891Y1029D02*
X1900Y1029D01*
X1835Y1028D02*
X1880Y1028D01*
X1891Y1028D02*
X1901Y1028D01*
X1835Y1027D02*
X1880Y1027D01*
X1890Y1027D02*
X1901Y1027D01*
X1835Y1026D02*
X1880Y1026D01*
X1890Y1026D02*
X1901Y1026D01*
X1835Y1025D02*
X1880Y1025D01*
X1890Y1025D02*
X1901Y1025D01*
X1835Y1024D02*
X1880Y1024D01*
X1890Y1024D02*
X1901Y1024D01*
X1835Y1023D02*
X1843Y1023D01*
X1873Y1023D02*
X1880Y1023D01*
X1890Y1023D02*
X1901Y1023D01*
X1835Y1022D02*
X1843Y1022D01*
X1873Y1022D02*
X1880Y1022D01*
X1891Y1022D02*
X1901Y1022D01*
X1835Y1021D02*
X1843Y1021D01*
X1873Y1021D02*
X1880Y1021D01*
X1891Y1021D02*
X1900Y1021D01*
X1835Y1020D02*
X1843Y1020D01*
X1873Y1020D02*
X1880Y1020D01*
X1892Y1020D02*
X1899Y1020D01*
X1835Y1019D02*
X1843Y1019D01*
X1873Y1019D02*
X1880Y1019D01*
X1835Y1018D02*
X1843Y1018D01*
X1873Y1018D02*
X1880Y1018D01*
X1835Y1017D02*
X1843Y1017D01*
X1873Y1017D02*
X1880Y1017D01*
X1835Y1016D02*
X1843Y1016D01*
X1873Y1016D02*
X1880Y1016D01*
X1835Y1015D02*
X1842Y1015D01*
X1873Y1015D02*
X1880Y1015D01*
X1836Y1014D02*
X1842Y1014D01*
X1873Y1014D02*
X1880Y1014D01*
X1836Y1013D02*
X1842Y1013D01*
X1874Y1013D02*
X1880Y1013D01*
X1837Y1012D02*
X1841Y1012D01*
X1875Y1012D02*
X1879Y1012D01*
X1837Y988D02*
X1841Y988D01*
X1872Y988D02*
X1879Y988D01*
X1836Y987D02*
X1842Y987D01*
X1870Y987D02*
X1880Y987D01*
X1836Y986D02*
X1842Y986D01*
X1869Y986D02*
X1880Y986D01*
X1835Y985D02*
X1842Y985D01*
X1868Y985D02*
X1880Y985D01*
X1835Y984D02*
X1843Y984D01*
X1867Y984D02*
X1880Y984D01*
X1835Y983D02*
X1843Y983D01*
X1867Y983D02*
X1880Y983D01*
X1835Y982D02*
X1843Y982D01*
X1866Y982D02*
X1880Y982D01*
X1835Y981D02*
X1843Y981D01*
X1865Y981D02*
X1880Y981D01*
X1835Y980D02*
X1843Y980D01*
X1864Y980D02*
X1880Y980D01*
X1835Y979D02*
X1843Y979D01*
X1863Y979D02*
X1880Y979D01*
X1835Y978D02*
X1843Y978D01*
X1862Y978D02*
X1880Y978D01*
X1835Y977D02*
X1843Y977D01*
X1861Y977D02*
X1871Y977D01*
X1873Y977D02*
X1880Y977D01*
X1835Y976D02*
X1843Y976D01*
X1860Y976D02*
X1870Y976D01*
X1873Y976D02*
X1880Y976D01*
X1835Y975D02*
X1843Y975D01*
X1859Y975D02*
X1869Y975D01*
X1873Y975D02*
X1880Y975D01*
X1835Y974D02*
X1843Y974D01*
X1858Y974D02*
X1868Y974D01*
X1873Y974D02*
X1880Y974D01*
X1835Y973D02*
X1843Y973D01*
X1857Y973D02*
X1867Y973D01*
X1873Y973D02*
X1880Y973D01*
X1835Y972D02*
X1843Y972D01*
X1856Y972D02*
X1866Y972D01*
X1873Y972D02*
X1880Y972D01*
X1835Y971D02*
X1843Y971D01*
X1855Y971D02*
X1865Y971D01*
X1873Y971D02*
X1880Y971D01*
X1835Y970D02*
X1843Y970D01*
X1854Y970D02*
X1864Y970D01*
X1873Y970D02*
X1880Y970D01*
X1835Y969D02*
X1843Y969D01*
X1853Y969D02*
X1863Y969D01*
X1873Y969D02*
X1880Y969D01*
X1835Y968D02*
X1843Y968D01*
X1852Y968D02*
X1862Y968D01*
X1873Y968D02*
X1880Y968D01*
X1835Y967D02*
X1843Y967D01*
X1851Y967D02*
X1861Y967D01*
X1873Y967D02*
X1880Y967D01*
X1835Y966D02*
X1843Y966D01*
X1850Y966D02*
X1860Y966D01*
X1873Y966D02*
X1880Y966D01*
X1835Y965D02*
X1843Y965D01*
X1849Y965D02*
X1860Y965D01*
X1873Y965D02*
X1880Y965D01*
X1835Y964D02*
X1843Y964D01*
X1848Y964D02*
X1859Y964D01*
X1873Y964D02*
X1880Y964D01*
X1835Y963D02*
X1843Y963D01*
X1847Y963D02*
X1858Y963D01*
X1873Y963D02*
X1880Y963D01*
X1835Y962D02*
X1843Y962D01*
X1846Y962D02*
X1857Y962D01*
X1873Y962D02*
X1880Y962D01*
X1835Y961D02*
X1843Y961D01*
X1845Y961D02*
X1856Y961D01*
X1873Y961D02*
X1880Y961D01*
X1835Y960D02*
X1855Y960D01*
X1873Y960D02*
X1880Y960D01*
X1835Y959D02*
X1854Y959D01*
X1873Y959D02*
X1880Y959D01*
X1835Y958D02*
X1853Y958D01*
X1873Y958D02*
X1880Y958D01*
X1835Y957D02*
X1852Y957D01*
X1873Y957D02*
X1880Y957D01*
X1835Y956D02*
X1851Y956D01*
X1873Y956D02*
X1880Y956D01*
X1835Y955D02*
X1850Y955D01*
X1873Y955D02*
X1880Y955D01*
X1835Y954D02*
X1849Y954D01*
X1873Y954D02*
X1880Y954D01*
X1835Y953D02*
X1848Y953D01*
X1873Y953D02*
X1880Y953D01*
X1835Y952D02*
X1847Y952D01*
X1874Y952D02*
X1879Y952D01*
X1836Y951D02*
X1846Y951D01*
X1875Y951D02*
X1878Y951D01*
X1836Y950D02*
X1845Y950D01*
X1837Y949D02*
X1844Y949D01*
X1838Y930D02*
X1839Y930D01*
X1873Y930D02*
X1877Y930D01*
X1837Y929D02*
X1841Y929D01*
X1871Y929D02*
X1879Y929D01*
X1836Y928D02*
X1842Y928D01*
X1870Y928D02*
X1880Y928D01*
X1836Y927D02*
X1842Y927D01*
X1869Y927D02*
X1880Y927D01*
X1835Y926D02*
X1842Y926D01*
X1868Y926D02*
X1880Y926D01*
X1835Y925D02*
X1843Y925D01*
X1867Y925D02*
X1880Y925D01*
X1835Y924D02*
X1843Y924D01*
X1866Y924D02*
X1880Y924D01*
X1835Y923D02*
X1843Y923D01*
X1865Y923D02*
X1880Y923D01*
X1835Y922D02*
X1843Y922D01*
X1864Y922D02*
X1880Y922D01*
X1835Y921D02*
X1843Y921D01*
X1863Y921D02*
X1880Y921D01*
X1835Y920D02*
X1843Y920D01*
X1862Y920D02*
X1880Y920D01*
X1835Y919D02*
X1843Y919D01*
X1861Y919D02*
X1880Y919D01*
X1835Y918D02*
X1843Y918D01*
X1860Y918D02*
X1871Y918D01*
X1873Y918D02*
X1880Y918D01*
X1835Y917D02*
X1843Y917D01*
X1859Y917D02*
X1870Y917D01*
X1873Y917D02*
X1880Y917D01*
X1835Y916D02*
X1843Y916D01*
X1858Y916D02*
X1869Y916D01*
X1873Y916D02*
X1880Y916D01*
X1835Y915D02*
X1843Y915D01*
X1857Y915D02*
X1868Y915D01*
X1873Y915D02*
X1880Y915D01*
X1835Y914D02*
X1843Y914D01*
X1857Y914D02*
X1867Y914D01*
X1873Y914D02*
X1880Y914D01*
X1835Y913D02*
X1843Y913D01*
X1856Y913D02*
X1866Y913D01*
X1873Y913D02*
X1880Y913D01*
X1835Y912D02*
X1843Y912D01*
X1855Y912D02*
X1865Y912D01*
X1873Y912D02*
X1880Y912D01*
X1835Y911D02*
X1843Y911D01*
X1854Y911D02*
X1864Y911D01*
X1873Y911D02*
X1880Y911D01*
X1835Y910D02*
X1843Y910D01*
X1853Y910D02*
X1863Y910D01*
X1873Y910D02*
X1880Y910D01*
X1835Y909D02*
X1843Y909D01*
X1852Y909D02*
X1862Y909D01*
X1873Y909D02*
X1880Y909D01*
X1835Y908D02*
X1843Y908D01*
X1851Y908D02*
X1861Y908D01*
X1873Y908D02*
X1880Y908D01*
X1835Y907D02*
X1843Y907D01*
X1850Y907D02*
X1860Y907D01*
X1873Y907D02*
X1880Y907D01*
X1835Y906D02*
X1843Y906D01*
X1849Y906D02*
X1859Y906D01*
X1873Y906D02*
X1880Y906D01*
X1835Y905D02*
X1843Y905D01*
X1848Y905D02*
X1858Y905D01*
X1873Y905D02*
X1880Y905D01*
X1835Y904D02*
X1843Y904D01*
X1847Y904D02*
X1857Y904D01*
X1873Y904D02*
X1880Y904D01*
X1835Y903D02*
X1843Y903D01*
X1846Y903D02*
X1856Y903D01*
X1873Y903D02*
X1880Y903D01*
X1835Y902D02*
X1843Y902D01*
X1845Y902D02*
X1855Y902D01*
X1873Y902D02*
X1880Y902D01*
X1835Y901D02*
X1854Y901D01*
X1873Y901D02*
X1880Y901D01*
X1835Y900D02*
X1853Y900D01*
X1873Y900D02*
X1880Y900D01*
X1835Y899D02*
X1852Y899D01*
X1873Y899D02*
X1880Y899D01*
X1835Y898D02*
X1851Y898D01*
X1873Y898D02*
X1880Y898D01*
X1835Y897D02*
X1851Y897D01*
X1873Y897D02*
X1880Y897D01*
X1835Y896D02*
X1850Y896D01*
X1873Y896D02*
X1880Y896D01*
X1835Y895D02*
X1849Y895D01*
X1873Y895D02*
X1880Y895D01*
X1835Y894D02*
X1848Y894D01*
X1874Y894D02*
X1880Y894D01*
X1835Y893D02*
X1847Y893D01*
X1874Y893D02*
X1879Y893D01*
X1836Y892D02*
X1846Y892D01*
X1876Y892D02*
X1877Y892D01*
X1837Y891D02*
X1845Y891D01*
X1838Y890D02*
X1843Y890D01*
X1838Y867D02*
X1840Y867D01*
X1836Y866D02*
X1841Y866D01*
X1836Y865D02*
X1842Y865D01*
X1835Y864D02*
X1842Y864D01*
X1835Y863D02*
X1842Y863D01*
X1835Y862D02*
X1843Y862D01*
X1835Y861D02*
X1843Y861D01*
X1835Y860D02*
X1843Y860D01*
X1835Y859D02*
X1843Y859D01*
X1835Y858D02*
X1843Y858D01*
X1835Y857D02*
X1843Y857D01*
X1835Y856D02*
X1843Y856D01*
X1835Y855D02*
X1878Y855D01*
X1893Y855D02*
X1899Y855D01*
X1835Y854D02*
X1879Y854D01*
X1891Y854D02*
X1900Y854D01*
X1835Y853D02*
X1880Y853D01*
X1891Y853D02*
X1901Y853D01*
X1835Y852D02*
X1880Y852D01*
X1890Y852D02*
X1901Y852D01*
X1835Y851D02*
X1880Y851D01*
X1890Y851D02*
X1901Y851D01*
X1835Y850D02*
X1880Y850D01*
X1890Y850D02*
X1901Y850D01*
X1835Y849D02*
X1880Y849D01*
X1890Y849D02*
X1901Y849D01*
X1835Y848D02*
X1880Y848D01*
X1890Y848D02*
X1901Y848D01*
X1835Y847D02*
X1843Y847D01*
X1873Y847D02*
X1880Y847D01*
X1890Y847D02*
X1901Y847D01*
X1835Y846D02*
X1843Y846D01*
X1873Y846D02*
X1880Y846D01*
X1891Y846D02*
X1901Y846D01*
X1835Y845D02*
X1843Y845D01*
X1873Y845D02*
X1880Y845D01*
X1891Y845D02*
X1900Y845D01*
X1835Y844D02*
X1843Y844D01*
X1873Y844D02*
X1880Y844D01*
X1892Y844D02*
X1899Y844D01*
X1835Y843D02*
X1843Y843D01*
X1873Y843D02*
X1880Y843D01*
X1835Y842D02*
X1843Y842D01*
X1873Y842D02*
X1880Y842D01*
X1835Y841D02*
X1843Y841D01*
X1873Y841D02*
X1880Y841D01*
X1835Y840D02*
X1843Y840D01*
X1873Y840D02*
X1880Y840D01*
X1835Y839D02*
X1842Y839D01*
X1873Y839D02*
X1880Y839D01*
X1836Y838D02*
X1842Y838D01*
X1873Y838D02*
X1880Y838D01*
X1836Y837D02*
X1842Y837D01*
X1874Y837D02*
X1880Y837D01*
X1837Y836D02*
X1841Y836D01*
X1875Y836D02*
X1879Y836D01*
X1837Y808D02*
X1841Y808D01*
X1836Y807D02*
X1842Y807D01*
X1836Y806D02*
X1842Y806D01*
X1835Y805D02*
X1842Y805D01*
X1835Y804D02*
X1843Y804D01*
X1835Y803D02*
X1843Y803D01*
X1835Y802D02*
X1843Y802D01*
X1835Y801D02*
X1843Y801D01*
X1835Y800D02*
X1843Y800D01*
X1835Y799D02*
X1843Y799D01*
X1835Y798D02*
X1843Y798D01*
X1835Y797D02*
X1843Y797D01*
X1835Y796D02*
X1896Y796D01*
X1835Y795D02*
X1897Y795D01*
X1835Y794D02*
X1897Y794D01*
X1835Y793D02*
X1897Y793D01*
X1835Y792D02*
X1898Y792D01*
X1835Y791D02*
X1898Y791D01*
X1835Y790D02*
X1898Y790D01*
X1835Y789D02*
X1898Y789D01*
X1835Y788D02*
X1843Y788D01*
X1890Y788D02*
X1898Y788D01*
X1835Y787D02*
X1843Y787D01*
X1890Y787D02*
X1898Y787D01*
X1835Y786D02*
X1843Y786D01*
X1890Y786D02*
X1898Y786D01*
X1835Y785D02*
X1843Y785D01*
X1890Y785D02*
X1898Y785D01*
X1835Y784D02*
X1843Y784D01*
X1890Y784D02*
X1898Y784D01*
X1835Y783D02*
X1843Y783D01*
X1890Y783D02*
X1898Y783D01*
X1835Y782D02*
X1843Y782D01*
X1890Y782D02*
X1898Y782D01*
X1835Y781D02*
X1842Y781D01*
X1890Y781D02*
X1898Y781D01*
X1835Y780D02*
X1842Y780D01*
X1891Y780D02*
X1897Y780D01*
X1836Y779D02*
X1842Y779D01*
X1891Y779D02*
X1897Y779D01*
X1836Y778D02*
X1841Y778D01*
X1891Y778D02*
X1896Y778D01*
X1838Y777D02*
X1840Y777D01*
X1893Y777D02*
X1895Y777D01*
X1266Y762D02*
X1320Y762D01*
X735Y761D02*
X742Y761D01*
X965Y761D02*
X972Y761D01*
X1195Y761D02*
X1201Y761D01*
X1259Y761D02*
X1320Y761D01*
X734Y760D02*
X743Y760D01*
X964Y760D02*
X973Y760D01*
X1193Y760D02*
X1203Y760D01*
X1257Y760D02*
X1320Y760D01*
X733Y759D02*
X744Y759D01*
X963Y759D02*
X974Y759D01*
X1192Y759D02*
X1204Y759D01*
X1255Y759D02*
X1320Y759D01*
X732Y758D02*
X745Y758D01*
X962Y758D02*
X975Y758D01*
X1192Y758D02*
X1204Y758D01*
X1253Y758D02*
X1320Y758D01*
X732Y757D02*
X746Y757D01*
X961Y757D02*
X975Y757D01*
X1191Y757D02*
X1205Y757D01*
X1252Y757D02*
X1320Y757D01*
X731Y756D02*
X746Y756D01*
X961Y756D02*
X976Y756D01*
X1191Y756D02*
X1205Y756D01*
X1251Y756D02*
X1320Y756D01*
X731Y755D02*
X746Y755D01*
X961Y755D02*
X976Y755D01*
X1191Y755D02*
X1205Y755D01*
X1250Y755D02*
X1320Y755D01*
X731Y754D02*
X746Y754D01*
X961Y754D02*
X976Y754D01*
X1191Y754D02*
X1206Y754D01*
X1249Y754D02*
X1320Y754D01*
X1893Y754D02*
X1895Y754D01*
X731Y753D02*
X746Y753D01*
X961Y753D02*
X976Y753D01*
X1191Y753D02*
X1206Y753D01*
X1248Y753D02*
X1320Y753D01*
X1891Y753D02*
X1896Y753D01*
X731Y752D02*
X746Y752D01*
X961Y752D02*
X976Y752D01*
X1191Y752D02*
X1206Y752D01*
X1247Y752D02*
X1320Y752D01*
X1889Y752D02*
X1897Y752D01*
X731Y751D02*
X746Y751D01*
X961Y751D02*
X976Y751D01*
X1191Y751D02*
X1206Y751D01*
X1246Y751D02*
X1320Y751D01*
X1888Y751D02*
X1897Y751D01*
X731Y750D02*
X746Y750D01*
X961Y750D02*
X976Y750D01*
X1191Y750D02*
X1206Y750D01*
X1246Y750D02*
X1320Y750D01*
X1886Y750D02*
X1898Y750D01*
X731Y749D02*
X746Y749D01*
X961Y749D02*
X976Y749D01*
X1191Y749D02*
X1206Y749D01*
X1245Y749D02*
X1320Y749D01*
X1884Y749D02*
X1897Y749D01*
X731Y748D02*
X746Y748D01*
X961Y748D02*
X976Y748D01*
X1191Y748D02*
X1206Y748D01*
X1245Y748D02*
X1320Y748D01*
X1882Y748D02*
X1897Y748D01*
X731Y747D02*
X746Y747D01*
X961Y747D02*
X976Y747D01*
X1191Y747D02*
X1206Y747D01*
X1244Y747D02*
X1320Y747D01*
X1881Y747D02*
X1896Y747D01*
X731Y746D02*
X746Y746D01*
X961Y746D02*
X976Y746D01*
X1191Y746D02*
X1206Y746D01*
X1244Y746D02*
X1320Y746D01*
X1879Y746D02*
X1894Y746D01*
X731Y745D02*
X746Y745D01*
X961Y745D02*
X976Y745D01*
X1191Y745D02*
X1206Y745D01*
X1243Y745D02*
X1262Y745D01*
X1305Y745D02*
X1320Y745D01*
X1877Y745D02*
X1893Y745D01*
X731Y744D02*
X746Y744D01*
X961Y744D02*
X976Y744D01*
X1191Y744D02*
X1206Y744D01*
X1243Y744D02*
X1260Y744D01*
X1305Y744D02*
X1320Y744D01*
X1876Y744D02*
X1891Y744D01*
X731Y743D02*
X746Y743D01*
X961Y743D02*
X976Y743D01*
X1191Y743D02*
X1206Y743D01*
X1243Y743D02*
X1259Y743D01*
X1305Y743D02*
X1320Y743D01*
X1874Y743D02*
X1889Y743D01*
X731Y742D02*
X746Y742D01*
X961Y742D02*
X976Y742D01*
X1191Y742D02*
X1206Y742D01*
X1243Y742D02*
X1259Y742D01*
X1305Y742D02*
X1320Y742D01*
X1872Y742D02*
X1887Y742D01*
X731Y741D02*
X746Y741D01*
X961Y741D02*
X976Y741D01*
X1191Y741D02*
X1206Y741D01*
X1242Y741D02*
X1258Y741D01*
X1305Y741D02*
X1320Y741D01*
X1870Y741D02*
X1886Y741D01*
X731Y740D02*
X746Y740D01*
X961Y740D02*
X976Y740D01*
X1191Y740D02*
X1206Y740D01*
X1242Y740D02*
X1258Y740D01*
X1305Y740D02*
X1320Y740D01*
X1869Y740D02*
X1884Y740D01*
X731Y739D02*
X746Y739D01*
X961Y739D02*
X976Y739D01*
X1191Y739D02*
X1206Y739D01*
X1242Y739D02*
X1257Y739D01*
X1305Y739D02*
X1320Y739D01*
X1867Y739D02*
X1882Y739D01*
X731Y738D02*
X746Y738D01*
X961Y738D02*
X976Y738D01*
X1191Y738D02*
X1206Y738D01*
X1242Y738D02*
X1257Y738D01*
X1305Y738D02*
X1320Y738D01*
X1865Y738D02*
X1881Y738D01*
X731Y737D02*
X746Y737D01*
X961Y737D02*
X976Y737D01*
X1191Y737D02*
X1206Y737D01*
X1242Y737D02*
X1257Y737D01*
X1305Y737D02*
X1320Y737D01*
X1864Y737D02*
X1879Y737D01*
X731Y736D02*
X746Y736D01*
X961Y736D02*
X976Y736D01*
X1191Y736D02*
X1206Y736D01*
X1242Y736D02*
X1257Y736D01*
X1305Y736D02*
X1320Y736D01*
X1862Y736D02*
X1877Y736D01*
X731Y735D02*
X746Y735D01*
X961Y735D02*
X976Y735D01*
X1191Y735D02*
X1206Y735D01*
X1242Y735D02*
X1257Y735D01*
X1305Y735D02*
X1320Y735D01*
X1860Y735D02*
X1875Y735D01*
X731Y734D02*
X746Y734D01*
X961Y734D02*
X976Y734D01*
X1191Y734D02*
X1206Y734D01*
X1242Y734D02*
X1257Y734D01*
X1305Y734D02*
X1320Y734D01*
X1858Y734D02*
X1874Y734D01*
X731Y733D02*
X746Y733D01*
X961Y733D02*
X976Y733D01*
X1191Y733D02*
X1206Y733D01*
X1242Y733D02*
X1257Y733D01*
X1305Y733D02*
X1320Y733D01*
X1857Y733D02*
X1872Y733D01*
X731Y732D02*
X746Y732D01*
X961Y732D02*
X976Y732D01*
X1191Y732D02*
X1206Y732D01*
X1242Y732D02*
X1257Y732D01*
X1305Y732D02*
X1320Y732D01*
X1855Y732D02*
X1870Y732D01*
X731Y731D02*
X746Y731D01*
X961Y731D02*
X976Y731D01*
X1191Y731D02*
X1206Y731D01*
X1242Y731D02*
X1257Y731D01*
X1305Y731D02*
X1320Y731D01*
X1853Y731D02*
X1869Y731D01*
X731Y730D02*
X746Y730D01*
X961Y730D02*
X976Y730D01*
X1191Y730D02*
X1206Y730D01*
X1242Y730D02*
X1257Y730D01*
X1305Y730D02*
X1320Y730D01*
X1852Y730D02*
X1867Y730D01*
X731Y729D02*
X746Y729D01*
X961Y729D02*
X976Y729D01*
X1191Y729D02*
X1206Y729D01*
X1242Y729D02*
X1257Y729D01*
X1305Y729D02*
X1320Y729D01*
X1850Y729D02*
X1865Y729D01*
X693Y728D02*
X712Y728D01*
X731Y728D02*
X746Y728D01*
X804Y728D02*
X839Y728D01*
X961Y728D02*
X976Y728D01*
X1018Y728D02*
X1022Y728D01*
X1082Y728D02*
X1085Y728D01*
X1149Y728D02*
X1165Y728D01*
X1191Y728D02*
X1206Y728D01*
X1242Y728D02*
X1257Y728D01*
X1305Y728D02*
X1320Y728D01*
X1848Y728D02*
X1864Y728D01*
X690Y727D02*
X716Y727D01*
X731Y727D02*
X746Y727D01*
X800Y727D02*
X842Y727D01*
X961Y727D02*
X976Y727D01*
X1016Y727D02*
X1024Y727D01*
X1079Y727D02*
X1087Y727D01*
X1145Y727D02*
X1169Y727D01*
X1191Y727D02*
X1206Y727D01*
X1242Y727D02*
X1257Y727D01*
X1305Y727D02*
X1320Y727D01*
X1846Y727D02*
X1862Y727D01*
X688Y726D02*
X719Y726D01*
X731Y726D02*
X746Y726D01*
X798Y726D02*
X843Y726D01*
X961Y726D02*
X976Y726D01*
X1015Y726D02*
X1025Y726D01*
X1078Y726D02*
X1088Y726D01*
X1142Y726D02*
X1171Y726D01*
X1191Y726D02*
X1206Y726D01*
X1242Y726D02*
X1257Y726D01*
X1305Y726D02*
X1320Y726D01*
X1845Y726D02*
X1860Y726D01*
X686Y725D02*
X721Y725D01*
X731Y725D02*
X746Y725D01*
X796Y725D02*
X844Y725D01*
X961Y725D02*
X976Y725D01*
X1014Y725D02*
X1026Y725D01*
X1077Y725D02*
X1089Y725D01*
X1140Y725D02*
X1173Y725D01*
X1191Y725D02*
X1206Y725D01*
X1242Y725D02*
X1257Y725D01*
X1305Y725D02*
X1320Y725D01*
X1843Y725D02*
X1858Y725D01*
X684Y724D02*
X723Y724D01*
X731Y724D02*
X746Y724D01*
X794Y724D02*
X844Y724D01*
X961Y724D02*
X976Y724D01*
X1014Y724D02*
X1027Y724D01*
X1077Y724D02*
X1090Y724D01*
X1139Y724D02*
X1175Y724D01*
X1191Y724D02*
X1206Y724D01*
X1242Y724D02*
X1257Y724D01*
X1305Y724D02*
X1320Y724D01*
X1841Y724D02*
X1857Y724D01*
X683Y723D02*
X724Y723D01*
X731Y723D02*
X746Y723D01*
X793Y723D02*
X845Y723D01*
X961Y723D02*
X976Y723D01*
X1013Y723D02*
X1027Y723D01*
X1076Y723D02*
X1090Y723D01*
X1138Y723D02*
X1176Y723D01*
X1191Y723D02*
X1206Y723D01*
X1242Y723D02*
X1257Y723D01*
X1305Y723D02*
X1320Y723D01*
X1840Y723D02*
X1855Y723D01*
X682Y722D02*
X725Y722D01*
X731Y722D02*
X746Y722D01*
X792Y722D02*
X845Y722D01*
X961Y722D02*
X976Y722D01*
X1013Y722D02*
X1028Y722D01*
X1076Y722D02*
X1091Y722D01*
X1136Y722D02*
X1178Y722D01*
X1191Y722D02*
X1206Y722D01*
X1242Y722D02*
X1257Y722D01*
X1305Y722D02*
X1320Y722D01*
X1838Y722D02*
X1853Y722D01*
X680Y721D02*
X727Y721D01*
X731Y721D02*
X746Y721D01*
X791Y721D02*
X845Y721D01*
X961Y721D02*
X976Y721D01*
X1013Y721D02*
X1028Y721D01*
X1076Y721D02*
X1091Y721D01*
X1135Y721D02*
X1180Y721D01*
X1191Y721D02*
X1206Y721D01*
X1242Y721D02*
X1257Y721D01*
X1305Y721D02*
X1320Y721D01*
X1837Y721D02*
X1852Y721D01*
X679Y720D02*
X728Y720D01*
X731Y720D02*
X746Y720D01*
X790Y720D02*
X845Y720D01*
X961Y720D02*
X976Y720D01*
X1013Y720D02*
X1028Y720D01*
X1076Y720D02*
X1091Y720D01*
X1134Y720D02*
X1181Y720D01*
X1191Y720D02*
X1206Y720D01*
X1242Y720D02*
X1257Y720D01*
X1305Y720D02*
X1320Y720D01*
X1836Y720D02*
X1850Y720D01*
X678Y719D02*
X729Y719D01*
X731Y719D02*
X746Y719D01*
X789Y719D02*
X845Y719D01*
X961Y719D02*
X976Y719D01*
X1013Y719D02*
X1028Y719D01*
X1076Y719D02*
X1091Y719D01*
X1134Y719D02*
X1183Y719D01*
X1191Y719D02*
X1206Y719D01*
X1242Y719D02*
X1257Y719D01*
X1305Y719D02*
X1320Y719D01*
X1835Y719D02*
X1848Y719D01*
X677Y718D02*
X746Y718D01*
X788Y718D02*
X845Y718D01*
X961Y718D02*
X976Y718D01*
X1013Y718D02*
X1028Y718D01*
X1076Y718D02*
X1091Y718D01*
X1133Y718D02*
X1184Y718D01*
X1191Y718D02*
X1206Y718D01*
X1242Y718D02*
X1257Y718D01*
X1305Y718D02*
X1320Y718D01*
X1835Y718D02*
X1846Y718D01*
X676Y717D02*
X746Y717D01*
X788Y717D02*
X845Y717D01*
X961Y717D02*
X976Y717D01*
X1013Y717D02*
X1028Y717D01*
X1076Y717D02*
X1091Y717D01*
X1132Y717D02*
X1186Y717D01*
X1191Y717D02*
X1206Y717D01*
X1242Y717D02*
X1257Y717D01*
X1305Y717D02*
X1320Y717D01*
X1836Y717D02*
X1845Y717D01*
X675Y716D02*
X746Y716D01*
X787Y716D02*
X844Y716D01*
X961Y716D02*
X976Y716D01*
X1013Y716D02*
X1028Y716D01*
X1076Y716D02*
X1091Y716D01*
X1132Y716D02*
X1188Y716D01*
X1191Y716D02*
X1206Y716D01*
X1242Y716D02*
X1257Y716D01*
X1305Y716D02*
X1320Y716D01*
X1836Y716D02*
X1843Y716D01*
X674Y715D02*
X746Y715D01*
X786Y715D02*
X843Y715D01*
X961Y715D02*
X976Y715D01*
X1013Y715D02*
X1028Y715D01*
X1076Y715D02*
X1091Y715D01*
X1131Y715D02*
X1206Y715D01*
X1242Y715D02*
X1257Y715D01*
X1305Y715D02*
X1320Y715D01*
X1837Y715D02*
X1841Y715D01*
X673Y714D02*
X746Y714D01*
X786Y714D02*
X842Y714D01*
X961Y714D02*
X976Y714D01*
X1013Y714D02*
X1028Y714D01*
X1076Y714D02*
X1091Y714D01*
X1130Y714D02*
X1206Y714D01*
X1242Y714D02*
X1257Y714D01*
X1305Y714D02*
X1320Y714D01*
X672Y713D02*
X746Y713D01*
X785Y713D02*
X841Y713D01*
X961Y713D02*
X976Y713D01*
X1013Y713D02*
X1028Y713D01*
X1076Y713D02*
X1091Y713D01*
X1130Y713D02*
X1206Y713D01*
X1242Y713D02*
X1257Y713D01*
X1305Y713D02*
X1320Y713D01*
X671Y712D02*
X695Y712D01*
X712Y712D02*
X746Y712D01*
X785Y712D02*
X805Y712D01*
X961Y712D02*
X976Y712D01*
X1013Y712D02*
X1028Y712D01*
X1076Y712D02*
X1091Y712D01*
X1130Y712D02*
X1150Y712D01*
X1165Y712D02*
X1206Y712D01*
X1242Y712D02*
X1257Y712D01*
X1305Y712D02*
X1320Y712D01*
X671Y711D02*
X693Y711D01*
X714Y711D02*
X746Y711D01*
X785Y711D02*
X803Y711D01*
X961Y711D02*
X976Y711D01*
X1013Y711D02*
X1028Y711D01*
X1076Y711D02*
X1091Y711D01*
X1129Y711D02*
X1147Y711D01*
X1167Y711D02*
X1206Y711D01*
X1242Y711D02*
X1257Y711D01*
X1305Y711D02*
X1320Y711D01*
X670Y710D02*
X691Y710D01*
X715Y710D02*
X746Y710D01*
X785Y710D02*
X802Y710D01*
X961Y710D02*
X976Y710D01*
X1013Y710D02*
X1028Y710D01*
X1076Y710D02*
X1091Y710D01*
X1129Y710D02*
X1146Y710D01*
X1168Y710D02*
X1206Y710D01*
X1242Y710D02*
X1257Y710D01*
X1305Y710D02*
X1320Y710D01*
X670Y709D02*
X690Y709D01*
X716Y709D02*
X746Y709D01*
X784Y709D02*
X802Y709D01*
X961Y709D02*
X976Y709D01*
X1013Y709D02*
X1028Y709D01*
X1076Y709D02*
X1091Y709D01*
X1129Y709D02*
X1145Y709D01*
X1170Y709D02*
X1206Y709D01*
X1242Y709D02*
X1257Y709D01*
X1305Y709D02*
X1320Y709D01*
X670Y708D02*
X689Y708D01*
X717Y708D02*
X746Y708D01*
X784Y708D02*
X801Y708D01*
X961Y708D02*
X976Y708D01*
X1013Y708D02*
X1028Y708D01*
X1075Y708D02*
X1091Y708D01*
X1129Y708D02*
X1145Y708D01*
X1171Y708D02*
X1206Y708D01*
X1242Y708D02*
X1258Y708D01*
X1305Y708D02*
X1320Y708D01*
X669Y707D02*
X688Y707D01*
X719Y707D02*
X746Y707D01*
X784Y707D02*
X801Y707D01*
X961Y707D02*
X976Y707D01*
X1013Y707D02*
X1028Y707D01*
X1075Y707D02*
X1091Y707D01*
X1129Y707D02*
X1144Y707D01*
X1173Y707D02*
X1206Y707D01*
X1242Y707D02*
X1258Y707D01*
X1305Y707D02*
X1320Y707D01*
X669Y706D02*
X686Y706D01*
X720Y706D02*
X746Y706D01*
X784Y706D02*
X800Y706D01*
X961Y706D02*
X976Y706D01*
X1013Y706D02*
X1029Y706D01*
X1075Y706D02*
X1091Y706D01*
X1129Y706D02*
X1144Y706D01*
X1174Y706D02*
X1206Y706D01*
X1243Y706D02*
X1258Y706D01*
X1305Y706D02*
X1320Y706D01*
X669Y705D02*
X685Y705D01*
X721Y705D02*
X746Y705D01*
X784Y705D02*
X800Y705D01*
X961Y705D02*
X976Y705D01*
X1013Y705D02*
X1029Y705D01*
X1074Y705D02*
X1091Y705D01*
X1129Y705D02*
X1144Y705D01*
X1176Y705D02*
X1206Y705D01*
X1243Y705D02*
X1259Y705D01*
X1305Y705D02*
X1320Y705D01*
X668Y704D02*
X685Y704D01*
X722Y704D02*
X746Y704D01*
X784Y704D02*
X800Y704D01*
X961Y704D02*
X976Y704D01*
X1013Y704D02*
X1030Y704D01*
X1074Y704D02*
X1090Y704D01*
X1129Y704D02*
X1144Y704D01*
X1177Y704D02*
X1206Y704D01*
X1243Y704D02*
X1260Y704D01*
X1305Y704D02*
X1320Y704D01*
X668Y703D02*
X684Y703D01*
X723Y703D02*
X746Y703D01*
X784Y703D02*
X800Y703D01*
X961Y703D02*
X976Y703D01*
X1014Y703D02*
X1030Y703D01*
X1073Y703D02*
X1090Y703D01*
X1129Y703D02*
X1144Y703D01*
X1179Y703D02*
X1206Y703D01*
X1243Y703D02*
X1261Y703D01*
X1305Y703D02*
X1320Y703D01*
X668Y702D02*
X683Y702D01*
X724Y702D02*
X746Y702D01*
X784Y702D02*
X800Y702D01*
X961Y702D02*
X976Y702D01*
X1014Y702D02*
X1031Y702D01*
X1073Y702D02*
X1089Y702D01*
X1129Y702D02*
X1144Y702D01*
X1181Y702D02*
X1206Y702D01*
X1243Y702D02*
X1262Y702D01*
X1305Y702D02*
X1320Y702D01*
X668Y701D02*
X683Y701D01*
X726Y701D02*
X746Y701D01*
X784Y701D02*
X800Y701D01*
X961Y701D02*
X976Y701D01*
X1014Y701D02*
X1031Y701D01*
X1072Y701D02*
X1089Y701D01*
X1129Y701D02*
X1144Y701D01*
X1182Y701D02*
X1206Y701D01*
X1244Y701D02*
X1320Y701D01*
X668Y700D02*
X683Y700D01*
X727Y700D02*
X746Y700D01*
X784Y700D02*
X800Y700D01*
X961Y700D02*
X976Y700D01*
X1015Y700D02*
X1032Y700D01*
X1072Y700D02*
X1089Y700D01*
X1129Y700D02*
X1144Y700D01*
X1184Y700D02*
X1206Y700D01*
X1244Y700D02*
X1320Y700D01*
X668Y699D02*
X683Y699D01*
X728Y699D02*
X746Y699D01*
X784Y699D02*
X800Y699D01*
X961Y699D02*
X976Y699D01*
X1015Y699D02*
X1032Y699D01*
X1072Y699D02*
X1088Y699D01*
X1129Y699D02*
X1144Y699D01*
X1185Y699D02*
X1206Y699D01*
X1245Y699D02*
X1320Y699D01*
X668Y698D02*
X683Y698D01*
X729Y698D02*
X746Y698D01*
X784Y698D02*
X800Y698D01*
X961Y698D02*
X976Y698D01*
X1016Y698D02*
X1032Y698D01*
X1071Y698D02*
X1088Y698D01*
X1129Y698D02*
X1144Y698D01*
X1187Y698D02*
X1206Y698D01*
X1245Y698D02*
X1320Y698D01*
X668Y697D02*
X683Y697D01*
X730Y697D02*
X746Y697D01*
X784Y697D02*
X800Y697D01*
X961Y697D02*
X976Y697D01*
X1016Y697D02*
X1033Y697D01*
X1071Y697D02*
X1087Y697D01*
X1129Y697D02*
X1144Y697D01*
X1188Y697D02*
X1206Y697D01*
X1246Y697D02*
X1320Y697D01*
X668Y696D02*
X683Y696D01*
X730Y696D02*
X746Y696D01*
X784Y696D02*
X800Y696D01*
X961Y696D02*
X976Y696D01*
X1017Y696D02*
X1033Y696D01*
X1070Y696D02*
X1087Y696D01*
X1129Y696D02*
X1144Y696D01*
X1190Y696D02*
X1206Y696D01*
X1246Y696D02*
X1320Y696D01*
X668Y695D02*
X683Y695D01*
X731Y695D02*
X746Y695D01*
X784Y695D02*
X800Y695D01*
X961Y695D02*
X976Y695D01*
X1017Y695D02*
X1034Y695D01*
X1070Y695D02*
X1086Y695D01*
X1129Y695D02*
X1144Y695D01*
X1191Y695D02*
X1206Y695D01*
X1247Y695D02*
X1320Y695D01*
X1892Y695D02*
X1896Y695D01*
X668Y694D02*
X683Y694D01*
X731Y694D02*
X746Y694D01*
X784Y694D02*
X800Y694D01*
X803Y694D02*
X843Y694D01*
X961Y694D02*
X976Y694D01*
X1018Y694D02*
X1034Y694D01*
X1069Y694D02*
X1086Y694D01*
X1129Y694D02*
X1144Y694D01*
X1191Y694D02*
X1206Y694D01*
X1248Y694D02*
X1320Y694D01*
X1890Y694D02*
X1897Y694D01*
X668Y693D02*
X683Y693D01*
X731Y693D02*
X746Y693D01*
X784Y693D02*
X846Y693D01*
X961Y693D02*
X976Y693D01*
X1018Y693D02*
X1035Y693D01*
X1069Y693D02*
X1085Y693D01*
X1129Y693D02*
X1144Y693D01*
X1191Y693D02*
X1206Y693D01*
X1249Y693D02*
X1320Y693D01*
X1889Y693D02*
X1897Y693D01*
X668Y692D02*
X683Y692D01*
X731Y692D02*
X746Y692D01*
X784Y692D02*
X848Y692D01*
X961Y692D02*
X976Y692D01*
X1018Y692D02*
X1035Y692D01*
X1068Y692D02*
X1085Y692D01*
X1129Y692D02*
X1144Y692D01*
X1191Y692D02*
X1206Y692D01*
X1250Y692D02*
X1320Y692D01*
X1887Y692D02*
X1897Y692D01*
X668Y691D02*
X683Y691D01*
X731Y691D02*
X746Y691D01*
X784Y691D02*
X850Y691D01*
X961Y691D02*
X976Y691D01*
X1019Y691D02*
X1035Y691D01*
X1068Y691D02*
X1085Y691D01*
X1129Y691D02*
X1144Y691D01*
X1191Y691D02*
X1206Y691D01*
X1251Y691D02*
X1320Y691D01*
X1885Y691D02*
X1897Y691D01*
X668Y690D02*
X683Y690D01*
X731Y690D02*
X746Y690D01*
X784Y690D02*
X851Y690D01*
X961Y690D02*
X976Y690D01*
X1019Y690D02*
X1036Y690D01*
X1068Y690D02*
X1084Y690D01*
X1129Y690D02*
X1144Y690D01*
X1191Y690D02*
X1206Y690D01*
X1252Y690D02*
X1320Y690D01*
X1883Y690D02*
X1897Y690D01*
X668Y689D02*
X683Y689D01*
X731Y689D02*
X746Y689D01*
X784Y689D02*
X852Y689D01*
X961Y689D02*
X976Y689D01*
X1020Y689D02*
X1036Y689D01*
X1067Y689D02*
X1084Y689D01*
X1129Y689D02*
X1144Y689D01*
X1191Y689D02*
X1206Y689D01*
X1254Y689D02*
X1320Y689D01*
X1882Y689D02*
X1897Y689D01*
X668Y688D02*
X683Y688D01*
X731Y688D02*
X746Y688D01*
X784Y688D02*
X854Y688D01*
X961Y688D02*
X976Y688D01*
X1020Y688D02*
X1037Y688D01*
X1067Y688D02*
X1083Y688D01*
X1129Y688D02*
X1144Y688D01*
X1191Y688D02*
X1206Y688D01*
X1256Y688D02*
X1320Y688D01*
X1880Y688D02*
X1895Y688D01*
X668Y687D02*
X683Y687D01*
X731Y687D02*
X746Y687D01*
X784Y687D02*
X855Y687D01*
X961Y687D02*
X976Y687D01*
X1021Y687D02*
X1037Y687D01*
X1066Y687D02*
X1083Y687D01*
X1129Y687D02*
X1144Y687D01*
X1191Y687D02*
X1206Y687D01*
X1257Y687D02*
X1320Y687D01*
X1878Y687D02*
X1894Y687D01*
X668Y686D02*
X683Y686D01*
X731Y686D02*
X746Y686D01*
X784Y686D02*
X855Y686D01*
X961Y686D02*
X976Y686D01*
X1021Y686D02*
X1038Y686D01*
X1066Y686D02*
X1082Y686D01*
X1129Y686D02*
X1144Y686D01*
X1191Y686D02*
X1206Y686D01*
X1261Y686D02*
X1320Y686D01*
X1877Y686D02*
X1892Y686D01*
X668Y685D02*
X683Y685D01*
X731Y685D02*
X746Y685D01*
X784Y685D02*
X856Y685D01*
X961Y685D02*
X976Y685D01*
X1021Y685D02*
X1038Y685D01*
X1065Y685D02*
X1082Y685D01*
X1129Y685D02*
X1144Y685D01*
X1191Y685D02*
X1206Y685D01*
X1305Y685D02*
X1320Y685D01*
X1875Y685D02*
X1890Y685D01*
X668Y684D02*
X683Y684D01*
X731Y684D02*
X746Y684D01*
X784Y684D02*
X857Y684D01*
X961Y684D02*
X976Y684D01*
X1022Y684D02*
X1039Y684D01*
X1065Y684D02*
X1081Y684D01*
X1129Y684D02*
X1144Y684D01*
X1191Y684D02*
X1206Y684D01*
X1305Y684D02*
X1320Y684D01*
X1873Y684D02*
X1889Y684D01*
X668Y683D02*
X683Y683D01*
X731Y683D02*
X746Y683D01*
X784Y683D02*
X858Y683D01*
X961Y683D02*
X976Y683D01*
X1022Y683D02*
X1039Y683D01*
X1065Y683D02*
X1081Y683D01*
X1129Y683D02*
X1144Y683D01*
X1191Y683D02*
X1206Y683D01*
X1305Y683D02*
X1320Y683D01*
X1871Y683D02*
X1887Y683D01*
X668Y682D02*
X683Y682D01*
X731Y682D02*
X746Y682D01*
X784Y682D02*
X858Y682D01*
X961Y682D02*
X976Y682D01*
X1023Y682D02*
X1039Y682D01*
X1064Y682D02*
X1081Y682D01*
X1129Y682D02*
X1144Y682D01*
X1191Y682D02*
X1206Y682D01*
X1305Y682D02*
X1320Y682D01*
X1870Y682D02*
X1885Y682D01*
X668Y681D02*
X683Y681D01*
X731Y681D02*
X746Y681D01*
X784Y681D02*
X859Y681D01*
X961Y681D02*
X976Y681D01*
X1023Y681D02*
X1040Y681D01*
X1064Y681D02*
X1080Y681D01*
X1129Y681D02*
X1144Y681D01*
X1191Y681D02*
X1206Y681D01*
X1305Y681D02*
X1320Y681D01*
X1868Y681D02*
X1883Y681D01*
X668Y680D02*
X683Y680D01*
X731Y680D02*
X746Y680D01*
X784Y680D02*
X859Y680D01*
X961Y680D02*
X976Y680D01*
X1024Y680D02*
X1040Y680D01*
X1063Y680D02*
X1080Y680D01*
X1129Y680D02*
X1144Y680D01*
X1191Y680D02*
X1206Y680D01*
X1305Y680D02*
X1320Y680D01*
X1866Y680D02*
X1882Y680D01*
X668Y679D02*
X683Y679D01*
X731Y679D02*
X746Y679D01*
X784Y679D02*
X860Y679D01*
X961Y679D02*
X976Y679D01*
X1024Y679D02*
X1041Y679D01*
X1063Y679D02*
X1079Y679D01*
X1129Y679D02*
X1144Y679D01*
X1191Y679D02*
X1206Y679D01*
X1305Y679D02*
X1320Y679D01*
X1865Y679D02*
X1880Y679D01*
X668Y678D02*
X683Y678D01*
X731Y678D02*
X746Y678D01*
X784Y678D02*
X804Y678D01*
X841Y678D02*
X860Y678D01*
X961Y678D02*
X976Y678D01*
X1025Y678D02*
X1041Y678D01*
X1062Y678D02*
X1079Y678D01*
X1129Y678D02*
X1144Y678D01*
X1191Y678D02*
X1206Y678D01*
X1305Y678D02*
X1320Y678D01*
X1863Y678D02*
X1878Y678D01*
X668Y677D02*
X683Y677D01*
X731Y677D02*
X746Y677D01*
X784Y677D02*
X802Y677D01*
X843Y677D02*
X860Y677D01*
X961Y677D02*
X976Y677D01*
X1025Y677D02*
X1042Y677D01*
X1062Y677D02*
X1078Y677D01*
X1129Y677D02*
X1144Y677D01*
X1191Y677D02*
X1206Y677D01*
X1305Y677D02*
X1320Y677D01*
X1861Y677D02*
X1877Y677D01*
X668Y676D02*
X683Y676D01*
X731Y676D02*
X746Y676D01*
X784Y676D02*
X801Y676D01*
X844Y676D02*
X860Y676D01*
X961Y676D02*
X976Y676D01*
X1025Y676D02*
X1042Y676D01*
X1061Y676D02*
X1078Y676D01*
X1129Y676D02*
X1144Y676D01*
X1191Y676D02*
X1206Y676D01*
X1305Y676D02*
X1320Y676D01*
X1859Y676D02*
X1875Y676D01*
X668Y675D02*
X683Y675D01*
X731Y675D02*
X746Y675D01*
X784Y675D02*
X800Y675D01*
X845Y675D02*
X861Y675D01*
X961Y675D02*
X976Y675D01*
X1026Y675D02*
X1043Y675D01*
X1061Y675D02*
X1078Y675D01*
X1129Y675D02*
X1144Y675D01*
X1191Y675D02*
X1206Y675D01*
X1305Y675D02*
X1320Y675D01*
X1858Y675D02*
X1873Y675D01*
X668Y674D02*
X683Y674D01*
X731Y674D02*
X746Y674D01*
X784Y674D02*
X800Y674D01*
X845Y674D02*
X861Y674D01*
X961Y674D02*
X976Y674D01*
X1026Y674D02*
X1043Y674D01*
X1061Y674D02*
X1077Y674D01*
X1129Y674D02*
X1144Y674D01*
X1191Y674D02*
X1206Y674D01*
X1305Y674D02*
X1320Y674D01*
X1856Y674D02*
X1871Y674D01*
X668Y673D02*
X683Y673D01*
X731Y673D02*
X746Y673D01*
X784Y673D02*
X799Y673D01*
X846Y673D02*
X861Y673D01*
X961Y673D02*
X976Y673D01*
X1027Y673D02*
X1043Y673D01*
X1060Y673D02*
X1077Y673D01*
X1129Y673D02*
X1144Y673D01*
X1191Y673D02*
X1206Y673D01*
X1305Y673D02*
X1320Y673D01*
X1854Y673D02*
X1870Y673D01*
X668Y672D02*
X683Y672D01*
X731Y672D02*
X746Y672D01*
X784Y672D02*
X799Y672D01*
X846Y672D02*
X861Y672D01*
X961Y672D02*
X976Y672D01*
X1027Y672D02*
X1044Y672D01*
X1060Y672D02*
X1076Y672D01*
X1129Y672D02*
X1144Y672D01*
X1191Y672D02*
X1206Y672D01*
X1305Y672D02*
X1320Y672D01*
X1853Y672D02*
X1868Y672D01*
X668Y671D02*
X683Y671D01*
X731Y671D02*
X746Y671D01*
X784Y671D02*
X799Y671D01*
X846Y671D02*
X861Y671D01*
X961Y671D02*
X976Y671D01*
X1028Y671D02*
X1044Y671D01*
X1059Y671D02*
X1076Y671D01*
X1129Y671D02*
X1144Y671D01*
X1191Y671D02*
X1206Y671D01*
X1305Y671D02*
X1320Y671D01*
X1851Y671D02*
X1866Y671D01*
X668Y670D02*
X683Y670D01*
X730Y670D02*
X746Y670D01*
X784Y670D02*
X799Y670D01*
X846Y670D02*
X861Y670D01*
X961Y670D02*
X976Y670D01*
X1028Y670D02*
X1045Y670D01*
X1059Y670D02*
X1075Y670D01*
X1129Y670D02*
X1144Y670D01*
X1191Y670D02*
X1206Y670D01*
X1305Y670D02*
X1320Y670D01*
X1849Y670D02*
X1865Y670D01*
X668Y669D02*
X683Y669D01*
X730Y669D02*
X746Y669D01*
X784Y669D02*
X799Y669D01*
X846Y669D02*
X861Y669D01*
X961Y669D02*
X976Y669D01*
X1028Y669D02*
X1045Y669D01*
X1058Y669D02*
X1075Y669D01*
X1129Y669D02*
X1144Y669D01*
X1191Y669D02*
X1206Y669D01*
X1305Y669D02*
X1320Y669D01*
X1848Y669D02*
X1863Y669D01*
X668Y668D02*
X683Y668D01*
X729Y668D02*
X746Y668D01*
X784Y668D02*
X799Y668D01*
X846Y668D02*
X861Y668D01*
X961Y668D02*
X976Y668D01*
X1029Y668D02*
X1046Y668D01*
X1058Y668D02*
X1074Y668D01*
X1129Y668D02*
X1144Y668D01*
X1191Y668D02*
X1206Y668D01*
X1305Y668D02*
X1320Y668D01*
X1846Y668D02*
X1861Y668D01*
X668Y667D02*
X683Y667D01*
X727Y667D02*
X746Y667D01*
X784Y667D02*
X799Y667D01*
X846Y667D02*
X861Y667D01*
X961Y667D02*
X976Y667D01*
X1029Y667D02*
X1046Y667D01*
X1058Y667D02*
X1074Y667D01*
X1129Y667D02*
X1144Y667D01*
X1191Y667D02*
X1206Y667D01*
X1305Y667D02*
X1320Y667D01*
X1844Y667D02*
X1859Y667D01*
X668Y666D02*
X683Y666D01*
X726Y666D02*
X746Y666D01*
X784Y666D02*
X799Y666D01*
X846Y666D02*
X861Y666D01*
X961Y666D02*
X976Y666D01*
X1030Y666D02*
X1046Y666D01*
X1057Y666D02*
X1074Y666D01*
X1129Y666D02*
X1144Y666D01*
X1191Y666D02*
X1206Y666D01*
X1305Y666D02*
X1320Y666D01*
X1842Y666D02*
X1858Y666D01*
X668Y665D02*
X683Y665D01*
X725Y665D02*
X746Y665D01*
X784Y665D02*
X799Y665D01*
X846Y665D02*
X861Y665D01*
X961Y665D02*
X976Y665D01*
X1030Y665D02*
X1047Y665D01*
X1057Y665D02*
X1073Y665D01*
X1129Y665D02*
X1144Y665D01*
X1191Y665D02*
X1206Y665D01*
X1305Y665D02*
X1320Y665D01*
X1841Y665D02*
X1856Y665D01*
X668Y664D02*
X684Y664D01*
X724Y664D02*
X746Y664D01*
X784Y664D02*
X799Y664D01*
X846Y664D02*
X861Y664D01*
X961Y664D02*
X976Y664D01*
X1031Y664D02*
X1047Y664D01*
X1056Y664D02*
X1073Y664D01*
X1129Y664D02*
X1144Y664D01*
X1191Y664D02*
X1206Y664D01*
X1305Y664D02*
X1320Y664D01*
X1839Y664D02*
X1854Y664D01*
X668Y663D02*
X684Y663D01*
X723Y663D02*
X746Y663D01*
X784Y663D02*
X801Y663D01*
X846Y663D02*
X861Y663D01*
X961Y663D02*
X976Y663D01*
X1031Y663D02*
X1048Y663D01*
X1056Y663D02*
X1072Y663D01*
X1129Y663D02*
X1144Y663D01*
X1191Y663D02*
X1206Y663D01*
X1305Y663D02*
X1320Y663D01*
X1837Y663D02*
X1853Y663D01*
X668Y662D02*
X685Y662D01*
X722Y662D02*
X746Y662D01*
X784Y662D02*
X803Y662D01*
X846Y662D02*
X861Y662D01*
X961Y662D02*
X976Y662D01*
X1032Y662D02*
X1048Y662D01*
X1055Y662D02*
X1072Y662D01*
X1129Y662D02*
X1144Y662D01*
X1191Y662D02*
X1206Y662D01*
X1305Y662D02*
X1320Y662D01*
X1836Y662D02*
X1851Y662D01*
X669Y661D02*
X686Y661D01*
X720Y661D02*
X746Y661D01*
X784Y661D02*
X804Y661D01*
X846Y661D02*
X861Y661D01*
X961Y661D02*
X976Y661D01*
X1032Y661D02*
X1049Y661D01*
X1055Y661D02*
X1071Y661D01*
X1129Y661D02*
X1144Y661D01*
X1191Y661D02*
X1206Y661D01*
X1305Y661D02*
X1320Y661D01*
X1836Y661D02*
X1849Y661D01*
X669Y660D02*
X687Y660D01*
X719Y660D02*
X746Y660D01*
X784Y660D02*
X806Y660D01*
X846Y660D02*
X861Y660D01*
X961Y660D02*
X976Y660D01*
X1032Y660D02*
X1071Y660D01*
X1129Y660D02*
X1144Y660D01*
X1191Y660D02*
X1206Y660D01*
X1305Y660D02*
X1320Y660D01*
X1835Y660D02*
X1847Y660D01*
X669Y659D02*
X688Y659D01*
X718Y659D02*
X746Y659D01*
X784Y659D02*
X808Y659D01*
X845Y659D02*
X861Y659D01*
X961Y659D02*
X976Y659D01*
X1033Y659D02*
X1070Y659D01*
X1129Y659D02*
X1144Y659D01*
X1191Y659D02*
X1206Y659D01*
X1305Y659D02*
X1320Y659D01*
X1835Y659D02*
X1846Y659D01*
X670Y658D02*
X689Y658D01*
X717Y658D02*
X746Y658D01*
X784Y658D02*
X809Y658D01*
X845Y658D02*
X861Y658D01*
X961Y658D02*
X976Y658D01*
X1033Y658D02*
X1070Y658D01*
X1129Y658D02*
X1144Y658D01*
X1191Y658D02*
X1206Y658D01*
X1305Y658D02*
X1320Y658D01*
X1836Y658D02*
X1844Y658D01*
X670Y657D02*
X690Y657D01*
X716Y657D02*
X746Y657D01*
X784Y657D02*
X811Y657D01*
X844Y657D02*
X861Y657D01*
X961Y657D02*
X976Y657D01*
X1034Y657D02*
X1070Y657D01*
X1129Y657D02*
X1144Y657D01*
X1191Y657D02*
X1206Y657D01*
X1305Y657D02*
X1320Y657D01*
X1836Y657D02*
X1842Y657D01*
X671Y656D02*
X691Y656D01*
X715Y656D02*
X746Y656D01*
X784Y656D02*
X813Y656D01*
X843Y656D02*
X860Y656D01*
X961Y656D02*
X976Y656D01*
X1034Y656D02*
X1069Y656D01*
X1129Y656D02*
X1144Y656D01*
X1191Y656D02*
X1206Y656D01*
X1305Y656D02*
X1320Y656D01*
X1837Y656D02*
X1841Y656D01*
X671Y655D02*
X693Y655D01*
X713Y655D02*
X746Y655D01*
X784Y655D02*
X814Y655D01*
X842Y655D02*
X860Y655D01*
X961Y655D02*
X976Y655D01*
X1035Y655D02*
X1069Y655D01*
X1129Y655D02*
X1144Y655D01*
X1191Y655D02*
X1206Y655D01*
X1305Y655D02*
X1320Y655D01*
X672Y654D02*
X746Y654D01*
X784Y654D02*
X860Y654D01*
X904Y654D02*
X976Y654D01*
X1035Y654D02*
X1068Y654D01*
X1129Y654D02*
X1144Y654D01*
X1191Y654D02*
X1206Y654D01*
X1305Y654D02*
X1320Y654D01*
X673Y653D02*
X746Y653D01*
X784Y653D02*
X859Y653D01*
X902Y653D02*
X976Y653D01*
X1035Y653D02*
X1068Y653D01*
X1129Y653D02*
X1144Y653D01*
X1191Y653D02*
X1206Y653D01*
X1305Y653D02*
X1320Y653D01*
X674Y652D02*
X746Y652D01*
X784Y652D02*
X859Y652D01*
X900Y652D02*
X976Y652D01*
X1036Y652D02*
X1067Y652D01*
X1129Y652D02*
X1144Y652D01*
X1191Y652D02*
X1206Y652D01*
X1305Y652D02*
X1320Y652D01*
X674Y651D02*
X746Y651D01*
X784Y651D02*
X858Y651D01*
X899Y651D02*
X976Y651D01*
X1036Y651D02*
X1067Y651D01*
X1129Y651D02*
X1144Y651D01*
X1191Y651D02*
X1206Y651D01*
X1305Y651D02*
X1320Y651D01*
X675Y650D02*
X746Y650D01*
X784Y650D02*
X858Y650D01*
X899Y650D02*
X976Y650D01*
X1037Y650D02*
X1067Y650D01*
X1129Y650D02*
X1144Y650D01*
X1191Y650D02*
X1206Y650D01*
X1305Y650D02*
X1320Y650D01*
X676Y649D02*
X746Y649D01*
X784Y649D02*
X857Y649D01*
X898Y649D02*
X976Y649D01*
X1037Y649D02*
X1066Y649D01*
X1129Y649D02*
X1144Y649D01*
X1191Y649D02*
X1206Y649D01*
X1305Y649D02*
X1320Y649D01*
X677Y648D02*
X729Y648D01*
X731Y648D02*
X746Y648D01*
X784Y648D02*
X856Y648D01*
X898Y648D02*
X976Y648D01*
X1038Y648D02*
X1065Y648D01*
X1129Y648D02*
X1144Y648D01*
X1191Y648D02*
X1206Y648D01*
X1305Y648D02*
X1320Y648D01*
X679Y647D02*
X728Y647D01*
X731Y647D02*
X746Y647D01*
X784Y647D02*
X856Y647D01*
X898Y647D02*
X976Y647D01*
X1038Y647D02*
X1065Y647D01*
X1129Y647D02*
X1144Y647D01*
X1191Y647D02*
X1206Y647D01*
X1305Y647D02*
X1320Y647D01*
X680Y646D02*
X727Y646D01*
X731Y646D02*
X746Y646D01*
X784Y646D02*
X855Y646D01*
X898Y646D02*
X976Y646D01*
X1039Y646D02*
X1064Y646D01*
X1129Y646D02*
X1144Y646D01*
X1191Y646D02*
X1206Y646D01*
X1305Y646D02*
X1320Y646D01*
X681Y645D02*
X726Y645D01*
X731Y645D02*
X746Y645D01*
X784Y645D02*
X798Y645D01*
X801Y645D02*
X854Y645D01*
X898Y645D02*
X976Y645D01*
X1039Y645D02*
X1061Y645D01*
X1129Y645D02*
X1144Y645D01*
X1191Y645D02*
X1205Y645D01*
X1305Y645D02*
X1320Y645D01*
X682Y644D02*
X725Y644D01*
X731Y644D02*
X746Y644D01*
X784Y644D02*
X798Y644D01*
X802Y644D02*
X853Y644D01*
X898Y644D02*
X976Y644D01*
X1039Y644D02*
X1056Y644D01*
X1129Y644D02*
X1143Y644D01*
X1191Y644D02*
X1205Y644D01*
X1306Y644D02*
X1320Y644D01*
X683Y643D02*
X723Y643D01*
X732Y643D02*
X745Y643D01*
X785Y643D02*
X797Y643D01*
X804Y643D02*
X852Y643D01*
X898Y643D02*
X976Y643D01*
X1040Y643D02*
X1057Y643D01*
X1129Y643D02*
X1143Y643D01*
X1191Y643D02*
X1205Y643D01*
X1306Y643D02*
X1320Y643D01*
X685Y642D02*
X722Y642D01*
X732Y642D02*
X745Y642D01*
X785Y642D02*
X797Y642D01*
X806Y642D02*
X850Y642D01*
X899Y642D02*
X976Y642D01*
X1040Y642D02*
X1057Y642D01*
X1130Y642D02*
X1142Y642D01*
X1192Y642D02*
X1204Y642D01*
X1307Y642D02*
X1319Y642D01*
X686Y641D02*
X720Y641D01*
X733Y641D02*
X744Y641D01*
X786Y641D02*
X796Y641D01*
X808Y641D02*
X848Y641D01*
X900Y641D02*
X976Y641D01*
X1041Y641D02*
X1057Y641D01*
X1131Y641D02*
X1142Y641D01*
X1192Y641D02*
X1204Y641D01*
X1307Y641D02*
X1319Y641D01*
X688Y640D02*
X718Y640D01*
X734Y640D02*
X743Y640D01*
X787Y640D02*
X795Y640D01*
X809Y640D02*
X847Y640D01*
X901Y640D02*
X976Y640D01*
X1041Y640D02*
X1058Y640D01*
X1132Y640D02*
X1141Y640D01*
X1193Y640D02*
X1203Y640D01*
X1308Y640D02*
X1318Y640D01*
X691Y639D02*
X715Y639D01*
X736Y639D02*
X742Y639D01*
X788Y639D02*
X794Y639D01*
X811Y639D02*
X844Y639D01*
X902Y639D02*
X976Y639D01*
X1042Y639D02*
X1058Y639D01*
X1133Y639D02*
X1139Y639D01*
X1195Y639D02*
X1201Y639D01*
X1310Y639D02*
X1316Y639D01*
X1042Y638D02*
X1059Y638D01*
X1043Y637D02*
X1059Y637D01*
X1043Y636D02*
X1060Y636D01*
X1043Y635D02*
X1060Y635D01*
X1044Y634D02*
X1060Y634D01*
X1044Y633D02*
X1061Y633D01*
X1045Y632D02*
X1061Y632D01*
X1045Y631D02*
X1062Y631D01*
X1046Y630D02*
X1062Y630D01*
X1046Y629D02*
X1063Y629D01*
X1046Y628D02*
X1063Y628D01*
X1047Y627D02*
X1064Y627D01*
X1047Y626D02*
X1064Y626D01*
X1048Y625D02*
X1064Y625D01*
X1849Y625D02*
X1856Y625D01*
X1877Y625D02*
X1884Y625D01*
X1048Y624D02*
X1065Y624D01*
X1847Y624D02*
X1858Y624D01*
X1875Y624D02*
X1886Y624D01*
X1049Y623D02*
X1065Y623D01*
X1846Y623D02*
X1859Y623D01*
X1874Y623D02*
X1887Y623D01*
X1049Y622D02*
X1066Y622D01*
X1846Y622D02*
X1859Y622D01*
X1873Y622D02*
X1887Y622D01*
X1050Y621D02*
X1066Y621D01*
X1846Y621D02*
X1860Y621D01*
X1873Y621D02*
X1887Y621D01*
X1050Y620D02*
X1085Y620D01*
X1846Y620D02*
X1860Y620D01*
X1873Y620D02*
X1887Y620D01*
X1050Y619D02*
X1087Y619D01*
X1846Y619D02*
X1860Y619D01*
X1873Y619D02*
X1887Y619D01*
X1051Y618D02*
X1088Y618D01*
X1846Y618D02*
X1860Y618D01*
X1873Y618D02*
X1887Y618D01*
X1051Y617D02*
X1089Y617D01*
X1846Y617D02*
X1860Y617D01*
X1873Y617D02*
X1887Y617D01*
X1052Y616D02*
X1090Y616D01*
X1846Y616D02*
X1860Y616D01*
X1873Y616D02*
X1887Y616D01*
X1052Y615D02*
X1090Y615D01*
X1846Y615D02*
X1860Y615D01*
X1873Y615D02*
X1887Y615D01*
X1053Y614D02*
X1091Y614D01*
X1846Y614D02*
X1860Y614D01*
X1873Y614D02*
X1887Y614D01*
X1053Y613D02*
X1091Y613D01*
X1846Y613D02*
X1860Y613D01*
X1873Y613D02*
X1887Y613D01*
X1053Y612D02*
X1091Y612D01*
X1846Y612D02*
X1860Y612D01*
X1873Y612D02*
X1887Y612D01*
X1054Y611D02*
X1091Y611D01*
X1846Y611D02*
X1859Y611D01*
X1874Y611D02*
X1887Y611D01*
X1054Y610D02*
X1090Y610D01*
X1847Y610D02*
X1858Y610D01*
X1874Y610D02*
X1886Y610D01*
X1055Y609D02*
X1090Y609D01*
X1849Y609D02*
X1856Y609D01*
X1876Y609D02*
X1884Y609D01*
X1055Y608D02*
X1089Y608D01*
X1056Y607D02*
X1089Y607D01*
X1057Y606D02*
X1088Y606D01*
X1059Y605D02*
X1086Y605D01*
X1844Y578D02*
X1850Y578D01*
X1842Y577D02*
X1852Y577D01*
X1872Y577D02*
X1875Y577D01*
X1840Y576D02*
X1854Y576D01*
X1871Y576D02*
X1876Y576D01*
X1839Y575D02*
X1855Y575D01*
X1870Y575D02*
X1877Y575D01*
X1838Y574D02*
X1856Y574D01*
X1870Y574D02*
X1878Y574D01*
X1837Y573D02*
X1857Y573D01*
X1870Y573D02*
X1879Y573D01*
X1837Y572D02*
X1858Y572D01*
X1870Y572D02*
X1879Y572D01*
X1836Y571D02*
X1858Y571D01*
X1871Y571D02*
X1880Y571D01*
X1836Y570D02*
X1846Y570D01*
X1849Y570D02*
X1859Y570D01*
X1872Y570D02*
X1880Y570D01*
X1836Y569D02*
X1844Y569D01*
X1851Y569D02*
X1859Y569D01*
X1872Y569D02*
X1880Y569D01*
X1836Y568D02*
X1843Y568D01*
X1852Y568D02*
X1859Y568D01*
X1873Y568D02*
X1880Y568D01*
X1835Y567D02*
X1843Y567D01*
X1852Y567D02*
X1860Y567D01*
X1873Y567D02*
X1880Y567D01*
X1835Y566D02*
X1843Y566D01*
X1852Y566D02*
X1860Y566D01*
X1873Y566D02*
X1880Y566D01*
X1835Y565D02*
X1843Y565D01*
X1853Y565D02*
X1861Y565D01*
X1873Y565D02*
X1880Y565D01*
X1835Y564D02*
X1843Y564D01*
X1853Y564D02*
X1861Y564D01*
X1873Y564D02*
X1880Y564D01*
X1835Y563D02*
X1843Y563D01*
X1854Y563D02*
X1862Y563D01*
X1873Y563D02*
X1880Y563D01*
X1835Y562D02*
X1843Y562D01*
X1854Y562D02*
X1862Y562D01*
X1873Y562D02*
X1880Y562D01*
X1835Y561D02*
X1843Y561D01*
X1855Y561D02*
X1863Y561D01*
X1873Y561D02*
X1880Y561D01*
X1835Y560D02*
X1843Y560D01*
X1855Y560D02*
X1863Y560D01*
X1873Y560D02*
X1880Y560D01*
X1835Y559D02*
X1843Y559D01*
X1856Y559D02*
X1863Y559D01*
X1873Y559D02*
X1880Y559D01*
X1835Y558D02*
X1843Y558D01*
X1856Y558D02*
X1864Y558D01*
X1873Y558D02*
X1880Y558D01*
X1835Y557D02*
X1843Y557D01*
X1856Y557D02*
X1864Y557D01*
X1873Y557D02*
X1880Y557D01*
X1835Y556D02*
X1843Y556D01*
X1857Y556D02*
X1865Y556D01*
X1873Y556D02*
X1880Y556D01*
X1835Y555D02*
X1843Y555D01*
X1857Y555D02*
X1865Y555D01*
X1873Y555D02*
X1880Y555D01*
X1835Y554D02*
X1843Y554D01*
X1858Y554D02*
X1866Y554D01*
X1873Y554D02*
X1880Y554D01*
X1835Y553D02*
X1843Y553D01*
X1858Y553D02*
X1866Y553D01*
X1873Y553D02*
X1880Y553D01*
X1835Y552D02*
X1843Y552D01*
X1859Y552D02*
X1866Y552D01*
X1873Y552D02*
X1880Y552D01*
X1835Y551D02*
X1843Y551D01*
X1859Y551D02*
X1867Y551D01*
X1873Y551D02*
X1880Y551D01*
X1835Y550D02*
X1843Y550D01*
X1859Y550D02*
X1867Y550D01*
X1873Y550D02*
X1880Y550D01*
X1835Y549D02*
X1843Y549D01*
X1860Y549D02*
X1868Y549D01*
X1873Y549D02*
X1880Y549D01*
X1836Y548D02*
X1843Y548D01*
X1860Y548D02*
X1868Y548D01*
X1872Y548D02*
X1880Y548D01*
X1836Y547D02*
X1844Y547D01*
X1861Y547D02*
X1880Y547D01*
X1836Y546D02*
X1844Y546D01*
X1861Y546D02*
X1880Y546D01*
X1836Y545D02*
X1845Y545D01*
X1862Y545D02*
X1879Y545D01*
X1837Y544D02*
X1845Y544D01*
X1862Y544D02*
X1879Y544D01*
X1837Y543D02*
X1846Y543D01*
X1863Y543D02*
X1878Y543D01*
X1838Y542D02*
X1846Y542D01*
X1864Y542D02*
X1877Y542D01*
X1839Y541D02*
X1846Y541D01*
X1865Y541D02*
X1876Y541D01*
X1839Y540D02*
X1845Y540D01*
X1867Y540D02*
X1874Y540D01*
X1841Y539D02*
X1844Y539D01*
X1852Y520D02*
X1863Y520D01*
X1847Y519D02*
X1869Y519D01*
X1845Y518D02*
X1870Y518D01*
X1844Y517D02*
X1872Y517D01*
X1843Y516D02*
X1873Y516D01*
X1842Y515D02*
X1874Y515D01*
X1841Y514D02*
X1875Y514D01*
X1840Y513D02*
X1876Y513D01*
X1839Y512D02*
X1876Y512D01*
X1838Y511D02*
X1848Y511D01*
X1867Y511D02*
X1877Y511D01*
X1838Y510D02*
X1847Y510D01*
X1868Y510D02*
X1878Y510D01*
X1837Y509D02*
X1847Y509D01*
X1869Y509D02*
X1879Y509D01*
X1836Y508D02*
X1846Y508D01*
X1870Y508D02*
X1880Y508D01*
X1835Y507D02*
X1845Y507D01*
X1871Y507D02*
X1880Y507D01*
X1835Y506D02*
X1844Y506D01*
X1872Y506D02*
X1881Y506D01*
X1834Y505D02*
X1843Y505D01*
X1873Y505D02*
X1881Y505D01*
X1834Y504D02*
X1842Y504D01*
X1873Y504D02*
X1882Y504D01*
X1834Y503D02*
X1842Y503D01*
X1874Y503D02*
X1882Y503D01*
X1834Y502D02*
X1841Y502D01*
X1875Y502D02*
X1882Y502D01*
X1834Y501D02*
X1841Y501D01*
X1875Y501D02*
X1882Y501D01*
X1834Y500D02*
X1841Y500D01*
X1875Y500D02*
X1882Y500D01*
X1834Y499D02*
X1841Y499D01*
X1875Y499D02*
X1882Y499D01*
X1834Y498D02*
X1841Y498D01*
X1875Y498D02*
X1882Y498D01*
X1834Y497D02*
X1841Y497D01*
X1874Y497D02*
X1882Y497D01*
X1834Y496D02*
X1842Y496D01*
X1873Y496D02*
X1882Y496D01*
X1834Y495D02*
X1843Y495D01*
X1872Y495D02*
X1881Y495D01*
X1835Y494D02*
X1844Y494D01*
X1871Y494D02*
X1881Y494D01*
X1835Y493D02*
X1845Y493D01*
X1870Y493D02*
X1880Y493D01*
X1836Y492D02*
X1846Y492D01*
X1869Y492D02*
X1880Y492D01*
X1837Y491D02*
X1847Y491D01*
X1868Y491D02*
X1879Y491D01*
X1838Y490D02*
X1848Y490D01*
X1867Y490D02*
X1878Y490D01*
X1839Y489D02*
X1849Y489D01*
X1866Y489D02*
X1877Y489D01*
X1839Y488D02*
X1851Y488D01*
X1865Y488D02*
X1876Y488D01*
X1820Y487D02*
X1880Y487D01*
X1819Y486D02*
X1881Y486D01*
X1818Y485D02*
X1882Y485D01*
X1818Y484D02*
X1882Y484D01*
X1818Y483D02*
X1882Y483D01*
X1819Y482D02*
X1882Y482D01*
X1819Y481D02*
X1881Y481D01*
X1821Y480D02*
X1880Y480D01*
X1844Y461D02*
X1847Y461D01*
X1842Y460D02*
X1848Y460D01*
X1840Y459D02*
X1849Y459D01*
X1839Y458D02*
X1849Y458D01*
X1838Y457D02*
X1849Y457D01*
X1876Y457D02*
X1878Y457D01*
X1838Y456D02*
X1849Y456D01*
X1874Y456D02*
X1879Y456D01*
X1837Y455D02*
X1849Y455D01*
X1874Y455D02*
X1880Y455D01*
X1836Y454D02*
X1847Y454D01*
X1873Y454D02*
X1880Y454D01*
X1836Y453D02*
X1845Y453D01*
X1873Y453D02*
X1880Y453D01*
X1836Y452D02*
X1844Y452D01*
X1873Y452D02*
X1880Y452D01*
X1835Y451D02*
X1843Y451D01*
X1873Y451D02*
X1880Y451D01*
X1835Y450D02*
X1843Y450D01*
X1873Y450D02*
X1880Y450D01*
X1835Y449D02*
X1843Y449D01*
X1873Y449D02*
X1880Y449D01*
X1835Y448D02*
X1843Y448D01*
X1873Y448D02*
X1880Y448D01*
X1835Y447D02*
X1843Y447D01*
X1873Y447D02*
X1880Y447D01*
X1835Y446D02*
X1843Y446D01*
X1873Y446D02*
X1880Y446D01*
X1835Y445D02*
X1843Y445D01*
X1873Y445D02*
X1880Y445D01*
X1835Y444D02*
X1843Y444D01*
X1873Y444D02*
X1880Y444D01*
X1835Y443D02*
X1843Y443D01*
X1873Y443D02*
X1880Y443D01*
X1835Y442D02*
X1843Y442D01*
X1873Y442D02*
X1880Y442D01*
X1835Y441D02*
X1843Y441D01*
X1873Y441D02*
X1880Y441D01*
X1835Y440D02*
X1843Y440D01*
X1873Y440D02*
X1880Y440D01*
X1836Y439D02*
X1843Y439D01*
X1873Y439D02*
X1880Y439D01*
X1836Y438D02*
X1844Y438D01*
X1873Y438D02*
X1880Y438D01*
X1836Y437D02*
X1891Y437D01*
X1837Y436D02*
X1893Y436D01*
X1837Y435D02*
X1894Y435D01*
X1838Y434D02*
X1894Y434D01*
X1839Y433D02*
X1894Y433D01*
X1840Y432D02*
X1894Y432D01*
X1841Y431D02*
X1893Y431D01*
X1843Y430D02*
X1893Y430D01*
X1873Y429D02*
X1881Y429D01*
X1873Y428D02*
X1880Y428D01*
X1873Y427D02*
X1880Y427D01*
X1873Y426D02*
X1880Y426D01*
X1873Y425D02*
X1880Y425D01*
X1873Y424D02*
X1880Y424D01*
X1874Y423D02*
X1880Y423D01*
X1875Y422D02*
X1879Y422D01*
X1843Y402D02*
X1848Y402D01*
X1841Y401D02*
X1849Y401D01*
X1840Y400D02*
X1849Y400D01*
X1839Y399D02*
X1849Y399D01*
X1838Y398D02*
X1849Y398D01*
X1875Y398D02*
X1878Y398D01*
X1837Y397D02*
X1849Y397D01*
X1874Y397D02*
X1879Y397D01*
X1837Y396D02*
X1848Y396D01*
X1873Y396D02*
X1880Y396D01*
X1836Y395D02*
X1847Y395D01*
X1873Y395D02*
X1880Y395D01*
X1836Y394D02*
X1845Y394D01*
X1873Y394D02*
X1880Y394D01*
X1836Y393D02*
X1843Y393D01*
X1873Y393D02*
X1880Y393D01*
X1835Y392D02*
X1843Y392D01*
X1873Y392D02*
X1880Y392D01*
X1835Y391D02*
X1843Y391D01*
X1873Y391D02*
X1880Y391D01*
X1835Y390D02*
X1843Y390D01*
X1873Y390D02*
X1880Y390D01*
X1835Y389D02*
X1843Y389D01*
X1873Y389D02*
X1880Y389D01*
X1835Y388D02*
X1843Y388D01*
X1873Y388D02*
X1880Y388D01*
X1835Y387D02*
X1843Y387D01*
X1873Y387D02*
X1880Y387D01*
X1835Y386D02*
X1843Y386D01*
X1873Y386D02*
X1880Y386D01*
X1835Y385D02*
X1843Y385D01*
X1873Y385D02*
X1880Y385D01*
X1835Y384D02*
X1843Y384D01*
X1873Y384D02*
X1880Y384D01*
X1835Y383D02*
X1843Y383D01*
X1873Y383D02*
X1880Y383D01*
X1835Y382D02*
X1843Y382D01*
X1873Y382D02*
X1880Y382D01*
X1835Y381D02*
X1843Y381D01*
X1873Y381D02*
X1880Y381D01*
X1836Y380D02*
X1844Y380D01*
X1873Y380D02*
X1880Y380D01*
X1836Y379D02*
X1845Y379D01*
X1873Y379D02*
X1880Y379D01*
X1836Y378D02*
X1892Y378D01*
X1837Y377D02*
X1893Y377D01*
X1837Y376D02*
X1894Y376D01*
X1838Y375D02*
X1894Y375D01*
X1839Y374D02*
X1894Y374D01*
X1840Y373D02*
X1894Y373D01*
X1842Y372D02*
X1893Y372D01*
X1844Y371D02*
X1892Y371D01*
X1873Y370D02*
X1880Y370D01*
X1873Y369D02*
X1880Y369D01*
X1873Y368D02*
X1880Y368D01*
X1873Y367D02*
X1880Y367D01*
X1873Y366D02*
X1880Y366D01*
X1873Y365D02*
X1880Y365D01*
X1874Y364D02*
X1879Y364D01*
X1875Y363D02*
X1878Y363D01*
X1837Y343D02*
X1872Y343D01*
X1836Y342D02*
X1874Y342D01*
X1836Y341D02*
X1876Y341D01*
X1835Y340D02*
X1877Y340D01*
X1835Y339D02*
X1878Y339D01*
X1836Y338D02*
X1878Y338D01*
X1836Y337D02*
X1879Y337D01*
X1837Y336D02*
X1879Y336D01*
X1871Y335D02*
X1880Y335D01*
X1872Y334D02*
X1880Y334D01*
X1873Y333D02*
X1880Y333D01*
X1873Y332D02*
X1880Y332D01*
X1873Y331D02*
X1880Y331D01*
X1873Y330D02*
X1880Y330D01*
X1873Y329D02*
X1880Y329D01*
X1873Y328D02*
X1880Y328D01*
X1873Y327D02*
X1880Y327D01*
X1873Y326D02*
X1880Y326D01*
X1873Y325D02*
X1880Y325D01*
X1872Y324D02*
X1880Y324D01*
X1872Y323D02*
X1880Y323D01*
X1871Y322D02*
X1879Y322D01*
X1870Y321D02*
X1879Y321D01*
X1870Y320D02*
X1878Y320D01*
X1869Y319D02*
X1878Y319D01*
X1869Y318D02*
X1877Y318D01*
X1868Y317D02*
X1877Y317D01*
X1867Y316D02*
X1876Y316D01*
X1867Y315D02*
X1875Y315D01*
X1866Y314D02*
X1875Y314D01*
X1865Y313D02*
X1874Y313D01*
X1839Y312D02*
X1894Y312D01*
X1837Y311D02*
X1896Y311D01*
X1836Y310D02*
X1897Y310D01*
X1836Y309D02*
X1897Y309D01*
X1835Y308D02*
X1897Y308D01*
X1835Y307D02*
X1897Y307D01*
X1836Y306D02*
X1897Y306D01*
X1837Y305D02*
X1896Y305D01*
X1839Y304D02*
X1894Y304D01*
X906Y158D02*
X934Y158D01*
X857Y157D02*
X858Y157D01*
X896Y157D02*
X934Y157D01*
X855Y156D02*
X860Y156D01*
X894Y156D02*
X934Y156D01*
X854Y155D02*
X861Y155D01*
X892Y155D02*
X934Y155D01*
X711Y154D02*
X715Y154D01*
X853Y154D02*
X862Y154D01*
X891Y154D02*
X934Y154D01*
X710Y153D02*
X716Y153D01*
X853Y153D02*
X862Y153D01*
X890Y153D02*
X934Y153D01*
X568Y152D02*
X569Y152D01*
X709Y152D02*
X717Y152D01*
X853Y152D02*
X862Y152D01*
X889Y152D02*
X934Y152D01*
X566Y151D02*
X571Y151D01*
X709Y151D02*
X717Y151D01*
X853Y151D02*
X862Y151D01*
X888Y151D02*
X934Y151D01*
X565Y150D02*
X572Y150D01*
X709Y150D02*
X717Y150D01*
X853Y150D02*
X862Y150D01*
X888Y150D02*
X934Y150D01*
X564Y149D02*
X573Y149D01*
X708Y149D02*
X718Y149D01*
X853Y149D02*
X862Y149D01*
X887Y149D02*
X934Y149D01*
X564Y148D02*
X573Y148D01*
X708Y148D02*
X718Y148D01*
X853Y148D02*
X862Y148D01*
X887Y148D02*
X910Y148D01*
X925Y148D02*
X934Y148D01*
X564Y147D02*
X573Y147D01*
X708Y147D02*
X718Y147D01*
X853Y147D02*
X862Y147D01*
X886Y147D02*
X897Y147D01*
X925Y147D02*
X934Y147D01*
X564Y146D02*
X573Y146D01*
X708Y146D02*
X718Y146D01*
X853Y146D02*
X862Y146D01*
X886Y146D02*
X896Y146D01*
X925Y146D02*
X934Y146D01*
X564Y145D02*
X573Y145D01*
X709Y145D02*
X718Y145D01*
X853Y145D02*
X862Y145D01*
X886Y145D02*
X895Y145D01*
X925Y145D02*
X934Y145D01*
X564Y144D02*
X573Y144D01*
X709Y144D02*
X718Y144D01*
X853Y144D02*
X862Y144D01*
X886Y144D02*
X895Y144D01*
X925Y144D02*
X935Y144D01*
X564Y143D02*
X573Y143D01*
X709Y143D02*
X718Y143D01*
X853Y143D02*
X862Y143D01*
X886Y143D02*
X895Y143D01*
X925Y143D02*
X935Y143D01*
X564Y142D02*
X573Y142D01*
X709Y142D02*
X718Y142D01*
X853Y142D02*
X862Y142D01*
X886Y142D02*
X895Y142D01*
X925Y142D02*
X935Y142D01*
X564Y141D02*
X573Y141D01*
X709Y141D02*
X718Y141D01*
X853Y141D02*
X862Y141D01*
X886Y141D02*
X895Y141D01*
X925Y141D02*
X935Y141D01*
X564Y140D02*
X573Y140D01*
X709Y140D02*
X718Y140D01*
X853Y140D02*
X862Y140D01*
X886Y140D02*
X895Y140D01*
X925Y140D02*
X935Y140D01*
X564Y139D02*
X573Y139D01*
X709Y139D02*
X718Y139D01*
X853Y139D02*
X862Y139D01*
X886Y139D02*
X895Y139D01*
X925Y139D02*
X935Y139D01*
X564Y138D02*
X573Y138D01*
X709Y138D02*
X718Y138D01*
X853Y138D02*
X862Y138D01*
X886Y138D02*
X895Y138D01*
X926Y138D02*
X935Y138D01*
X564Y137D02*
X573Y137D01*
X709Y137D02*
X718Y137D01*
X853Y137D02*
X862Y137D01*
X886Y137D02*
X895Y137D01*
X926Y137D02*
X935Y137D01*
X564Y136D02*
X573Y136D01*
X709Y136D02*
X718Y136D01*
X853Y136D02*
X862Y136D01*
X886Y136D02*
X895Y136D01*
X926Y136D02*
X935Y136D01*
X564Y135D02*
X573Y135D01*
X709Y135D02*
X718Y135D01*
X826Y135D02*
X839Y135D01*
X853Y135D02*
X862Y135D01*
X886Y135D02*
X895Y135D01*
X926Y135D02*
X935Y135D01*
X564Y134D02*
X573Y134D01*
X709Y134D02*
X718Y134D01*
X784Y134D02*
X788Y134D01*
X823Y134D02*
X841Y134D01*
X853Y134D02*
X862Y134D01*
X886Y134D02*
X895Y134D01*
X926Y134D02*
X935Y134D01*
X564Y133D02*
X573Y133D01*
X709Y133D02*
X718Y133D01*
X744Y133D02*
X748Y133D01*
X782Y133D02*
X789Y133D01*
X821Y133D02*
X843Y133D01*
X853Y133D02*
X862Y133D01*
X886Y133D02*
X895Y133D01*
X926Y133D02*
X935Y133D01*
X564Y132D02*
X573Y132D01*
X630Y132D02*
X630Y132D01*
X709Y132D02*
X718Y132D01*
X743Y132D02*
X749Y132D01*
X782Y132D02*
X790Y132D01*
X820Y132D02*
X845Y132D01*
X853Y132D02*
X862Y132D01*
X886Y132D02*
X895Y132D01*
X926Y132D02*
X935Y132D01*
X564Y131D02*
X573Y131D01*
X608Y131D02*
X634Y131D01*
X709Y131D02*
X718Y131D01*
X742Y131D02*
X750Y131D01*
X781Y131D02*
X790Y131D01*
X819Y131D02*
X846Y131D01*
X853Y131D02*
X862Y131D01*
X886Y131D02*
X895Y131D01*
X926Y131D02*
X935Y131D01*
X299Y130D02*
X317Y130D01*
X540Y130D02*
X554Y130D01*
X564Y130D02*
X573Y130D01*
X606Y130D02*
X635Y130D01*
X709Y130D02*
X718Y130D01*
X742Y130D02*
X750Y130D01*
X781Y130D02*
X790Y130D01*
X818Y130D02*
X848Y130D01*
X853Y130D02*
X862Y130D01*
X886Y130D02*
X895Y130D01*
X926Y130D02*
X935Y130D01*
X299Y129D02*
X318Y129D01*
X537Y129D02*
X557Y129D01*
X564Y129D02*
X573Y129D01*
X604Y129D02*
X635Y129D01*
X709Y129D02*
X718Y129D01*
X741Y129D02*
X751Y129D01*
X781Y129D02*
X790Y129D01*
X817Y129D02*
X850Y129D01*
X853Y129D02*
X862Y129D01*
X886Y129D02*
X895Y129D01*
X926Y129D02*
X935Y129D01*
X299Y128D02*
X318Y128D01*
X535Y128D02*
X558Y128D01*
X564Y128D02*
X573Y128D01*
X603Y128D02*
X636Y128D01*
X709Y128D02*
X718Y128D01*
X741Y128D02*
X751Y128D01*
X781Y128D02*
X790Y128D01*
X817Y128D02*
X851Y128D01*
X853Y128D02*
X863Y128D01*
X886Y128D02*
X895Y128D01*
X926Y128D02*
X935Y128D01*
X299Y127D02*
X318Y127D01*
X534Y127D02*
X560Y127D01*
X564Y127D02*
X573Y127D01*
X602Y127D02*
X636Y127D01*
X709Y127D02*
X718Y127D01*
X741Y127D02*
X751Y127D01*
X781Y127D02*
X790Y127D01*
X816Y127D02*
X863Y127D01*
X886Y127D02*
X895Y127D01*
X926Y127D02*
X935Y127D01*
X299Y126D02*
X318Y126D01*
X533Y126D02*
X561Y126D01*
X564Y126D02*
X573Y126D01*
X601Y126D02*
X636Y126D01*
X709Y126D02*
X718Y126D01*
X741Y126D02*
X751Y126D01*
X781Y126D02*
X790Y126D01*
X816Y126D02*
X863Y126D01*
X886Y126D02*
X895Y126D01*
X926Y126D02*
X935Y126D01*
X299Y125D02*
X317Y125D01*
X532Y125D02*
X573Y125D01*
X600Y125D02*
X635Y125D01*
X709Y125D02*
X718Y125D01*
X741Y125D02*
X751Y125D01*
X781Y125D02*
X790Y125D01*
X815Y125D02*
X827Y125D01*
X838Y125D02*
X863Y125D01*
X886Y125D02*
X895Y125D01*
X926Y125D02*
X935Y125D01*
X299Y124D02*
X315Y124D01*
X530Y124D02*
X573Y124D01*
X600Y124D02*
X635Y124D01*
X709Y124D02*
X718Y124D01*
X741Y124D02*
X751Y124D01*
X781Y124D02*
X790Y124D01*
X815Y124D02*
X825Y124D01*
X840Y124D02*
X863Y124D01*
X886Y124D02*
X895Y124D01*
X926Y124D02*
X935Y124D01*
X299Y123D02*
X305Y123D01*
X529Y123D02*
X573Y123D01*
X599Y123D02*
X634Y123D01*
X709Y123D02*
X718Y123D01*
X741Y123D02*
X751Y123D01*
X781Y123D02*
X790Y123D01*
X815Y123D02*
X825Y123D01*
X841Y123D02*
X863Y123D01*
X886Y123D02*
X896Y123D01*
X926Y123D02*
X935Y123D01*
X299Y122D02*
X305Y122D01*
X529Y122D02*
X573Y122D01*
X599Y122D02*
X631Y122D01*
X709Y122D02*
X718Y122D01*
X742Y122D02*
X751Y122D01*
X781Y122D02*
X790Y122D01*
X815Y122D02*
X824Y122D01*
X843Y122D02*
X863Y122D01*
X886Y122D02*
X896Y122D01*
X926Y122D02*
X935Y122D01*
X299Y121D02*
X305Y121D01*
X528Y121D02*
X573Y121D01*
X598Y121D02*
X610Y121D01*
X709Y121D02*
X718Y121D01*
X742Y121D02*
X751Y121D01*
X781Y121D02*
X790Y121D01*
X815Y121D02*
X824Y121D01*
X844Y121D02*
X863Y121D01*
X887Y121D02*
X897Y121D01*
X926Y121D02*
X935Y121D01*
X299Y120D02*
X305Y120D01*
X527Y120D02*
X541Y120D01*
X553Y120D02*
X573Y120D01*
X598Y120D02*
X609Y120D01*
X709Y120D02*
X718Y120D01*
X742Y120D02*
X751Y120D01*
X780Y120D02*
X790Y120D01*
X815Y120D02*
X824Y120D01*
X846Y120D02*
X863Y120D01*
X887Y120D02*
X899Y120D01*
X917Y120D02*
X935Y120D01*
X299Y119D02*
X305Y119D01*
X526Y119D02*
X539Y119D01*
X555Y119D02*
X574Y119D01*
X598Y119D02*
X608Y119D01*
X709Y119D02*
X718Y119D01*
X742Y119D02*
X752Y119D01*
X780Y119D02*
X790Y119D01*
X815Y119D02*
X824Y119D01*
X848Y119D02*
X863Y119D01*
X887Y119D02*
X935Y119D01*
X299Y118D02*
X305Y118D01*
X526Y118D02*
X538Y118D01*
X556Y118D02*
X574Y118D01*
X598Y118D02*
X608Y118D01*
X709Y118D02*
X718Y118D01*
X742Y118D02*
X752Y118D01*
X779Y118D02*
X789Y118D01*
X815Y118D02*
X824Y118D01*
X849Y118D02*
X863Y118D01*
X888Y118D02*
X935Y118D01*
X299Y117D02*
X305Y117D01*
X526Y117D02*
X537Y117D01*
X557Y117D02*
X574Y117D01*
X598Y117D02*
X608Y117D01*
X709Y117D02*
X718Y117D01*
X743Y117D02*
X753Y117D01*
X779Y117D02*
X789Y117D01*
X815Y117D02*
X824Y117D01*
X851Y117D02*
X863Y117D01*
X888Y117D02*
X935Y117D01*
X299Y116D02*
X305Y116D01*
X336Y116D02*
X338Y116D01*
X362Y116D02*
X364Y116D01*
X391Y116D02*
X405Y116D01*
X437Y116D02*
X448Y116D01*
X458Y116D02*
X461Y116D01*
X525Y116D02*
X536Y116D01*
X558Y116D02*
X574Y116D01*
X598Y116D02*
X607Y116D01*
X709Y116D02*
X718Y116D01*
X743Y116D02*
X753Y116D01*
X779Y116D02*
X789Y116D01*
X815Y116D02*
X824Y116D01*
X852Y116D02*
X863Y116D01*
X889Y116D02*
X935Y116D01*
X299Y115D02*
X305Y115D01*
X335Y115D02*
X339Y115D01*
X361Y115D02*
X366Y115D01*
X389Y115D02*
X407Y115D01*
X435Y115D02*
X449Y115D01*
X457Y115D02*
X462Y115D01*
X525Y115D02*
X535Y115D01*
X559Y115D02*
X574Y115D01*
X598Y115D02*
X607Y115D01*
X709Y115D02*
X718Y115D01*
X744Y115D02*
X754Y115D01*
X778Y115D02*
X788Y115D01*
X815Y115D02*
X824Y115D01*
X854Y115D02*
X863Y115D01*
X890Y115D02*
X935Y115D01*
X299Y114D02*
X305Y114D01*
X334Y114D02*
X340Y114D01*
X361Y114D02*
X366Y114D01*
X388Y114D02*
X408Y114D01*
X434Y114D02*
X450Y114D01*
X457Y114D02*
X462Y114D01*
X525Y114D02*
X534Y114D01*
X561Y114D02*
X574Y114D01*
X598Y114D02*
X607Y114D01*
X709Y114D02*
X718Y114D01*
X744Y114D02*
X754Y114D01*
X778Y114D02*
X788Y114D01*
X815Y114D02*
X824Y114D01*
X854Y114D02*
X863Y114D01*
X891Y114D02*
X935Y114D01*
X299Y113D02*
X305Y113D01*
X334Y113D02*
X340Y113D01*
X360Y113D02*
X366Y113D01*
X387Y113D02*
X410Y113D01*
X433Y113D02*
X451Y113D01*
X457Y113D02*
X462Y113D01*
X525Y113D02*
X534Y113D01*
X562Y113D02*
X574Y113D01*
X598Y113D02*
X607Y113D01*
X709Y113D02*
X718Y113D01*
X745Y113D02*
X755Y113D01*
X777Y113D02*
X787Y113D01*
X815Y113D02*
X824Y113D01*
X854Y113D02*
X863Y113D01*
X892Y113D02*
X935Y113D01*
X299Y112D02*
X305Y112D01*
X334Y112D02*
X340Y112D01*
X360Y112D02*
X366Y112D01*
X386Y112D02*
X411Y112D01*
X432Y112D02*
X452Y112D01*
X457Y112D02*
X462Y112D01*
X525Y112D02*
X534Y112D01*
X563Y112D02*
X574Y112D01*
X598Y112D02*
X607Y112D01*
X709Y112D02*
X718Y112D01*
X745Y112D02*
X755Y112D01*
X777Y112D02*
X787Y112D01*
X815Y112D02*
X824Y112D01*
X854Y112D02*
X863Y112D01*
X893Y112D02*
X935Y112D01*
X299Y111D02*
X305Y111D01*
X334Y111D02*
X340Y111D01*
X360Y111D02*
X366Y111D01*
X385Y111D02*
X412Y111D01*
X431Y111D02*
X454Y111D01*
X457Y111D02*
X462Y111D01*
X525Y111D02*
X534Y111D01*
X564Y111D02*
X574Y111D01*
X598Y111D02*
X607Y111D01*
X709Y111D02*
X718Y111D01*
X745Y111D02*
X756Y111D01*
X777Y111D02*
X787Y111D01*
X815Y111D02*
X824Y111D01*
X854Y111D02*
X863Y111D01*
X895Y111D02*
X935Y111D01*
X299Y110D02*
X305Y110D01*
X334Y110D02*
X340Y110D01*
X360Y110D02*
X366Y110D01*
X384Y110D02*
X412Y110D01*
X431Y110D02*
X455Y110D01*
X457Y110D02*
X462Y110D01*
X525Y110D02*
X534Y110D01*
X564Y110D02*
X574Y110D01*
X598Y110D02*
X636Y110D01*
X709Y110D02*
X718Y110D01*
X746Y110D02*
X756Y110D01*
X776Y110D02*
X786Y110D01*
X815Y110D02*
X824Y110D01*
X854Y110D02*
X863Y110D01*
X898Y110D02*
X921Y110D01*
X926Y110D02*
X935Y110D01*
X299Y109D02*
X305Y109D01*
X334Y109D02*
X340Y109D01*
X360Y109D02*
X366Y109D01*
X383Y109D02*
X391Y109D01*
X405Y109D02*
X413Y109D01*
X431Y109D02*
X437Y109D01*
X446Y109D02*
X462Y109D01*
X525Y109D02*
X534Y109D01*
X565Y109D02*
X574Y109D01*
X598Y109D02*
X638Y109D01*
X709Y109D02*
X718Y109D01*
X746Y109D02*
X757Y109D01*
X776Y109D02*
X786Y109D01*
X815Y109D02*
X824Y109D01*
X854Y109D02*
X863Y109D01*
X926Y109D02*
X935Y109D01*
X299Y108D02*
X305Y108D01*
X334Y108D02*
X340Y108D01*
X360Y108D02*
X366Y108D01*
X383Y108D02*
X390Y108D01*
X406Y108D02*
X413Y108D01*
X430Y108D02*
X436Y108D01*
X448Y108D02*
X462Y108D01*
X525Y108D02*
X534Y108D01*
X565Y108D02*
X574Y108D01*
X598Y108D02*
X640Y108D01*
X709Y108D02*
X718Y108D01*
X747Y108D02*
X757Y108D01*
X775Y108D02*
X785Y108D01*
X815Y108D02*
X824Y108D01*
X854Y108D02*
X863Y108D01*
X926Y108D02*
X935Y108D01*
X299Y107D02*
X305Y107D01*
X334Y107D02*
X340Y107D01*
X360Y107D02*
X366Y107D01*
X382Y107D02*
X389Y107D01*
X407Y107D02*
X414Y107D01*
X430Y107D02*
X436Y107D01*
X449Y107D02*
X462Y107D01*
X525Y107D02*
X534Y107D01*
X565Y107D02*
X574Y107D01*
X598Y107D02*
X641Y107D01*
X709Y107D02*
X718Y107D01*
X747Y107D02*
X757Y107D01*
X775Y107D02*
X785Y107D01*
X815Y107D02*
X824Y107D01*
X854Y107D02*
X863Y107D01*
X926Y107D02*
X935Y107D01*
X299Y106D02*
X305Y106D01*
X334Y106D02*
X341Y106D01*
X359Y106D02*
X366Y106D01*
X382Y106D02*
X388Y106D01*
X408Y106D02*
X414Y106D01*
X430Y106D02*
X436Y106D01*
X450Y106D02*
X462Y106D01*
X525Y106D02*
X534Y106D01*
X565Y106D02*
X574Y106D01*
X598Y106D02*
X642Y106D01*
X709Y106D02*
X718Y106D01*
X748Y106D02*
X758Y106D01*
X774Y106D02*
X784Y106D01*
X815Y106D02*
X824Y106D01*
X854Y106D02*
X863Y106D01*
X926Y106D02*
X935Y106D01*
X299Y105D02*
X305Y105D01*
X335Y105D02*
X341Y105D01*
X359Y105D02*
X365Y105D01*
X382Y105D02*
X388Y105D01*
X408Y105D02*
X414Y105D01*
X430Y105D02*
X436Y105D01*
X451Y105D02*
X462Y105D01*
X525Y105D02*
X534Y105D01*
X565Y105D02*
X574Y105D01*
X598Y105D02*
X643Y105D01*
X709Y105D02*
X718Y105D01*
X748Y105D02*
X758Y105D01*
X774Y105D02*
X784Y105D01*
X815Y105D02*
X824Y105D01*
X854Y105D02*
X863Y105D01*
X926Y105D02*
X935Y105D01*
X299Y104D02*
X305Y104D01*
X335Y104D02*
X342Y104D01*
X359Y104D02*
X365Y104D01*
X382Y104D02*
X388Y104D01*
X409Y104D02*
X414Y104D01*
X430Y104D02*
X436Y104D01*
X452Y104D02*
X462Y104D01*
X525Y104D02*
X534Y104D01*
X565Y104D02*
X574Y104D01*
X598Y104D02*
X644Y104D01*
X709Y104D02*
X718Y104D01*
X749Y104D02*
X759Y104D01*
X774Y104D02*
X784Y104D01*
X815Y104D02*
X824Y104D01*
X854Y104D02*
X863Y104D01*
X926Y104D02*
X935Y104D01*
X299Y103D02*
X305Y103D01*
X336Y103D02*
X342Y103D01*
X358Y103D02*
X365Y103D01*
X382Y103D02*
X388Y103D01*
X409Y103D02*
X414Y103D01*
X431Y103D02*
X435Y103D01*
X453Y103D02*
X462Y103D01*
X525Y103D02*
X534Y103D01*
X565Y103D02*
X574Y103D01*
X598Y103D02*
X644Y103D01*
X709Y103D02*
X718Y103D01*
X749Y103D02*
X759Y103D01*
X773Y103D02*
X783Y103D01*
X815Y103D02*
X824Y103D01*
X854Y103D02*
X863Y103D01*
X926Y103D02*
X935Y103D01*
X288Y102D02*
X290Y102D01*
X299Y102D02*
X305Y102D01*
X336Y102D02*
X342Y102D01*
X358Y102D02*
X364Y102D01*
X382Y102D02*
X388Y102D01*
X409Y102D02*
X414Y102D01*
X432Y102D02*
X434Y102D01*
X455Y102D02*
X462Y102D01*
X525Y102D02*
X534Y102D01*
X565Y102D02*
X574Y102D01*
X598Y102D02*
X645Y102D01*
X709Y102D02*
X718Y102D01*
X750Y102D02*
X760Y102D01*
X773Y102D02*
X783Y102D01*
X815Y102D02*
X824Y102D01*
X854Y102D02*
X863Y102D01*
X926Y102D02*
X935Y102D01*
X287Y101D02*
X291Y101D01*
X299Y101D02*
X305Y101D01*
X337Y101D02*
X343Y101D01*
X357Y101D02*
X364Y101D01*
X382Y101D02*
X388Y101D01*
X409Y101D02*
X414Y101D01*
X456Y101D02*
X462Y101D01*
X525Y101D02*
X534Y101D01*
X565Y101D02*
X574Y101D01*
X598Y101D02*
X645Y101D01*
X709Y101D02*
X718Y101D01*
X750Y101D02*
X760Y101D01*
X772Y101D02*
X782Y101D01*
X815Y101D02*
X824Y101D01*
X854Y101D02*
X863Y101D01*
X926Y101D02*
X935Y101D01*
X286Y100D02*
X291Y100D01*
X299Y100D02*
X305Y100D01*
X337Y100D02*
X343Y100D01*
X357Y100D02*
X363Y100D01*
X382Y100D02*
X388Y100D01*
X408Y100D02*
X414Y100D01*
X457Y100D02*
X462Y100D01*
X525Y100D02*
X534Y100D01*
X565Y100D02*
X574Y100D01*
X598Y100D02*
X610Y100D01*
X635Y100D02*
X646Y100D01*
X709Y100D02*
X718Y100D01*
X750Y100D02*
X761Y100D01*
X772Y100D02*
X782Y100D01*
X815Y100D02*
X824Y100D01*
X854Y100D02*
X863Y100D01*
X926Y100D02*
X935Y100D01*
X286Y99D02*
X292Y99D01*
X299Y99D02*
X305Y99D01*
X337Y99D02*
X344Y99D01*
X356Y99D02*
X363Y99D01*
X382Y99D02*
X414Y99D01*
X457Y99D02*
X462Y99D01*
X525Y99D02*
X534Y99D01*
X565Y99D02*
X574Y99D01*
X598Y99D02*
X609Y99D01*
X636Y99D02*
X646Y99D01*
X709Y99D02*
X718Y99D01*
X751Y99D02*
X761Y99D01*
X772Y99D02*
X782Y99D01*
X815Y99D02*
X824Y99D01*
X854Y99D02*
X863Y99D01*
X926Y99D02*
X935Y99D01*
X286Y98D02*
X292Y98D01*
X299Y98D02*
X305Y98D01*
X338Y98D02*
X344Y98D01*
X356Y98D02*
X362Y98D01*
X382Y98D02*
X414Y98D01*
X457Y98D02*
X462Y98D01*
X525Y98D02*
X534Y98D01*
X565Y98D02*
X574Y98D01*
X598Y98D02*
X608Y98D01*
X637Y98D02*
X646Y98D01*
X709Y98D02*
X718Y98D01*
X751Y98D02*
X762Y98D01*
X771Y98D02*
X781Y98D01*
X815Y98D02*
X824Y98D01*
X854Y98D02*
X863Y98D01*
X926Y98D02*
X935Y98D01*
X286Y97D02*
X292Y97D01*
X299Y97D02*
X305Y97D01*
X338Y97D02*
X345Y97D01*
X356Y97D02*
X362Y97D01*
X382Y97D02*
X414Y97D01*
X457Y97D02*
X462Y97D01*
X525Y97D02*
X534Y97D01*
X565Y97D02*
X574Y97D01*
X598Y97D02*
X607Y97D01*
X637Y97D02*
X646Y97D01*
X709Y97D02*
X718Y97D01*
X752Y97D02*
X762Y97D01*
X771Y97D02*
X781Y97D01*
X815Y97D02*
X824Y97D01*
X854Y97D02*
X863Y97D01*
X926Y97D02*
X935Y97D01*
X286Y96D02*
X292Y96D01*
X299Y96D02*
X305Y96D01*
X339Y96D02*
X345Y96D01*
X355Y96D02*
X361Y96D01*
X382Y96D02*
X414Y96D01*
X457Y96D02*
X462Y96D01*
X525Y96D02*
X534Y96D01*
X565Y96D02*
X574Y96D01*
X598Y96D02*
X607Y96D01*
X637Y96D02*
X646Y96D01*
X709Y96D02*
X718Y96D01*
X752Y96D02*
X763Y96D01*
X770Y96D02*
X780Y96D01*
X815Y96D02*
X824Y96D01*
X854Y96D02*
X863Y96D01*
X926Y96D02*
X935Y96D01*
X286Y95D02*
X292Y95D01*
X299Y95D02*
X305Y95D01*
X339Y95D02*
X346Y95D01*
X355Y95D02*
X361Y95D01*
X382Y95D02*
X414Y95D01*
X457Y95D02*
X462Y95D01*
X525Y95D02*
X534Y95D01*
X565Y95D02*
X574Y95D01*
X598Y95D02*
X607Y95D01*
X637Y95D02*
X646Y95D01*
X709Y95D02*
X719Y95D01*
X753Y95D02*
X763Y95D01*
X770Y95D02*
X780Y95D01*
X815Y95D02*
X824Y95D01*
X854Y95D02*
X863Y95D01*
X926Y95D02*
X935Y95D01*
X286Y94D02*
X292Y94D01*
X299Y94D02*
X305Y94D01*
X340Y94D02*
X346Y94D01*
X354Y94D02*
X361Y94D01*
X383Y94D02*
X414Y94D01*
X457Y94D02*
X462Y94D01*
X525Y94D02*
X534Y94D01*
X564Y94D02*
X574Y94D01*
X598Y94D02*
X607Y94D01*
X637Y94D02*
X646Y94D01*
X709Y94D02*
X719Y94D01*
X753Y94D02*
X763Y94D01*
X770Y94D02*
X779Y94D01*
X815Y94D02*
X824Y94D01*
X854Y94D02*
X863Y94D01*
X926Y94D02*
X935Y94D01*
X286Y93D02*
X292Y93D01*
X299Y93D02*
X305Y93D01*
X340Y93D02*
X346Y93D01*
X354Y93D02*
X360Y93D01*
X385Y93D02*
X414Y93D01*
X457Y93D02*
X462Y93D01*
X525Y93D02*
X534Y93D01*
X563Y93D02*
X574Y93D01*
X598Y93D02*
X607Y93D01*
X637Y93D02*
X646Y93D01*
X709Y93D02*
X719Y93D01*
X754Y93D02*
X764Y93D01*
X769Y93D02*
X779Y93D01*
X815Y93D02*
X824Y93D01*
X854Y93D02*
X863Y93D01*
X926Y93D02*
X935Y93D01*
X286Y92D02*
X292Y92D01*
X299Y92D02*
X305Y92D01*
X341Y92D02*
X347Y92D01*
X353Y92D02*
X360Y92D01*
X409Y92D02*
X414Y92D01*
X457Y92D02*
X462Y92D01*
X525Y92D02*
X534Y92D01*
X562Y92D02*
X574Y92D01*
X598Y92D02*
X607Y92D01*
X637Y92D02*
X646Y92D01*
X709Y92D02*
X719Y92D01*
X754Y92D02*
X765Y92D01*
X768Y92D02*
X779Y92D01*
X815Y92D02*
X824Y92D01*
X854Y92D02*
X863Y92D01*
X926Y92D02*
X935Y92D01*
X286Y91D02*
X292Y91D01*
X299Y91D02*
X305Y91D01*
X341Y91D02*
X347Y91D01*
X353Y91D02*
X359Y91D01*
X409Y91D02*
X414Y91D01*
X457Y91D02*
X462Y91D01*
X525Y91D02*
X534Y91D01*
X561Y91D02*
X574Y91D01*
X598Y91D02*
X608Y91D01*
X637Y91D02*
X646Y91D01*
X709Y91D02*
X719Y91D01*
X755Y91D02*
X778Y91D01*
X815Y91D02*
X824Y91D01*
X854Y91D02*
X863Y91D01*
X926Y91D02*
X935Y91D01*
X286Y90D02*
X292Y90D01*
X299Y90D02*
X305Y90D01*
X341Y90D02*
X348Y90D01*
X353Y90D02*
X359Y90D01*
X408Y90D02*
X414Y90D01*
X457Y90D02*
X462Y90D01*
X525Y90D02*
X535Y90D01*
X560Y90D02*
X574Y90D01*
X598Y90D02*
X609Y90D01*
X637Y90D02*
X646Y90D01*
X709Y90D02*
X719Y90D01*
X755Y90D02*
X778Y90D01*
X815Y90D02*
X824Y90D01*
X854Y90D02*
X863Y90D01*
X926Y90D02*
X935Y90D01*
X286Y89D02*
X292Y89D01*
X299Y89D02*
X305Y89D01*
X342Y89D02*
X348Y89D01*
X352Y89D02*
X358Y89D01*
X408Y89D02*
X414Y89D01*
X457Y89D02*
X462Y89D01*
X525Y89D02*
X535Y89D01*
X559Y89D02*
X574Y89D01*
X598Y89D02*
X611Y89D01*
X637Y89D02*
X646Y89D01*
X710Y89D02*
X719Y89D01*
X756Y89D02*
X777Y89D01*
X815Y89D02*
X824Y89D01*
X854Y89D02*
X863Y89D01*
X926Y89D02*
X935Y89D01*
X286Y88D02*
X292Y88D01*
X299Y88D02*
X305Y88D01*
X342Y88D02*
X349Y88D01*
X352Y88D02*
X358Y88D01*
X407Y88D02*
X414Y88D01*
X457Y88D02*
X462Y88D01*
X526Y88D02*
X536Y88D01*
X558Y88D02*
X574Y88D01*
X598Y88D02*
X613Y88D01*
X637Y88D02*
X646Y88D01*
X710Y88D02*
X719Y88D01*
X756Y88D02*
X777Y88D01*
X815Y88D02*
X824Y88D01*
X854Y88D02*
X863Y88D01*
X926Y88D02*
X935Y88D01*
X286Y87D02*
X292Y87D01*
X299Y87D02*
X305Y87D01*
X343Y87D02*
X349Y87D01*
X351Y87D02*
X358Y87D01*
X406Y87D02*
X414Y87D01*
X457Y87D02*
X462Y87D01*
X526Y87D02*
X537Y87D01*
X557Y87D02*
X574Y87D01*
X598Y87D02*
X615Y87D01*
X636Y87D02*
X646Y87D01*
X709Y87D02*
X719Y87D01*
X756Y87D02*
X776Y87D01*
X815Y87D02*
X824Y87D01*
X854Y87D02*
X863Y87D01*
X926Y87D02*
X936Y87D01*
X286Y86D02*
X292Y86D01*
X299Y86D02*
X305Y86D01*
X343Y86D02*
X357Y86D01*
X405Y86D02*
X413Y86D01*
X457Y86D02*
X462Y86D01*
X526Y86D02*
X538Y86D01*
X556Y86D02*
X574Y86D01*
X598Y86D02*
X616Y86D01*
X635Y86D02*
X646Y86D01*
X675Y86D02*
X719Y86D01*
X757Y86D02*
X776Y86D01*
X815Y86D02*
X824Y86D01*
X854Y86D02*
X863Y86D01*
X926Y86D02*
X936Y86D01*
X286Y85D02*
X316Y85D01*
X344Y85D02*
X357Y85D01*
X384Y85D02*
X412Y85D01*
X457Y85D02*
X462Y85D01*
X527Y85D02*
X540Y85D01*
X554Y85D02*
X574Y85D01*
X598Y85D02*
X645Y85D01*
X672Y85D02*
X719Y85D01*
X757Y85D02*
X776Y85D01*
X815Y85D02*
X824Y85D01*
X854Y85D02*
X863Y85D01*
X927Y85D02*
X935Y85D01*
X286Y84D02*
X317Y84D01*
X344Y84D02*
X356Y84D01*
X383Y84D02*
X412Y84D01*
X457Y84D02*
X462Y84D01*
X527Y84D02*
X542Y84D01*
X552Y84D02*
X574Y84D01*
X598Y84D02*
X645Y84D01*
X671Y84D02*
X719Y84D01*
X758Y84D02*
X775Y84D01*
X815Y84D02*
X824Y84D01*
X854Y84D02*
X863Y84D01*
X927Y84D02*
X935Y84D01*
X286Y83D02*
X318Y83D01*
X344Y83D02*
X356Y83D01*
X382Y83D02*
X411Y83D01*
X457Y83D02*
X462Y83D01*
X528Y83D02*
X574Y83D01*
X598Y83D02*
X644Y83D01*
X670Y83D02*
X719Y83D01*
X758Y83D02*
X774Y83D01*
X815Y83D02*
X824Y83D01*
X854Y83D02*
X863Y83D01*
X927Y83D02*
X935Y83D01*
X286Y82D02*
X318Y82D01*
X345Y82D02*
X355Y82D01*
X382Y82D02*
X409Y82D01*
X457Y82D02*
X462Y82D01*
X529Y82D02*
X574Y82D01*
X598Y82D02*
X644Y82D01*
X670Y82D02*
X719Y82D01*
X759Y82D02*
X772Y82D01*
X816Y82D02*
X824Y82D01*
X855Y82D02*
X863Y82D01*
X928Y82D02*
X934Y82D01*
X286Y81D02*
X318Y81D01*
X345Y81D02*
X355Y81D01*
X382Y81D02*
X408Y81D01*
X457Y81D02*
X462Y81D01*
X530Y81D02*
X574Y81D01*
X598Y81D02*
X643Y81D01*
X670Y81D02*
X719Y81D01*
X759Y81D02*
X769Y81D01*
X816Y81D02*
X824Y81D01*
X855Y81D02*
X862Y81D01*
X929Y81D02*
X933Y81D01*
X287Y80D02*
X317Y80D01*
X346Y80D02*
X354Y80D01*
X383Y80D02*
X407Y80D01*
X457Y80D02*
X462Y80D01*
X531Y80D02*
X563Y80D01*
X565Y80D02*
X574Y80D01*
X598Y80D02*
X642Y80D01*
X670Y80D02*
X719Y80D01*
X760Y80D02*
X770Y80D01*
X817Y80D02*
X823Y80D01*
X857Y80D02*
X861Y80D01*
X288Y79D02*
X316Y79D01*
X347Y79D02*
X353Y79D01*
X384Y79D02*
X404Y79D01*
X459Y79D02*
X460Y79D01*
X532Y79D02*
X562Y79D01*
X565Y79D02*
X574Y79D01*
X599Y79D02*
X607Y79D01*
X609Y79D02*
X641Y79D01*
X670Y79D02*
X719Y79D01*
X760Y79D02*
X770Y79D01*
X818Y79D02*
X821Y79D01*
X533Y78D02*
X561Y78D01*
X565Y78D02*
X574Y78D01*
X599Y78D02*
X606Y78D01*
X611Y78D02*
X640Y78D01*
X671Y78D02*
X719Y78D01*
X761Y78D02*
X771Y78D01*
X535Y77D02*
X560Y77D01*
X566Y77D02*
X574Y77D01*
X599Y77D02*
X606Y77D01*
X613Y77D02*
X638Y77D01*
X672Y77D02*
X719Y77D01*
X761Y77D02*
X771Y77D01*
X536Y76D02*
X558Y76D01*
X566Y76D02*
X573Y76D01*
X600Y76D02*
X605Y76D01*
X615Y76D02*
X636Y76D01*
X675Y76D02*
X675Y76D01*
X762Y76D02*
X772Y76D01*
X538Y75D02*
X556Y75D01*
X568Y75D02*
X572Y75D01*
X602Y75D02*
X603Y75D01*
X618Y75D02*
X618Y75D01*
X762Y75D02*
X772Y75D01*
X541Y74D02*
X552Y74D01*
X762Y74D02*
X773Y74D01*
X763Y73D02*
X773Y73D01*
X763Y72D02*
X774Y72D01*
X764Y71D02*
X774Y71D01*
X764Y70D02*
X774Y70D01*
X765Y69D02*
X775Y69D01*
X765Y68D02*
X775Y68D01*
X766Y67D02*
X776Y67D01*
X766Y66D02*
X789Y66D01*
X767Y65D02*
X790Y65D01*
X767Y64D02*
X791Y64D01*
X767Y63D02*
X791Y63D01*
X768Y62D02*
X791Y62D01*
X768Y61D02*
X791Y61D01*
X769Y60D02*
X791Y60D01*
X769Y59D02*
X790Y59D01*
X770Y58D02*
X790Y58D01*
X771Y57D02*
X788Y57D01*
D02*
G04 End of Silk0*
M02*