G04 MADE WITH FRITZING*
G04 WWW.FRITZING.ORG*
G04 DOUBLE SIDED*
G04 HOLES PLATED*
G04 CONTOUR ON CENTER OF CONTOUR VECTOR*
%ASAXBY*%
%FSLAX23Y23*%
%MOIN*%
%OFA0B0*%
%SFA1.0B1.0*%
%ADD10C,0.078000*%
%ADD11C,0.075000*%
%ADD12C,0.079370*%
%ADD13C,0.070555*%
%ADD14C,0.070583*%
%ADD15C,0.082000*%
%ADD16C,0.140000*%
%ADD17R,0.075000X0.075000*%
%ADD18R,0.070542X0.070570*%
%ADD19R,0.082000X0.082000*%
%ADD20C,0.048000*%
%ADD21C,0.024000*%
%ADD22C,0.032000*%
%LNCOPPER1*%
G90*
G70*
G54D10*
X730Y1138D03*
X830Y1138D03*
X930Y1138D03*
X1030Y1138D03*
X730Y1138D03*
X830Y1138D03*
X930Y1138D03*
X1030Y1138D03*
X1030Y1238D03*
X930Y1238D03*
X830Y1238D03*
X730Y1238D03*
G54D11*
X1780Y1188D03*
X1780Y1288D03*
X1580Y1238D03*
X1480Y1238D03*
G54D12*
X430Y238D03*
X530Y238D03*
X630Y238D03*
X730Y238D03*
X830Y238D03*
X930Y238D03*
G54D13*
X1765Y984D03*
X1665Y984D03*
X1565Y984D03*
X1465Y984D03*
X1365Y984D03*
X1265Y984D03*
X1165Y984D03*
X1065Y984D03*
X965Y984D03*
G54D14*
X865Y984D03*
X765Y984D03*
X665Y984D03*
G54D13*
X565Y984D03*
X465Y984D03*
G54D14*
X365Y984D03*
X265Y984D03*
X165Y984D03*
G54D13*
X1765Y384D03*
X1665Y384D03*
X1565Y384D03*
X1465Y384D03*
X1365Y384D03*
X1265Y384D03*
X965Y384D03*
G54D14*
X865Y384D03*
G54D13*
X1065Y384D03*
X1165Y384D03*
G54D14*
X765Y384D03*
X665Y384D03*
G54D13*
X565Y384D03*
X465Y384D03*
G54D14*
X365Y384D03*
X265Y384D03*
X165Y384D03*
G54D15*
X730Y1738D03*
X730Y1638D03*
X730Y1538D03*
X282Y1588D03*
X580Y1588D03*
G54D11*
X330Y538D03*
X330Y838D03*
X430Y538D03*
X430Y838D03*
X530Y538D03*
X530Y838D03*
X630Y538D03*
X630Y838D03*
X730Y538D03*
X730Y838D03*
X830Y538D03*
X830Y838D03*
X930Y538D03*
X930Y838D03*
X1030Y538D03*
X1030Y838D03*
X1130Y538D03*
X1130Y838D03*
X1230Y538D03*
X1230Y838D03*
X1330Y538D03*
X1330Y838D03*
X1430Y538D03*
X1430Y838D03*
X1530Y538D03*
X1530Y838D03*
X1630Y538D03*
X1630Y838D03*
X1280Y221D03*
X1180Y221D03*
G54D10*
X280Y1838D03*
X380Y1838D03*
X480Y1838D03*
X580Y1838D03*
G54D12*
X1380Y138D03*
X1480Y138D03*
X1580Y138D03*
X1380Y138D03*
X1480Y138D03*
X1580Y138D03*
X1580Y238D03*
X1480Y238D03*
X1380Y238D03*
G54D16*
X570Y1338D03*
X330Y1338D03*
X450Y1148D03*
G54D11*
X130Y1588D03*
X130Y1688D03*
G54D17*
X1780Y1188D03*
X1580Y1238D03*
G54D18*
X1765Y984D03*
G54D19*
X730Y1738D03*
X281Y1588D03*
G54D17*
X330Y538D03*
X130Y1588D03*
G54D20*
X1720Y1189D02*
X1780Y1188D01*
D02*
X1680Y1239D02*
X1680Y1190D01*
D02*
X1580Y1238D02*
X1640Y1238D01*
D02*
X1012Y589D02*
X1030Y538D01*
D02*
X870Y627D02*
X1000Y627D01*
D02*
X581Y1778D02*
X580Y1838D01*
D02*
X844Y1843D02*
X580Y1838D01*
D02*
X433Y1684D02*
X581Y1737D01*
D02*
X358Y1338D02*
X330Y1338D01*
D02*
X930Y1788D02*
X886Y1843D01*
D02*
X930Y1636D02*
X930Y1788D01*
D02*
X730Y1638D02*
X887Y1636D01*
D02*
X433Y1684D02*
X430Y1338D01*
G54D21*
D02*
X858Y1013D02*
X837Y1109D01*
D02*
X1080Y1088D02*
X1780Y1088D01*
D02*
X1780Y1088D02*
X1830Y1038D01*
D02*
X1714Y463D02*
X1665Y384D01*
D02*
X1730Y688D02*
X1730Y488D01*
D02*
X1830Y1038D02*
X1830Y788D01*
D02*
X1830Y788D02*
X1730Y688D01*
D02*
X1309Y1238D02*
X1480Y1238D01*
D02*
X1180Y1538D02*
X1230Y1488D01*
D02*
X730Y1538D02*
X1148Y1538D01*
D02*
X1230Y1488D02*
X1230Y1288D01*
D02*
X1230Y1288D02*
X1280Y1238D01*
G54D20*
D02*
X730Y1638D02*
X1239Y1636D01*
D02*
X1580Y1338D02*
X1580Y1238D01*
D02*
X1330Y1588D02*
X1330Y1488D01*
D02*
X1330Y1488D02*
X1380Y1388D01*
D02*
X1530Y1388D02*
X1580Y1338D01*
D02*
X1380Y1388D02*
X1530Y1388D01*
D02*
X1282Y1636D02*
X1330Y1588D01*
D02*
X573Y1366D02*
X570Y1338D01*
D02*
X580Y1588D02*
X580Y1481D01*
G54D21*
D02*
X830Y1306D02*
X830Y1238D01*
D02*
X600Y1057D02*
X580Y1088D01*
D02*
X578Y1188D02*
X730Y1388D01*
G54D20*
D02*
X180Y838D02*
X91Y918D01*
D02*
X91Y918D02*
X94Y1090D01*
G54D21*
D02*
X730Y1388D02*
X778Y1388D01*
D02*
X778Y1388D02*
X830Y1336D01*
G54D20*
D02*
X180Y638D02*
X180Y838D01*
G54D21*
D02*
X1680Y238D02*
X1580Y238D01*
D02*
X1780Y488D02*
X1830Y438D01*
D02*
X1761Y293D02*
X1711Y238D01*
D02*
X1827Y354D02*
X1761Y293D01*
D02*
X1830Y438D02*
X1827Y354D01*
D02*
X1730Y488D02*
X1780Y488D01*
D02*
X1665Y384D02*
X1714Y463D01*
D02*
X1680Y304D02*
X1550Y304D01*
D02*
X1527Y283D02*
X1480Y238D01*
D02*
X1765Y384D02*
X1702Y325D01*
D02*
X1366Y332D02*
X1365Y384D01*
D02*
X1380Y238D02*
X1373Y272D01*
G54D20*
D02*
X278Y288D02*
X330Y238D01*
D02*
X870Y627D02*
X180Y638D01*
D02*
X930Y838D02*
X930Y727D01*
D02*
X180Y638D02*
X86Y543D01*
D02*
X930Y688D02*
X870Y627D01*
D02*
X86Y543D02*
X82Y336D01*
D02*
X420Y136D02*
X1380Y138D01*
D02*
X330Y238D02*
X330Y188D01*
D02*
X330Y188D02*
X378Y136D01*
D02*
X130Y288D02*
X278Y288D01*
D02*
X82Y336D02*
X130Y288D01*
G54D21*
D02*
X600Y1057D02*
X725Y1057D01*
D02*
X739Y1031D02*
X765Y984D01*
G54D20*
D02*
X330Y1238D02*
X330Y1338D01*
D02*
X280Y1188D02*
X330Y1238D01*
D02*
X94Y1090D02*
X230Y1188D01*
D02*
X230Y1188D02*
X280Y1188D01*
G54D21*
D02*
X1059Y1109D02*
X1030Y1138D01*
D02*
X364Y471D02*
X1291Y471D01*
D02*
X330Y538D02*
X351Y497D01*
D02*
X1311Y448D02*
X1365Y384D01*
D02*
X1727Y915D02*
X1480Y915D01*
D02*
X1465Y891D02*
X1430Y838D01*
D02*
X1765Y984D02*
X1742Y942D01*
D02*
X737Y867D02*
X758Y956D01*
D02*
X858Y956D02*
X837Y867D01*
D02*
X1380Y688D02*
X1330Y738D01*
D02*
X1730Y688D02*
X1380Y688D01*
D02*
X1330Y766D02*
X1330Y838D01*
D02*
X1201Y280D02*
X1180Y221D01*
D02*
X1265Y384D02*
X1228Y331D01*
D02*
X1352Y233D02*
X1311Y226D01*
G54D22*
D02*
X983Y921D02*
X1227Y924D01*
D02*
X930Y838D02*
X965Y892D01*
D02*
X1246Y954D02*
X1265Y984D01*
G54D21*
D02*
X1066Y1707D02*
X925Y1904D01*
D02*
X925Y1904D02*
X437Y1908D01*
D02*
X1780Y1288D02*
X1780Y1309D01*
D02*
X1780Y1707D02*
X1066Y1707D01*
D02*
X1780Y1338D02*
X1780Y1707D01*
D02*
X418Y1884D02*
X380Y1838D01*
D02*
X580Y1088D02*
X578Y1188D01*
G54D20*
D02*
X282Y1595D02*
X282Y1588D01*
D02*
X230Y1688D02*
X280Y1638D01*
D02*
X130Y1688D02*
X191Y1688D01*
D02*
X180Y1338D02*
X130Y1388D01*
D02*
X130Y1427D02*
X130Y1588D01*
D02*
X330Y1338D02*
X252Y1338D01*
G04 End of Copper1*
M02*