G04 MADE WITH FRITZING*
G04 WWW.FRITZING.ORG*
G04 DOUBLE SIDED*
G04 HOLES PLATED*
G04 CONTOUR ON CENTER OF CONTOUR VECTOR*
%ASAXBY*%
%FSLAX23Y23*%
%MOIN*%
%OFA0B0*%
%SFA1.0B1.0*%
%ADD10C,0.088000*%
%ADD11C,0.085000*%
%ADD12C,0.089370*%
%ADD13C,0.080555*%
%ADD14C,0.080583*%
%ADD15C,0.092000*%
%ADD16C,0.135984*%
%ADD17C,0.150000*%
%ADD18R,0.085000X0.085000*%
%ADD19R,0.080542X0.080570*%
%ADD20R,0.092000X0.092000*%
%LNMASK1*%
G90*
G70*
G54D10*
X730Y1138D03*
X830Y1138D03*
X930Y1138D03*
X1030Y1138D03*
X730Y1138D03*
X830Y1138D03*
X930Y1138D03*
X1030Y1138D03*
X1030Y1238D03*
X930Y1238D03*
X830Y1238D03*
X730Y1238D03*
G54D11*
X1780Y1188D03*
X1780Y1288D03*
X1580Y1238D03*
X1480Y1238D03*
G54D12*
X430Y238D03*
X530Y238D03*
X630Y238D03*
X730Y238D03*
X830Y238D03*
X930Y238D03*
G54D13*
X1765Y984D03*
X1665Y984D03*
X1565Y984D03*
X1465Y984D03*
X1365Y984D03*
X1265Y984D03*
X1165Y984D03*
X1065Y984D03*
X965Y984D03*
G54D14*
X865Y984D03*
X765Y984D03*
X665Y984D03*
G54D13*
X565Y984D03*
X465Y984D03*
G54D14*
X365Y984D03*
X265Y984D03*
X165Y984D03*
G54D13*
X1765Y384D03*
X1665Y384D03*
X1565Y384D03*
X1465Y384D03*
X1365Y384D03*
X1265Y384D03*
X965Y384D03*
G54D14*
X865Y384D03*
G54D13*
X1065Y384D03*
X1165Y384D03*
G54D14*
X765Y384D03*
X665Y384D03*
G54D13*
X565Y384D03*
X465Y384D03*
G54D14*
X365Y384D03*
X265Y384D03*
X165Y384D03*
G54D15*
X730Y1738D03*
X730Y1638D03*
X730Y1538D03*
X282Y1588D03*
X580Y1588D03*
G54D16*
X1830Y138D03*
X130Y138D03*
X1830Y1838D03*
X130Y1838D03*
G54D11*
X330Y538D03*
X330Y838D03*
X430Y538D03*
X430Y838D03*
X530Y538D03*
X530Y838D03*
X630Y538D03*
X630Y838D03*
X730Y538D03*
X730Y838D03*
X830Y538D03*
X830Y838D03*
X930Y538D03*
X930Y838D03*
X1030Y538D03*
X1030Y838D03*
X1130Y538D03*
X1130Y838D03*
X1230Y538D03*
X1230Y838D03*
X1330Y538D03*
X1330Y838D03*
X1430Y538D03*
X1430Y838D03*
X1530Y538D03*
X1530Y838D03*
X1630Y538D03*
X1630Y838D03*
X1280Y221D03*
X1180Y221D03*
G54D10*
X280Y1838D03*
X380Y1838D03*
X480Y1838D03*
X580Y1838D03*
G54D12*
X1380Y138D03*
X1480Y138D03*
X1580Y138D03*
X1380Y138D03*
X1480Y138D03*
X1580Y138D03*
X1580Y238D03*
X1480Y238D03*
X1380Y238D03*
G54D17*
X570Y1338D03*
X330Y1338D03*
X450Y1148D03*
G54D11*
X130Y1588D03*
X130Y1688D03*
G54D18*
X1780Y1188D03*
X1580Y1238D03*
G54D19*
X1765Y984D03*
G54D20*
X730Y1738D03*
X281Y1588D03*
G54D18*
X330Y538D03*
X130Y1588D03*
G04 End of Mask1*
M02*