G04 MADE WITH FRITZING*
G04 WWW.FRITZING.ORG*
G04 DOUBLE SIDED*
G04 HOLES PLATED*
G04 CONTOUR ON CENTER OF CONTOUR VECTOR*
%ASAXBY*%
%FSLAX23Y23*%
%MOIN*%
%OFA0B0*%
%SFA1.0B1.0*%
%ADD10C,0.088000*%
%ADD11C,0.049370*%
%ADD12R,0.112362X0.104488*%
%LNMASK0*%
G90*
G70*
G54D10*
X446Y1171D03*
X346Y1171D03*
X246Y1171D03*
X146Y1171D03*
X446Y1171D03*
X346Y1171D03*
X246Y1171D03*
X146Y1171D03*
X146Y1071D03*
X246Y1071D03*
X346Y1071D03*
X446Y1071D03*
X636Y1246D03*
X636Y1146D03*
X636Y1046D03*
X636Y946D03*
X636Y846D03*
X636Y746D03*
X636Y646D03*
X636Y546D03*
X636Y446D03*
X636Y346D03*
X636Y246D03*
X636Y146D03*
X636Y1246D03*
X636Y1146D03*
X636Y1046D03*
X636Y946D03*
X636Y846D03*
X636Y746D03*
X636Y646D03*
X636Y546D03*
X636Y446D03*
X636Y346D03*
X636Y246D03*
X636Y146D03*
X736Y146D03*
X736Y246D03*
X736Y346D03*
X736Y446D03*
X736Y546D03*
X736Y646D03*
X736Y746D03*
X736Y846D03*
X736Y946D03*
X736Y1046D03*
X736Y1146D03*
X736Y1246D03*
G54D11*
X522Y918D03*
X456Y865D03*
X319Y868D03*
X75Y151D03*
G54D12*
X451Y129D03*
X199Y129D03*
X454Y343D03*
X202Y343D03*
X421Y763D03*
X169Y763D03*
X448Y554D03*
X196Y554D03*
G04 End of Mask0*
M02*