G04 MADE WITH FRITZING*
G04 WWW.FRITZING.ORG*
G04 DOUBLE SIDED*
G04 HOLES PLATED*
G04 CONTOUR ON CENTER OF CONTOUR VECTOR*
%ASAXBY*%
%FSLAX23Y23*%
%MOIN*%
%OFA0B0*%
%SFA1.0B1.0*%
%ADD10C,0.010000*%
%ADD11C,0.005000*%
%ADD12R,0.001000X0.001000*%
%LNSILK1*%
G90*
G70*
G54D10*
X496Y1221D02*
X96Y1221D01*
D02*
X96Y1221D02*
X96Y1021D01*
D02*
X96Y1021D02*
X496Y1021D01*
D02*
X496Y1021D02*
X496Y1221D01*
D02*
X586Y1296D02*
X586Y96D01*
D02*
X586Y96D02*
X786Y96D01*
D02*
X786Y96D02*
X786Y1296D01*
D02*
X786Y1296D02*
X586Y1296D01*
G54D11*
D02*
X586Y1261D02*
X621Y1296D01*
G54D12*
X0Y1354D02*
X876Y1354D01*
X0Y1353D02*
X876Y1353D01*
X0Y1352D02*
X876Y1352D01*
X0Y1351D02*
X876Y1351D01*
X0Y1350D02*
X876Y1350D01*
X0Y1349D02*
X876Y1349D01*
X0Y1348D02*
X876Y1348D01*
X0Y1347D02*
X876Y1347D01*
X0Y1346D02*
X7Y1346D01*
X869Y1346D02*
X876Y1346D01*
X0Y1345D02*
X7Y1345D01*
X869Y1345D02*
X876Y1345D01*
X0Y1344D02*
X7Y1344D01*
X869Y1344D02*
X876Y1344D01*
X0Y1343D02*
X7Y1343D01*
X869Y1343D02*
X876Y1343D01*
X0Y1342D02*
X7Y1342D01*
X869Y1342D02*
X876Y1342D01*
X0Y1341D02*
X7Y1341D01*
X869Y1341D02*
X876Y1341D01*
X0Y1340D02*
X7Y1340D01*
X869Y1340D02*
X876Y1340D01*
X0Y1339D02*
X7Y1339D01*
X869Y1339D02*
X876Y1339D01*
X0Y1338D02*
X7Y1338D01*
X869Y1338D02*
X876Y1338D01*
X0Y1337D02*
X7Y1337D01*
X869Y1337D02*
X876Y1337D01*
X0Y1336D02*
X7Y1336D01*
X869Y1336D02*
X876Y1336D01*
X0Y1335D02*
X7Y1335D01*
X869Y1335D02*
X876Y1335D01*
X0Y1334D02*
X7Y1334D01*
X869Y1334D02*
X876Y1334D01*
X0Y1333D02*
X7Y1333D01*
X869Y1333D02*
X876Y1333D01*
X0Y1332D02*
X7Y1332D01*
X869Y1332D02*
X876Y1332D01*
X0Y1331D02*
X7Y1331D01*
X869Y1331D02*
X876Y1331D01*
X0Y1330D02*
X7Y1330D01*
X869Y1330D02*
X876Y1330D01*
X0Y1329D02*
X7Y1329D01*
X869Y1329D02*
X876Y1329D01*
X0Y1328D02*
X7Y1328D01*
X869Y1328D02*
X876Y1328D01*
X0Y1327D02*
X7Y1327D01*
X869Y1327D02*
X876Y1327D01*
X0Y1326D02*
X7Y1326D01*
X869Y1326D02*
X876Y1326D01*
X0Y1325D02*
X7Y1325D01*
X869Y1325D02*
X876Y1325D01*
X0Y1324D02*
X7Y1324D01*
X508Y1324D02*
X508Y1324D01*
X534Y1324D02*
X559Y1324D01*
X869Y1324D02*
X876Y1324D01*
X0Y1323D02*
X7Y1323D01*
X506Y1323D02*
X510Y1323D01*
X532Y1323D02*
X561Y1323D01*
X869Y1323D02*
X876Y1323D01*
X0Y1322D02*
X7Y1322D01*
X505Y1322D02*
X510Y1322D01*
X531Y1322D02*
X562Y1322D01*
X869Y1322D02*
X876Y1322D01*
X0Y1321D02*
X7Y1321D01*
X505Y1321D02*
X511Y1321D01*
X531Y1321D02*
X563Y1321D01*
X869Y1321D02*
X876Y1321D01*
X0Y1320D02*
X7Y1320D01*
X505Y1320D02*
X511Y1320D01*
X531Y1320D02*
X564Y1320D01*
X869Y1320D02*
X876Y1320D01*
X0Y1319D02*
X7Y1319D01*
X505Y1319D02*
X511Y1319D01*
X531Y1319D02*
X564Y1319D01*
X869Y1319D02*
X876Y1319D01*
X0Y1318D02*
X7Y1318D01*
X505Y1318D02*
X511Y1318D01*
X532Y1318D02*
X564Y1318D01*
X869Y1318D02*
X876Y1318D01*
X0Y1317D02*
X7Y1317D01*
X505Y1317D02*
X511Y1317D01*
X558Y1317D02*
X564Y1317D01*
X869Y1317D02*
X876Y1317D01*
X0Y1316D02*
X7Y1316D01*
X505Y1316D02*
X511Y1316D01*
X558Y1316D02*
X565Y1316D01*
X869Y1316D02*
X876Y1316D01*
X0Y1315D02*
X7Y1315D01*
X505Y1315D02*
X511Y1315D01*
X558Y1315D02*
X565Y1315D01*
X869Y1315D02*
X876Y1315D01*
X0Y1314D02*
X7Y1314D01*
X505Y1314D02*
X511Y1314D01*
X558Y1314D02*
X565Y1314D01*
X869Y1314D02*
X876Y1314D01*
X0Y1313D02*
X7Y1313D01*
X505Y1313D02*
X511Y1313D01*
X558Y1313D02*
X565Y1313D01*
X869Y1313D02*
X876Y1313D01*
X0Y1312D02*
X7Y1312D01*
X505Y1312D02*
X511Y1312D01*
X558Y1312D02*
X565Y1312D01*
X869Y1312D02*
X876Y1312D01*
X0Y1311D02*
X7Y1311D01*
X505Y1311D02*
X511Y1311D01*
X558Y1311D02*
X565Y1311D01*
X869Y1311D02*
X876Y1311D01*
X0Y1310D02*
X7Y1310D01*
X505Y1310D02*
X511Y1310D01*
X558Y1310D02*
X565Y1310D01*
X869Y1310D02*
X876Y1310D01*
X0Y1309D02*
X7Y1309D01*
X130Y1309D02*
X132Y1309D01*
X156Y1309D02*
X174Y1309D01*
X505Y1309D02*
X511Y1309D01*
X558Y1309D02*
X565Y1309D01*
X869Y1309D02*
X876Y1309D01*
X0Y1308D02*
X7Y1308D01*
X129Y1308D02*
X134Y1308D01*
X155Y1308D02*
X174Y1308D01*
X505Y1308D02*
X511Y1308D01*
X558Y1308D02*
X565Y1308D01*
X869Y1308D02*
X876Y1308D01*
X0Y1307D02*
X7Y1307D01*
X129Y1307D02*
X134Y1307D01*
X155Y1307D02*
X174Y1307D01*
X505Y1307D02*
X511Y1307D01*
X558Y1307D02*
X565Y1307D01*
X869Y1307D02*
X876Y1307D01*
X0Y1306D02*
X7Y1306D01*
X128Y1306D02*
X134Y1306D01*
X154Y1306D02*
X174Y1306D01*
X505Y1306D02*
X511Y1306D01*
X558Y1306D02*
X565Y1306D01*
X869Y1306D02*
X876Y1306D01*
X0Y1305D02*
X7Y1305D01*
X128Y1305D02*
X134Y1305D01*
X155Y1305D02*
X174Y1305D01*
X505Y1305D02*
X511Y1305D01*
X558Y1305D02*
X565Y1305D01*
X869Y1305D02*
X876Y1305D01*
X0Y1304D02*
X7Y1304D01*
X128Y1304D02*
X134Y1304D01*
X155Y1304D02*
X174Y1304D01*
X505Y1304D02*
X511Y1304D01*
X558Y1304D02*
X565Y1304D01*
X869Y1304D02*
X876Y1304D01*
X0Y1303D02*
X7Y1303D01*
X128Y1303D02*
X134Y1303D01*
X156Y1303D02*
X174Y1303D01*
X505Y1303D02*
X511Y1303D01*
X558Y1303D02*
X565Y1303D01*
X869Y1303D02*
X876Y1303D01*
X0Y1302D02*
X7Y1302D01*
X128Y1302D02*
X134Y1302D01*
X168Y1302D02*
X174Y1302D01*
X505Y1302D02*
X511Y1302D01*
X558Y1302D02*
X565Y1302D01*
X869Y1302D02*
X876Y1302D01*
X0Y1301D02*
X7Y1301D01*
X128Y1301D02*
X134Y1301D01*
X168Y1301D02*
X174Y1301D01*
X505Y1301D02*
X511Y1301D01*
X558Y1301D02*
X565Y1301D01*
X869Y1301D02*
X876Y1301D01*
X0Y1300D02*
X7Y1300D01*
X128Y1300D02*
X134Y1300D01*
X168Y1300D02*
X174Y1300D01*
X505Y1300D02*
X511Y1300D01*
X535Y1300D02*
X564Y1300D01*
X869Y1300D02*
X876Y1300D01*
X0Y1299D02*
X7Y1299D01*
X128Y1299D02*
X134Y1299D01*
X168Y1299D02*
X174Y1299D01*
X505Y1299D02*
X511Y1299D01*
X534Y1299D02*
X564Y1299D01*
X869Y1299D02*
X876Y1299D01*
X0Y1298D02*
X7Y1298D01*
X128Y1298D02*
X134Y1298D01*
X168Y1298D02*
X174Y1298D01*
X505Y1298D02*
X511Y1298D01*
X533Y1298D02*
X564Y1298D01*
X869Y1298D02*
X876Y1298D01*
X0Y1297D02*
X7Y1297D01*
X128Y1297D02*
X134Y1297D01*
X168Y1297D02*
X174Y1297D01*
X505Y1297D02*
X511Y1297D01*
X532Y1297D02*
X563Y1297D01*
X869Y1297D02*
X876Y1297D01*
X0Y1296D02*
X7Y1296D01*
X128Y1296D02*
X134Y1296D01*
X168Y1296D02*
X174Y1296D01*
X505Y1296D02*
X511Y1296D01*
X531Y1296D02*
X563Y1296D01*
X869Y1296D02*
X876Y1296D01*
X0Y1295D02*
X7Y1295D01*
X128Y1295D02*
X134Y1295D01*
X168Y1295D02*
X174Y1295D01*
X505Y1295D02*
X511Y1295D01*
X531Y1295D02*
X562Y1295D01*
X869Y1295D02*
X876Y1295D01*
X0Y1294D02*
X7Y1294D01*
X128Y1294D02*
X134Y1294D01*
X168Y1294D02*
X174Y1294D01*
X486Y1294D02*
X489Y1294D01*
X505Y1294D02*
X511Y1294D01*
X531Y1294D02*
X560Y1294D01*
X869Y1294D02*
X876Y1294D01*
X0Y1293D02*
X7Y1293D01*
X128Y1293D02*
X134Y1293D01*
X168Y1293D02*
X174Y1293D01*
X485Y1293D02*
X490Y1293D01*
X505Y1293D02*
X511Y1293D01*
X531Y1293D02*
X537Y1293D01*
X869Y1293D02*
X876Y1293D01*
X0Y1292D02*
X7Y1292D01*
X128Y1292D02*
X134Y1292D01*
X168Y1292D02*
X174Y1292D01*
X484Y1292D02*
X490Y1292D01*
X505Y1292D02*
X511Y1292D01*
X531Y1292D02*
X537Y1292D01*
X869Y1292D02*
X876Y1292D01*
X0Y1291D02*
X7Y1291D01*
X128Y1291D02*
X134Y1291D01*
X168Y1291D02*
X174Y1291D01*
X484Y1291D02*
X490Y1291D01*
X505Y1291D02*
X511Y1291D01*
X531Y1291D02*
X537Y1291D01*
X869Y1291D02*
X876Y1291D01*
X0Y1290D02*
X7Y1290D01*
X128Y1290D02*
X134Y1290D01*
X168Y1290D02*
X174Y1290D01*
X484Y1290D02*
X490Y1290D01*
X505Y1290D02*
X511Y1290D01*
X531Y1290D02*
X537Y1290D01*
X869Y1290D02*
X876Y1290D01*
X0Y1289D02*
X7Y1289D01*
X128Y1289D02*
X134Y1289D01*
X168Y1289D02*
X174Y1289D01*
X484Y1289D02*
X490Y1289D01*
X505Y1289D02*
X511Y1289D01*
X531Y1289D02*
X537Y1289D01*
X869Y1289D02*
X876Y1289D01*
X0Y1288D02*
X7Y1288D01*
X128Y1288D02*
X134Y1288D01*
X168Y1288D02*
X174Y1288D01*
X484Y1288D02*
X490Y1288D01*
X505Y1288D02*
X511Y1288D01*
X531Y1288D02*
X537Y1288D01*
X869Y1288D02*
X876Y1288D01*
X0Y1287D02*
X7Y1287D01*
X128Y1287D02*
X134Y1287D01*
X168Y1287D02*
X174Y1287D01*
X484Y1287D02*
X490Y1287D01*
X505Y1287D02*
X511Y1287D01*
X531Y1287D02*
X537Y1287D01*
X869Y1287D02*
X876Y1287D01*
X0Y1286D02*
X7Y1286D01*
X128Y1286D02*
X134Y1286D01*
X168Y1286D02*
X174Y1286D01*
X484Y1286D02*
X490Y1286D01*
X505Y1286D02*
X511Y1286D01*
X531Y1286D02*
X537Y1286D01*
X869Y1286D02*
X876Y1286D01*
X0Y1285D02*
X7Y1285D01*
X128Y1285D02*
X134Y1285D01*
X168Y1285D02*
X174Y1285D01*
X484Y1285D02*
X490Y1285D01*
X505Y1285D02*
X511Y1285D01*
X531Y1285D02*
X537Y1285D01*
X869Y1285D02*
X876Y1285D01*
X0Y1284D02*
X7Y1284D01*
X128Y1284D02*
X134Y1284D01*
X168Y1284D02*
X174Y1284D01*
X484Y1284D02*
X490Y1284D01*
X505Y1284D02*
X511Y1284D01*
X531Y1284D02*
X537Y1284D01*
X869Y1284D02*
X876Y1284D01*
X0Y1283D02*
X7Y1283D01*
X128Y1283D02*
X134Y1283D01*
X168Y1283D02*
X174Y1283D01*
X484Y1283D02*
X490Y1283D01*
X505Y1283D02*
X511Y1283D01*
X531Y1283D02*
X537Y1283D01*
X869Y1283D02*
X876Y1283D01*
X0Y1282D02*
X7Y1282D01*
X128Y1282D02*
X134Y1282D01*
X168Y1282D02*
X174Y1282D01*
X484Y1282D02*
X490Y1282D01*
X505Y1282D02*
X511Y1282D01*
X531Y1282D02*
X537Y1282D01*
X869Y1282D02*
X876Y1282D01*
X0Y1281D02*
X7Y1281D01*
X128Y1281D02*
X134Y1281D01*
X168Y1281D02*
X174Y1281D01*
X484Y1281D02*
X490Y1281D01*
X505Y1281D02*
X511Y1281D01*
X531Y1281D02*
X537Y1281D01*
X869Y1281D02*
X876Y1281D01*
X0Y1280D02*
X7Y1280D01*
X128Y1280D02*
X134Y1280D01*
X168Y1280D02*
X174Y1280D01*
X484Y1280D02*
X490Y1280D01*
X505Y1280D02*
X511Y1280D01*
X531Y1280D02*
X537Y1280D01*
X869Y1280D02*
X876Y1280D01*
X0Y1279D02*
X7Y1279D01*
X109Y1279D02*
X113Y1279D01*
X128Y1279D02*
X134Y1279D01*
X168Y1279D02*
X174Y1279D01*
X183Y1279D02*
X187Y1279D01*
X484Y1279D02*
X491Y1279D01*
X504Y1279D02*
X511Y1279D01*
X531Y1279D02*
X537Y1279D01*
X869Y1279D02*
X876Y1279D01*
X0Y1278D02*
X7Y1278D01*
X108Y1278D02*
X113Y1278D01*
X128Y1278D02*
X134Y1278D01*
X168Y1278D02*
X174Y1278D01*
X182Y1278D02*
X188Y1278D01*
X484Y1278D02*
X491Y1278D01*
X504Y1278D02*
X511Y1278D01*
X531Y1278D02*
X537Y1278D01*
X869Y1278D02*
X876Y1278D01*
X0Y1277D02*
X7Y1277D01*
X108Y1277D02*
X114Y1277D01*
X128Y1277D02*
X134Y1277D01*
X168Y1277D02*
X174Y1277D01*
X182Y1277D02*
X188Y1277D01*
X485Y1277D02*
X493Y1277D01*
X502Y1277D02*
X510Y1277D01*
X531Y1277D02*
X537Y1277D01*
X869Y1277D02*
X876Y1277D01*
X0Y1276D02*
X7Y1276D01*
X108Y1276D02*
X114Y1276D01*
X128Y1276D02*
X134Y1276D01*
X168Y1276D02*
X174Y1276D01*
X182Y1276D02*
X188Y1276D01*
X485Y1276D02*
X510Y1276D01*
X531Y1276D02*
X563Y1276D01*
X869Y1276D02*
X876Y1276D01*
X0Y1275D02*
X7Y1275D01*
X108Y1275D02*
X114Y1275D01*
X128Y1275D02*
X134Y1275D01*
X168Y1275D02*
X174Y1275D01*
X182Y1275D02*
X188Y1275D01*
X486Y1275D02*
X509Y1275D01*
X531Y1275D02*
X564Y1275D01*
X869Y1275D02*
X876Y1275D01*
X0Y1274D02*
X7Y1274D01*
X108Y1274D02*
X114Y1274D01*
X128Y1274D02*
X134Y1274D01*
X168Y1274D02*
X174Y1274D01*
X182Y1274D02*
X188Y1274D01*
X486Y1274D02*
X509Y1274D01*
X531Y1274D02*
X564Y1274D01*
X869Y1274D02*
X876Y1274D01*
X0Y1273D02*
X7Y1273D01*
X108Y1273D02*
X114Y1273D01*
X128Y1273D02*
X134Y1273D01*
X168Y1273D02*
X174Y1273D01*
X182Y1273D02*
X188Y1273D01*
X487Y1273D02*
X508Y1273D01*
X531Y1273D02*
X564Y1273D01*
X869Y1273D02*
X876Y1273D01*
X0Y1272D02*
X7Y1272D01*
X108Y1272D02*
X114Y1272D01*
X128Y1272D02*
X134Y1272D01*
X168Y1272D02*
X174Y1272D01*
X182Y1272D02*
X188Y1272D01*
X489Y1272D02*
X506Y1272D01*
X531Y1272D02*
X564Y1272D01*
X869Y1272D02*
X876Y1272D01*
X0Y1271D02*
X7Y1271D01*
X108Y1271D02*
X114Y1271D01*
X128Y1271D02*
X134Y1271D01*
X168Y1271D02*
X174Y1271D01*
X182Y1271D02*
X188Y1271D01*
X490Y1271D02*
X505Y1271D01*
X531Y1271D02*
X563Y1271D01*
X869Y1271D02*
X876Y1271D01*
X0Y1270D02*
X7Y1270D01*
X108Y1270D02*
X114Y1270D01*
X128Y1270D02*
X134Y1270D01*
X168Y1270D02*
X174Y1270D01*
X182Y1270D02*
X188Y1270D01*
X494Y1270D02*
X501Y1270D01*
X531Y1270D02*
X561Y1270D01*
X869Y1270D02*
X876Y1270D01*
X0Y1269D02*
X7Y1269D01*
X108Y1269D02*
X114Y1269D01*
X128Y1269D02*
X134Y1269D01*
X168Y1269D02*
X174Y1269D01*
X182Y1269D02*
X188Y1269D01*
X869Y1269D02*
X876Y1269D01*
X0Y1268D02*
X7Y1268D01*
X108Y1268D02*
X114Y1268D01*
X128Y1268D02*
X134Y1268D01*
X168Y1268D02*
X174Y1268D01*
X182Y1268D02*
X188Y1268D01*
X869Y1268D02*
X876Y1268D01*
X0Y1267D02*
X7Y1267D01*
X108Y1267D02*
X114Y1267D01*
X128Y1267D02*
X134Y1267D01*
X168Y1267D02*
X174Y1267D01*
X182Y1267D02*
X188Y1267D01*
X869Y1267D02*
X876Y1267D01*
X0Y1266D02*
X7Y1266D01*
X108Y1266D02*
X114Y1266D01*
X128Y1266D02*
X134Y1266D01*
X168Y1266D02*
X174Y1266D01*
X182Y1266D02*
X188Y1266D01*
X869Y1266D02*
X876Y1266D01*
X0Y1265D02*
X7Y1265D01*
X108Y1265D02*
X114Y1265D01*
X128Y1265D02*
X134Y1265D01*
X168Y1265D02*
X174Y1265D01*
X182Y1265D02*
X188Y1265D01*
X869Y1265D02*
X876Y1265D01*
X0Y1264D02*
X7Y1264D01*
X108Y1264D02*
X114Y1264D01*
X128Y1264D02*
X134Y1264D01*
X168Y1264D02*
X174Y1264D01*
X182Y1264D02*
X188Y1264D01*
X869Y1264D02*
X876Y1264D01*
X0Y1263D02*
X7Y1263D01*
X108Y1263D02*
X115Y1263D01*
X127Y1263D02*
X134Y1263D01*
X168Y1263D02*
X174Y1263D01*
X182Y1263D02*
X188Y1263D01*
X869Y1263D02*
X876Y1263D01*
X0Y1262D02*
X7Y1262D01*
X108Y1262D02*
X134Y1262D01*
X157Y1262D02*
X188Y1262D01*
X869Y1262D02*
X876Y1262D01*
X0Y1261D02*
X7Y1261D01*
X109Y1261D02*
X133Y1261D01*
X155Y1261D02*
X188Y1261D01*
X869Y1261D02*
X876Y1261D01*
X0Y1260D02*
X7Y1260D01*
X109Y1260D02*
X133Y1260D01*
X155Y1260D02*
X188Y1260D01*
X869Y1260D02*
X876Y1260D01*
X0Y1259D02*
X7Y1259D01*
X110Y1259D02*
X132Y1259D01*
X155Y1259D02*
X188Y1259D01*
X869Y1259D02*
X876Y1259D01*
X0Y1258D02*
X7Y1258D01*
X111Y1258D02*
X131Y1258D01*
X155Y1258D02*
X188Y1258D01*
X869Y1258D02*
X876Y1258D01*
X0Y1257D02*
X7Y1257D01*
X112Y1257D02*
X130Y1257D01*
X155Y1257D02*
X187Y1257D01*
X869Y1257D02*
X876Y1257D01*
X0Y1256D02*
X7Y1256D01*
X114Y1256D02*
X128Y1256D01*
X156Y1256D02*
X187Y1256D01*
X869Y1256D02*
X876Y1256D01*
X0Y1255D02*
X7Y1255D01*
X869Y1255D02*
X876Y1255D01*
X0Y1254D02*
X7Y1254D01*
X869Y1254D02*
X876Y1254D01*
X0Y1253D02*
X7Y1253D01*
X869Y1253D02*
X876Y1253D01*
X0Y1252D02*
X7Y1252D01*
X869Y1252D02*
X876Y1252D01*
X0Y1251D02*
X7Y1251D01*
X869Y1251D02*
X876Y1251D01*
X0Y1250D02*
X7Y1250D01*
X869Y1250D02*
X876Y1250D01*
X0Y1249D02*
X7Y1249D01*
X869Y1249D02*
X876Y1249D01*
X0Y1248D02*
X7Y1248D01*
X869Y1248D02*
X876Y1248D01*
X0Y1247D02*
X7Y1247D01*
X869Y1247D02*
X876Y1247D01*
X0Y1246D02*
X7Y1246D01*
X11Y1246D02*
X520Y1246D01*
X869Y1246D02*
X876Y1246D01*
X0Y1245D02*
X7Y1245D01*
X11Y1245D02*
X520Y1245D01*
X869Y1245D02*
X876Y1245D01*
X0Y1244D02*
X7Y1244D01*
X11Y1244D02*
X520Y1244D01*
X869Y1244D02*
X876Y1244D01*
X0Y1243D02*
X7Y1243D01*
X11Y1243D02*
X520Y1243D01*
X869Y1243D02*
X876Y1243D01*
X0Y1242D02*
X7Y1242D01*
X11Y1242D02*
X520Y1242D01*
X869Y1242D02*
X876Y1242D01*
X0Y1241D02*
X7Y1241D01*
X11Y1241D02*
X520Y1241D01*
X869Y1241D02*
X876Y1241D01*
X0Y1240D02*
X7Y1240D01*
X11Y1240D02*
X520Y1240D01*
X869Y1240D02*
X876Y1240D01*
X0Y1239D02*
X7Y1239D01*
X11Y1239D02*
X520Y1239D01*
X869Y1239D02*
X876Y1239D01*
X0Y1238D02*
X7Y1238D01*
X11Y1238D02*
X520Y1238D01*
X869Y1238D02*
X876Y1238D01*
X0Y1237D02*
X7Y1237D01*
X11Y1237D02*
X520Y1237D01*
X869Y1237D02*
X876Y1237D01*
X0Y1236D02*
X7Y1236D01*
X11Y1236D02*
X520Y1236D01*
X869Y1236D02*
X876Y1236D01*
X0Y1235D02*
X7Y1235D01*
X11Y1235D02*
X520Y1235D01*
X869Y1235D02*
X876Y1235D01*
X0Y1234D02*
X7Y1234D01*
X11Y1234D02*
X520Y1234D01*
X869Y1234D02*
X876Y1234D01*
X0Y1233D02*
X7Y1233D01*
X11Y1233D02*
X520Y1233D01*
X869Y1233D02*
X876Y1233D01*
X0Y1232D02*
X7Y1232D01*
X11Y1232D02*
X520Y1232D01*
X869Y1232D02*
X876Y1232D01*
X0Y1231D02*
X7Y1231D01*
X11Y1231D02*
X520Y1231D01*
X869Y1231D02*
X876Y1231D01*
X0Y1230D02*
X7Y1230D01*
X11Y1230D02*
X520Y1230D01*
X869Y1230D02*
X876Y1230D01*
X0Y1229D02*
X7Y1229D01*
X504Y1229D02*
X520Y1229D01*
X869Y1229D02*
X876Y1229D01*
X0Y1228D02*
X7Y1228D01*
X504Y1228D02*
X520Y1228D01*
X869Y1228D02*
X876Y1228D01*
X0Y1227D02*
X7Y1227D01*
X504Y1227D02*
X520Y1227D01*
X869Y1227D02*
X876Y1227D01*
X0Y1226D02*
X7Y1226D01*
X504Y1226D02*
X520Y1226D01*
X869Y1226D02*
X876Y1226D01*
X0Y1225D02*
X7Y1225D01*
X504Y1225D02*
X520Y1225D01*
X869Y1225D02*
X876Y1225D01*
X0Y1224D02*
X7Y1224D01*
X504Y1224D02*
X520Y1224D01*
X869Y1224D02*
X876Y1224D01*
X0Y1223D02*
X7Y1223D01*
X462Y1223D02*
X462Y1223D01*
X504Y1223D02*
X520Y1223D01*
X869Y1223D02*
X876Y1223D01*
X0Y1222D02*
X7Y1222D01*
X461Y1222D02*
X463Y1222D01*
X504Y1222D02*
X520Y1222D01*
X869Y1222D02*
X876Y1222D01*
X0Y1221D02*
X7Y1221D01*
X460Y1221D02*
X464Y1221D01*
X504Y1221D02*
X520Y1221D01*
X869Y1221D02*
X876Y1221D01*
X0Y1220D02*
X7Y1220D01*
X459Y1220D02*
X465Y1220D01*
X504Y1220D02*
X520Y1220D01*
X869Y1220D02*
X876Y1220D01*
X0Y1219D02*
X7Y1219D01*
X460Y1219D02*
X466Y1219D01*
X504Y1219D02*
X520Y1219D01*
X869Y1219D02*
X876Y1219D01*
X0Y1218D02*
X7Y1218D01*
X461Y1218D02*
X467Y1218D01*
X504Y1218D02*
X520Y1218D01*
X869Y1218D02*
X876Y1218D01*
X0Y1217D02*
X7Y1217D01*
X462Y1217D02*
X468Y1217D01*
X504Y1217D02*
X520Y1217D01*
X869Y1217D02*
X876Y1217D01*
X0Y1216D02*
X7Y1216D01*
X463Y1216D02*
X469Y1216D01*
X504Y1216D02*
X520Y1216D01*
X869Y1216D02*
X876Y1216D01*
X0Y1215D02*
X7Y1215D01*
X464Y1215D02*
X470Y1215D01*
X504Y1215D02*
X520Y1215D01*
X869Y1215D02*
X876Y1215D01*
X0Y1214D02*
X7Y1214D01*
X465Y1214D02*
X471Y1214D01*
X504Y1214D02*
X520Y1214D01*
X869Y1214D02*
X876Y1214D01*
X0Y1213D02*
X7Y1213D01*
X466Y1213D02*
X472Y1213D01*
X504Y1213D02*
X520Y1213D01*
X869Y1213D02*
X876Y1213D01*
X0Y1212D02*
X7Y1212D01*
X467Y1212D02*
X473Y1212D01*
X504Y1212D02*
X520Y1212D01*
X869Y1212D02*
X876Y1212D01*
X0Y1211D02*
X7Y1211D01*
X468Y1211D02*
X474Y1211D01*
X504Y1211D02*
X520Y1211D01*
X869Y1211D02*
X876Y1211D01*
X0Y1210D02*
X7Y1210D01*
X469Y1210D02*
X475Y1210D01*
X504Y1210D02*
X520Y1210D01*
X869Y1210D02*
X876Y1210D01*
X0Y1209D02*
X7Y1209D01*
X470Y1209D02*
X476Y1209D01*
X504Y1209D02*
X520Y1209D01*
X869Y1209D02*
X876Y1209D01*
X0Y1208D02*
X7Y1208D01*
X471Y1208D02*
X477Y1208D01*
X504Y1208D02*
X520Y1208D01*
X869Y1208D02*
X876Y1208D01*
X0Y1207D02*
X7Y1207D01*
X472Y1207D02*
X478Y1207D01*
X504Y1207D02*
X520Y1207D01*
X869Y1207D02*
X876Y1207D01*
X0Y1206D02*
X7Y1206D01*
X473Y1206D02*
X479Y1206D01*
X504Y1206D02*
X520Y1206D01*
X869Y1206D02*
X876Y1206D01*
X0Y1205D02*
X7Y1205D01*
X474Y1205D02*
X480Y1205D01*
X504Y1205D02*
X520Y1205D01*
X869Y1205D02*
X876Y1205D01*
X0Y1204D02*
X7Y1204D01*
X476Y1204D02*
X481Y1204D01*
X504Y1204D02*
X520Y1204D01*
X869Y1204D02*
X876Y1204D01*
X0Y1203D02*
X7Y1203D01*
X477Y1203D02*
X482Y1203D01*
X504Y1203D02*
X520Y1203D01*
X869Y1203D02*
X876Y1203D01*
X0Y1202D02*
X7Y1202D01*
X478Y1202D02*
X483Y1202D01*
X504Y1202D02*
X520Y1202D01*
X869Y1202D02*
X876Y1202D01*
X0Y1201D02*
X7Y1201D01*
X479Y1201D02*
X484Y1201D01*
X504Y1201D02*
X520Y1201D01*
X869Y1201D02*
X876Y1201D01*
X0Y1200D02*
X7Y1200D01*
X479Y1200D02*
X485Y1200D01*
X504Y1200D02*
X520Y1200D01*
X869Y1200D02*
X876Y1200D01*
X0Y1199D02*
X7Y1199D01*
X480Y1199D02*
X486Y1199D01*
X504Y1199D02*
X520Y1199D01*
X869Y1199D02*
X876Y1199D01*
X0Y1198D02*
X7Y1198D01*
X481Y1198D02*
X487Y1198D01*
X504Y1198D02*
X520Y1198D01*
X869Y1198D02*
X876Y1198D01*
X0Y1197D02*
X7Y1197D01*
X482Y1197D02*
X488Y1197D01*
X504Y1197D02*
X520Y1197D01*
X869Y1197D02*
X876Y1197D01*
X0Y1196D02*
X7Y1196D01*
X483Y1196D02*
X489Y1196D01*
X504Y1196D02*
X520Y1196D01*
X869Y1196D02*
X876Y1196D01*
X0Y1195D02*
X7Y1195D01*
X484Y1195D02*
X490Y1195D01*
X504Y1195D02*
X520Y1195D01*
X869Y1195D02*
X876Y1195D01*
X0Y1194D02*
X7Y1194D01*
X485Y1194D02*
X491Y1194D01*
X504Y1194D02*
X520Y1194D01*
X869Y1194D02*
X876Y1194D01*
X0Y1193D02*
X7Y1193D01*
X486Y1193D02*
X492Y1193D01*
X504Y1193D02*
X520Y1193D01*
X869Y1193D02*
X876Y1193D01*
X0Y1192D02*
X7Y1192D01*
X487Y1192D02*
X493Y1192D01*
X504Y1192D02*
X520Y1192D01*
X869Y1192D02*
X876Y1192D01*
X0Y1191D02*
X7Y1191D01*
X488Y1191D02*
X494Y1191D01*
X504Y1191D02*
X520Y1191D01*
X869Y1191D02*
X876Y1191D01*
X0Y1190D02*
X7Y1190D01*
X489Y1190D02*
X495Y1190D01*
X504Y1190D02*
X520Y1190D01*
X869Y1190D02*
X876Y1190D01*
X0Y1189D02*
X7Y1189D01*
X490Y1189D02*
X496Y1189D01*
X504Y1189D02*
X520Y1189D01*
X869Y1189D02*
X876Y1189D01*
X0Y1188D02*
X7Y1188D01*
X491Y1188D02*
X496Y1188D01*
X504Y1188D02*
X520Y1188D01*
X869Y1188D02*
X876Y1188D01*
X0Y1187D02*
X7Y1187D01*
X492Y1187D02*
X495Y1187D01*
X504Y1187D02*
X520Y1187D01*
X869Y1187D02*
X876Y1187D01*
X0Y1186D02*
X7Y1186D01*
X493Y1186D02*
X494Y1186D01*
X504Y1186D02*
X520Y1186D01*
X869Y1186D02*
X876Y1186D01*
X0Y1185D02*
X7Y1185D01*
X504Y1185D02*
X520Y1185D01*
X869Y1185D02*
X876Y1185D01*
X0Y1184D02*
X7Y1184D01*
X504Y1184D02*
X520Y1184D01*
X869Y1184D02*
X876Y1184D01*
X0Y1183D02*
X7Y1183D01*
X504Y1183D02*
X520Y1183D01*
X869Y1183D02*
X876Y1183D01*
X0Y1182D02*
X7Y1182D01*
X504Y1182D02*
X520Y1182D01*
X869Y1182D02*
X876Y1182D01*
X0Y1181D02*
X7Y1181D01*
X504Y1181D02*
X520Y1181D01*
X869Y1181D02*
X876Y1181D01*
X0Y1180D02*
X7Y1180D01*
X504Y1180D02*
X520Y1180D01*
X869Y1180D02*
X876Y1180D01*
X0Y1179D02*
X7Y1179D01*
X504Y1179D02*
X520Y1179D01*
X869Y1179D02*
X876Y1179D01*
X0Y1178D02*
X7Y1178D01*
X504Y1178D02*
X520Y1178D01*
X869Y1178D02*
X876Y1178D01*
X0Y1177D02*
X7Y1177D01*
X504Y1177D02*
X520Y1177D01*
X869Y1177D02*
X876Y1177D01*
X0Y1176D02*
X7Y1176D01*
X504Y1176D02*
X520Y1176D01*
X869Y1176D02*
X876Y1176D01*
X0Y1175D02*
X7Y1175D01*
X504Y1175D02*
X520Y1175D01*
X869Y1175D02*
X876Y1175D01*
X0Y1174D02*
X7Y1174D01*
X504Y1174D02*
X520Y1174D01*
X869Y1174D02*
X876Y1174D01*
X0Y1173D02*
X7Y1173D01*
X504Y1173D02*
X520Y1173D01*
X869Y1173D02*
X876Y1173D01*
X0Y1172D02*
X7Y1172D01*
X504Y1172D02*
X520Y1172D01*
X869Y1172D02*
X876Y1172D01*
X0Y1171D02*
X7Y1171D01*
X504Y1171D02*
X520Y1171D01*
X869Y1171D02*
X876Y1171D01*
X0Y1170D02*
X7Y1170D01*
X504Y1170D02*
X520Y1170D01*
X869Y1170D02*
X876Y1170D01*
X0Y1169D02*
X7Y1169D01*
X504Y1169D02*
X520Y1169D01*
X869Y1169D02*
X876Y1169D01*
X0Y1168D02*
X7Y1168D01*
X504Y1168D02*
X520Y1168D01*
X869Y1168D02*
X876Y1168D01*
X0Y1167D02*
X7Y1167D01*
X504Y1167D02*
X520Y1167D01*
X869Y1167D02*
X876Y1167D01*
X0Y1166D02*
X7Y1166D01*
X504Y1166D02*
X520Y1166D01*
X869Y1166D02*
X876Y1166D01*
X0Y1165D02*
X7Y1165D01*
X504Y1165D02*
X520Y1165D01*
X869Y1165D02*
X876Y1165D01*
X0Y1164D02*
X7Y1164D01*
X504Y1164D02*
X520Y1164D01*
X869Y1164D02*
X876Y1164D01*
X0Y1163D02*
X7Y1163D01*
X504Y1163D02*
X520Y1163D01*
X869Y1163D02*
X876Y1163D01*
X0Y1162D02*
X7Y1162D01*
X504Y1162D02*
X520Y1162D01*
X869Y1162D02*
X876Y1162D01*
X0Y1161D02*
X7Y1161D01*
X504Y1161D02*
X520Y1161D01*
X869Y1161D02*
X876Y1161D01*
X0Y1160D02*
X7Y1160D01*
X504Y1160D02*
X520Y1160D01*
X869Y1160D02*
X876Y1160D01*
X0Y1159D02*
X7Y1159D01*
X504Y1159D02*
X520Y1159D01*
X869Y1159D02*
X876Y1159D01*
X0Y1158D02*
X7Y1158D01*
X504Y1158D02*
X520Y1158D01*
X869Y1158D02*
X876Y1158D01*
X0Y1157D02*
X7Y1157D01*
X504Y1157D02*
X520Y1157D01*
X869Y1157D02*
X876Y1157D01*
X0Y1156D02*
X7Y1156D01*
X504Y1156D02*
X520Y1156D01*
X869Y1156D02*
X876Y1156D01*
X0Y1155D02*
X7Y1155D01*
X504Y1155D02*
X520Y1155D01*
X869Y1155D02*
X876Y1155D01*
X0Y1154D02*
X7Y1154D01*
X504Y1154D02*
X520Y1154D01*
X869Y1154D02*
X876Y1154D01*
X0Y1153D02*
X7Y1153D01*
X504Y1153D02*
X520Y1153D01*
X869Y1153D02*
X876Y1153D01*
X0Y1152D02*
X7Y1152D01*
X504Y1152D02*
X520Y1152D01*
X869Y1152D02*
X876Y1152D01*
X0Y1151D02*
X7Y1151D01*
X504Y1151D02*
X520Y1151D01*
X869Y1151D02*
X876Y1151D01*
X0Y1150D02*
X7Y1150D01*
X504Y1150D02*
X520Y1150D01*
X869Y1150D02*
X876Y1150D01*
X0Y1149D02*
X7Y1149D01*
X504Y1149D02*
X520Y1149D01*
X869Y1149D02*
X876Y1149D01*
X0Y1148D02*
X7Y1148D01*
X504Y1148D02*
X520Y1148D01*
X869Y1148D02*
X876Y1148D01*
X0Y1147D02*
X7Y1147D01*
X504Y1147D02*
X520Y1147D01*
X869Y1147D02*
X876Y1147D01*
X0Y1146D02*
X7Y1146D01*
X504Y1146D02*
X520Y1146D01*
X869Y1146D02*
X876Y1146D01*
X0Y1145D02*
X7Y1145D01*
X504Y1145D02*
X520Y1145D01*
X869Y1145D02*
X876Y1145D01*
X0Y1144D02*
X7Y1144D01*
X504Y1144D02*
X520Y1144D01*
X869Y1144D02*
X876Y1144D01*
X0Y1143D02*
X7Y1143D01*
X504Y1143D02*
X520Y1143D01*
X869Y1143D02*
X876Y1143D01*
X0Y1142D02*
X7Y1142D01*
X504Y1142D02*
X520Y1142D01*
X869Y1142D02*
X876Y1142D01*
X0Y1141D02*
X7Y1141D01*
X504Y1141D02*
X520Y1141D01*
X869Y1141D02*
X876Y1141D01*
X0Y1140D02*
X7Y1140D01*
X504Y1140D02*
X520Y1140D01*
X869Y1140D02*
X876Y1140D01*
X0Y1139D02*
X7Y1139D01*
X504Y1139D02*
X520Y1139D01*
X869Y1139D02*
X876Y1139D01*
X0Y1138D02*
X7Y1138D01*
X504Y1138D02*
X520Y1138D01*
X869Y1138D02*
X876Y1138D01*
X0Y1137D02*
X7Y1137D01*
X504Y1137D02*
X520Y1137D01*
X869Y1137D02*
X876Y1137D01*
X0Y1136D02*
X7Y1136D01*
X504Y1136D02*
X520Y1136D01*
X869Y1136D02*
X876Y1136D01*
X0Y1135D02*
X7Y1135D01*
X504Y1135D02*
X520Y1135D01*
X869Y1135D02*
X876Y1135D01*
X0Y1134D02*
X7Y1134D01*
X504Y1134D02*
X520Y1134D01*
X869Y1134D02*
X876Y1134D01*
X0Y1133D02*
X7Y1133D01*
X504Y1133D02*
X520Y1133D01*
X869Y1133D02*
X876Y1133D01*
X0Y1132D02*
X7Y1132D01*
X504Y1132D02*
X520Y1132D01*
X869Y1132D02*
X876Y1132D01*
X0Y1131D02*
X7Y1131D01*
X504Y1131D02*
X520Y1131D01*
X869Y1131D02*
X876Y1131D01*
X0Y1130D02*
X7Y1130D01*
X504Y1130D02*
X520Y1130D01*
X869Y1130D02*
X876Y1130D01*
X0Y1129D02*
X7Y1129D01*
X504Y1129D02*
X520Y1129D01*
X869Y1129D02*
X876Y1129D01*
X0Y1128D02*
X7Y1128D01*
X504Y1128D02*
X520Y1128D01*
X869Y1128D02*
X876Y1128D01*
X0Y1127D02*
X7Y1127D01*
X504Y1127D02*
X520Y1127D01*
X869Y1127D02*
X876Y1127D01*
X0Y1126D02*
X7Y1126D01*
X504Y1126D02*
X520Y1126D01*
X869Y1126D02*
X876Y1126D01*
X0Y1125D02*
X7Y1125D01*
X504Y1125D02*
X520Y1125D01*
X869Y1125D02*
X876Y1125D01*
X0Y1124D02*
X7Y1124D01*
X504Y1124D02*
X520Y1124D01*
X869Y1124D02*
X876Y1124D01*
X0Y1123D02*
X7Y1123D01*
X504Y1123D02*
X520Y1123D01*
X869Y1123D02*
X876Y1123D01*
X0Y1122D02*
X7Y1122D01*
X504Y1122D02*
X520Y1122D01*
X869Y1122D02*
X876Y1122D01*
X0Y1121D02*
X7Y1121D01*
X504Y1121D02*
X520Y1121D01*
X869Y1121D02*
X876Y1121D01*
X0Y1120D02*
X7Y1120D01*
X504Y1120D02*
X520Y1120D01*
X869Y1120D02*
X876Y1120D01*
X0Y1119D02*
X7Y1119D01*
X504Y1119D02*
X520Y1119D01*
X869Y1119D02*
X876Y1119D01*
X0Y1118D02*
X7Y1118D01*
X504Y1118D02*
X520Y1118D01*
X869Y1118D02*
X876Y1118D01*
X0Y1117D02*
X7Y1117D01*
X504Y1117D02*
X520Y1117D01*
X869Y1117D02*
X876Y1117D01*
X0Y1116D02*
X7Y1116D01*
X504Y1116D02*
X520Y1116D01*
X869Y1116D02*
X876Y1116D01*
X0Y1115D02*
X7Y1115D01*
X504Y1115D02*
X520Y1115D01*
X869Y1115D02*
X876Y1115D01*
X0Y1114D02*
X7Y1114D01*
X504Y1114D02*
X520Y1114D01*
X869Y1114D02*
X876Y1114D01*
X0Y1113D02*
X7Y1113D01*
X504Y1113D02*
X520Y1113D01*
X869Y1113D02*
X876Y1113D01*
X0Y1112D02*
X7Y1112D01*
X504Y1112D02*
X520Y1112D01*
X820Y1112D02*
X836Y1112D01*
X869Y1112D02*
X876Y1112D01*
X0Y1111D02*
X7Y1111D01*
X504Y1111D02*
X520Y1111D01*
X819Y1111D02*
X837Y1111D01*
X869Y1111D02*
X876Y1111D01*
X0Y1110D02*
X7Y1110D01*
X504Y1110D02*
X520Y1110D01*
X818Y1110D02*
X838Y1110D01*
X869Y1110D02*
X876Y1110D01*
X0Y1109D02*
X7Y1109D01*
X504Y1109D02*
X520Y1109D01*
X817Y1109D02*
X839Y1109D01*
X869Y1109D02*
X876Y1109D01*
X0Y1108D02*
X7Y1108D01*
X504Y1108D02*
X520Y1108D01*
X816Y1108D02*
X840Y1108D01*
X869Y1108D02*
X876Y1108D01*
X0Y1107D02*
X7Y1107D01*
X504Y1107D02*
X520Y1107D01*
X816Y1107D02*
X821Y1107D01*
X835Y1107D02*
X841Y1107D01*
X869Y1107D02*
X876Y1107D01*
X0Y1106D02*
X7Y1106D01*
X504Y1106D02*
X520Y1106D01*
X815Y1106D02*
X820Y1106D01*
X836Y1106D02*
X841Y1106D01*
X869Y1106D02*
X876Y1106D01*
X0Y1105D02*
X7Y1105D01*
X504Y1105D02*
X520Y1105D01*
X815Y1105D02*
X819Y1105D01*
X837Y1105D02*
X841Y1105D01*
X869Y1105D02*
X876Y1105D01*
X0Y1104D02*
X7Y1104D01*
X504Y1104D02*
X520Y1104D01*
X815Y1104D02*
X819Y1104D01*
X837Y1104D02*
X841Y1104D01*
X869Y1104D02*
X876Y1104D01*
X0Y1103D02*
X7Y1103D01*
X504Y1103D02*
X520Y1103D01*
X815Y1103D02*
X819Y1103D01*
X838Y1103D02*
X842Y1103D01*
X869Y1103D02*
X876Y1103D01*
X0Y1102D02*
X7Y1102D01*
X504Y1102D02*
X520Y1102D01*
X815Y1102D02*
X819Y1102D01*
X838Y1102D02*
X842Y1102D01*
X869Y1102D02*
X876Y1102D01*
X0Y1101D02*
X7Y1101D01*
X504Y1101D02*
X520Y1101D01*
X815Y1101D02*
X819Y1101D01*
X838Y1101D02*
X842Y1101D01*
X869Y1101D02*
X876Y1101D01*
X0Y1100D02*
X7Y1100D01*
X504Y1100D02*
X520Y1100D01*
X815Y1100D02*
X819Y1100D01*
X838Y1100D02*
X841Y1100D01*
X869Y1100D02*
X876Y1100D01*
X0Y1099D02*
X7Y1099D01*
X504Y1099D02*
X520Y1099D01*
X815Y1099D02*
X819Y1099D01*
X837Y1099D02*
X841Y1099D01*
X869Y1099D02*
X876Y1099D01*
X0Y1098D02*
X7Y1098D01*
X504Y1098D02*
X520Y1098D01*
X815Y1098D02*
X820Y1098D01*
X837Y1098D02*
X841Y1098D01*
X869Y1098D02*
X876Y1098D01*
X0Y1097D02*
X7Y1097D01*
X504Y1097D02*
X520Y1097D01*
X816Y1097D02*
X821Y1097D01*
X836Y1097D02*
X841Y1097D01*
X869Y1097D02*
X876Y1097D01*
X0Y1096D02*
X7Y1096D01*
X504Y1096D02*
X520Y1096D01*
X816Y1096D02*
X821Y1096D01*
X835Y1096D02*
X840Y1096D01*
X869Y1096D02*
X876Y1096D01*
X0Y1095D02*
X7Y1095D01*
X504Y1095D02*
X520Y1095D01*
X817Y1095D02*
X822Y1095D01*
X834Y1095D02*
X840Y1095D01*
X869Y1095D02*
X876Y1095D01*
X0Y1094D02*
X7Y1094D01*
X504Y1094D02*
X520Y1094D01*
X817Y1094D02*
X823Y1094D01*
X833Y1094D02*
X839Y1094D01*
X869Y1094D02*
X876Y1094D01*
X0Y1093D02*
X7Y1093D01*
X504Y1093D02*
X520Y1093D01*
X806Y1093D02*
X840Y1093D01*
X869Y1093D02*
X876Y1093D01*
X0Y1092D02*
X7Y1092D01*
X504Y1092D02*
X520Y1092D01*
X805Y1092D02*
X841Y1092D01*
X869Y1092D02*
X876Y1092D01*
X0Y1091D02*
X7Y1091D01*
X504Y1091D02*
X520Y1091D01*
X805Y1091D02*
X841Y1091D01*
X869Y1091D02*
X876Y1091D01*
X0Y1090D02*
X7Y1090D01*
X504Y1090D02*
X520Y1090D01*
X805Y1090D02*
X841Y1090D01*
X869Y1090D02*
X876Y1090D01*
X0Y1089D02*
X7Y1089D01*
X504Y1089D02*
X520Y1089D01*
X806Y1089D02*
X840Y1089D01*
X869Y1089D02*
X876Y1089D01*
X0Y1088D02*
X7Y1088D01*
X504Y1088D02*
X520Y1088D01*
X869Y1088D02*
X876Y1088D01*
X0Y1087D02*
X7Y1087D01*
X504Y1087D02*
X520Y1087D01*
X869Y1087D02*
X876Y1087D01*
X0Y1086D02*
X7Y1086D01*
X504Y1086D02*
X520Y1086D01*
X869Y1086D02*
X876Y1086D01*
X0Y1085D02*
X7Y1085D01*
X504Y1085D02*
X520Y1085D01*
X869Y1085D02*
X876Y1085D01*
X0Y1084D02*
X7Y1084D01*
X504Y1084D02*
X520Y1084D01*
X869Y1084D02*
X876Y1084D01*
X0Y1083D02*
X7Y1083D01*
X504Y1083D02*
X520Y1083D01*
X869Y1083D02*
X876Y1083D01*
X0Y1082D02*
X7Y1082D01*
X504Y1082D02*
X520Y1082D01*
X869Y1082D02*
X876Y1082D01*
X0Y1081D02*
X7Y1081D01*
X504Y1081D02*
X520Y1081D01*
X869Y1081D02*
X876Y1081D01*
X0Y1080D02*
X7Y1080D01*
X504Y1080D02*
X520Y1080D01*
X869Y1080D02*
X876Y1080D01*
X0Y1079D02*
X7Y1079D01*
X504Y1079D02*
X520Y1079D01*
X869Y1079D02*
X876Y1079D01*
X0Y1078D02*
X7Y1078D01*
X504Y1078D02*
X520Y1078D01*
X869Y1078D02*
X876Y1078D01*
X0Y1077D02*
X7Y1077D01*
X504Y1077D02*
X520Y1077D01*
X821Y1077D02*
X840Y1077D01*
X869Y1077D02*
X876Y1077D01*
X0Y1076D02*
X7Y1076D01*
X504Y1076D02*
X520Y1076D01*
X818Y1076D02*
X841Y1076D01*
X869Y1076D02*
X876Y1076D01*
X0Y1075D02*
X7Y1075D01*
X504Y1075D02*
X520Y1075D01*
X817Y1075D02*
X841Y1075D01*
X869Y1075D02*
X876Y1075D01*
X0Y1074D02*
X7Y1074D01*
X504Y1074D02*
X520Y1074D01*
X816Y1074D02*
X841Y1074D01*
X869Y1074D02*
X876Y1074D01*
X0Y1073D02*
X7Y1073D01*
X504Y1073D02*
X520Y1073D01*
X816Y1073D02*
X840Y1073D01*
X869Y1073D02*
X876Y1073D01*
X0Y1072D02*
X7Y1072D01*
X504Y1072D02*
X520Y1072D01*
X815Y1072D02*
X822Y1072D01*
X825Y1072D02*
X830Y1072D01*
X835Y1072D02*
X839Y1072D01*
X869Y1072D02*
X876Y1072D01*
X0Y1071D02*
X7Y1071D01*
X504Y1071D02*
X520Y1071D01*
X815Y1071D02*
X819Y1071D01*
X825Y1071D02*
X829Y1071D01*
X835Y1071D02*
X840Y1071D01*
X869Y1071D02*
X876Y1071D01*
X0Y1070D02*
X7Y1070D01*
X504Y1070D02*
X520Y1070D01*
X815Y1070D02*
X819Y1070D01*
X825Y1070D02*
X829Y1070D01*
X836Y1070D02*
X841Y1070D01*
X869Y1070D02*
X876Y1070D01*
X0Y1069D02*
X7Y1069D01*
X504Y1069D02*
X520Y1069D01*
X815Y1069D02*
X819Y1069D01*
X825Y1069D02*
X829Y1069D01*
X836Y1069D02*
X841Y1069D01*
X869Y1069D02*
X876Y1069D01*
X0Y1068D02*
X7Y1068D01*
X504Y1068D02*
X520Y1068D01*
X815Y1068D02*
X819Y1068D01*
X825Y1068D02*
X829Y1068D01*
X837Y1068D02*
X841Y1068D01*
X869Y1068D02*
X876Y1068D01*
X0Y1067D02*
X7Y1067D01*
X504Y1067D02*
X520Y1067D01*
X815Y1067D02*
X819Y1067D01*
X825Y1067D02*
X829Y1067D01*
X838Y1067D02*
X842Y1067D01*
X869Y1067D02*
X876Y1067D01*
X0Y1066D02*
X7Y1066D01*
X504Y1066D02*
X520Y1066D01*
X815Y1066D02*
X819Y1066D01*
X825Y1066D02*
X829Y1066D01*
X838Y1066D02*
X842Y1066D01*
X869Y1066D02*
X876Y1066D01*
X0Y1065D02*
X7Y1065D01*
X504Y1065D02*
X520Y1065D01*
X815Y1065D02*
X819Y1065D01*
X825Y1065D02*
X829Y1065D01*
X838Y1065D02*
X842Y1065D01*
X869Y1065D02*
X876Y1065D01*
X0Y1064D02*
X7Y1064D01*
X504Y1064D02*
X520Y1064D01*
X815Y1064D02*
X819Y1064D01*
X825Y1064D02*
X829Y1064D01*
X838Y1064D02*
X842Y1064D01*
X869Y1064D02*
X876Y1064D01*
X0Y1063D02*
X7Y1063D01*
X504Y1063D02*
X520Y1063D01*
X815Y1063D02*
X819Y1063D01*
X825Y1063D02*
X829Y1063D01*
X838Y1063D02*
X842Y1063D01*
X869Y1063D02*
X876Y1063D01*
X0Y1062D02*
X7Y1062D01*
X504Y1062D02*
X520Y1062D01*
X815Y1062D02*
X819Y1062D01*
X825Y1062D02*
X829Y1062D01*
X838Y1062D02*
X842Y1062D01*
X869Y1062D02*
X876Y1062D01*
X0Y1061D02*
X7Y1061D01*
X504Y1061D02*
X520Y1061D01*
X815Y1061D02*
X819Y1061D01*
X825Y1061D02*
X829Y1061D01*
X838Y1061D02*
X842Y1061D01*
X869Y1061D02*
X876Y1061D01*
X0Y1060D02*
X7Y1060D01*
X504Y1060D02*
X520Y1060D01*
X815Y1060D02*
X819Y1060D01*
X825Y1060D02*
X829Y1060D01*
X837Y1060D02*
X841Y1060D01*
X869Y1060D02*
X876Y1060D01*
X0Y1059D02*
X7Y1059D01*
X504Y1059D02*
X520Y1059D01*
X815Y1059D02*
X818Y1059D01*
X825Y1059D02*
X830Y1059D01*
X837Y1059D02*
X841Y1059D01*
X869Y1059D02*
X876Y1059D01*
X0Y1058D02*
X7Y1058D01*
X504Y1058D02*
X520Y1058D01*
X826Y1058D02*
X841Y1058D01*
X869Y1058D02*
X876Y1058D01*
X0Y1057D02*
X7Y1057D01*
X504Y1057D02*
X520Y1057D01*
X826Y1057D02*
X841Y1057D01*
X869Y1057D02*
X876Y1057D01*
X0Y1056D02*
X7Y1056D01*
X504Y1056D02*
X520Y1056D01*
X827Y1056D02*
X840Y1056D01*
X869Y1056D02*
X876Y1056D01*
X0Y1055D02*
X7Y1055D01*
X504Y1055D02*
X520Y1055D01*
X828Y1055D02*
X839Y1055D01*
X869Y1055D02*
X876Y1055D01*
X0Y1054D02*
X7Y1054D01*
X504Y1054D02*
X520Y1054D01*
X829Y1054D02*
X837Y1054D01*
X869Y1054D02*
X876Y1054D01*
X0Y1053D02*
X7Y1053D01*
X504Y1053D02*
X520Y1053D01*
X869Y1053D02*
X876Y1053D01*
X0Y1052D02*
X7Y1052D01*
X504Y1052D02*
X520Y1052D01*
X869Y1052D02*
X876Y1052D01*
X0Y1051D02*
X7Y1051D01*
X504Y1051D02*
X520Y1051D01*
X869Y1051D02*
X876Y1051D01*
X0Y1050D02*
X7Y1050D01*
X504Y1050D02*
X520Y1050D01*
X869Y1050D02*
X876Y1050D01*
X0Y1049D02*
X7Y1049D01*
X504Y1049D02*
X520Y1049D01*
X869Y1049D02*
X876Y1049D01*
X0Y1048D02*
X7Y1048D01*
X504Y1048D02*
X520Y1048D01*
X869Y1048D02*
X876Y1048D01*
X0Y1047D02*
X7Y1047D01*
X504Y1047D02*
X520Y1047D01*
X869Y1047D02*
X876Y1047D01*
X0Y1046D02*
X7Y1046D01*
X504Y1046D02*
X520Y1046D01*
X869Y1046D02*
X876Y1046D01*
X0Y1045D02*
X7Y1045D01*
X504Y1045D02*
X520Y1045D01*
X869Y1045D02*
X876Y1045D01*
X0Y1044D02*
X7Y1044D01*
X504Y1044D02*
X520Y1044D01*
X869Y1044D02*
X876Y1044D01*
X0Y1043D02*
X7Y1043D01*
X504Y1043D02*
X520Y1043D01*
X869Y1043D02*
X876Y1043D01*
X0Y1042D02*
X7Y1042D01*
X504Y1042D02*
X520Y1042D01*
X869Y1042D02*
X876Y1042D01*
X0Y1041D02*
X7Y1041D01*
X504Y1041D02*
X520Y1041D01*
X869Y1041D02*
X876Y1041D01*
X0Y1040D02*
X7Y1040D01*
X504Y1040D02*
X520Y1040D01*
X869Y1040D02*
X876Y1040D01*
X0Y1039D02*
X7Y1039D01*
X504Y1039D02*
X520Y1039D01*
X838Y1039D02*
X841Y1039D01*
X869Y1039D02*
X876Y1039D01*
X0Y1038D02*
X7Y1038D01*
X504Y1038D02*
X520Y1038D01*
X838Y1038D02*
X841Y1038D01*
X869Y1038D02*
X876Y1038D01*
X0Y1037D02*
X7Y1037D01*
X504Y1037D02*
X520Y1037D01*
X838Y1037D02*
X842Y1037D01*
X869Y1037D02*
X876Y1037D01*
X0Y1036D02*
X7Y1036D01*
X504Y1036D02*
X520Y1036D01*
X838Y1036D02*
X842Y1036D01*
X869Y1036D02*
X876Y1036D01*
X0Y1035D02*
X7Y1035D01*
X504Y1035D02*
X520Y1035D01*
X838Y1035D02*
X842Y1035D01*
X869Y1035D02*
X876Y1035D01*
X0Y1034D02*
X7Y1034D01*
X504Y1034D02*
X520Y1034D01*
X838Y1034D02*
X842Y1034D01*
X869Y1034D02*
X876Y1034D01*
X0Y1033D02*
X7Y1033D01*
X504Y1033D02*
X520Y1033D01*
X838Y1033D02*
X842Y1033D01*
X869Y1033D02*
X876Y1033D01*
X0Y1032D02*
X7Y1032D01*
X504Y1032D02*
X520Y1032D01*
X805Y1032D02*
X842Y1032D01*
X869Y1032D02*
X876Y1032D01*
X0Y1031D02*
X7Y1031D01*
X504Y1031D02*
X520Y1031D01*
X805Y1031D02*
X842Y1031D01*
X869Y1031D02*
X876Y1031D01*
X0Y1030D02*
X7Y1030D01*
X504Y1030D02*
X520Y1030D01*
X805Y1030D02*
X842Y1030D01*
X869Y1030D02*
X876Y1030D01*
X0Y1029D02*
X7Y1029D01*
X504Y1029D02*
X520Y1029D01*
X805Y1029D02*
X842Y1029D01*
X869Y1029D02*
X876Y1029D01*
X0Y1028D02*
X7Y1028D01*
X504Y1028D02*
X520Y1028D01*
X805Y1028D02*
X842Y1028D01*
X869Y1028D02*
X876Y1028D01*
X0Y1027D02*
X7Y1027D01*
X504Y1027D02*
X520Y1027D01*
X805Y1027D02*
X808Y1027D01*
X838Y1027D02*
X842Y1027D01*
X869Y1027D02*
X876Y1027D01*
X0Y1026D02*
X7Y1026D01*
X504Y1026D02*
X520Y1026D01*
X805Y1026D02*
X808Y1026D01*
X838Y1026D02*
X842Y1026D01*
X869Y1026D02*
X876Y1026D01*
X0Y1025D02*
X7Y1025D01*
X504Y1025D02*
X520Y1025D01*
X805Y1025D02*
X808Y1025D01*
X838Y1025D02*
X842Y1025D01*
X869Y1025D02*
X876Y1025D01*
X0Y1024D02*
X7Y1024D01*
X504Y1024D02*
X520Y1024D01*
X805Y1024D02*
X808Y1024D01*
X838Y1024D02*
X842Y1024D01*
X869Y1024D02*
X876Y1024D01*
X0Y1023D02*
X7Y1023D01*
X504Y1023D02*
X520Y1023D01*
X805Y1023D02*
X808Y1023D01*
X838Y1023D02*
X841Y1023D01*
X869Y1023D02*
X876Y1023D01*
X0Y1022D02*
X7Y1022D01*
X504Y1022D02*
X520Y1022D01*
X805Y1022D02*
X808Y1022D01*
X838Y1022D02*
X841Y1022D01*
X869Y1022D02*
X876Y1022D01*
X0Y1021D02*
X7Y1021D01*
X504Y1021D02*
X520Y1021D01*
X806Y1021D02*
X807Y1021D01*
X839Y1021D02*
X840Y1021D01*
X869Y1021D02*
X876Y1021D01*
X0Y1020D02*
X7Y1020D01*
X504Y1020D02*
X520Y1020D01*
X869Y1020D02*
X876Y1020D01*
X0Y1019D02*
X7Y1019D01*
X504Y1019D02*
X520Y1019D01*
X869Y1019D02*
X876Y1019D01*
X0Y1018D02*
X7Y1018D01*
X504Y1018D02*
X520Y1018D01*
X869Y1018D02*
X876Y1018D01*
X0Y1017D02*
X7Y1017D01*
X504Y1017D02*
X520Y1017D01*
X869Y1017D02*
X876Y1017D01*
X0Y1016D02*
X7Y1016D01*
X504Y1016D02*
X520Y1016D01*
X869Y1016D02*
X876Y1016D01*
X0Y1015D02*
X7Y1015D01*
X504Y1015D02*
X520Y1015D01*
X869Y1015D02*
X876Y1015D01*
X0Y1014D02*
X7Y1014D01*
X504Y1014D02*
X520Y1014D01*
X869Y1014D02*
X876Y1014D01*
X0Y1013D02*
X7Y1013D01*
X504Y1013D02*
X520Y1013D01*
X869Y1013D02*
X876Y1013D01*
X0Y1012D02*
X7Y1012D01*
X504Y1012D02*
X520Y1012D01*
X869Y1012D02*
X876Y1012D01*
X0Y1011D02*
X7Y1011D01*
X504Y1011D02*
X520Y1011D01*
X869Y1011D02*
X876Y1011D01*
X0Y1010D02*
X7Y1010D01*
X504Y1010D02*
X520Y1010D01*
X869Y1010D02*
X876Y1010D01*
X0Y1009D02*
X7Y1009D01*
X504Y1009D02*
X520Y1009D01*
X869Y1009D02*
X876Y1009D01*
X0Y1008D02*
X7Y1008D01*
X504Y1008D02*
X520Y1008D01*
X869Y1008D02*
X876Y1008D01*
X0Y1007D02*
X7Y1007D01*
X504Y1007D02*
X520Y1007D01*
X817Y1007D02*
X821Y1007D01*
X869Y1007D02*
X876Y1007D01*
X0Y1006D02*
X7Y1006D01*
X504Y1006D02*
X520Y1006D01*
X815Y1006D02*
X823Y1006D01*
X869Y1006D02*
X876Y1006D01*
X0Y1005D02*
X7Y1005D01*
X504Y1005D02*
X520Y1005D01*
X815Y1005D02*
X826Y1005D01*
X869Y1005D02*
X876Y1005D01*
X0Y1004D02*
X7Y1004D01*
X504Y1004D02*
X520Y1004D01*
X815Y1004D02*
X828Y1004D01*
X869Y1004D02*
X876Y1004D01*
X0Y1003D02*
X7Y1003D01*
X504Y1003D02*
X520Y1003D01*
X816Y1003D02*
X830Y1003D01*
X869Y1003D02*
X876Y1003D01*
X0Y1002D02*
X7Y1002D01*
X504Y1002D02*
X520Y1002D01*
X821Y1002D02*
X833Y1002D01*
X869Y1002D02*
X876Y1002D01*
X0Y1001D02*
X7Y1001D01*
X504Y1001D02*
X520Y1001D01*
X823Y1001D02*
X835Y1001D01*
X869Y1001D02*
X876Y1001D01*
X0Y1000D02*
X7Y1000D01*
X504Y1000D02*
X520Y1000D01*
X826Y1000D02*
X837Y1000D01*
X869Y1000D02*
X876Y1000D01*
X0Y999D02*
X7Y999D01*
X188Y999D02*
X207Y999D01*
X223Y999D02*
X245Y999D01*
X258Y999D02*
X278Y999D01*
X294Y999D02*
X297Y999D01*
X327Y999D02*
X330Y999D01*
X363Y999D02*
X382Y999D01*
X396Y999D02*
X409Y999D01*
X504Y999D02*
X520Y999D01*
X828Y999D02*
X839Y999D01*
X869Y999D02*
X876Y999D01*
X0Y998D02*
X7Y998D01*
X188Y998D02*
X209Y998D01*
X223Y998D02*
X246Y998D01*
X258Y998D02*
X279Y998D01*
X293Y998D02*
X297Y998D01*
X327Y998D02*
X330Y998D01*
X362Y998D02*
X383Y998D01*
X396Y998D02*
X409Y998D01*
X504Y998D02*
X520Y998D01*
X830Y998D02*
X842Y998D01*
X869Y998D02*
X876Y998D01*
X0Y997D02*
X7Y997D01*
X188Y997D02*
X210Y997D01*
X223Y997D02*
X246Y997D01*
X258Y997D02*
X280Y997D01*
X293Y997D02*
X297Y997D01*
X327Y997D02*
X331Y997D01*
X362Y997D02*
X384Y997D01*
X396Y997D02*
X409Y997D01*
X504Y997D02*
X520Y997D01*
X833Y997D02*
X844Y997D01*
X869Y997D02*
X876Y997D01*
X0Y996D02*
X7Y996D01*
X188Y996D02*
X210Y996D01*
X223Y996D02*
X245Y996D01*
X258Y996D02*
X280Y996D01*
X293Y996D02*
X297Y996D01*
X327Y996D02*
X331Y996D01*
X361Y996D02*
X384Y996D01*
X396Y996D02*
X409Y996D01*
X504Y996D02*
X520Y996D01*
X835Y996D02*
X846Y996D01*
X869Y996D02*
X876Y996D01*
X0Y995D02*
X7Y995D01*
X188Y995D02*
X193Y995D01*
X205Y995D02*
X211Y995D01*
X223Y995D02*
X227Y995D01*
X276Y995D02*
X280Y995D01*
X293Y995D02*
X297Y995D01*
X308Y995D02*
X311Y995D01*
X327Y995D02*
X331Y995D01*
X361Y995D02*
X365Y995D01*
X380Y995D02*
X384Y995D01*
X405Y995D02*
X409Y995D01*
X504Y995D02*
X520Y995D01*
X836Y995D02*
X849Y995D01*
X869Y995D02*
X876Y995D01*
X0Y994D02*
X7Y994D01*
X188Y994D02*
X192Y994D01*
X207Y994D02*
X211Y994D01*
X223Y994D02*
X227Y994D01*
X277Y994D02*
X280Y994D01*
X293Y994D02*
X297Y994D01*
X308Y994D02*
X311Y994D01*
X327Y994D02*
X331Y994D01*
X361Y994D02*
X365Y994D01*
X380Y994D02*
X384Y994D01*
X405Y994D02*
X409Y994D01*
X504Y994D02*
X520Y994D01*
X835Y994D02*
X851Y994D01*
X869Y994D02*
X876Y994D01*
X0Y993D02*
X7Y993D01*
X188Y993D02*
X192Y993D01*
X207Y993D02*
X211Y993D01*
X223Y993D02*
X227Y993D01*
X277Y993D02*
X280Y993D01*
X293Y993D02*
X297Y993D01*
X308Y993D02*
X311Y993D01*
X327Y993D02*
X331Y993D01*
X361Y993D02*
X365Y993D01*
X380Y993D02*
X384Y993D01*
X405Y993D02*
X409Y993D01*
X442Y993D02*
X442Y993D01*
X504Y993D02*
X520Y993D01*
X833Y993D02*
X839Y993D01*
X842Y993D02*
X852Y993D01*
X869Y993D02*
X876Y993D01*
X0Y992D02*
X7Y992D01*
X188Y992D02*
X192Y992D01*
X207Y992D02*
X211Y992D01*
X223Y992D02*
X227Y992D01*
X277Y992D02*
X280Y992D01*
X293Y992D02*
X297Y992D01*
X308Y992D02*
X311Y992D01*
X327Y992D02*
X331Y992D01*
X361Y992D02*
X365Y992D01*
X380Y992D02*
X384Y992D01*
X405Y992D02*
X409Y992D01*
X440Y992D02*
X443Y992D01*
X504Y992D02*
X520Y992D01*
X831Y992D02*
X839Y992D01*
X844Y992D02*
X852Y992D01*
X869Y992D02*
X876Y992D01*
X0Y991D02*
X7Y991D01*
X188Y991D02*
X192Y991D01*
X207Y991D02*
X211Y991D01*
X223Y991D02*
X227Y991D01*
X277Y991D02*
X280Y991D01*
X293Y991D02*
X297Y991D01*
X308Y991D02*
X311Y991D01*
X327Y991D02*
X331Y991D01*
X361Y991D02*
X365Y991D01*
X380Y991D02*
X384Y991D01*
X405Y991D02*
X409Y991D01*
X440Y991D02*
X444Y991D01*
X504Y991D02*
X520Y991D01*
X828Y991D02*
X839Y991D01*
X846Y991D02*
X852Y991D01*
X869Y991D02*
X876Y991D01*
X0Y990D02*
X7Y990D01*
X188Y990D02*
X192Y990D01*
X207Y990D02*
X211Y990D01*
X223Y990D02*
X227Y990D01*
X277Y990D02*
X280Y990D01*
X293Y990D02*
X297Y990D01*
X308Y990D02*
X311Y990D01*
X327Y990D02*
X331Y990D01*
X361Y990D02*
X365Y990D01*
X380Y990D02*
X384Y990D01*
X405Y990D02*
X409Y990D01*
X440Y990D02*
X444Y990D01*
X504Y990D02*
X520Y990D01*
X826Y990D02*
X837Y990D01*
X848Y990D02*
X852Y990D01*
X869Y990D02*
X876Y990D01*
X0Y989D02*
X7Y989D01*
X155Y989D02*
X157Y989D01*
X164Y989D02*
X172Y989D01*
X188Y989D02*
X192Y989D01*
X207Y989D02*
X211Y989D01*
X223Y989D02*
X227Y989D01*
X277Y989D02*
X280Y989D01*
X293Y989D02*
X297Y989D01*
X308Y989D02*
X311Y989D01*
X327Y989D02*
X331Y989D01*
X361Y989D02*
X365Y989D01*
X380Y989D02*
X384Y989D01*
X405Y989D02*
X409Y989D01*
X440Y989D02*
X444Y989D01*
X504Y989D02*
X520Y989D01*
X824Y989D02*
X835Y989D01*
X848Y989D02*
X852Y989D01*
X869Y989D02*
X876Y989D01*
X0Y988D02*
X7Y988D01*
X154Y988D02*
X158Y988D01*
X162Y988D02*
X174Y988D01*
X188Y988D02*
X192Y988D01*
X206Y988D02*
X211Y988D01*
X223Y988D02*
X227Y988D01*
X277Y988D02*
X280Y988D01*
X293Y988D02*
X297Y988D01*
X308Y988D02*
X311Y988D01*
X327Y988D02*
X331Y988D01*
X361Y988D02*
X365Y988D01*
X380Y988D02*
X384Y988D01*
X405Y988D02*
X409Y988D01*
X440Y988D02*
X444Y988D01*
X504Y988D02*
X520Y988D01*
X821Y988D02*
X833Y988D01*
X848Y988D02*
X852Y988D01*
X869Y988D02*
X876Y988D01*
X0Y987D02*
X7Y987D01*
X154Y987D02*
X158Y987D01*
X161Y987D02*
X175Y987D01*
X188Y987D02*
X210Y987D01*
X223Y987D02*
X240Y987D01*
X277Y987D02*
X280Y987D01*
X293Y987D02*
X297Y987D01*
X308Y987D02*
X311Y987D01*
X327Y987D02*
X331Y987D01*
X361Y987D02*
X365Y987D01*
X380Y987D02*
X384Y987D01*
X405Y987D02*
X409Y987D01*
X440Y987D02*
X444Y987D01*
X504Y987D02*
X520Y987D01*
X816Y987D02*
X830Y987D01*
X848Y987D02*
X852Y987D01*
X869Y987D02*
X876Y987D01*
X0Y986D02*
X7Y986D01*
X154Y986D02*
X175Y986D01*
X188Y986D02*
X210Y986D01*
X223Y986D02*
X241Y986D01*
X277Y986D02*
X280Y986D01*
X293Y986D02*
X297Y986D01*
X308Y986D02*
X311Y986D01*
X327Y986D02*
X331Y986D01*
X361Y986D02*
X365Y986D01*
X380Y986D02*
X384Y986D01*
X405Y986D02*
X409Y986D01*
X440Y986D02*
X444Y986D01*
X504Y986D02*
X520Y986D01*
X815Y986D02*
X828Y986D01*
X848Y986D02*
X852Y986D01*
X869Y986D02*
X876Y986D01*
X0Y985D02*
X7Y985D01*
X154Y985D02*
X176Y985D01*
X188Y985D02*
X209Y985D01*
X223Y985D02*
X241Y985D01*
X277Y985D02*
X280Y985D01*
X293Y985D02*
X297Y985D01*
X308Y985D02*
X311Y985D01*
X327Y985D02*
X331Y985D01*
X361Y985D02*
X365Y985D01*
X380Y985D02*
X384Y985D01*
X405Y985D02*
X409Y985D01*
X440Y985D02*
X444Y985D01*
X504Y985D02*
X520Y985D01*
X815Y985D02*
X826Y985D01*
X848Y985D02*
X852Y985D01*
X869Y985D02*
X876Y985D01*
X0Y984D02*
X7Y984D01*
X154Y984D02*
X164Y984D01*
X172Y984D02*
X176Y984D01*
X188Y984D02*
X208Y984D01*
X223Y984D02*
X241Y984D01*
X276Y984D02*
X280Y984D01*
X293Y984D02*
X297Y984D01*
X308Y984D02*
X311Y984D01*
X327Y984D02*
X331Y984D01*
X361Y984D02*
X365Y984D01*
X380Y984D02*
X384Y984D01*
X405Y984D02*
X409Y984D01*
X440Y984D02*
X444Y984D01*
X504Y984D02*
X520Y984D01*
X815Y984D02*
X824Y984D01*
X848Y984D02*
X851Y984D01*
X869Y984D02*
X876Y984D01*
X0Y983D02*
X7Y983D01*
X154Y983D02*
X162Y983D01*
X172Y983D02*
X176Y983D01*
X188Y983D02*
X205Y983D01*
X223Y983D02*
X239Y983D01*
X260Y983D02*
X280Y983D01*
X293Y983D02*
X297Y983D01*
X308Y983D02*
X311Y983D01*
X327Y983D02*
X331Y983D01*
X361Y983D02*
X365Y983D01*
X380Y983D02*
X384Y983D01*
X405Y983D02*
X409Y983D01*
X431Y983D02*
X452Y983D01*
X504Y983D02*
X520Y983D01*
X817Y983D02*
X821Y983D01*
X850Y983D02*
X850Y983D01*
X869Y983D02*
X876Y983D01*
X0Y982D02*
X7Y982D01*
X154Y982D02*
X161Y982D01*
X172Y982D02*
X176Y982D01*
X188Y982D02*
X192Y982D01*
X197Y982D02*
X202Y982D01*
X223Y982D02*
X227Y982D01*
X259Y982D02*
X280Y982D01*
X293Y982D02*
X297Y982D01*
X308Y982D02*
X311Y982D01*
X327Y982D02*
X331Y982D01*
X361Y982D02*
X365Y982D01*
X380Y982D02*
X384Y982D01*
X405Y982D02*
X409Y982D01*
X431Y982D02*
X453Y982D01*
X504Y982D02*
X520Y982D01*
X869Y982D02*
X876Y982D01*
X0Y981D02*
X7Y981D01*
X154Y981D02*
X159Y981D01*
X172Y981D02*
X176Y981D01*
X188Y981D02*
X192Y981D01*
X198Y981D02*
X202Y981D01*
X223Y981D02*
X227Y981D01*
X258Y981D02*
X279Y981D01*
X293Y981D02*
X297Y981D01*
X308Y981D02*
X311Y981D01*
X327Y981D02*
X331Y981D01*
X361Y981D02*
X365Y981D01*
X380Y981D02*
X384Y981D01*
X405Y981D02*
X409Y981D01*
X430Y981D02*
X453Y981D01*
X504Y981D02*
X520Y981D01*
X869Y981D02*
X876Y981D01*
X0Y980D02*
X7Y980D01*
X154Y980D02*
X158Y980D01*
X172Y980D02*
X176Y980D01*
X188Y980D02*
X192Y980D01*
X198Y980D02*
X203Y980D01*
X223Y980D02*
X227Y980D01*
X258Y980D02*
X279Y980D01*
X293Y980D02*
X297Y980D01*
X307Y980D02*
X311Y980D01*
X327Y980D02*
X331Y980D01*
X361Y980D02*
X365Y980D01*
X380Y980D02*
X384Y980D01*
X405Y980D02*
X409Y980D01*
X431Y980D02*
X453Y980D01*
X504Y980D02*
X520Y980D01*
X869Y980D02*
X876Y980D01*
X0Y979D02*
X7Y979D01*
X154Y979D02*
X158Y979D01*
X172Y979D02*
X176Y979D01*
X188Y979D02*
X192Y979D01*
X199Y979D02*
X203Y979D01*
X223Y979D02*
X227Y979D01*
X258Y979D02*
X276Y979D01*
X293Y979D02*
X313Y979D01*
X327Y979D02*
X331Y979D01*
X361Y979D02*
X365Y979D01*
X380Y979D02*
X384Y979D01*
X405Y979D02*
X409Y979D01*
X416Y979D02*
X418Y979D01*
X432Y979D02*
X451Y979D01*
X504Y979D02*
X520Y979D01*
X869Y979D02*
X876Y979D01*
X0Y978D02*
X7Y978D01*
X154Y978D02*
X158Y978D01*
X172Y978D02*
X176Y978D01*
X188Y978D02*
X192Y978D01*
X199Y978D02*
X204Y978D01*
X223Y978D02*
X227Y978D01*
X258Y978D02*
X261Y978D01*
X293Y978D02*
X314Y978D01*
X327Y978D02*
X331Y978D01*
X361Y978D02*
X365Y978D01*
X380Y978D02*
X384Y978D01*
X405Y978D02*
X409Y978D01*
X415Y978D02*
X418Y978D01*
X440Y978D02*
X444Y978D01*
X504Y978D02*
X520Y978D01*
X869Y978D02*
X876Y978D01*
X0Y977D02*
X7Y977D01*
X154Y977D02*
X158Y977D01*
X172Y977D02*
X176Y977D01*
X188Y977D02*
X192Y977D01*
X200Y977D02*
X205Y977D01*
X223Y977D02*
X227Y977D01*
X258Y977D02*
X261Y977D01*
X293Y977D02*
X314Y977D01*
X327Y977D02*
X331Y977D01*
X361Y977D02*
X365Y977D01*
X380Y977D02*
X384Y977D01*
X405Y977D02*
X409Y977D01*
X415Y977D02*
X419Y977D01*
X440Y977D02*
X444Y977D01*
X504Y977D02*
X520Y977D01*
X869Y977D02*
X876Y977D01*
X0Y976D02*
X7Y976D01*
X154Y976D02*
X158Y976D01*
X172Y976D02*
X176Y976D01*
X188Y976D02*
X192Y976D01*
X201Y976D02*
X205Y976D01*
X223Y976D02*
X227Y976D01*
X258Y976D02*
X261Y976D01*
X293Y976D02*
X313Y976D01*
X327Y976D02*
X331Y976D01*
X361Y976D02*
X365Y976D01*
X380Y976D02*
X384Y976D01*
X405Y976D02*
X409Y976D01*
X415Y976D02*
X419Y976D01*
X440Y976D02*
X444Y976D01*
X504Y976D02*
X520Y976D01*
X869Y976D02*
X876Y976D01*
X0Y975D02*
X7Y975D01*
X154Y975D02*
X158Y975D01*
X172Y975D02*
X176Y975D01*
X188Y975D02*
X192Y975D01*
X201Y975D02*
X206Y975D01*
X223Y975D02*
X227Y975D01*
X258Y975D02*
X261Y975D01*
X293Y975D02*
X312Y975D01*
X327Y975D02*
X331Y975D01*
X361Y975D02*
X365Y975D01*
X380Y975D02*
X384Y975D01*
X405Y975D02*
X409Y975D01*
X415Y975D02*
X419Y975D01*
X440Y975D02*
X444Y975D01*
X504Y975D02*
X520Y975D01*
X869Y975D02*
X876Y975D01*
X0Y974D02*
X7Y974D01*
X154Y974D02*
X158Y974D01*
X172Y974D02*
X176Y974D01*
X188Y974D02*
X192Y974D01*
X202Y974D02*
X206Y974D01*
X223Y974D02*
X227Y974D01*
X258Y974D02*
X261Y974D01*
X308Y974D02*
X311Y974D01*
X327Y974D02*
X331Y974D01*
X361Y974D02*
X365Y974D01*
X380Y974D02*
X384Y974D01*
X405Y974D02*
X409Y974D01*
X415Y974D02*
X419Y974D01*
X440Y974D02*
X444Y974D01*
X504Y974D02*
X520Y974D01*
X869Y974D02*
X876Y974D01*
X0Y973D02*
X7Y973D01*
X154Y973D02*
X158Y973D01*
X172Y973D02*
X176Y973D01*
X188Y973D02*
X192Y973D01*
X202Y973D02*
X207Y973D01*
X223Y973D02*
X227Y973D01*
X258Y973D02*
X261Y973D01*
X308Y973D02*
X311Y973D01*
X327Y973D02*
X331Y973D01*
X361Y973D02*
X365Y973D01*
X380Y973D02*
X384Y973D01*
X405Y973D02*
X409Y973D01*
X415Y973D02*
X419Y973D01*
X440Y973D02*
X444Y973D01*
X504Y973D02*
X520Y973D01*
X869Y973D02*
X876Y973D01*
X0Y972D02*
X7Y972D01*
X154Y972D02*
X158Y972D01*
X172Y972D02*
X176Y972D01*
X188Y972D02*
X192Y972D01*
X203Y972D02*
X208Y972D01*
X223Y972D02*
X227Y972D01*
X258Y972D02*
X261Y972D01*
X308Y972D02*
X311Y972D01*
X327Y972D02*
X331Y972D01*
X361Y972D02*
X365Y972D01*
X380Y972D02*
X384Y972D01*
X405Y972D02*
X409Y972D01*
X415Y972D02*
X419Y972D01*
X440Y972D02*
X444Y972D01*
X504Y972D02*
X520Y972D01*
X869Y972D02*
X876Y972D01*
X0Y971D02*
X7Y971D01*
X154Y971D02*
X158Y971D01*
X172Y971D02*
X176Y971D01*
X188Y971D02*
X192Y971D01*
X203Y971D02*
X208Y971D01*
X223Y971D02*
X227Y971D01*
X258Y971D02*
X261Y971D01*
X308Y971D02*
X311Y971D01*
X327Y971D02*
X331Y971D01*
X361Y971D02*
X365Y971D01*
X380Y971D02*
X384Y971D01*
X405Y971D02*
X409Y971D01*
X415Y971D02*
X419Y971D01*
X440Y971D02*
X444Y971D01*
X504Y971D02*
X520Y971D01*
X819Y971D02*
X840Y971D01*
X869Y971D02*
X876Y971D01*
X0Y970D02*
X7Y970D01*
X154Y970D02*
X158Y970D01*
X172Y970D02*
X176Y970D01*
X188Y970D02*
X192Y970D01*
X204Y970D02*
X209Y970D01*
X223Y970D02*
X227Y970D01*
X258Y970D02*
X261Y970D01*
X308Y970D02*
X311Y970D01*
X327Y970D02*
X331Y970D01*
X361Y970D02*
X365Y970D01*
X380Y970D02*
X384Y970D01*
X405Y970D02*
X409Y970D01*
X415Y970D02*
X419Y970D01*
X441Y970D02*
X443Y970D01*
X504Y970D02*
X520Y970D01*
X818Y970D02*
X841Y970D01*
X869Y970D02*
X876Y970D01*
X0Y969D02*
X7Y969D01*
X154Y969D02*
X158Y969D01*
X172Y969D02*
X176Y969D01*
X188Y969D02*
X192Y969D01*
X205Y969D02*
X209Y969D01*
X223Y969D02*
X227Y969D01*
X258Y969D02*
X261Y969D01*
X308Y969D02*
X311Y969D01*
X327Y969D02*
X331Y969D01*
X361Y969D02*
X365Y969D01*
X380Y969D02*
X384Y969D01*
X405Y969D02*
X409Y969D01*
X415Y969D02*
X419Y969D01*
X504Y969D02*
X520Y969D01*
X817Y969D02*
X841Y969D01*
X869Y969D02*
X876Y969D01*
X0Y968D02*
X7Y968D01*
X154Y968D02*
X158Y968D01*
X172Y968D02*
X176Y968D01*
X188Y968D02*
X192Y968D01*
X205Y968D02*
X210Y968D01*
X223Y968D02*
X227Y968D01*
X258Y968D02*
X261Y968D01*
X308Y968D02*
X311Y968D01*
X327Y968D02*
X331Y968D01*
X361Y968D02*
X365Y968D01*
X380Y968D02*
X384Y968D01*
X405Y968D02*
X409Y968D01*
X415Y968D02*
X419Y968D01*
X504Y968D02*
X520Y968D01*
X816Y968D02*
X841Y968D01*
X869Y968D02*
X876Y968D01*
X0Y967D02*
X7Y967D01*
X154Y967D02*
X158Y967D01*
X172Y967D02*
X176Y967D01*
X188Y967D02*
X192Y967D01*
X206Y967D02*
X210Y967D01*
X223Y967D02*
X227Y967D01*
X258Y967D02*
X279Y967D01*
X308Y967D02*
X311Y967D01*
X327Y967D02*
X348Y967D01*
X361Y967D02*
X384Y967D01*
X397Y967D02*
X419Y967D01*
X504Y967D02*
X520Y967D01*
X815Y967D02*
X840Y967D01*
X869Y967D02*
X876Y967D01*
X0Y966D02*
X7Y966D01*
X154Y966D02*
X158Y966D01*
X172Y966D02*
X176Y966D01*
X188Y966D02*
X192Y966D01*
X206Y966D02*
X211Y966D01*
X223Y966D02*
X227Y966D01*
X258Y966D02*
X280Y966D01*
X308Y966D02*
X311Y966D01*
X327Y966D02*
X349Y966D01*
X362Y966D02*
X384Y966D01*
X396Y966D02*
X419Y966D01*
X504Y966D02*
X520Y966D01*
X815Y966D02*
X820Y966D01*
X869Y966D02*
X876Y966D01*
X0Y965D02*
X7Y965D01*
X154Y965D02*
X158Y965D01*
X173Y965D02*
X176Y965D01*
X188Y965D02*
X192Y965D01*
X207Y965D02*
X211Y965D01*
X223Y965D02*
X227Y965D01*
X258Y965D02*
X280Y965D01*
X308Y965D02*
X311Y965D01*
X327Y965D02*
X349Y965D01*
X362Y965D02*
X383Y965D01*
X396Y965D02*
X419Y965D01*
X504Y965D02*
X520Y965D01*
X815Y965D02*
X819Y965D01*
X869Y965D02*
X876Y965D01*
X0Y964D02*
X7Y964D01*
X154Y964D02*
X157Y964D01*
X173Y964D02*
X176Y964D01*
X189Y964D02*
X192Y964D01*
X208Y964D02*
X211Y964D01*
X223Y964D02*
X227Y964D01*
X258Y964D02*
X280Y964D01*
X308Y964D02*
X311Y964D01*
X327Y964D02*
X349Y964D01*
X363Y964D02*
X383Y964D01*
X396Y964D02*
X418Y964D01*
X504Y964D02*
X520Y964D01*
X815Y964D02*
X819Y964D01*
X869Y964D02*
X876Y964D01*
X0Y963D02*
X7Y963D01*
X155Y963D02*
X156Y963D01*
X174Y963D02*
X175Y963D01*
X190Y963D02*
X191Y963D01*
X209Y963D02*
X210Y963D01*
X224Y963D02*
X226Y963D01*
X258Y963D02*
X279Y963D01*
X309Y963D02*
X310Y963D01*
X327Y963D02*
X348Y963D01*
X364Y963D02*
X381Y963D01*
X397Y963D02*
X417Y963D01*
X504Y963D02*
X520Y963D01*
X815Y963D02*
X819Y963D01*
X869Y963D02*
X876Y963D01*
X0Y962D02*
X7Y962D01*
X504Y962D02*
X520Y962D01*
X815Y962D02*
X819Y962D01*
X869Y962D02*
X876Y962D01*
X0Y961D02*
X7Y961D01*
X504Y961D02*
X520Y961D01*
X815Y961D02*
X819Y961D01*
X869Y961D02*
X876Y961D01*
X0Y960D02*
X7Y960D01*
X504Y960D02*
X520Y960D01*
X815Y960D02*
X819Y960D01*
X869Y960D02*
X876Y960D01*
X0Y959D02*
X7Y959D01*
X504Y959D02*
X520Y959D01*
X815Y959D02*
X820Y959D01*
X869Y959D02*
X876Y959D01*
X0Y958D02*
X7Y958D01*
X504Y958D02*
X520Y958D01*
X816Y958D02*
X820Y958D01*
X869Y958D02*
X876Y958D01*
X0Y957D02*
X7Y957D01*
X504Y957D02*
X520Y957D01*
X816Y957D02*
X821Y957D01*
X869Y957D02*
X876Y957D01*
X0Y956D02*
X7Y956D01*
X504Y956D02*
X520Y956D01*
X817Y956D02*
X822Y956D01*
X869Y956D02*
X876Y956D01*
X0Y955D02*
X7Y955D01*
X504Y955D02*
X520Y955D01*
X817Y955D02*
X822Y955D01*
X869Y955D02*
X876Y955D01*
X0Y954D02*
X7Y954D01*
X504Y954D02*
X520Y954D01*
X818Y954D02*
X823Y954D01*
X869Y954D02*
X876Y954D01*
X0Y953D02*
X7Y953D01*
X504Y953D02*
X520Y953D01*
X819Y953D02*
X824Y953D01*
X869Y953D02*
X876Y953D01*
X0Y952D02*
X7Y952D01*
X504Y952D02*
X520Y952D01*
X806Y952D02*
X840Y952D01*
X869Y952D02*
X876Y952D01*
X0Y951D02*
X7Y951D01*
X504Y951D02*
X520Y951D01*
X805Y951D02*
X841Y951D01*
X869Y951D02*
X876Y951D01*
X0Y950D02*
X7Y950D01*
X504Y950D02*
X520Y950D01*
X805Y950D02*
X841Y950D01*
X869Y950D02*
X876Y950D01*
X0Y949D02*
X7Y949D01*
X504Y949D02*
X520Y949D01*
X805Y949D02*
X841Y949D01*
X869Y949D02*
X876Y949D01*
X0Y948D02*
X7Y948D01*
X504Y948D02*
X520Y948D01*
X806Y948D02*
X840Y948D01*
X869Y948D02*
X876Y948D01*
X0Y947D02*
X7Y947D01*
X504Y947D02*
X520Y947D01*
X869Y947D02*
X876Y947D01*
X0Y946D02*
X7Y946D01*
X504Y946D02*
X520Y946D01*
X869Y946D02*
X876Y946D01*
X0Y945D02*
X7Y945D01*
X504Y945D02*
X520Y945D01*
X869Y945D02*
X876Y945D01*
X0Y944D02*
X7Y944D01*
X504Y944D02*
X520Y944D01*
X869Y944D02*
X876Y944D01*
X0Y943D02*
X7Y943D01*
X504Y943D02*
X519Y943D01*
X869Y943D02*
X876Y943D01*
X0Y942D02*
X7Y942D01*
X504Y942D02*
X515Y942D01*
X869Y942D02*
X876Y942D01*
X0Y941D02*
X7Y941D01*
X504Y941D02*
X512Y941D01*
X869Y941D02*
X876Y941D01*
X0Y940D02*
X7Y940D01*
X504Y940D02*
X510Y940D01*
X869Y940D02*
X876Y940D01*
X0Y939D02*
X7Y939D01*
X504Y939D02*
X508Y939D01*
X869Y939D02*
X876Y939D01*
X0Y938D02*
X7Y938D01*
X504Y938D02*
X506Y938D01*
X869Y938D02*
X876Y938D01*
X0Y937D02*
X7Y937D01*
X504Y937D02*
X505Y937D01*
X869Y937D02*
X876Y937D01*
X0Y936D02*
X7Y936D01*
X504Y936D02*
X504Y936D01*
X822Y936D02*
X835Y936D01*
X869Y936D02*
X876Y936D01*
X0Y935D02*
X7Y935D01*
X820Y935D02*
X836Y935D01*
X869Y935D02*
X876Y935D01*
X0Y934D02*
X7Y934D01*
X819Y934D02*
X837Y934D01*
X869Y934D02*
X876Y934D01*
X0Y933D02*
X7Y933D01*
X818Y933D02*
X838Y933D01*
X869Y933D02*
X876Y933D01*
X0Y932D02*
X7Y932D01*
X817Y932D02*
X839Y932D01*
X869Y932D02*
X876Y932D01*
X0Y931D02*
X7Y931D01*
X816Y931D02*
X822Y931D01*
X834Y931D02*
X840Y931D01*
X869Y931D02*
X876Y931D01*
X0Y930D02*
X7Y930D01*
X816Y930D02*
X821Y930D01*
X835Y930D02*
X841Y930D01*
X869Y930D02*
X876Y930D01*
X0Y929D02*
X7Y929D01*
X815Y929D02*
X820Y929D01*
X836Y929D02*
X841Y929D01*
X869Y929D02*
X876Y929D01*
X0Y928D02*
X7Y928D01*
X814Y928D02*
X819Y928D01*
X837Y928D02*
X842Y928D01*
X869Y928D02*
X876Y928D01*
X0Y927D02*
X7Y927D01*
X814Y927D02*
X819Y927D01*
X838Y927D02*
X842Y927D01*
X869Y927D02*
X876Y927D01*
X0Y926D02*
X7Y926D01*
X814Y926D02*
X818Y926D01*
X838Y926D02*
X842Y926D01*
X869Y926D02*
X876Y926D01*
X0Y925D02*
X7Y925D01*
X814Y925D02*
X818Y925D01*
X839Y925D02*
X843Y925D01*
X869Y925D02*
X876Y925D01*
X0Y924D02*
X7Y924D01*
X814Y924D02*
X818Y924D01*
X839Y924D02*
X843Y924D01*
X869Y924D02*
X876Y924D01*
X0Y923D02*
X7Y923D01*
X814Y923D02*
X818Y923D01*
X838Y923D02*
X842Y923D01*
X869Y923D02*
X876Y923D01*
X0Y922D02*
X7Y922D01*
X814Y922D02*
X819Y922D01*
X838Y922D02*
X842Y922D01*
X869Y922D02*
X876Y922D01*
X0Y921D02*
X7Y921D01*
X815Y921D02*
X820Y921D01*
X837Y921D02*
X842Y921D01*
X869Y921D02*
X876Y921D01*
X0Y920D02*
X7Y920D01*
X815Y920D02*
X821Y920D01*
X836Y920D02*
X841Y920D01*
X869Y920D02*
X876Y920D01*
X0Y919D02*
X7Y919D01*
X816Y919D02*
X822Y919D01*
X835Y919D02*
X841Y919D01*
X869Y919D02*
X876Y919D01*
X0Y918D02*
X7Y918D01*
X817Y918D02*
X823Y918D01*
X834Y918D02*
X840Y918D01*
X869Y918D02*
X876Y918D01*
X0Y917D02*
X7Y917D01*
X815Y917D02*
X851Y917D01*
X869Y917D02*
X876Y917D01*
X0Y916D02*
X7Y916D01*
X814Y916D02*
X851Y916D01*
X869Y916D02*
X876Y916D01*
X0Y915D02*
X7Y915D01*
X814Y915D02*
X852Y915D01*
X869Y915D02*
X876Y915D01*
X0Y914D02*
X7Y914D01*
X814Y914D02*
X852Y914D01*
X869Y914D02*
X876Y914D01*
X0Y913D02*
X7Y913D01*
X815Y913D02*
X851Y913D01*
X869Y913D02*
X876Y913D01*
X0Y912D02*
X7Y912D01*
X869Y912D02*
X876Y912D01*
X0Y911D02*
X7Y911D01*
X869Y911D02*
X876Y911D01*
X0Y910D02*
X7Y910D01*
X869Y910D02*
X876Y910D01*
X0Y909D02*
X7Y909D01*
X869Y909D02*
X876Y909D01*
X0Y908D02*
X7Y908D01*
X869Y908D02*
X876Y908D01*
X0Y907D02*
X7Y907D01*
X869Y907D02*
X876Y907D01*
X0Y906D02*
X7Y906D01*
X869Y906D02*
X876Y906D01*
X0Y905D02*
X7Y905D01*
X869Y905D02*
X876Y905D01*
X0Y904D02*
X7Y904D01*
X869Y904D02*
X876Y904D01*
X0Y903D02*
X7Y903D01*
X869Y903D02*
X876Y903D01*
X0Y902D02*
X7Y902D01*
X869Y902D02*
X876Y902D01*
X0Y901D02*
X7Y901D01*
X504Y901D02*
X504Y901D01*
X806Y901D02*
X807Y901D01*
X869Y901D02*
X876Y901D01*
X0Y900D02*
X7Y900D01*
X504Y900D02*
X505Y900D01*
X805Y900D02*
X809Y900D01*
X869Y900D02*
X876Y900D01*
X0Y899D02*
X7Y899D01*
X504Y899D02*
X506Y899D01*
X805Y899D02*
X811Y899D01*
X869Y899D02*
X876Y899D01*
X0Y898D02*
X7Y898D01*
X504Y898D02*
X507Y898D01*
X805Y898D02*
X813Y898D01*
X869Y898D02*
X876Y898D01*
X0Y897D02*
X7Y897D01*
X504Y897D02*
X509Y897D01*
X806Y897D02*
X814Y897D01*
X869Y897D02*
X876Y897D01*
X0Y896D02*
X7Y896D01*
X504Y896D02*
X511Y896D01*
X807Y896D02*
X816Y896D01*
X869Y896D02*
X876Y896D01*
X0Y895D02*
X7Y895D01*
X504Y895D02*
X514Y895D01*
X809Y895D02*
X818Y895D01*
X869Y895D02*
X876Y895D01*
X0Y894D02*
X7Y894D01*
X504Y894D02*
X518Y894D01*
X811Y894D02*
X819Y894D01*
X869Y894D02*
X876Y894D01*
X0Y893D02*
X7Y893D01*
X504Y893D02*
X520Y893D01*
X812Y893D02*
X821Y893D01*
X869Y893D02*
X876Y893D01*
X0Y892D02*
X7Y892D01*
X504Y892D02*
X520Y892D01*
X814Y892D02*
X823Y892D01*
X869Y892D02*
X876Y892D01*
X0Y891D02*
X7Y891D01*
X504Y891D02*
X520Y891D01*
X816Y891D02*
X824Y891D01*
X869Y891D02*
X876Y891D01*
X0Y890D02*
X7Y890D01*
X504Y890D02*
X520Y890D01*
X817Y890D02*
X826Y890D01*
X869Y890D02*
X876Y890D01*
X0Y889D02*
X7Y889D01*
X504Y889D02*
X520Y889D01*
X819Y889D02*
X828Y889D01*
X869Y889D02*
X876Y889D01*
X0Y888D02*
X7Y888D01*
X504Y888D02*
X520Y888D01*
X821Y888D02*
X830Y888D01*
X869Y888D02*
X876Y888D01*
X0Y887D02*
X7Y887D01*
X504Y887D02*
X520Y887D01*
X823Y887D02*
X831Y887D01*
X869Y887D02*
X876Y887D01*
X0Y886D02*
X7Y886D01*
X504Y886D02*
X520Y886D01*
X824Y886D02*
X833Y886D01*
X869Y886D02*
X876Y886D01*
X0Y885D02*
X7Y885D01*
X504Y885D02*
X520Y885D01*
X826Y885D02*
X835Y885D01*
X869Y885D02*
X876Y885D01*
X0Y884D02*
X7Y884D01*
X504Y884D02*
X520Y884D01*
X828Y884D02*
X836Y884D01*
X869Y884D02*
X876Y884D01*
X0Y883D02*
X7Y883D01*
X504Y883D02*
X520Y883D01*
X829Y883D02*
X838Y883D01*
X869Y883D02*
X876Y883D01*
X0Y882D02*
X7Y882D01*
X504Y882D02*
X520Y882D01*
X831Y882D02*
X840Y882D01*
X869Y882D02*
X876Y882D01*
X0Y881D02*
X7Y881D01*
X504Y881D02*
X520Y881D01*
X833Y881D02*
X841Y881D01*
X869Y881D02*
X876Y881D01*
X0Y880D02*
X7Y880D01*
X504Y880D02*
X520Y880D01*
X834Y880D02*
X841Y880D01*
X869Y880D02*
X876Y880D01*
X0Y879D02*
X7Y879D01*
X504Y879D02*
X520Y879D01*
X836Y879D02*
X841Y879D01*
X869Y879D02*
X876Y879D01*
X0Y878D02*
X7Y878D01*
X504Y878D02*
X520Y878D01*
X838Y878D02*
X841Y878D01*
X869Y878D02*
X876Y878D01*
X0Y877D02*
X7Y877D01*
X504Y877D02*
X520Y877D01*
X869Y877D02*
X876Y877D01*
X0Y876D02*
X7Y876D01*
X504Y876D02*
X520Y876D01*
X869Y876D02*
X876Y876D01*
X0Y875D02*
X7Y875D01*
X504Y875D02*
X520Y875D01*
X869Y875D02*
X876Y875D01*
X0Y874D02*
X7Y874D01*
X504Y874D02*
X520Y874D01*
X869Y874D02*
X876Y874D01*
X0Y873D02*
X7Y873D01*
X504Y873D02*
X520Y873D01*
X869Y873D02*
X876Y873D01*
X0Y872D02*
X7Y872D01*
X504Y872D02*
X520Y872D01*
X869Y872D02*
X876Y872D01*
X0Y871D02*
X7Y871D01*
X504Y871D02*
X520Y871D01*
X869Y871D02*
X876Y871D01*
X0Y870D02*
X7Y870D01*
X504Y870D02*
X520Y870D01*
X869Y870D02*
X876Y870D01*
X0Y869D02*
X7Y869D01*
X504Y869D02*
X520Y869D01*
X869Y869D02*
X876Y869D01*
X0Y868D02*
X7Y868D01*
X504Y868D02*
X520Y868D01*
X869Y868D02*
X876Y868D01*
X0Y867D02*
X7Y867D01*
X504Y867D02*
X520Y867D01*
X869Y867D02*
X876Y867D01*
X0Y866D02*
X7Y866D01*
X504Y866D02*
X520Y866D01*
X835Y866D02*
X836Y866D01*
X869Y866D02*
X876Y866D01*
X0Y865D02*
X7Y865D01*
X504Y865D02*
X520Y865D01*
X834Y865D02*
X838Y865D01*
X869Y865D02*
X876Y865D01*
X0Y864D02*
X7Y864D01*
X504Y864D02*
X520Y864D01*
X834Y864D02*
X839Y864D01*
X869Y864D02*
X876Y864D01*
X0Y863D02*
X7Y863D01*
X504Y863D02*
X520Y863D01*
X816Y863D02*
X818Y863D01*
X834Y863D02*
X840Y863D01*
X869Y863D02*
X876Y863D01*
X0Y862D02*
X7Y862D01*
X504Y862D02*
X520Y862D01*
X815Y862D02*
X819Y862D01*
X834Y862D02*
X841Y862D01*
X869Y862D02*
X876Y862D01*
X0Y861D02*
X7Y861D01*
X504Y861D02*
X520Y861D01*
X815Y861D02*
X819Y861D01*
X836Y861D02*
X841Y861D01*
X869Y861D02*
X876Y861D01*
X0Y860D02*
X7Y860D01*
X504Y860D02*
X520Y860D01*
X815Y860D02*
X819Y860D01*
X837Y860D02*
X841Y860D01*
X869Y860D02*
X876Y860D01*
X0Y859D02*
X7Y859D01*
X504Y859D02*
X520Y859D01*
X815Y859D02*
X819Y859D01*
X838Y859D02*
X841Y859D01*
X869Y859D02*
X876Y859D01*
X0Y858D02*
X7Y858D01*
X504Y858D02*
X520Y858D01*
X815Y858D02*
X819Y858D01*
X838Y858D02*
X842Y858D01*
X869Y858D02*
X876Y858D01*
X0Y857D02*
X7Y857D01*
X504Y857D02*
X520Y857D01*
X815Y857D02*
X819Y857D01*
X838Y857D02*
X842Y857D01*
X869Y857D02*
X876Y857D01*
X0Y856D02*
X7Y856D01*
X504Y856D02*
X520Y856D01*
X815Y856D02*
X819Y856D01*
X838Y856D02*
X842Y856D01*
X869Y856D02*
X876Y856D01*
X0Y855D02*
X7Y855D01*
X504Y855D02*
X520Y855D01*
X815Y855D02*
X819Y855D01*
X838Y855D02*
X842Y855D01*
X869Y855D02*
X876Y855D01*
X0Y854D02*
X7Y854D01*
X504Y854D02*
X520Y854D01*
X815Y854D02*
X819Y854D01*
X838Y854D02*
X841Y854D01*
X869Y854D02*
X876Y854D01*
X0Y853D02*
X7Y853D01*
X504Y853D02*
X520Y853D01*
X815Y853D02*
X819Y853D01*
X837Y853D02*
X841Y853D01*
X869Y853D02*
X876Y853D01*
X0Y852D02*
X7Y852D01*
X504Y852D02*
X520Y852D01*
X815Y852D02*
X819Y852D01*
X836Y852D02*
X841Y852D01*
X869Y852D02*
X876Y852D01*
X0Y851D02*
X7Y851D01*
X504Y851D02*
X520Y851D01*
X807Y851D02*
X841Y851D01*
X869Y851D02*
X876Y851D01*
X0Y850D02*
X7Y850D01*
X504Y850D02*
X520Y850D01*
X807Y850D02*
X840Y850D01*
X869Y850D02*
X876Y850D01*
X0Y849D02*
X7Y849D01*
X504Y849D02*
X520Y849D01*
X807Y849D02*
X839Y849D01*
X869Y849D02*
X876Y849D01*
X0Y848D02*
X7Y848D01*
X504Y848D02*
X520Y848D01*
X807Y848D02*
X838Y848D01*
X869Y848D02*
X876Y848D01*
X0Y847D02*
X7Y847D01*
X504Y847D02*
X520Y847D01*
X808Y847D02*
X836Y847D01*
X869Y847D02*
X876Y847D01*
X0Y846D02*
X7Y846D01*
X504Y846D02*
X520Y846D01*
X815Y846D02*
X819Y846D01*
X869Y846D02*
X876Y846D01*
X0Y845D02*
X7Y845D01*
X504Y845D02*
X520Y845D01*
X815Y845D02*
X819Y845D01*
X869Y845D02*
X876Y845D01*
X0Y844D02*
X7Y844D01*
X504Y844D02*
X520Y844D01*
X815Y844D02*
X819Y844D01*
X869Y844D02*
X876Y844D01*
X0Y843D02*
X7Y843D01*
X504Y843D02*
X520Y843D01*
X815Y843D02*
X818Y843D01*
X869Y843D02*
X876Y843D01*
X0Y842D02*
X7Y842D01*
X504Y842D02*
X520Y842D01*
X869Y842D02*
X876Y842D01*
X0Y841D02*
X7Y841D01*
X504Y841D02*
X520Y841D01*
X869Y841D02*
X876Y841D01*
X0Y840D02*
X7Y840D01*
X504Y840D02*
X520Y840D01*
X869Y840D02*
X876Y840D01*
X0Y839D02*
X7Y839D01*
X504Y839D02*
X520Y839D01*
X869Y839D02*
X876Y839D01*
X0Y838D02*
X7Y838D01*
X504Y838D02*
X520Y838D01*
X869Y838D02*
X876Y838D01*
X0Y837D02*
X7Y837D01*
X504Y837D02*
X520Y837D01*
X869Y837D02*
X876Y837D01*
X0Y836D02*
X7Y836D01*
X504Y836D02*
X520Y836D01*
X869Y836D02*
X876Y836D01*
X0Y835D02*
X7Y835D01*
X504Y835D02*
X520Y835D01*
X869Y835D02*
X876Y835D01*
X0Y834D02*
X7Y834D01*
X504Y834D02*
X520Y834D01*
X869Y834D02*
X876Y834D01*
X0Y833D02*
X7Y833D01*
X504Y833D02*
X520Y833D01*
X869Y833D02*
X876Y833D01*
X0Y832D02*
X7Y832D01*
X504Y832D02*
X520Y832D01*
X869Y832D02*
X876Y832D01*
X0Y831D02*
X7Y831D01*
X504Y831D02*
X520Y831D01*
X869Y831D02*
X876Y831D01*
X0Y830D02*
X7Y830D01*
X504Y830D02*
X520Y830D01*
X869Y830D02*
X876Y830D01*
X0Y829D02*
X7Y829D01*
X504Y829D02*
X520Y829D01*
X869Y829D02*
X876Y829D01*
X0Y828D02*
X7Y828D01*
X504Y828D02*
X520Y828D01*
X839Y828D02*
X841Y828D01*
X869Y828D02*
X876Y828D01*
X0Y827D02*
X7Y827D01*
X504Y827D02*
X520Y827D01*
X838Y827D02*
X841Y827D01*
X869Y827D02*
X876Y827D01*
X0Y826D02*
X7Y826D01*
X504Y826D02*
X520Y826D01*
X838Y826D02*
X841Y826D01*
X869Y826D02*
X876Y826D01*
X0Y825D02*
X7Y825D01*
X504Y825D02*
X520Y825D01*
X838Y825D02*
X842Y825D01*
X869Y825D02*
X876Y825D01*
X0Y824D02*
X7Y824D01*
X504Y824D02*
X520Y824D01*
X838Y824D02*
X842Y824D01*
X869Y824D02*
X876Y824D01*
X0Y823D02*
X7Y823D01*
X504Y823D02*
X520Y823D01*
X838Y823D02*
X842Y823D01*
X869Y823D02*
X876Y823D01*
X0Y822D02*
X7Y822D01*
X504Y822D02*
X520Y822D01*
X838Y822D02*
X842Y822D01*
X869Y822D02*
X876Y822D01*
X0Y821D02*
X7Y821D01*
X504Y821D02*
X520Y821D01*
X804Y821D02*
X807Y821D01*
X816Y821D02*
X842Y821D01*
X869Y821D02*
X876Y821D01*
X0Y820D02*
X7Y820D01*
X504Y820D02*
X520Y820D01*
X803Y820D02*
X808Y820D01*
X815Y820D02*
X842Y820D01*
X869Y820D02*
X876Y820D01*
X0Y819D02*
X7Y819D01*
X504Y819D02*
X520Y819D01*
X803Y819D02*
X808Y819D01*
X815Y819D02*
X842Y819D01*
X869Y819D02*
X876Y819D01*
X0Y818D02*
X7Y818D01*
X504Y818D02*
X520Y818D01*
X802Y818D02*
X808Y818D01*
X815Y818D02*
X842Y818D01*
X869Y818D02*
X876Y818D01*
X0Y817D02*
X7Y817D01*
X504Y817D02*
X520Y817D01*
X802Y817D02*
X808Y817D01*
X815Y817D02*
X842Y817D01*
X869Y817D02*
X876Y817D01*
X0Y816D02*
X7Y816D01*
X504Y816D02*
X520Y816D01*
X803Y816D02*
X808Y816D01*
X815Y816D02*
X819Y816D01*
X838Y816D02*
X842Y816D01*
X869Y816D02*
X876Y816D01*
X0Y815D02*
X7Y815D01*
X504Y815D02*
X520Y815D01*
X803Y815D02*
X808Y815D01*
X815Y815D02*
X819Y815D01*
X838Y815D02*
X842Y815D01*
X869Y815D02*
X876Y815D01*
X0Y814D02*
X7Y814D01*
X504Y814D02*
X520Y814D01*
X805Y814D02*
X806Y814D01*
X815Y814D02*
X819Y814D01*
X838Y814D02*
X842Y814D01*
X869Y814D02*
X876Y814D01*
X0Y813D02*
X7Y813D01*
X504Y813D02*
X520Y813D01*
X815Y813D02*
X819Y813D01*
X838Y813D02*
X842Y813D01*
X869Y813D02*
X876Y813D01*
X0Y812D02*
X7Y812D01*
X504Y812D02*
X520Y812D01*
X815Y812D02*
X819Y812D01*
X838Y812D02*
X842Y812D01*
X869Y812D02*
X876Y812D01*
X0Y811D02*
X7Y811D01*
X504Y811D02*
X520Y811D01*
X815Y811D02*
X819Y811D01*
X838Y811D02*
X841Y811D01*
X869Y811D02*
X876Y811D01*
X0Y810D02*
X7Y810D01*
X504Y810D02*
X520Y810D01*
X816Y810D02*
X818Y810D01*
X838Y810D02*
X841Y810D01*
X869Y810D02*
X876Y810D01*
X0Y809D02*
X7Y809D01*
X504Y809D02*
X520Y809D01*
X869Y809D02*
X876Y809D01*
X0Y808D02*
X7Y808D01*
X504Y808D02*
X520Y808D01*
X869Y808D02*
X876Y808D01*
X0Y807D02*
X7Y807D01*
X504Y807D02*
X520Y807D01*
X869Y807D02*
X876Y807D01*
X0Y806D02*
X7Y806D01*
X504Y806D02*
X520Y806D01*
X869Y806D02*
X876Y806D01*
X0Y805D02*
X7Y805D01*
X504Y805D02*
X520Y805D01*
X869Y805D02*
X876Y805D01*
X0Y804D02*
X7Y804D01*
X504Y804D02*
X520Y804D01*
X869Y804D02*
X876Y804D01*
X0Y803D02*
X7Y803D01*
X504Y803D02*
X520Y803D01*
X869Y803D02*
X876Y803D01*
X0Y802D02*
X7Y802D01*
X504Y802D02*
X520Y802D01*
X869Y802D02*
X876Y802D01*
X0Y801D02*
X7Y801D01*
X504Y801D02*
X520Y801D01*
X869Y801D02*
X876Y801D01*
X0Y800D02*
X7Y800D01*
X504Y800D02*
X520Y800D01*
X869Y800D02*
X876Y800D01*
X0Y799D02*
X7Y799D01*
X504Y799D02*
X520Y799D01*
X869Y799D02*
X876Y799D01*
X0Y798D02*
X7Y798D01*
X504Y798D02*
X520Y798D01*
X869Y798D02*
X876Y798D01*
X0Y797D02*
X7Y797D01*
X504Y797D02*
X520Y797D01*
X869Y797D02*
X876Y797D01*
X0Y796D02*
X7Y796D01*
X504Y796D02*
X520Y796D01*
X869Y796D02*
X876Y796D01*
X0Y795D02*
X7Y795D01*
X504Y795D02*
X520Y795D01*
X869Y795D02*
X876Y795D01*
X0Y794D02*
X7Y794D01*
X504Y794D02*
X520Y794D01*
X869Y794D02*
X876Y794D01*
X0Y793D02*
X7Y793D01*
X504Y793D02*
X520Y793D01*
X869Y793D02*
X876Y793D01*
X0Y792D02*
X7Y792D01*
X504Y792D02*
X520Y792D01*
X869Y792D02*
X876Y792D01*
X0Y791D02*
X7Y791D01*
X504Y791D02*
X520Y791D01*
X869Y791D02*
X876Y791D01*
X0Y790D02*
X7Y790D01*
X504Y790D02*
X520Y790D01*
X869Y790D02*
X876Y790D01*
X0Y789D02*
X7Y789D01*
X504Y789D02*
X520Y789D01*
X869Y789D02*
X876Y789D01*
X0Y788D02*
X7Y788D01*
X504Y788D02*
X520Y788D01*
X828Y788D02*
X834Y788D01*
X869Y788D02*
X876Y788D01*
X0Y787D02*
X7Y787D01*
X504Y787D02*
X520Y787D01*
X827Y787D02*
X835Y787D01*
X869Y787D02*
X876Y787D01*
X0Y786D02*
X7Y786D01*
X504Y786D02*
X520Y786D01*
X827Y786D02*
X835Y786D01*
X869Y786D02*
X876Y786D01*
X0Y785D02*
X7Y785D01*
X504Y785D02*
X520Y785D01*
X827Y785D02*
X835Y785D01*
X869Y785D02*
X876Y785D01*
X0Y784D02*
X7Y784D01*
X504Y784D02*
X520Y784D01*
X827Y784D02*
X835Y784D01*
X869Y784D02*
X876Y784D01*
X0Y783D02*
X7Y783D01*
X504Y783D02*
X520Y783D01*
X827Y783D02*
X835Y783D01*
X869Y783D02*
X876Y783D01*
X0Y782D02*
X7Y782D01*
X504Y782D02*
X520Y782D01*
X827Y782D02*
X835Y782D01*
X869Y782D02*
X876Y782D01*
X0Y781D02*
X7Y781D01*
X504Y781D02*
X520Y781D01*
X827Y781D02*
X835Y781D01*
X869Y781D02*
X876Y781D01*
X0Y780D02*
X7Y780D01*
X504Y780D02*
X520Y780D01*
X828Y780D02*
X835Y780D01*
X869Y780D02*
X876Y780D01*
X0Y779D02*
X7Y779D01*
X504Y779D02*
X520Y779D01*
X829Y779D02*
X834Y779D01*
X869Y779D02*
X876Y779D01*
X0Y778D02*
X7Y778D01*
X504Y778D02*
X520Y778D01*
X869Y778D02*
X876Y778D01*
X0Y777D02*
X7Y777D01*
X504Y777D02*
X520Y777D01*
X869Y777D02*
X876Y777D01*
X0Y776D02*
X7Y776D01*
X504Y776D02*
X520Y776D01*
X869Y776D02*
X876Y776D01*
X0Y775D02*
X7Y775D01*
X504Y775D02*
X520Y775D01*
X869Y775D02*
X876Y775D01*
X0Y774D02*
X7Y774D01*
X504Y774D02*
X520Y774D01*
X869Y774D02*
X876Y774D01*
X0Y773D02*
X7Y773D01*
X504Y773D02*
X520Y773D01*
X869Y773D02*
X876Y773D01*
X0Y772D02*
X7Y772D01*
X504Y772D02*
X520Y772D01*
X869Y772D02*
X876Y772D01*
X0Y771D02*
X7Y771D01*
X504Y771D02*
X520Y771D01*
X869Y771D02*
X876Y771D01*
X0Y770D02*
X7Y770D01*
X504Y770D02*
X520Y770D01*
X869Y770D02*
X876Y770D01*
X0Y769D02*
X7Y769D01*
X504Y769D02*
X520Y769D01*
X869Y769D02*
X876Y769D01*
X0Y768D02*
X7Y768D01*
X504Y768D02*
X520Y768D01*
X869Y768D02*
X876Y768D01*
X0Y767D02*
X7Y767D01*
X504Y767D02*
X520Y767D01*
X869Y767D02*
X876Y767D01*
X0Y766D02*
X7Y766D01*
X504Y766D02*
X520Y766D01*
X869Y766D02*
X876Y766D01*
X0Y765D02*
X7Y765D01*
X504Y765D02*
X520Y765D01*
X869Y765D02*
X876Y765D01*
X0Y764D02*
X7Y764D01*
X504Y764D02*
X520Y764D01*
X869Y764D02*
X876Y764D01*
X0Y763D02*
X7Y763D01*
X504Y763D02*
X520Y763D01*
X869Y763D02*
X876Y763D01*
X0Y762D02*
X7Y762D01*
X504Y762D02*
X520Y762D01*
X869Y762D02*
X876Y762D01*
X0Y761D02*
X7Y761D01*
X504Y761D02*
X520Y761D01*
X869Y761D02*
X876Y761D01*
X0Y760D02*
X7Y760D01*
X504Y760D02*
X520Y760D01*
X834Y760D02*
X837Y760D01*
X869Y760D02*
X876Y760D01*
X0Y759D02*
X7Y759D01*
X504Y759D02*
X520Y759D01*
X834Y759D02*
X838Y759D01*
X869Y759D02*
X876Y759D01*
X0Y758D02*
X7Y758D01*
X504Y758D02*
X520Y758D01*
X817Y758D02*
X817Y758D01*
X833Y758D02*
X840Y758D01*
X869Y758D02*
X876Y758D01*
X0Y757D02*
X7Y757D01*
X504Y757D02*
X520Y757D01*
X815Y757D02*
X818Y757D01*
X834Y757D02*
X840Y757D01*
X869Y757D02*
X876Y757D01*
X0Y756D02*
X7Y756D01*
X504Y756D02*
X520Y756D01*
X815Y756D02*
X819Y756D01*
X835Y756D02*
X841Y756D01*
X869Y756D02*
X876Y756D01*
X0Y755D02*
X7Y755D01*
X504Y755D02*
X520Y755D01*
X815Y755D02*
X819Y755D01*
X837Y755D02*
X841Y755D01*
X869Y755D02*
X876Y755D01*
X0Y754D02*
X7Y754D01*
X504Y754D02*
X520Y754D01*
X815Y754D02*
X819Y754D01*
X837Y754D02*
X841Y754D01*
X869Y754D02*
X876Y754D01*
X0Y753D02*
X7Y753D01*
X504Y753D02*
X520Y753D01*
X815Y753D02*
X819Y753D01*
X838Y753D02*
X842Y753D01*
X869Y753D02*
X876Y753D01*
X0Y752D02*
X7Y752D01*
X504Y752D02*
X520Y752D01*
X815Y752D02*
X819Y752D01*
X838Y752D02*
X842Y752D01*
X869Y752D02*
X876Y752D01*
X0Y751D02*
X7Y751D01*
X504Y751D02*
X520Y751D01*
X815Y751D02*
X819Y751D01*
X838Y751D02*
X842Y751D01*
X869Y751D02*
X876Y751D01*
X0Y750D02*
X7Y750D01*
X504Y750D02*
X520Y750D01*
X815Y750D02*
X819Y750D01*
X838Y750D02*
X842Y750D01*
X869Y750D02*
X876Y750D01*
X0Y749D02*
X7Y749D01*
X504Y749D02*
X520Y749D01*
X815Y749D02*
X819Y749D01*
X838Y749D02*
X842Y749D01*
X869Y749D02*
X876Y749D01*
X0Y748D02*
X7Y748D01*
X504Y748D02*
X520Y748D01*
X815Y748D02*
X819Y748D01*
X838Y748D02*
X841Y748D01*
X869Y748D02*
X876Y748D01*
X0Y747D02*
X7Y747D01*
X504Y747D02*
X520Y747D01*
X815Y747D02*
X819Y747D01*
X837Y747D02*
X841Y747D01*
X869Y747D02*
X876Y747D01*
X0Y746D02*
X7Y746D01*
X504Y746D02*
X520Y746D01*
X809Y746D02*
X841Y746D01*
X869Y746D02*
X876Y746D01*
X0Y745D02*
X7Y745D01*
X504Y745D02*
X520Y745D01*
X807Y745D02*
X841Y745D01*
X869Y745D02*
X876Y745D01*
X0Y744D02*
X7Y744D01*
X504Y744D02*
X520Y744D01*
X807Y744D02*
X840Y744D01*
X869Y744D02*
X876Y744D01*
X0Y743D02*
X7Y743D01*
X504Y743D02*
X520Y743D01*
X807Y743D02*
X839Y743D01*
X869Y743D02*
X876Y743D01*
X0Y742D02*
X7Y742D01*
X504Y742D02*
X520Y742D01*
X807Y742D02*
X838Y742D01*
X869Y742D02*
X876Y742D01*
X0Y741D02*
X7Y741D01*
X504Y741D02*
X520Y741D01*
X815Y741D02*
X819Y741D01*
X869Y741D02*
X876Y741D01*
X0Y740D02*
X7Y740D01*
X504Y740D02*
X520Y740D01*
X815Y740D02*
X819Y740D01*
X869Y740D02*
X876Y740D01*
X0Y739D02*
X7Y739D01*
X504Y739D02*
X520Y739D01*
X815Y739D02*
X819Y739D01*
X869Y739D02*
X876Y739D01*
X0Y738D02*
X7Y738D01*
X504Y738D02*
X520Y738D01*
X815Y738D02*
X819Y738D01*
X869Y738D02*
X876Y738D01*
X0Y737D02*
X7Y737D01*
X504Y737D02*
X520Y737D01*
X816Y737D02*
X818Y737D01*
X869Y737D02*
X876Y737D01*
X0Y736D02*
X7Y736D01*
X504Y736D02*
X520Y736D01*
X869Y736D02*
X876Y736D01*
X0Y735D02*
X7Y735D01*
X504Y735D02*
X520Y735D01*
X869Y735D02*
X876Y735D01*
X0Y734D02*
X7Y734D01*
X504Y734D02*
X520Y734D01*
X869Y734D02*
X876Y734D01*
X0Y733D02*
X7Y733D01*
X504Y733D02*
X520Y733D01*
X869Y733D02*
X876Y733D01*
X0Y732D02*
X7Y732D01*
X504Y732D02*
X520Y732D01*
X869Y732D02*
X876Y732D01*
X0Y731D02*
X7Y731D01*
X504Y731D02*
X520Y731D01*
X869Y731D02*
X876Y731D01*
X0Y730D02*
X7Y730D01*
X504Y730D02*
X520Y730D01*
X869Y730D02*
X876Y730D01*
X0Y729D02*
X7Y729D01*
X504Y729D02*
X520Y729D01*
X869Y729D02*
X876Y729D01*
X0Y728D02*
X7Y728D01*
X504Y728D02*
X520Y728D01*
X869Y728D02*
X876Y728D01*
X0Y727D02*
X7Y727D01*
X504Y727D02*
X520Y727D01*
X869Y727D02*
X876Y727D01*
X0Y726D02*
X7Y726D01*
X504Y726D02*
X520Y726D01*
X869Y726D02*
X876Y726D01*
X0Y725D02*
X7Y725D01*
X504Y725D02*
X520Y725D01*
X869Y725D02*
X876Y725D01*
X0Y724D02*
X7Y724D01*
X504Y724D02*
X520Y724D01*
X869Y724D02*
X876Y724D01*
X0Y723D02*
X7Y723D01*
X504Y723D02*
X520Y723D01*
X869Y723D02*
X876Y723D01*
X0Y722D02*
X7Y722D01*
X504Y722D02*
X520Y722D01*
X838Y722D02*
X841Y722D01*
X869Y722D02*
X876Y722D01*
X0Y721D02*
X7Y721D01*
X504Y721D02*
X520Y721D01*
X838Y721D02*
X841Y721D01*
X869Y721D02*
X876Y721D01*
X0Y720D02*
X7Y720D01*
X504Y720D02*
X520Y720D01*
X838Y720D02*
X842Y720D01*
X869Y720D02*
X876Y720D01*
X0Y719D02*
X7Y719D01*
X504Y719D02*
X520Y719D01*
X838Y719D02*
X842Y719D01*
X869Y719D02*
X876Y719D01*
X0Y718D02*
X7Y718D01*
X504Y718D02*
X520Y718D01*
X838Y718D02*
X842Y718D01*
X869Y718D02*
X876Y718D01*
X0Y717D02*
X7Y717D01*
X504Y717D02*
X520Y717D01*
X838Y717D02*
X842Y717D01*
X869Y717D02*
X876Y717D01*
X0Y716D02*
X7Y716D01*
X504Y716D02*
X520Y716D01*
X837Y716D02*
X842Y716D01*
X869Y716D02*
X876Y716D01*
X0Y715D02*
X7Y715D01*
X504Y715D02*
X520Y715D01*
X803Y715D02*
X808Y715D01*
X816Y715D02*
X842Y715D01*
X869Y715D02*
X876Y715D01*
X0Y714D02*
X7Y714D01*
X504Y714D02*
X520Y714D01*
X803Y714D02*
X808Y714D01*
X815Y714D02*
X842Y714D01*
X869Y714D02*
X876Y714D01*
X0Y713D02*
X7Y713D01*
X504Y713D02*
X520Y713D01*
X802Y713D02*
X808Y713D01*
X815Y713D02*
X842Y713D01*
X869Y713D02*
X876Y713D01*
X0Y712D02*
X7Y712D01*
X504Y712D02*
X520Y712D01*
X802Y712D02*
X808Y712D01*
X815Y712D02*
X842Y712D01*
X869Y712D02*
X876Y712D01*
X0Y711D02*
X7Y711D01*
X504Y711D02*
X520Y711D01*
X802Y711D02*
X808Y711D01*
X815Y711D02*
X842Y711D01*
X869Y711D02*
X876Y711D01*
X0Y710D02*
X7Y710D01*
X504Y710D02*
X520Y710D01*
X803Y710D02*
X808Y710D01*
X815Y710D02*
X819Y710D01*
X838Y710D02*
X842Y710D01*
X869Y710D02*
X876Y710D01*
X0Y709D02*
X7Y709D01*
X504Y709D02*
X520Y709D01*
X803Y709D02*
X808Y709D01*
X815Y709D02*
X819Y709D01*
X838Y709D02*
X842Y709D01*
X869Y709D02*
X876Y709D01*
X0Y708D02*
X7Y708D01*
X504Y708D02*
X520Y708D01*
X815Y708D02*
X819Y708D01*
X838Y708D02*
X842Y708D01*
X869Y708D02*
X876Y708D01*
X0Y707D02*
X7Y707D01*
X504Y707D02*
X520Y707D01*
X815Y707D02*
X819Y707D01*
X838Y707D02*
X842Y707D01*
X869Y707D02*
X876Y707D01*
X0Y706D02*
X7Y706D01*
X504Y706D02*
X520Y706D01*
X815Y706D02*
X819Y706D01*
X838Y706D02*
X841Y706D01*
X869Y706D02*
X876Y706D01*
X0Y705D02*
X7Y705D01*
X504Y705D02*
X520Y705D01*
X815Y705D02*
X819Y705D01*
X838Y705D02*
X841Y705D01*
X869Y705D02*
X876Y705D01*
X0Y704D02*
X7Y704D01*
X504Y704D02*
X520Y704D01*
X816Y704D02*
X818Y704D01*
X839Y704D02*
X840Y704D01*
X869Y704D02*
X876Y704D01*
X0Y703D02*
X7Y703D01*
X504Y703D02*
X520Y703D01*
X869Y703D02*
X876Y703D01*
X0Y702D02*
X7Y702D01*
X504Y702D02*
X520Y702D01*
X869Y702D02*
X876Y702D01*
X0Y701D02*
X7Y701D01*
X504Y701D02*
X520Y701D01*
X869Y701D02*
X876Y701D01*
X0Y700D02*
X7Y700D01*
X504Y700D02*
X520Y700D01*
X869Y700D02*
X876Y700D01*
X0Y699D02*
X7Y699D01*
X504Y699D02*
X520Y699D01*
X869Y699D02*
X876Y699D01*
X0Y698D02*
X7Y698D01*
X504Y698D02*
X520Y698D01*
X869Y698D02*
X876Y698D01*
X0Y697D02*
X7Y697D01*
X504Y697D02*
X520Y697D01*
X869Y697D02*
X876Y697D01*
X0Y696D02*
X7Y696D01*
X504Y696D02*
X520Y696D01*
X869Y696D02*
X876Y696D01*
X0Y695D02*
X7Y695D01*
X504Y695D02*
X520Y695D01*
X869Y695D02*
X876Y695D01*
X0Y694D02*
X7Y694D01*
X504Y694D02*
X520Y694D01*
X869Y694D02*
X876Y694D01*
X0Y693D02*
X7Y693D01*
X504Y693D02*
X520Y693D01*
X869Y693D02*
X876Y693D01*
X0Y692D02*
X7Y692D01*
X504Y692D02*
X520Y692D01*
X869Y692D02*
X876Y692D01*
X0Y691D02*
X7Y691D01*
X504Y691D02*
X520Y691D01*
X869Y691D02*
X876Y691D01*
X0Y690D02*
X7Y690D01*
X504Y690D02*
X520Y690D01*
X817Y690D02*
X819Y690D01*
X839Y690D02*
X840Y690D01*
X869Y690D02*
X876Y690D01*
X0Y689D02*
X7Y689D01*
X504Y689D02*
X520Y689D01*
X815Y689D02*
X821Y689D01*
X838Y689D02*
X841Y689D01*
X869Y689D02*
X876Y689D01*
X0Y688D02*
X7Y688D01*
X504Y688D02*
X520Y688D01*
X815Y688D02*
X821Y688D01*
X838Y688D02*
X841Y688D01*
X869Y688D02*
X876Y688D01*
X0Y687D02*
X7Y687D01*
X504Y687D02*
X520Y687D01*
X815Y687D02*
X822Y687D01*
X838Y687D02*
X842Y687D01*
X869Y687D02*
X876Y687D01*
X0Y686D02*
X7Y686D01*
X504Y686D02*
X520Y686D01*
X815Y686D02*
X823Y686D01*
X838Y686D02*
X842Y686D01*
X869Y686D02*
X876Y686D01*
X0Y685D02*
X7Y685D01*
X504Y685D02*
X520Y685D01*
X815Y685D02*
X824Y685D01*
X838Y685D02*
X842Y685D01*
X869Y685D02*
X876Y685D01*
X0Y684D02*
X7Y684D01*
X504Y684D02*
X520Y684D01*
X815Y684D02*
X825Y684D01*
X838Y684D02*
X842Y684D01*
X869Y684D02*
X876Y684D01*
X0Y683D02*
X7Y683D01*
X504Y683D02*
X520Y683D01*
X815Y683D02*
X826Y683D01*
X838Y683D02*
X842Y683D01*
X869Y683D02*
X876Y683D01*
X0Y682D02*
X7Y682D01*
X504Y682D02*
X520Y682D01*
X815Y682D02*
X819Y682D01*
X821Y682D02*
X827Y682D01*
X838Y682D02*
X842Y682D01*
X869Y682D02*
X876Y682D01*
X0Y681D02*
X7Y681D01*
X504Y681D02*
X520Y681D01*
X815Y681D02*
X819Y681D01*
X822Y681D02*
X828Y681D01*
X838Y681D02*
X842Y681D01*
X869Y681D02*
X876Y681D01*
X0Y680D02*
X7Y680D01*
X504Y680D02*
X520Y680D01*
X815Y680D02*
X819Y680D01*
X823Y680D02*
X829Y680D01*
X838Y680D02*
X842Y680D01*
X869Y680D02*
X876Y680D01*
X0Y679D02*
X7Y679D01*
X504Y679D02*
X520Y679D01*
X815Y679D02*
X819Y679D01*
X824Y679D02*
X830Y679D01*
X838Y679D02*
X842Y679D01*
X869Y679D02*
X876Y679D01*
X0Y678D02*
X7Y678D01*
X504Y678D02*
X520Y678D01*
X815Y678D02*
X819Y678D01*
X825Y678D02*
X831Y678D01*
X838Y678D02*
X842Y678D01*
X869Y678D02*
X876Y678D01*
X0Y677D02*
X7Y677D01*
X504Y677D02*
X520Y677D01*
X815Y677D02*
X819Y677D01*
X826Y677D02*
X832Y677D01*
X838Y677D02*
X842Y677D01*
X869Y677D02*
X876Y677D01*
X0Y676D02*
X7Y676D01*
X504Y676D02*
X520Y676D01*
X815Y676D02*
X819Y676D01*
X827Y676D02*
X833Y676D01*
X838Y676D02*
X842Y676D01*
X869Y676D02*
X876Y676D01*
X0Y675D02*
X7Y675D01*
X504Y675D02*
X520Y675D01*
X815Y675D02*
X819Y675D01*
X828Y675D02*
X834Y675D01*
X838Y675D02*
X842Y675D01*
X869Y675D02*
X876Y675D01*
X0Y674D02*
X7Y674D01*
X504Y674D02*
X520Y674D01*
X815Y674D02*
X819Y674D01*
X829Y674D02*
X835Y674D01*
X838Y674D02*
X842Y674D01*
X869Y674D02*
X876Y674D01*
X0Y673D02*
X7Y673D01*
X504Y673D02*
X520Y673D01*
X815Y673D02*
X819Y673D01*
X830Y673D02*
X836Y673D01*
X838Y673D02*
X842Y673D01*
X869Y673D02*
X876Y673D01*
X0Y672D02*
X7Y672D01*
X504Y672D02*
X520Y672D01*
X815Y672D02*
X819Y672D01*
X831Y672D02*
X842Y672D01*
X869Y672D02*
X876Y672D01*
X0Y671D02*
X7Y671D01*
X504Y671D02*
X520Y671D01*
X815Y671D02*
X819Y671D01*
X832Y671D02*
X842Y671D01*
X869Y671D02*
X876Y671D01*
X0Y670D02*
X7Y670D01*
X504Y670D02*
X520Y670D01*
X815Y670D02*
X819Y670D01*
X833Y670D02*
X842Y670D01*
X869Y670D02*
X876Y670D01*
X0Y669D02*
X7Y669D01*
X504Y669D02*
X520Y669D01*
X815Y669D02*
X819Y669D01*
X834Y669D02*
X842Y669D01*
X869Y669D02*
X876Y669D01*
X0Y668D02*
X7Y668D01*
X504Y668D02*
X520Y668D01*
X815Y668D02*
X818Y668D01*
X835Y668D02*
X841Y668D01*
X869Y668D02*
X876Y668D01*
X0Y667D02*
X7Y667D01*
X504Y667D02*
X520Y667D01*
X836Y667D02*
X841Y667D01*
X869Y667D02*
X876Y667D01*
X0Y666D02*
X7Y666D01*
X504Y666D02*
X520Y666D01*
X837Y666D02*
X840Y666D01*
X869Y666D02*
X876Y666D01*
X0Y665D02*
X7Y665D01*
X504Y665D02*
X520Y665D01*
X869Y665D02*
X876Y665D01*
X0Y664D02*
X7Y664D01*
X504Y664D02*
X520Y664D01*
X869Y664D02*
X876Y664D01*
X0Y663D02*
X7Y663D01*
X504Y663D02*
X520Y663D01*
X869Y663D02*
X876Y663D01*
X0Y662D02*
X7Y662D01*
X504Y662D02*
X520Y662D01*
X869Y662D02*
X876Y662D01*
X0Y661D02*
X7Y661D01*
X504Y661D02*
X520Y661D01*
X869Y661D02*
X876Y661D01*
X0Y660D02*
X7Y660D01*
X504Y660D02*
X520Y660D01*
X869Y660D02*
X876Y660D01*
X0Y659D02*
X7Y659D01*
X504Y659D02*
X520Y659D01*
X869Y659D02*
X876Y659D01*
X0Y658D02*
X7Y658D01*
X504Y658D02*
X520Y658D01*
X869Y658D02*
X876Y658D01*
X0Y657D02*
X7Y657D01*
X504Y657D02*
X520Y657D01*
X869Y657D02*
X876Y657D01*
X0Y656D02*
X7Y656D01*
X504Y656D02*
X520Y656D01*
X869Y656D02*
X876Y656D01*
X0Y655D02*
X7Y655D01*
X504Y655D02*
X520Y655D01*
X869Y655D02*
X876Y655D01*
X0Y654D02*
X7Y654D01*
X504Y654D02*
X520Y654D01*
X815Y654D02*
X820Y654D01*
X838Y654D02*
X841Y654D01*
X869Y654D02*
X876Y654D01*
X0Y653D02*
X7Y653D01*
X504Y653D02*
X520Y653D01*
X815Y653D02*
X821Y653D01*
X838Y653D02*
X841Y653D01*
X869Y653D02*
X876Y653D01*
X0Y652D02*
X7Y652D01*
X504Y652D02*
X520Y652D01*
X815Y652D02*
X822Y652D01*
X838Y652D02*
X842Y652D01*
X869Y652D02*
X876Y652D01*
X0Y651D02*
X7Y651D01*
X504Y651D02*
X520Y651D01*
X815Y651D02*
X823Y651D01*
X838Y651D02*
X842Y651D01*
X869Y651D02*
X876Y651D01*
X0Y650D02*
X7Y650D01*
X504Y650D02*
X520Y650D01*
X815Y650D02*
X824Y650D01*
X838Y650D02*
X842Y650D01*
X869Y650D02*
X876Y650D01*
X0Y649D02*
X7Y649D01*
X504Y649D02*
X520Y649D01*
X815Y649D02*
X825Y649D01*
X838Y649D02*
X842Y649D01*
X869Y649D02*
X876Y649D01*
X0Y648D02*
X7Y648D01*
X504Y648D02*
X520Y648D01*
X815Y648D02*
X826Y648D01*
X838Y648D02*
X842Y648D01*
X869Y648D02*
X876Y648D01*
X0Y647D02*
X7Y647D01*
X504Y647D02*
X520Y647D01*
X815Y647D02*
X819Y647D01*
X821Y647D02*
X827Y647D01*
X838Y647D02*
X842Y647D01*
X869Y647D02*
X876Y647D01*
X0Y646D02*
X7Y646D01*
X504Y646D02*
X520Y646D01*
X815Y646D02*
X819Y646D01*
X822Y646D02*
X828Y646D01*
X838Y646D02*
X842Y646D01*
X869Y646D02*
X876Y646D01*
X0Y645D02*
X7Y645D01*
X504Y645D02*
X520Y645D01*
X815Y645D02*
X819Y645D01*
X823Y645D02*
X829Y645D01*
X838Y645D02*
X842Y645D01*
X869Y645D02*
X876Y645D01*
X0Y644D02*
X7Y644D01*
X504Y644D02*
X520Y644D01*
X815Y644D02*
X819Y644D01*
X824Y644D02*
X830Y644D01*
X838Y644D02*
X842Y644D01*
X869Y644D02*
X876Y644D01*
X0Y643D02*
X7Y643D01*
X504Y643D02*
X520Y643D01*
X815Y643D02*
X819Y643D01*
X825Y643D02*
X831Y643D01*
X838Y643D02*
X842Y643D01*
X869Y643D02*
X876Y643D01*
X0Y642D02*
X7Y642D01*
X504Y642D02*
X520Y642D01*
X815Y642D02*
X819Y642D01*
X826Y642D02*
X832Y642D01*
X838Y642D02*
X842Y642D01*
X869Y642D02*
X876Y642D01*
X0Y641D02*
X7Y641D01*
X504Y641D02*
X520Y641D01*
X815Y641D02*
X819Y641D01*
X827Y641D02*
X833Y641D01*
X838Y641D02*
X842Y641D01*
X869Y641D02*
X876Y641D01*
X0Y640D02*
X7Y640D01*
X504Y640D02*
X520Y640D01*
X815Y640D02*
X819Y640D01*
X828Y640D02*
X834Y640D01*
X838Y640D02*
X842Y640D01*
X869Y640D02*
X876Y640D01*
X0Y639D02*
X7Y639D01*
X504Y639D02*
X520Y639D01*
X815Y639D02*
X819Y639D01*
X829Y639D02*
X835Y639D01*
X838Y639D02*
X842Y639D01*
X869Y639D02*
X876Y639D01*
X0Y638D02*
X7Y638D01*
X504Y638D02*
X520Y638D01*
X815Y638D02*
X819Y638D01*
X830Y638D02*
X836Y638D01*
X838Y638D02*
X842Y638D01*
X869Y638D02*
X876Y638D01*
X0Y637D02*
X7Y637D01*
X504Y637D02*
X520Y637D01*
X815Y637D02*
X819Y637D01*
X831Y637D02*
X842Y637D01*
X869Y637D02*
X876Y637D01*
X0Y636D02*
X7Y636D01*
X504Y636D02*
X520Y636D01*
X815Y636D02*
X819Y636D01*
X832Y636D02*
X842Y636D01*
X869Y636D02*
X876Y636D01*
X0Y635D02*
X7Y635D01*
X504Y635D02*
X520Y635D01*
X815Y635D02*
X819Y635D01*
X833Y635D02*
X842Y635D01*
X869Y635D02*
X876Y635D01*
X0Y634D02*
X7Y634D01*
X504Y634D02*
X520Y634D01*
X815Y634D02*
X819Y634D01*
X834Y634D02*
X842Y634D01*
X869Y634D02*
X876Y634D01*
X0Y633D02*
X7Y633D01*
X504Y633D02*
X520Y633D01*
X815Y633D02*
X818Y633D01*
X835Y633D02*
X841Y633D01*
X869Y633D02*
X876Y633D01*
X0Y632D02*
X7Y632D01*
X504Y632D02*
X520Y632D01*
X817Y632D02*
X817Y632D01*
X836Y632D02*
X841Y632D01*
X869Y632D02*
X876Y632D01*
X0Y631D02*
X7Y631D01*
X504Y631D02*
X520Y631D01*
X837Y631D02*
X840Y631D01*
X869Y631D02*
X876Y631D01*
X0Y630D02*
X7Y630D01*
X504Y630D02*
X520Y630D01*
X869Y630D02*
X876Y630D01*
X0Y629D02*
X7Y629D01*
X504Y629D02*
X520Y629D01*
X869Y629D02*
X876Y629D01*
X0Y628D02*
X7Y628D01*
X504Y628D02*
X520Y628D01*
X869Y628D02*
X876Y628D01*
X0Y627D02*
X7Y627D01*
X504Y627D02*
X520Y627D01*
X869Y627D02*
X876Y627D01*
X0Y626D02*
X7Y626D01*
X504Y626D02*
X520Y626D01*
X869Y626D02*
X876Y626D01*
X0Y625D02*
X7Y625D01*
X504Y625D02*
X520Y625D01*
X869Y625D02*
X876Y625D01*
X0Y624D02*
X7Y624D01*
X504Y624D02*
X520Y624D01*
X869Y624D02*
X876Y624D01*
X0Y623D02*
X7Y623D01*
X504Y623D02*
X520Y623D01*
X869Y623D02*
X876Y623D01*
X0Y622D02*
X7Y622D01*
X504Y622D02*
X520Y622D01*
X869Y622D02*
X876Y622D01*
X0Y621D02*
X7Y621D01*
X504Y621D02*
X520Y621D01*
X869Y621D02*
X876Y621D01*
X0Y620D02*
X7Y620D01*
X504Y620D02*
X520Y620D01*
X869Y620D02*
X876Y620D01*
X0Y619D02*
X7Y619D01*
X504Y619D02*
X520Y619D01*
X869Y619D02*
X876Y619D01*
X0Y618D02*
X7Y618D01*
X504Y618D02*
X520Y618D01*
X869Y618D02*
X876Y618D01*
X0Y617D02*
X7Y617D01*
X504Y617D02*
X520Y617D01*
X839Y617D02*
X840Y617D01*
X869Y617D02*
X876Y617D01*
X0Y616D02*
X7Y616D01*
X504Y616D02*
X520Y616D01*
X838Y616D02*
X841Y616D01*
X869Y616D02*
X876Y616D01*
X0Y615D02*
X7Y615D01*
X504Y615D02*
X520Y615D01*
X838Y615D02*
X841Y615D01*
X869Y615D02*
X876Y615D01*
X0Y614D02*
X7Y614D01*
X504Y614D02*
X520Y614D01*
X838Y614D02*
X842Y614D01*
X869Y614D02*
X876Y614D01*
X0Y613D02*
X7Y613D01*
X504Y613D02*
X520Y613D01*
X838Y613D02*
X842Y613D01*
X869Y613D02*
X876Y613D01*
X0Y612D02*
X7Y612D01*
X504Y612D02*
X520Y612D01*
X838Y612D02*
X842Y612D01*
X869Y612D02*
X876Y612D01*
X0Y611D02*
X7Y611D01*
X504Y611D02*
X520Y611D01*
X838Y611D02*
X842Y611D01*
X869Y611D02*
X876Y611D01*
X0Y610D02*
X7Y610D01*
X504Y610D02*
X520Y610D01*
X805Y610D02*
X806Y610D01*
X818Y610D02*
X842Y610D01*
X869Y610D02*
X876Y610D01*
X0Y609D02*
X7Y609D01*
X504Y609D02*
X520Y609D01*
X803Y609D02*
X808Y609D01*
X815Y609D02*
X842Y609D01*
X869Y609D02*
X876Y609D01*
X0Y608D02*
X7Y608D01*
X504Y608D02*
X520Y608D01*
X803Y608D02*
X808Y608D01*
X815Y608D02*
X842Y608D01*
X869Y608D02*
X876Y608D01*
X0Y607D02*
X7Y607D01*
X504Y607D02*
X520Y607D01*
X802Y607D02*
X808Y607D01*
X815Y607D02*
X842Y607D01*
X869Y607D02*
X876Y607D01*
X0Y606D02*
X7Y606D01*
X504Y606D02*
X520Y606D01*
X802Y606D02*
X808Y606D01*
X815Y606D02*
X842Y606D01*
X869Y606D02*
X876Y606D01*
X0Y605D02*
X7Y605D01*
X504Y605D02*
X520Y605D01*
X803Y605D02*
X808Y605D01*
X815Y605D02*
X819Y605D01*
X837Y605D02*
X842Y605D01*
X869Y605D02*
X876Y605D01*
X0Y604D02*
X7Y604D01*
X504Y604D02*
X520Y604D01*
X803Y604D02*
X808Y604D01*
X815Y604D02*
X819Y604D01*
X838Y604D02*
X842Y604D01*
X869Y604D02*
X876Y604D01*
X0Y603D02*
X7Y603D01*
X504Y603D02*
X520Y603D01*
X804Y603D02*
X807Y603D01*
X815Y603D02*
X819Y603D01*
X838Y603D02*
X842Y603D01*
X869Y603D02*
X876Y603D01*
X0Y602D02*
X7Y602D01*
X504Y602D02*
X520Y602D01*
X815Y602D02*
X819Y602D01*
X838Y602D02*
X842Y602D01*
X869Y602D02*
X876Y602D01*
X0Y601D02*
X7Y601D01*
X504Y601D02*
X520Y601D01*
X815Y601D02*
X819Y601D01*
X838Y601D02*
X842Y601D01*
X869Y601D02*
X876Y601D01*
X0Y600D02*
X7Y600D01*
X504Y600D02*
X520Y600D01*
X815Y600D02*
X819Y600D01*
X838Y600D02*
X841Y600D01*
X869Y600D02*
X876Y600D01*
X0Y599D02*
X7Y599D01*
X504Y599D02*
X520Y599D01*
X815Y599D02*
X818Y599D01*
X838Y599D02*
X841Y599D01*
X869Y599D02*
X876Y599D01*
X0Y598D02*
X7Y598D01*
X504Y598D02*
X520Y598D01*
X817Y598D02*
X817Y598D01*
X839Y598D02*
X840Y598D01*
X869Y598D02*
X876Y598D01*
X0Y597D02*
X7Y597D01*
X504Y597D02*
X520Y597D01*
X869Y597D02*
X876Y597D01*
X0Y596D02*
X7Y596D01*
X504Y596D02*
X520Y596D01*
X869Y596D02*
X876Y596D01*
X0Y595D02*
X7Y595D01*
X504Y595D02*
X520Y595D01*
X869Y595D02*
X876Y595D01*
X0Y594D02*
X7Y594D01*
X504Y594D02*
X520Y594D01*
X869Y594D02*
X876Y594D01*
X0Y593D02*
X7Y593D01*
X504Y593D02*
X520Y593D01*
X869Y593D02*
X876Y593D01*
X0Y592D02*
X7Y592D01*
X504Y592D02*
X520Y592D01*
X869Y592D02*
X876Y592D01*
X0Y591D02*
X7Y591D01*
X504Y591D02*
X520Y591D01*
X869Y591D02*
X876Y591D01*
X0Y590D02*
X7Y590D01*
X504Y590D02*
X520Y590D01*
X869Y590D02*
X876Y590D01*
X0Y589D02*
X7Y589D01*
X504Y589D02*
X520Y589D01*
X869Y589D02*
X876Y589D01*
X0Y588D02*
X7Y588D01*
X504Y588D02*
X520Y588D01*
X869Y588D02*
X876Y588D01*
X0Y587D02*
X7Y587D01*
X504Y587D02*
X520Y587D01*
X869Y587D02*
X876Y587D01*
X0Y586D02*
X7Y586D01*
X504Y586D02*
X520Y586D01*
X869Y586D02*
X876Y586D01*
X0Y585D02*
X7Y585D01*
X504Y585D02*
X520Y585D01*
X869Y585D02*
X876Y585D01*
X0Y584D02*
X7Y584D01*
X504Y584D02*
X520Y584D01*
X869Y584D02*
X876Y584D01*
X0Y583D02*
X7Y583D01*
X504Y583D02*
X520Y583D01*
X869Y583D02*
X876Y583D01*
X0Y582D02*
X7Y582D01*
X504Y582D02*
X520Y582D01*
X869Y582D02*
X876Y582D01*
X0Y581D02*
X7Y581D01*
X504Y581D02*
X520Y581D01*
X838Y581D02*
X841Y581D01*
X869Y581D02*
X876Y581D01*
X0Y580D02*
X7Y580D01*
X504Y580D02*
X520Y580D01*
X838Y580D02*
X841Y580D01*
X869Y580D02*
X876Y580D01*
X0Y579D02*
X7Y579D01*
X504Y579D02*
X520Y579D01*
X838Y579D02*
X842Y579D01*
X869Y579D02*
X876Y579D01*
X0Y578D02*
X7Y578D01*
X504Y578D02*
X520Y578D01*
X838Y578D02*
X842Y578D01*
X869Y578D02*
X876Y578D01*
X0Y577D02*
X7Y577D01*
X504Y577D02*
X520Y577D01*
X838Y577D02*
X842Y577D01*
X869Y577D02*
X876Y577D01*
X0Y576D02*
X7Y576D01*
X504Y576D02*
X520Y576D01*
X838Y576D02*
X842Y576D01*
X869Y576D02*
X876Y576D01*
X0Y575D02*
X7Y575D01*
X504Y575D02*
X520Y575D01*
X837Y575D02*
X842Y575D01*
X869Y575D02*
X876Y575D01*
X0Y574D02*
X7Y574D01*
X504Y574D02*
X520Y574D01*
X805Y574D02*
X842Y574D01*
X869Y574D02*
X876Y574D01*
X0Y573D02*
X7Y573D01*
X504Y573D02*
X520Y573D01*
X805Y573D02*
X842Y573D01*
X869Y573D02*
X876Y573D01*
X0Y572D02*
X7Y572D01*
X504Y572D02*
X520Y572D01*
X805Y572D02*
X842Y572D01*
X869Y572D02*
X876Y572D01*
X0Y571D02*
X7Y571D01*
X504Y571D02*
X520Y571D01*
X805Y571D02*
X842Y571D01*
X869Y571D02*
X876Y571D01*
X0Y570D02*
X7Y570D01*
X504Y570D02*
X520Y570D01*
X805Y570D02*
X842Y570D01*
X869Y570D02*
X876Y570D01*
X0Y569D02*
X7Y569D01*
X504Y569D02*
X520Y569D01*
X805Y569D02*
X808Y569D01*
X838Y569D02*
X842Y569D01*
X869Y569D02*
X876Y569D01*
X0Y568D02*
X7Y568D01*
X504Y568D02*
X520Y568D01*
X805Y568D02*
X808Y568D01*
X838Y568D02*
X842Y568D01*
X869Y568D02*
X876Y568D01*
X0Y567D02*
X7Y567D01*
X504Y567D02*
X520Y567D01*
X805Y567D02*
X808Y567D01*
X838Y567D02*
X842Y567D01*
X869Y567D02*
X876Y567D01*
X0Y566D02*
X7Y566D01*
X504Y566D02*
X520Y566D01*
X805Y566D02*
X808Y566D01*
X838Y566D02*
X842Y566D01*
X869Y566D02*
X876Y566D01*
X0Y565D02*
X7Y565D01*
X504Y565D02*
X520Y565D01*
X805Y565D02*
X808Y565D01*
X838Y565D02*
X841Y565D01*
X869Y565D02*
X876Y565D01*
X0Y564D02*
X7Y564D01*
X504Y564D02*
X520Y564D01*
X805Y564D02*
X808Y564D01*
X838Y564D02*
X841Y564D01*
X869Y564D02*
X876Y564D01*
X0Y563D02*
X7Y563D01*
X504Y563D02*
X520Y563D01*
X806Y563D02*
X807Y563D01*
X839Y563D02*
X840Y563D01*
X869Y563D02*
X876Y563D01*
X0Y562D02*
X7Y562D01*
X504Y562D02*
X520Y562D01*
X869Y562D02*
X876Y562D01*
X0Y561D02*
X7Y561D01*
X504Y561D02*
X520Y561D01*
X869Y561D02*
X876Y561D01*
X0Y560D02*
X7Y560D01*
X504Y560D02*
X520Y560D01*
X869Y560D02*
X876Y560D01*
X0Y559D02*
X7Y559D01*
X504Y559D02*
X520Y559D01*
X869Y559D02*
X876Y559D01*
X0Y558D02*
X7Y558D01*
X504Y558D02*
X520Y558D01*
X869Y558D02*
X876Y558D01*
X0Y557D02*
X7Y557D01*
X504Y557D02*
X520Y557D01*
X869Y557D02*
X876Y557D01*
X0Y556D02*
X7Y556D01*
X504Y556D02*
X520Y556D01*
X869Y556D02*
X876Y556D01*
X0Y555D02*
X7Y555D01*
X504Y555D02*
X520Y555D01*
X869Y555D02*
X876Y555D01*
X0Y554D02*
X7Y554D01*
X504Y554D02*
X520Y554D01*
X869Y554D02*
X876Y554D01*
X0Y553D02*
X7Y553D01*
X504Y553D02*
X520Y553D01*
X869Y553D02*
X876Y553D01*
X0Y552D02*
X7Y552D01*
X504Y552D02*
X520Y552D01*
X869Y552D02*
X876Y552D01*
X0Y551D02*
X7Y551D01*
X504Y551D02*
X520Y551D01*
X869Y551D02*
X876Y551D01*
X0Y550D02*
X7Y550D01*
X504Y550D02*
X520Y550D01*
X869Y550D02*
X876Y550D01*
X0Y549D02*
X7Y549D01*
X504Y549D02*
X520Y549D01*
X806Y549D02*
X807Y549D01*
X869Y549D02*
X876Y549D01*
X0Y548D02*
X7Y548D01*
X504Y548D02*
X520Y548D01*
X805Y548D02*
X809Y548D01*
X869Y548D02*
X876Y548D01*
X0Y547D02*
X7Y547D01*
X504Y547D02*
X520Y547D01*
X805Y547D02*
X811Y547D01*
X869Y547D02*
X876Y547D01*
X0Y546D02*
X7Y546D01*
X504Y546D02*
X520Y546D01*
X805Y546D02*
X812Y546D01*
X869Y546D02*
X876Y546D01*
X0Y545D02*
X7Y545D01*
X504Y545D02*
X520Y545D01*
X805Y545D02*
X814Y545D01*
X869Y545D02*
X876Y545D01*
X0Y544D02*
X7Y544D01*
X504Y544D02*
X520Y544D01*
X807Y544D02*
X816Y544D01*
X869Y544D02*
X876Y544D01*
X0Y543D02*
X7Y543D01*
X504Y543D02*
X520Y543D01*
X809Y543D02*
X817Y543D01*
X869Y543D02*
X876Y543D01*
X0Y542D02*
X7Y542D01*
X504Y542D02*
X520Y542D01*
X810Y542D02*
X819Y542D01*
X869Y542D02*
X876Y542D01*
X0Y541D02*
X7Y541D01*
X504Y541D02*
X520Y541D01*
X812Y541D02*
X821Y541D01*
X869Y541D02*
X876Y541D01*
X0Y540D02*
X7Y540D01*
X504Y540D02*
X520Y540D01*
X814Y540D02*
X822Y540D01*
X869Y540D02*
X876Y540D01*
X0Y539D02*
X7Y539D01*
X504Y539D02*
X520Y539D01*
X815Y539D02*
X824Y539D01*
X869Y539D02*
X876Y539D01*
X0Y538D02*
X7Y538D01*
X504Y538D02*
X520Y538D01*
X817Y538D02*
X826Y538D01*
X869Y538D02*
X876Y538D01*
X0Y537D02*
X7Y537D01*
X504Y537D02*
X520Y537D01*
X819Y537D02*
X828Y537D01*
X869Y537D02*
X876Y537D01*
X0Y536D02*
X7Y536D01*
X504Y536D02*
X520Y536D01*
X820Y536D02*
X829Y536D01*
X869Y536D02*
X876Y536D01*
X0Y535D02*
X7Y535D01*
X504Y535D02*
X520Y535D01*
X822Y535D02*
X831Y535D01*
X869Y535D02*
X876Y535D01*
X0Y534D02*
X7Y534D01*
X504Y534D02*
X520Y534D01*
X824Y534D02*
X833Y534D01*
X869Y534D02*
X876Y534D01*
X0Y533D02*
X7Y533D01*
X504Y533D02*
X520Y533D01*
X826Y533D02*
X834Y533D01*
X869Y533D02*
X876Y533D01*
X0Y532D02*
X7Y532D01*
X504Y532D02*
X520Y532D01*
X827Y532D02*
X836Y532D01*
X869Y532D02*
X876Y532D01*
X0Y531D02*
X7Y531D01*
X504Y531D02*
X520Y531D01*
X829Y531D02*
X838Y531D01*
X869Y531D02*
X876Y531D01*
X0Y530D02*
X7Y530D01*
X504Y530D02*
X520Y530D01*
X831Y530D02*
X840Y530D01*
X869Y530D02*
X876Y530D01*
X0Y529D02*
X7Y529D01*
X504Y529D02*
X520Y529D01*
X832Y529D02*
X841Y529D01*
X869Y529D02*
X876Y529D01*
X0Y528D02*
X7Y528D01*
X504Y528D02*
X520Y528D01*
X834Y528D02*
X841Y528D01*
X869Y528D02*
X876Y528D01*
X0Y527D02*
X7Y527D01*
X504Y527D02*
X520Y527D01*
X836Y527D02*
X841Y527D01*
X869Y527D02*
X876Y527D01*
X0Y526D02*
X7Y526D01*
X504Y526D02*
X520Y526D01*
X838Y526D02*
X841Y526D01*
X869Y526D02*
X876Y526D01*
X0Y525D02*
X7Y525D01*
X504Y525D02*
X520Y525D01*
X869Y525D02*
X876Y525D01*
X0Y524D02*
X7Y524D01*
X504Y524D02*
X520Y524D01*
X869Y524D02*
X876Y524D01*
X0Y523D02*
X7Y523D01*
X504Y523D02*
X520Y523D01*
X869Y523D02*
X876Y523D01*
X0Y522D02*
X7Y522D01*
X504Y522D02*
X520Y522D01*
X869Y522D02*
X876Y522D01*
X0Y521D02*
X7Y521D01*
X504Y521D02*
X520Y521D01*
X869Y521D02*
X876Y521D01*
X0Y520D02*
X7Y520D01*
X504Y520D02*
X520Y520D01*
X869Y520D02*
X876Y520D01*
X0Y519D02*
X7Y519D01*
X504Y519D02*
X520Y519D01*
X869Y519D02*
X876Y519D01*
X0Y518D02*
X7Y518D01*
X504Y518D02*
X520Y518D01*
X869Y518D02*
X876Y518D01*
X0Y517D02*
X7Y517D01*
X504Y517D02*
X520Y517D01*
X869Y517D02*
X876Y517D01*
X0Y516D02*
X7Y516D01*
X504Y516D02*
X520Y516D01*
X869Y516D02*
X876Y516D01*
X0Y515D02*
X7Y515D01*
X504Y515D02*
X520Y515D01*
X869Y515D02*
X876Y515D01*
X0Y514D02*
X7Y514D01*
X504Y514D02*
X520Y514D01*
X869Y514D02*
X876Y514D01*
X0Y513D02*
X7Y513D01*
X504Y513D02*
X520Y513D01*
X805Y513D02*
X808Y513D01*
X869Y513D02*
X876Y513D01*
X0Y512D02*
X7Y512D01*
X504Y512D02*
X520Y512D01*
X805Y512D02*
X810Y512D01*
X869Y512D02*
X876Y512D01*
X0Y511D02*
X7Y511D01*
X504Y511D02*
X520Y511D01*
X805Y511D02*
X812Y511D01*
X869Y511D02*
X876Y511D01*
X0Y510D02*
X7Y510D01*
X504Y510D02*
X520Y510D01*
X805Y510D02*
X814Y510D01*
X869Y510D02*
X876Y510D01*
X0Y509D02*
X7Y509D01*
X504Y509D02*
X520Y509D01*
X806Y509D02*
X815Y509D01*
X869Y509D02*
X876Y509D01*
X0Y508D02*
X7Y508D01*
X504Y508D02*
X520Y508D01*
X808Y508D02*
X817Y508D01*
X869Y508D02*
X876Y508D01*
X0Y507D02*
X7Y507D01*
X504Y507D02*
X520Y507D01*
X810Y507D02*
X819Y507D01*
X869Y507D02*
X876Y507D01*
X0Y506D02*
X7Y506D01*
X504Y506D02*
X520Y506D01*
X812Y506D02*
X820Y506D01*
X869Y506D02*
X876Y506D01*
X0Y505D02*
X7Y505D01*
X504Y505D02*
X520Y505D01*
X813Y505D02*
X822Y505D01*
X869Y505D02*
X876Y505D01*
X0Y504D02*
X7Y504D01*
X504Y504D02*
X520Y504D01*
X815Y504D02*
X824Y504D01*
X869Y504D02*
X876Y504D01*
X0Y503D02*
X7Y503D01*
X504Y503D02*
X520Y503D01*
X817Y503D02*
X826Y503D01*
X869Y503D02*
X876Y503D01*
X0Y502D02*
X7Y502D01*
X504Y502D02*
X520Y502D01*
X818Y502D02*
X827Y502D01*
X869Y502D02*
X876Y502D01*
X0Y501D02*
X7Y501D01*
X504Y501D02*
X520Y501D01*
X820Y501D02*
X829Y501D01*
X869Y501D02*
X876Y501D01*
X0Y500D02*
X7Y500D01*
X504Y500D02*
X520Y500D01*
X822Y500D02*
X831Y500D01*
X869Y500D02*
X876Y500D01*
X0Y499D02*
X7Y499D01*
X504Y499D02*
X520Y499D01*
X824Y499D02*
X832Y499D01*
X869Y499D02*
X876Y499D01*
X0Y498D02*
X7Y498D01*
X504Y498D02*
X520Y498D01*
X825Y498D02*
X834Y498D01*
X869Y498D02*
X876Y498D01*
X0Y497D02*
X7Y497D01*
X504Y497D02*
X520Y497D01*
X827Y497D02*
X836Y497D01*
X869Y497D02*
X876Y497D01*
X0Y496D02*
X7Y496D01*
X504Y496D02*
X520Y496D01*
X829Y496D02*
X837Y496D01*
X869Y496D02*
X876Y496D01*
X0Y495D02*
X7Y495D01*
X504Y495D02*
X520Y495D01*
X830Y495D02*
X839Y495D01*
X869Y495D02*
X876Y495D01*
X0Y494D02*
X7Y494D01*
X504Y494D02*
X520Y494D01*
X832Y494D02*
X841Y494D01*
X869Y494D02*
X876Y494D01*
X0Y493D02*
X7Y493D01*
X504Y493D02*
X520Y493D01*
X834Y493D02*
X841Y493D01*
X869Y493D02*
X876Y493D01*
X0Y492D02*
X7Y492D01*
X504Y492D02*
X520Y492D01*
X836Y492D02*
X841Y492D01*
X869Y492D02*
X876Y492D01*
X0Y491D02*
X7Y491D01*
X504Y491D02*
X520Y491D01*
X837Y491D02*
X841Y491D01*
X869Y491D02*
X876Y491D01*
X0Y490D02*
X7Y490D01*
X504Y490D02*
X520Y490D01*
X839Y490D02*
X840Y490D01*
X869Y490D02*
X876Y490D01*
X0Y489D02*
X7Y489D01*
X504Y489D02*
X520Y489D01*
X869Y489D02*
X876Y489D01*
X0Y488D02*
X7Y488D01*
X504Y488D02*
X520Y488D01*
X869Y488D02*
X876Y488D01*
X0Y487D02*
X7Y487D01*
X504Y487D02*
X520Y487D01*
X869Y487D02*
X876Y487D01*
X0Y486D02*
X7Y486D01*
X504Y486D02*
X520Y486D01*
X869Y486D02*
X876Y486D01*
X0Y485D02*
X7Y485D01*
X504Y485D02*
X520Y485D01*
X869Y485D02*
X876Y485D01*
X0Y484D02*
X7Y484D01*
X504Y484D02*
X520Y484D01*
X869Y484D02*
X876Y484D01*
X0Y483D02*
X7Y483D01*
X504Y483D02*
X520Y483D01*
X869Y483D02*
X876Y483D01*
X0Y482D02*
X7Y482D01*
X504Y482D02*
X520Y482D01*
X869Y482D02*
X876Y482D01*
X0Y481D02*
X7Y481D01*
X504Y481D02*
X520Y481D01*
X869Y481D02*
X876Y481D01*
X0Y480D02*
X7Y480D01*
X504Y480D02*
X520Y480D01*
X869Y480D02*
X876Y480D01*
X0Y479D02*
X7Y479D01*
X504Y479D02*
X520Y479D01*
X869Y479D02*
X876Y479D01*
X0Y478D02*
X7Y478D01*
X504Y478D02*
X520Y478D01*
X869Y478D02*
X876Y478D01*
X0Y477D02*
X7Y477D01*
X504Y477D02*
X520Y477D01*
X869Y477D02*
X876Y477D01*
X0Y476D02*
X7Y476D01*
X504Y476D02*
X520Y476D01*
X869Y476D02*
X876Y476D01*
X0Y475D02*
X7Y475D01*
X504Y475D02*
X520Y475D01*
X869Y475D02*
X876Y475D01*
X0Y474D02*
X7Y474D01*
X504Y474D02*
X520Y474D01*
X869Y474D02*
X876Y474D01*
X0Y473D02*
X7Y473D01*
X504Y473D02*
X520Y473D01*
X869Y473D02*
X876Y473D01*
X0Y472D02*
X7Y472D01*
X504Y472D02*
X520Y472D01*
X869Y472D02*
X876Y472D01*
X0Y471D02*
X7Y471D01*
X504Y471D02*
X520Y471D01*
X812Y471D02*
X818Y471D01*
X828Y471D02*
X834Y471D01*
X869Y471D02*
X876Y471D01*
X0Y470D02*
X7Y470D01*
X504Y470D02*
X520Y470D01*
X811Y470D02*
X819Y470D01*
X827Y470D02*
X835Y470D01*
X869Y470D02*
X876Y470D01*
X0Y469D02*
X7Y469D01*
X504Y469D02*
X520Y469D01*
X811Y469D02*
X819Y469D01*
X827Y469D02*
X835Y469D01*
X869Y469D02*
X876Y469D01*
X0Y468D02*
X7Y468D01*
X504Y468D02*
X520Y468D01*
X811Y468D02*
X819Y468D01*
X827Y468D02*
X835Y468D01*
X869Y468D02*
X876Y468D01*
X0Y467D02*
X7Y467D01*
X504Y467D02*
X520Y467D01*
X811Y467D02*
X819Y467D01*
X827Y467D02*
X835Y467D01*
X869Y467D02*
X876Y467D01*
X0Y466D02*
X7Y466D01*
X504Y466D02*
X520Y466D01*
X811Y466D02*
X819Y466D01*
X827Y466D02*
X835Y466D01*
X869Y466D02*
X876Y466D01*
X0Y465D02*
X7Y465D01*
X504Y465D02*
X520Y465D01*
X811Y465D02*
X819Y465D01*
X827Y465D02*
X835Y465D01*
X869Y465D02*
X876Y465D01*
X0Y464D02*
X7Y464D01*
X504Y464D02*
X520Y464D01*
X811Y464D02*
X819Y464D01*
X827Y464D02*
X835Y464D01*
X869Y464D02*
X876Y464D01*
X0Y463D02*
X7Y463D01*
X504Y463D02*
X520Y463D01*
X811Y463D02*
X818Y463D01*
X828Y463D02*
X835Y463D01*
X869Y463D02*
X876Y463D01*
X0Y462D02*
X7Y462D01*
X504Y462D02*
X520Y462D01*
X812Y462D02*
X817Y462D01*
X829Y462D02*
X834Y462D01*
X869Y462D02*
X876Y462D01*
X0Y461D02*
X7Y461D01*
X504Y461D02*
X520Y461D01*
X869Y461D02*
X876Y461D01*
X0Y460D02*
X7Y460D01*
X504Y460D02*
X520Y460D01*
X869Y460D02*
X876Y460D01*
X0Y459D02*
X7Y459D01*
X504Y459D02*
X520Y459D01*
X869Y459D02*
X876Y459D01*
X0Y458D02*
X7Y458D01*
X504Y458D02*
X520Y458D01*
X869Y458D02*
X876Y458D01*
X0Y457D02*
X7Y457D01*
X504Y457D02*
X520Y457D01*
X869Y457D02*
X876Y457D01*
X0Y456D02*
X7Y456D01*
X504Y456D02*
X520Y456D01*
X869Y456D02*
X876Y456D01*
X0Y455D02*
X7Y455D01*
X504Y455D02*
X520Y455D01*
X869Y455D02*
X876Y455D01*
X0Y454D02*
X7Y454D01*
X504Y454D02*
X520Y454D01*
X869Y454D02*
X876Y454D01*
X0Y453D02*
X7Y453D01*
X504Y453D02*
X520Y453D01*
X869Y453D02*
X876Y453D01*
X0Y452D02*
X7Y452D01*
X504Y452D02*
X520Y452D01*
X869Y452D02*
X876Y452D01*
X0Y451D02*
X7Y451D01*
X504Y451D02*
X520Y451D01*
X869Y451D02*
X876Y451D01*
X0Y450D02*
X7Y450D01*
X504Y450D02*
X520Y450D01*
X869Y450D02*
X876Y450D01*
X0Y449D02*
X7Y449D01*
X504Y449D02*
X520Y449D01*
X869Y449D02*
X876Y449D01*
X0Y448D02*
X7Y448D01*
X504Y448D02*
X520Y448D01*
X869Y448D02*
X876Y448D01*
X0Y447D02*
X7Y447D01*
X504Y447D02*
X520Y447D01*
X869Y447D02*
X876Y447D01*
X0Y446D02*
X7Y446D01*
X504Y446D02*
X520Y446D01*
X869Y446D02*
X876Y446D01*
X0Y445D02*
X7Y445D01*
X504Y445D02*
X520Y445D01*
X869Y445D02*
X876Y445D01*
X0Y444D02*
X7Y444D01*
X504Y444D02*
X520Y444D01*
X869Y444D02*
X876Y444D01*
X0Y443D02*
X7Y443D01*
X504Y443D02*
X520Y443D01*
X819Y443D02*
X819Y443D01*
X832Y443D02*
X837Y443D01*
X869Y443D02*
X876Y443D01*
X0Y442D02*
X7Y442D01*
X504Y442D02*
X520Y442D01*
X817Y442D02*
X820Y442D01*
X831Y442D02*
X839Y442D01*
X869Y442D02*
X876Y442D01*
X0Y441D02*
X7Y441D01*
X504Y441D02*
X520Y441D01*
X816Y441D02*
X821Y441D01*
X830Y441D02*
X840Y441D01*
X869Y441D02*
X876Y441D01*
X0Y440D02*
X7Y440D01*
X504Y440D02*
X520Y440D01*
X816Y440D02*
X821Y440D01*
X829Y440D02*
X840Y440D01*
X869Y440D02*
X876Y440D01*
X0Y439D02*
X7Y439D01*
X504Y439D02*
X520Y439D01*
X815Y439D02*
X820Y439D01*
X828Y439D02*
X841Y439D01*
X869Y439D02*
X876Y439D01*
X0Y438D02*
X7Y438D01*
X504Y438D02*
X520Y438D01*
X815Y438D02*
X819Y438D01*
X828Y438D02*
X832Y438D01*
X837Y438D02*
X841Y438D01*
X869Y438D02*
X876Y438D01*
X0Y437D02*
X7Y437D01*
X504Y437D02*
X520Y437D01*
X815Y437D02*
X819Y437D01*
X827Y437D02*
X832Y437D01*
X837Y437D02*
X841Y437D01*
X869Y437D02*
X876Y437D01*
X0Y436D02*
X7Y436D01*
X504Y436D02*
X520Y436D01*
X815Y436D02*
X819Y436D01*
X827Y436D02*
X831Y436D01*
X838Y436D02*
X841Y436D01*
X869Y436D02*
X876Y436D01*
X0Y435D02*
X7Y435D01*
X504Y435D02*
X520Y435D01*
X815Y435D02*
X819Y435D01*
X826Y435D02*
X831Y435D01*
X838Y435D02*
X842Y435D01*
X869Y435D02*
X876Y435D01*
X0Y434D02*
X7Y434D01*
X504Y434D02*
X520Y434D01*
X815Y434D02*
X819Y434D01*
X826Y434D02*
X830Y434D01*
X838Y434D02*
X842Y434D01*
X869Y434D02*
X876Y434D01*
X0Y433D02*
X7Y433D01*
X504Y433D02*
X520Y433D01*
X815Y433D02*
X819Y433D01*
X826Y433D02*
X830Y433D01*
X838Y433D02*
X842Y433D01*
X869Y433D02*
X876Y433D01*
X0Y432D02*
X7Y432D01*
X504Y432D02*
X520Y432D01*
X815Y432D02*
X819Y432D01*
X825Y432D02*
X829Y432D01*
X838Y432D02*
X842Y432D01*
X869Y432D02*
X876Y432D01*
X0Y431D02*
X7Y431D01*
X504Y431D02*
X520Y431D01*
X815Y431D02*
X819Y431D01*
X825Y431D02*
X829Y431D01*
X838Y431D02*
X842Y431D01*
X869Y431D02*
X876Y431D01*
X0Y430D02*
X7Y430D01*
X504Y430D02*
X520Y430D01*
X815Y430D02*
X819Y430D01*
X824Y430D02*
X829Y430D01*
X838Y430D02*
X842Y430D01*
X869Y430D02*
X876Y430D01*
X0Y429D02*
X7Y429D01*
X504Y429D02*
X520Y429D01*
X815Y429D02*
X819Y429D01*
X824Y429D02*
X828Y429D01*
X838Y429D02*
X842Y429D01*
X869Y429D02*
X876Y429D01*
X0Y428D02*
X7Y428D01*
X504Y428D02*
X520Y428D01*
X815Y428D02*
X819Y428D01*
X823Y428D02*
X828Y428D01*
X838Y428D02*
X842Y428D01*
X869Y428D02*
X876Y428D01*
X0Y427D02*
X7Y427D01*
X504Y427D02*
X520Y427D01*
X815Y427D02*
X819Y427D01*
X823Y427D02*
X827Y427D01*
X838Y427D02*
X841Y427D01*
X869Y427D02*
X876Y427D01*
X0Y426D02*
X7Y426D01*
X504Y426D02*
X520Y426D01*
X815Y426D02*
X819Y426D01*
X823Y426D02*
X827Y426D01*
X838Y426D02*
X841Y426D01*
X869Y426D02*
X876Y426D01*
X0Y425D02*
X7Y425D01*
X504Y425D02*
X520Y425D01*
X815Y425D02*
X820Y425D01*
X822Y425D02*
X826Y425D01*
X837Y425D02*
X841Y425D01*
X869Y425D02*
X876Y425D01*
X0Y424D02*
X7Y424D01*
X504Y424D02*
X520Y424D01*
X815Y424D02*
X826Y424D01*
X837Y424D02*
X841Y424D01*
X869Y424D02*
X876Y424D01*
X0Y423D02*
X7Y423D01*
X504Y423D02*
X520Y423D01*
X816Y423D02*
X825Y423D01*
X836Y423D02*
X841Y423D01*
X869Y423D02*
X876Y423D01*
X0Y422D02*
X7Y422D01*
X504Y422D02*
X520Y422D01*
X817Y422D02*
X825Y422D01*
X836Y422D02*
X840Y422D01*
X869Y422D02*
X876Y422D01*
X0Y421D02*
X7Y421D01*
X504Y421D02*
X520Y421D01*
X818Y421D02*
X823Y421D01*
X836Y421D02*
X839Y421D01*
X869Y421D02*
X876Y421D01*
X0Y420D02*
X7Y420D01*
X504Y420D02*
X520Y420D01*
X820Y420D02*
X820Y420D01*
X836Y420D02*
X839Y420D01*
X869Y420D02*
X876Y420D01*
X0Y419D02*
X7Y419D01*
X504Y419D02*
X520Y419D01*
X869Y419D02*
X876Y419D01*
X0Y418D02*
X7Y418D01*
X504Y418D02*
X520Y418D01*
X869Y418D02*
X876Y418D01*
X0Y417D02*
X7Y417D01*
X504Y417D02*
X520Y417D01*
X869Y417D02*
X876Y417D01*
X0Y416D02*
X7Y416D01*
X504Y416D02*
X520Y416D01*
X869Y416D02*
X876Y416D01*
X0Y415D02*
X7Y415D01*
X504Y415D02*
X520Y415D01*
X869Y415D02*
X876Y415D01*
X0Y414D02*
X7Y414D01*
X504Y414D02*
X520Y414D01*
X869Y414D02*
X876Y414D01*
X0Y413D02*
X7Y413D01*
X504Y413D02*
X520Y413D01*
X869Y413D02*
X876Y413D01*
X0Y412D02*
X7Y412D01*
X504Y412D02*
X520Y412D01*
X869Y412D02*
X876Y412D01*
X0Y411D02*
X7Y411D01*
X504Y411D02*
X520Y411D01*
X869Y411D02*
X876Y411D01*
X0Y410D02*
X7Y410D01*
X504Y410D02*
X520Y410D01*
X869Y410D02*
X876Y410D01*
X0Y409D02*
X7Y409D01*
X504Y409D02*
X520Y409D01*
X869Y409D02*
X876Y409D01*
X0Y408D02*
X7Y408D01*
X504Y408D02*
X520Y408D01*
X822Y408D02*
X834Y408D01*
X869Y408D02*
X876Y408D01*
X0Y407D02*
X7Y407D01*
X504Y407D02*
X520Y407D01*
X821Y407D02*
X836Y407D01*
X869Y407D02*
X876Y407D01*
X0Y406D02*
X7Y406D01*
X504Y406D02*
X520Y406D01*
X819Y406D02*
X837Y406D01*
X869Y406D02*
X876Y406D01*
X0Y405D02*
X7Y405D01*
X504Y405D02*
X520Y405D01*
X818Y405D02*
X838Y405D01*
X869Y405D02*
X876Y405D01*
X0Y404D02*
X7Y404D01*
X504Y404D02*
X520Y404D01*
X818Y404D02*
X839Y404D01*
X869Y404D02*
X876Y404D01*
X0Y403D02*
X7Y403D01*
X504Y403D02*
X520Y403D01*
X817Y403D02*
X822Y403D01*
X834Y403D02*
X840Y403D01*
X869Y403D02*
X876Y403D01*
X0Y402D02*
X7Y402D01*
X504Y402D02*
X520Y402D01*
X816Y402D02*
X821Y402D01*
X835Y402D02*
X840Y402D01*
X869Y402D02*
X876Y402D01*
X0Y401D02*
X7Y401D01*
X504Y401D02*
X520Y401D01*
X815Y401D02*
X821Y401D01*
X836Y401D02*
X841Y401D01*
X869Y401D02*
X876Y401D01*
X0Y400D02*
X7Y400D01*
X504Y400D02*
X520Y400D01*
X815Y400D02*
X820Y400D01*
X837Y400D02*
X842Y400D01*
X869Y400D02*
X876Y400D01*
X0Y399D02*
X7Y399D01*
X504Y399D02*
X520Y399D01*
X814Y399D02*
X819Y399D01*
X838Y399D02*
X842Y399D01*
X869Y399D02*
X876Y399D01*
X0Y398D02*
X7Y398D01*
X504Y398D02*
X520Y398D01*
X814Y398D02*
X818Y398D01*
X838Y398D02*
X842Y398D01*
X869Y398D02*
X876Y398D01*
X0Y397D02*
X7Y397D01*
X504Y397D02*
X520Y397D01*
X814Y397D02*
X818Y397D01*
X839Y397D02*
X843Y397D01*
X869Y397D02*
X876Y397D01*
X0Y396D02*
X7Y396D01*
X504Y396D02*
X520Y396D01*
X814Y396D02*
X818Y396D01*
X839Y396D02*
X843Y396D01*
X869Y396D02*
X876Y396D01*
X0Y395D02*
X7Y395D01*
X504Y395D02*
X520Y395D01*
X814Y395D02*
X818Y395D01*
X838Y395D02*
X842Y395D01*
X869Y395D02*
X876Y395D01*
X0Y394D02*
X7Y394D01*
X504Y394D02*
X520Y394D01*
X814Y394D02*
X819Y394D01*
X838Y394D02*
X842Y394D01*
X869Y394D02*
X876Y394D01*
X0Y393D02*
X7Y393D01*
X504Y393D02*
X520Y393D01*
X814Y393D02*
X820Y393D01*
X837Y393D02*
X842Y393D01*
X869Y393D02*
X876Y393D01*
X0Y392D02*
X7Y392D01*
X504Y392D02*
X520Y392D01*
X815Y392D02*
X821Y392D01*
X836Y392D02*
X841Y392D01*
X869Y392D02*
X876Y392D01*
X0Y391D02*
X7Y391D01*
X504Y391D02*
X520Y391D01*
X816Y391D02*
X822Y391D01*
X835Y391D02*
X841Y391D01*
X869Y391D02*
X876Y391D01*
X0Y390D02*
X7Y390D01*
X504Y390D02*
X520Y390D01*
X817Y390D02*
X823Y390D01*
X834Y390D02*
X840Y390D01*
X869Y390D02*
X876Y390D01*
X0Y389D02*
X7Y389D01*
X504Y389D02*
X520Y389D01*
X816Y389D02*
X850Y389D01*
X869Y389D02*
X876Y389D01*
X0Y388D02*
X7Y388D01*
X504Y388D02*
X520Y388D01*
X814Y388D02*
X851Y388D01*
X869Y388D02*
X876Y388D01*
X0Y387D02*
X7Y387D01*
X504Y387D02*
X520Y387D01*
X814Y387D02*
X852Y387D01*
X869Y387D02*
X876Y387D01*
X0Y386D02*
X7Y386D01*
X504Y386D02*
X520Y386D01*
X814Y386D02*
X852Y386D01*
X869Y386D02*
X876Y386D01*
X0Y385D02*
X7Y385D01*
X504Y385D02*
X520Y385D01*
X814Y385D02*
X851Y385D01*
X869Y385D02*
X876Y385D01*
X0Y384D02*
X7Y384D01*
X504Y384D02*
X520Y384D01*
X869Y384D02*
X876Y384D01*
X0Y383D02*
X7Y383D01*
X504Y383D02*
X520Y383D01*
X869Y383D02*
X876Y383D01*
X0Y382D02*
X7Y382D01*
X504Y382D02*
X520Y382D01*
X869Y382D02*
X876Y382D01*
X0Y381D02*
X7Y381D01*
X504Y381D02*
X520Y381D01*
X869Y381D02*
X876Y381D01*
X0Y380D02*
X7Y380D01*
X504Y380D02*
X520Y380D01*
X869Y380D02*
X876Y380D01*
X0Y379D02*
X7Y379D01*
X504Y379D02*
X520Y379D01*
X869Y379D02*
X876Y379D01*
X0Y378D02*
X7Y378D01*
X504Y378D02*
X520Y378D01*
X869Y378D02*
X876Y378D01*
X0Y377D02*
X7Y377D01*
X504Y377D02*
X520Y377D01*
X869Y377D02*
X876Y377D01*
X0Y376D02*
X7Y376D01*
X504Y376D02*
X520Y376D01*
X869Y376D02*
X876Y376D01*
X0Y375D02*
X7Y375D01*
X504Y375D02*
X520Y375D01*
X869Y375D02*
X876Y375D01*
X0Y374D02*
X7Y374D01*
X504Y374D02*
X520Y374D01*
X869Y374D02*
X876Y374D01*
X0Y373D02*
X7Y373D01*
X504Y373D02*
X520Y373D01*
X835Y373D02*
X836Y373D01*
X869Y373D02*
X876Y373D01*
X0Y372D02*
X7Y372D01*
X504Y372D02*
X520Y372D01*
X834Y372D02*
X838Y372D01*
X869Y372D02*
X876Y372D01*
X0Y371D02*
X7Y371D01*
X504Y371D02*
X520Y371D01*
X834Y371D02*
X839Y371D01*
X869Y371D02*
X876Y371D01*
X0Y370D02*
X7Y370D01*
X504Y370D02*
X520Y370D01*
X816Y370D02*
X818Y370D01*
X834Y370D02*
X840Y370D01*
X869Y370D02*
X876Y370D01*
X0Y369D02*
X7Y369D01*
X504Y369D02*
X520Y369D01*
X815Y369D02*
X819Y369D01*
X834Y369D02*
X841Y369D01*
X869Y369D02*
X876Y369D01*
X0Y368D02*
X7Y368D01*
X504Y368D02*
X520Y368D01*
X815Y368D02*
X819Y368D01*
X836Y368D02*
X841Y368D01*
X869Y368D02*
X876Y368D01*
X0Y367D02*
X7Y367D01*
X504Y367D02*
X520Y367D01*
X815Y367D02*
X819Y367D01*
X837Y367D02*
X841Y367D01*
X869Y367D02*
X876Y367D01*
X0Y366D02*
X7Y366D01*
X504Y366D02*
X520Y366D01*
X815Y366D02*
X819Y366D01*
X838Y366D02*
X841Y366D01*
X869Y366D02*
X876Y366D01*
X0Y365D02*
X7Y365D01*
X504Y365D02*
X520Y365D01*
X815Y365D02*
X819Y365D01*
X838Y365D02*
X842Y365D01*
X869Y365D02*
X876Y365D01*
X0Y364D02*
X7Y364D01*
X504Y364D02*
X520Y364D01*
X815Y364D02*
X819Y364D01*
X838Y364D02*
X842Y364D01*
X869Y364D02*
X876Y364D01*
X0Y363D02*
X7Y363D01*
X504Y363D02*
X520Y363D01*
X815Y363D02*
X819Y363D01*
X838Y363D02*
X842Y363D01*
X869Y363D02*
X876Y363D01*
X0Y362D02*
X7Y362D01*
X504Y362D02*
X520Y362D01*
X815Y362D02*
X819Y362D01*
X838Y362D02*
X842Y362D01*
X869Y362D02*
X876Y362D01*
X0Y361D02*
X7Y361D01*
X504Y361D02*
X520Y361D01*
X815Y361D02*
X819Y361D01*
X838Y361D02*
X841Y361D01*
X869Y361D02*
X876Y361D01*
X0Y360D02*
X7Y360D01*
X504Y360D02*
X520Y360D01*
X815Y360D02*
X819Y360D01*
X837Y360D02*
X841Y360D01*
X869Y360D02*
X876Y360D01*
X0Y359D02*
X7Y359D01*
X504Y359D02*
X520Y359D01*
X815Y359D02*
X819Y359D01*
X836Y359D02*
X841Y359D01*
X869Y359D02*
X876Y359D01*
X0Y358D02*
X7Y358D01*
X504Y358D02*
X520Y358D01*
X807Y358D02*
X841Y358D01*
X869Y358D02*
X876Y358D01*
X0Y357D02*
X7Y357D01*
X504Y357D02*
X520Y357D01*
X807Y357D02*
X840Y357D01*
X869Y357D02*
X876Y357D01*
X0Y356D02*
X7Y356D01*
X504Y356D02*
X520Y356D01*
X807Y356D02*
X839Y356D01*
X869Y356D02*
X876Y356D01*
X0Y355D02*
X7Y355D01*
X504Y355D02*
X520Y355D01*
X807Y355D02*
X838Y355D01*
X869Y355D02*
X876Y355D01*
X0Y354D02*
X7Y354D01*
X504Y354D02*
X520Y354D01*
X808Y354D02*
X836Y354D01*
X869Y354D02*
X876Y354D01*
X0Y353D02*
X7Y353D01*
X504Y353D02*
X520Y353D01*
X815Y353D02*
X819Y353D01*
X869Y353D02*
X876Y353D01*
X0Y352D02*
X7Y352D01*
X504Y352D02*
X520Y352D01*
X815Y352D02*
X819Y352D01*
X869Y352D02*
X876Y352D01*
X0Y351D02*
X7Y351D01*
X504Y351D02*
X520Y351D01*
X815Y351D02*
X819Y351D01*
X869Y351D02*
X876Y351D01*
X0Y350D02*
X7Y350D01*
X504Y350D02*
X520Y350D01*
X815Y350D02*
X818Y350D01*
X869Y350D02*
X876Y350D01*
X0Y349D02*
X7Y349D01*
X504Y349D02*
X520Y349D01*
X817Y349D02*
X817Y349D01*
X869Y349D02*
X876Y349D01*
X0Y348D02*
X7Y348D01*
X504Y348D02*
X520Y348D01*
X869Y348D02*
X876Y348D01*
X0Y347D02*
X7Y347D01*
X504Y347D02*
X520Y347D01*
X869Y347D02*
X876Y347D01*
X0Y346D02*
X7Y346D01*
X504Y346D02*
X520Y346D01*
X869Y346D02*
X876Y346D01*
X0Y345D02*
X7Y345D01*
X504Y345D02*
X520Y345D01*
X869Y345D02*
X876Y345D01*
X0Y344D02*
X7Y344D01*
X504Y344D02*
X520Y344D01*
X869Y344D02*
X876Y344D01*
X0Y343D02*
X7Y343D01*
X504Y343D02*
X520Y343D01*
X869Y343D02*
X876Y343D01*
X0Y342D02*
X7Y342D01*
X504Y342D02*
X520Y342D01*
X869Y342D02*
X876Y342D01*
X0Y341D02*
X7Y341D01*
X504Y341D02*
X520Y341D01*
X869Y341D02*
X876Y341D01*
X0Y340D02*
X7Y340D01*
X504Y340D02*
X520Y340D01*
X869Y340D02*
X876Y340D01*
X0Y339D02*
X7Y339D01*
X504Y339D02*
X520Y339D01*
X869Y339D02*
X876Y339D01*
X0Y338D02*
X7Y338D01*
X504Y338D02*
X520Y338D01*
X869Y338D02*
X876Y338D01*
X0Y337D02*
X7Y337D01*
X504Y337D02*
X520Y337D01*
X834Y337D02*
X838Y337D01*
X869Y337D02*
X876Y337D01*
X0Y336D02*
X7Y336D01*
X504Y336D02*
X520Y336D01*
X834Y336D02*
X839Y336D01*
X869Y336D02*
X876Y336D01*
X0Y335D02*
X7Y335D01*
X504Y335D02*
X520Y335D01*
X816Y335D02*
X818Y335D01*
X834Y335D02*
X840Y335D01*
X869Y335D02*
X876Y335D01*
X0Y334D02*
X7Y334D01*
X504Y334D02*
X520Y334D01*
X815Y334D02*
X819Y334D01*
X834Y334D02*
X841Y334D01*
X869Y334D02*
X876Y334D01*
X0Y333D02*
X7Y333D01*
X504Y333D02*
X520Y333D01*
X815Y333D02*
X819Y333D01*
X836Y333D02*
X841Y333D01*
X869Y333D02*
X876Y333D01*
X0Y332D02*
X7Y332D01*
X504Y332D02*
X520Y332D01*
X815Y332D02*
X819Y332D01*
X837Y332D02*
X841Y332D01*
X869Y332D02*
X876Y332D01*
X0Y331D02*
X7Y331D01*
X504Y331D02*
X520Y331D01*
X815Y331D02*
X819Y331D01*
X838Y331D02*
X841Y331D01*
X869Y331D02*
X876Y331D01*
X0Y330D02*
X7Y330D01*
X504Y330D02*
X520Y330D01*
X815Y330D02*
X819Y330D01*
X838Y330D02*
X842Y330D01*
X869Y330D02*
X876Y330D01*
X0Y329D02*
X7Y329D01*
X504Y329D02*
X520Y329D01*
X815Y329D02*
X819Y329D01*
X838Y329D02*
X842Y329D01*
X869Y329D02*
X876Y329D01*
X0Y328D02*
X7Y328D01*
X504Y328D02*
X520Y328D01*
X815Y328D02*
X819Y328D01*
X838Y328D02*
X842Y328D01*
X869Y328D02*
X876Y328D01*
X0Y327D02*
X7Y327D01*
X504Y327D02*
X520Y327D01*
X815Y327D02*
X819Y327D01*
X838Y327D02*
X842Y327D01*
X869Y327D02*
X876Y327D01*
X0Y326D02*
X7Y326D01*
X504Y326D02*
X520Y326D01*
X815Y326D02*
X819Y326D01*
X838Y326D02*
X842Y326D01*
X869Y326D02*
X876Y326D01*
X0Y325D02*
X7Y325D01*
X504Y325D02*
X520Y325D01*
X815Y325D02*
X819Y325D01*
X837Y325D02*
X841Y325D01*
X869Y325D02*
X876Y325D01*
X0Y324D02*
X7Y324D01*
X504Y324D02*
X520Y324D01*
X815Y324D02*
X819Y324D01*
X837Y324D02*
X841Y324D01*
X869Y324D02*
X876Y324D01*
X0Y323D02*
X7Y323D01*
X504Y323D02*
X520Y323D01*
X808Y323D02*
X841Y323D01*
X869Y323D02*
X876Y323D01*
X0Y322D02*
X7Y322D01*
X504Y322D02*
X520Y322D01*
X807Y322D02*
X840Y322D01*
X869Y322D02*
X876Y322D01*
X0Y321D02*
X7Y321D01*
X504Y321D02*
X520Y321D01*
X807Y321D02*
X840Y321D01*
X869Y321D02*
X876Y321D01*
X0Y320D02*
X7Y320D01*
X504Y320D02*
X520Y320D01*
X807Y320D02*
X839Y320D01*
X869Y320D02*
X876Y320D01*
X0Y319D02*
X7Y319D01*
X504Y319D02*
X520Y319D01*
X808Y319D02*
X837Y319D01*
X869Y319D02*
X876Y319D01*
X0Y318D02*
X7Y318D01*
X504Y318D02*
X520Y318D01*
X815Y318D02*
X819Y318D01*
X869Y318D02*
X876Y318D01*
X0Y317D02*
X7Y317D01*
X504Y317D02*
X520Y317D01*
X815Y317D02*
X819Y317D01*
X869Y317D02*
X876Y317D01*
X0Y316D02*
X7Y316D01*
X504Y316D02*
X520Y316D01*
X815Y316D02*
X819Y316D01*
X869Y316D02*
X876Y316D01*
X0Y315D02*
X7Y315D01*
X504Y315D02*
X520Y315D01*
X815Y315D02*
X818Y315D01*
X869Y315D02*
X876Y315D01*
X0Y314D02*
X7Y314D01*
X504Y314D02*
X520Y314D01*
X816Y314D02*
X817Y314D01*
X869Y314D02*
X876Y314D01*
X0Y313D02*
X7Y313D01*
X504Y313D02*
X520Y313D01*
X869Y313D02*
X876Y313D01*
X0Y312D02*
X7Y312D01*
X504Y312D02*
X520Y312D01*
X869Y312D02*
X876Y312D01*
X0Y311D02*
X7Y311D01*
X504Y311D02*
X520Y311D01*
X869Y311D02*
X876Y311D01*
X0Y310D02*
X7Y310D01*
X504Y310D02*
X520Y310D01*
X869Y310D02*
X876Y310D01*
X0Y309D02*
X7Y309D01*
X504Y309D02*
X520Y309D01*
X869Y309D02*
X876Y309D01*
X0Y308D02*
X7Y308D01*
X504Y308D02*
X520Y308D01*
X869Y308D02*
X876Y308D01*
X0Y307D02*
X7Y307D01*
X504Y307D02*
X520Y307D01*
X869Y307D02*
X876Y307D01*
X0Y306D02*
X7Y306D01*
X504Y306D02*
X520Y306D01*
X869Y306D02*
X876Y306D01*
X0Y305D02*
X7Y305D01*
X504Y305D02*
X520Y305D01*
X869Y305D02*
X876Y305D01*
X0Y304D02*
X7Y304D01*
X504Y304D02*
X520Y304D01*
X869Y304D02*
X876Y304D01*
X0Y303D02*
X7Y303D01*
X504Y303D02*
X520Y303D01*
X869Y303D02*
X876Y303D01*
X0Y302D02*
X7Y302D01*
X504Y302D02*
X520Y302D01*
X820Y302D02*
X840Y302D01*
X869Y302D02*
X876Y302D01*
X0Y301D02*
X7Y301D01*
X504Y301D02*
X520Y301D01*
X818Y301D02*
X841Y301D01*
X869Y301D02*
X876Y301D01*
X0Y300D02*
X7Y300D01*
X504Y300D02*
X520Y300D01*
X817Y300D02*
X841Y300D01*
X869Y300D02*
X876Y300D01*
X0Y299D02*
X7Y299D01*
X504Y299D02*
X520Y299D01*
X816Y299D02*
X841Y299D01*
X869Y299D02*
X876Y299D01*
X0Y298D02*
X7Y298D01*
X504Y298D02*
X520Y298D01*
X815Y298D02*
X841Y298D01*
X869Y298D02*
X876Y298D01*
X0Y297D02*
X7Y297D01*
X504Y297D02*
X520Y297D01*
X815Y297D02*
X820Y297D01*
X869Y297D02*
X876Y297D01*
X0Y296D02*
X7Y296D01*
X504Y296D02*
X520Y296D01*
X815Y296D02*
X819Y296D01*
X869Y296D02*
X876Y296D01*
X0Y295D02*
X7Y295D01*
X504Y295D02*
X520Y295D01*
X815Y295D02*
X819Y295D01*
X869Y295D02*
X876Y295D01*
X0Y294D02*
X7Y294D01*
X504Y294D02*
X520Y294D01*
X815Y294D02*
X819Y294D01*
X869Y294D02*
X876Y294D01*
X0Y293D02*
X7Y293D01*
X504Y293D02*
X520Y293D01*
X815Y293D02*
X819Y293D01*
X869Y293D02*
X876Y293D01*
X0Y292D02*
X7Y292D01*
X504Y292D02*
X520Y292D01*
X815Y292D02*
X819Y292D01*
X869Y292D02*
X876Y292D01*
X0Y291D02*
X7Y291D01*
X504Y291D02*
X520Y291D01*
X815Y291D02*
X819Y291D01*
X869Y291D02*
X876Y291D01*
X0Y290D02*
X7Y290D01*
X504Y290D02*
X520Y290D01*
X815Y290D02*
X820Y290D01*
X869Y290D02*
X876Y290D01*
X0Y289D02*
X7Y289D01*
X504Y289D02*
X520Y289D01*
X816Y289D02*
X820Y289D01*
X869Y289D02*
X876Y289D01*
X0Y288D02*
X7Y288D01*
X504Y288D02*
X520Y288D01*
X816Y288D02*
X821Y288D01*
X869Y288D02*
X876Y288D01*
X0Y287D02*
X7Y287D01*
X504Y287D02*
X520Y287D01*
X817Y287D02*
X822Y287D01*
X869Y287D02*
X876Y287D01*
X0Y286D02*
X7Y286D01*
X504Y286D02*
X520Y286D01*
X817Y286D02*
X822Y286D01*
X869Y286D02*
X876Y286D01*
X0Y285D02*
X7Y285D01*
X504Y285D02*
X520Y285D01*
X818Y285D02*
X823Y285D01*
X869Y285D02*
X876Y285D01*
X0Y284D02*
X7Y284D01*
X504Y284D02*
X520Y284D01*
X819Y284D02*
X823Y284D01*
X869Y284D02*
X876Y284D01*
X0Y283D02*
X7Y283D01*
X504Y283D02*
X520Y283D01*
X806Y283D02*
X840Y283D01*
X869Y283D02*
X876Y283D01*
X0Y282D02*
X7Y282D01*
X504Y282D02*
X520Y282D01*
X805Y282D02*
X841Y282D01*
X869Y282D02*
X876Y282D01*
X0Y281D02*
X7Y281D01*
X504Y281D02*
X520Y281D01*
X805Y281D02*
X841Y281D01*
X869Y281D02*
X876Y281D01*
X0Y280D02*
X7Y280D01*
X504Y280D02*
X520Y280D01*
X805Y280D02*
X841Y280D01*
X869Y280D02*
X876Y280D01*
X0Y279D02*
X7Y279D01*
X504Y279D02*
X520Y279D01*
X806Y279D02*
X840Y279D01*
X869Y279D02*
X876Y279D01*
X0Y278D02*
X7Y278D01*
X504Y278D02*
X520Y278D01*
X869Y278D02*
X876Y278D01*
X0Y277D02*
X7Y277D01*
X504Y277D02*
X520Y277D01*
X869Y277D02*
X876Y277D01*
X0Y276D02*
X7Y276D01*
X504Y276D02*
X520Y276D01*
X869Y276D02*
X876Y276D01*
X0Y275D02*
X7Y275D01*
X504Y275D02*
X520Y275D01*
X869Y275D02*
X876Y275D01*
X0Y274D02*
X7Y274D01*
X504Y274D02*
X520Y274D01*
X869Y274D02*
X876Y274D01*
X0Y273D02*
X7Y273D01*
X504Y273D02*
X520Y273D01*
X869Y273D02*
X876Y273D01*
X0Y272D02*
X7Y272D01*
X504Y272D02*
X520Y272D01*
X869Y272D02*
X876Y272D01*
X0Y271D02*
X7Y271D01*
X504Y271D02*
X520Y271D01*
X869Y271D02*
X876Y271D01*
X0Y270D02*
X7Y270D01*
X504Y270D02*
X520Y270D01*
X869Y270D02*
X876Y270D01*
X0Y269D02*
X7Y269D01*
X504Y269D02*
X520Y269D01*
X869Y269D02*
X876Y269D01*
X0Y268D02*
X7Y268D01*
X504Y268D02*
X520Y268D01*
X869Y268D02*
X876Y268D01*
X0Y267D02*
X7Y267D01*
X504Y267D02*
X520Y267D01*
X869Y267D02*
X876Y267D01*
X0Y266D02*
X7Y266D01*
X504Y266D02*
X520Y266D01*
X869Y266D02*
X876Y266D01*
X0Y265D02*
X7Y265D01*
X504Y265D02*
X520Y265D01*
X869Y265D02*
X876Y265D01*
X0Y264D02*
X7Y264D01*
X504Y264D02*
X520Y264D01*
X869Y264D02*
X876Y264D01*
X0Y263D02*
X7Y263D01*
X504Y263D02*
X520Y263D01*
X869Y263D02*
X876Y263D01*
X0Y262D02*
X7Y262D01*
X504Y262D02*
X520Y262D01*
X869Y262D02*
X876Y262D01*
X0Y261D02*
X7Y261D01*
X504Y261D02*
X520Y261D01*
X869Y261D02*
X876Y261D01*
X0Y260D02*
X7Y260D01*
X504Y260D02*
X520Y260D01*
X869Y260D02*
X876Y260D01*
X0Y259D02*
X7Y259D01*
X504Y259D02*
X520Y259D01*
X869Y259D02*
X876Y259D01*
X0Y258D02*
X7Y258D01*
X504Y258D02*
X520Y258D01*
X869Y258D02*
X876Y258D01*
X0Y257D02*
X7Y257D01*
X504Y257D02*
X520Y257D01*
X869Y257D02*
X876Y257D01*
X0Y256D02*
X7Y256D01*
X504Y256D02*
X520Y256D01*
X869Y256D02*
X876Y256D01*
X0Y255D02*
X7Y255D01*
X504Y255D02*
X520Y255D01*
X869Y255D02*
X876Y255D01*
X0Y254D02*
X7Y254D01*
X504Y254D02*
X520Y254D01*
X869Y254D02*
X876Y254D01*
X0Y253D02*
X7Y253D01*
X504Y253D02*
X520Y253D01*
X869Y253D02*
X876Y253D01*
X0Y252D02*
X7Y252D01*
X504Y252D02*
X520Y252D01*
X869Y252D02*
X876Y252D01*
X0Y251D02*
X7Y251D01*
X504Y251D02*
X520Y251D01*
X869Y251D02*
X876Y251D01*
X0Y250D02*
X7Y250D01*
X504Y250D02*
X520Y250D01*
X869Y250D02*
X876Y250D01*
X0Y249D02*
X7Y249D01*
X504Y249D02*
X520Y249D01*
X869Y249D02*
X876Y249D01*
X0Y248D02*
X7Y248D01*
X504Y248D02*
X520Y248D01*
X869Y248D02*
X876Y248D01*
X0Y247D02*
X7Y247D01*
X504Y247D02*
X520Y247D01*
X869Y247D02*
X876Y247D01*
X0Y246D02*
X7Y246D01*
X504Y246D02*
X520Y246D01*
X869Y246D02*
X876Y246D01*
X0Y245D02*
X7Y245D01*
X504Y245D02*
X520Y245D01*
X869Y245D02*
X876Y245D01*
X0Y244D02*
X7Y244D01*
X504Y244D02*
X520Y244D01*
X869Y244D02*
X876Y244D01*
X0Y243D02*
X7Y243D01*
X504Y243D02*
X520Y243D01*
X869Y243D02*
X876Y243D01*
X0Y242D02*
X7Y242D01*
X504Y242D02*
X520Y242D01*
X869Y242D02*
X876Y242D01*
X0Y241D02*
X7Y241D01*
X504Y241D02*
X520Y241D01*
X869Y241D02*
X876Y241D01*
X0Y240D02*
X7Y240D01*
X504Y240D02*
X520Y240D01*
X869Y240D02*
X876Y240D01*
X0Y239D02*
X7Y239D01*
X504Y239D02*
X520Y239D01*
X869Y239D02*
X876Y239D01*
X0Y238D02*
X7Y238D01*
X504Y238D02*
X520Y238D01*
X869Y238D02*
X876Y238D01*
X0Y237D02*
X7Y237D01*
X504Y237D02*
X520Y237D01*
X869Y237D02*
X876Y237D01*
X0Y236D02*
X7Y236D01*
X504Y236D02*
X520Y236D01*
X869Y236D02*
X876Y236D01*
X0Y235D02*
X7Y235D01*
X504Y235D02*
X520Y235D01*
X869Y235D02*
X876Y235D01*
X0Y234D02*
X7Y234D01*
X504Y234D02*
X520Y234D01*
X869Y234D02*
X876Y234D01*
X0Y233D02*
X7Y233D01*
X504Y233D02*
X520Y233D01*
X869Y233D02*
X876Y233D01*
X0Y232D02*
X7Y232D01*
X504Y232D02*
X520Y232D01*
X869Y232D02*
X876Y232D01*
X0Y231D02*
X7Y231D01*
X504Y231D02*
X520Y231D01*
X869Y231D02*
X876Y231D01*
X0Y230D02*
X7Y230D01*
X504Y230D02*
X520Y230D01*
X869Y230D02*
X876Y230D01*
X0Y229D02*
X7Y229D01*
X504Y229D02*
X520Y229D01*
X869Y229D02*
X876Y229D01*
X0Y228D02*
X7Y228D01*
X504Y228D02*
X520Y228D01*
X869Y228D02*
X876Y228D01*
X0Y227D02*
X7Y227D01*
X504Y227D02*
X520Y227D01*
X869Y227D02*
X876Y227D01*
X0Y226D02*
X7Y226D01*
X504Y226D02*
X520Y226D01*
X869Y226D02*
X876Y226D01*
X0Y225D02*
X7Y225D01*
X504Y225D02*
X520Y225D01*
X869Y225D02*
X876Y225D01*
X0Y224D02*
X7Y224D01*
X504Y224D02*
X520Y224D01*
X869Y224D02*
X876Y224D01*
X0Y223D02*
X7Y223D01*
X504Y223D02*
X520Y223D01*
X869Y223D02*
X876Y223D01*
X0Y222D02*
X7Y222D01*
X504Y222D02*
X520Y222D01*
X869Y222D02*
X876Y222D01*
X0Y221D02*
X7Y221D01*
X504Y221D02*
X520Y221D01*
X869Y221D02*
X876Y221D01*
X0Y220D02*
X7Y220D01*
X504Y220D02*
X520Y220D01*
X869Y220D02*
X876Y220D01*
X0Y219D02*
X7Y219D01*
X504Y219D02*
X520Y219D01*
X869Y219D02*
X876Y219D01*
X0Y218D02*
X7Y218D01*
X504Y218D02*
X520Y218D01*
X869Y218D02*
X876Y218D01*
X0Y217D02*
X7Y217D01*
X504Y217D02*
X520Y217D01*
X869Y217D02*
X876Y217D01*
X0Y216D02*
X7Y216D01*
X504Y216D02*
X520Y216D01*
X869Y216D02*
X876Y216D01*
X0Y215D02*
X7Y215D01*
X504Y215D02*
X520Y215D01*
X869Y215D02*
X876Y215D01*
X0Y214D02*
X7Y214D01*
X504Y214D02*
X520Y214D01*
X869Y214D02*
X876Y214D01*
X0Y213D02*
X7Y213D01*
X504Y213D02*
X520Y213D01*
X869Y213D02*
X876Y213D01*
X0Y212D02*
X7Y212D01*
X504Y212D02*
X520Y212D01*
X869Y212D02*
X876Y212D01*
X0Y211D02*
X7Y211D01*
X504Y211D02*
X520Y211D01*
X869Y211D02*
X876Y211D01*
X0Y210D02*
X7Y210D01*
X504Y210D02*
X520Y210D01*
X869Y210D02*
X876Y210D01*
X0Y209D02*
X7Y209D01*
X504Y209D02*
X520Y209D01*
X869Y209D02*
X876Y209D01*
X0Y208D02*
X7Y208D01*
X504Y208D02*
X520Y208D01*
X869Y208D02*
X876Y208D01*
X0Y207D02*
X7Y207D01*
X504Y207D02*
X520Y207D01*
X869Y207D02*
X876Y207D01*
X0Y206D02*
X7Y206D01*
X504Y206D02*
X520Y206D01*
X869Y206D02*
X876Y206D01*
X0Y205D02*
X7Y205D01*
X504Y205D02*
X520Y205D01*
X869Y205D02*
X876Y205D01*
X0Y204D02*
X7Y204D01*
X504Y204D02*
X520Y204D01*
X869Y204D02*
X876Y204D01*
X0Y203D02*
X7Y203D01*
X504Y203D02*
X520Y203D01*
X869Y203D02*
X876Y203D01*
X0Y202D02*
X7Y202D01*
X504Y202D02*
X520Y202D01*
X869Y202D02*
X876Y202D01*
X0Y201D02*
X7Y201D01*
X504Y201D02*
X520Y201D01*
X869Y201D02*
X876Y201D01*
X0Y200D02*
X7Y200D01*
X504Y200D02*
X520Y200D01*
X869Y200D02*
X876Y200D01*
X0Y199D02*
X7Y199D01*
X504Y199D02*
X520Y199D01*
X869Y199D02*
X876Y199D01*
X0Y198D02*
X7Y198D01*
X504Y198D02*
X520Y198D01*
X869Y198D02*
X876Y198D01*
X0Y197D02*
X7Y197D01*
X504Y197D02*
X520Y197D01*
X869Y197D02*
X876Y197D01*
X0Y196D02*
X7Y196D01*
X504Y196D02*
X520Y196D01*
X869Y196D02*
X876Y196D01*
X0Y195D02*
X7Y195D01*
X504Y195D02*
X520Y195D01*
X869Y195D02*
X876Y195D01*
X0Y194D02*
X7Y194D01*
X504Y194D02*
X520Y194D01*
X869Y194D02*
X876Y194D01*
X0Y193D02*
X7Y193D01*
X504Y193D02*
X520Y193D01*
X869Y193D02*
X876Y193D01*
X0Y192D02*
X7Y192D01*
X504Y192D02*
X520Y192D01*
X869Y192D02*
X876Y192D01*
X0Y191D02*
X7Y191D01*
X504Y191D02*
X520Y191D01*
X869Y191D02*
X876Y191D01*
X0Y190D02*
X7Y190D01*
X504Y190D02*
X520Y190D01*
X869Y190D02*
X876Y190D01*
X0Y189D02*
X7Y189D01*
X504Y189D02*
X520Y189D01*
X869Y189D02*
X876Y189D01*
X0Y188D02*
X7Y188D01*
X504Y188D02*
X520Y188D01*
X869Y188D02*
X876Y188D01*
X0Y187D02*
X7Y187D01*
X504Y187D02*
X520Y187D01*
X869Y187D02*
X876Y187D01*
X0Y186D02*
X7Y186D01*
X504Y186D02*
X520Y186D01*
X869Y186D02*
X876Y186D01*
X0Y185D02*
X7Y185D01*
X504Y185D02*
X520Y185D01*
X869Y185D02*
X876Y185D01*
X0Y184D02*
X7Y184D01*
X504Y184D02*
X520Y184D01*
X869Y184D02*
X876Y184D01*
X0Y183D02*
X7Y183D01*
X504Y183D02*
X520Y183D01*
X869Y183D02*
X876Y183D01*
X0Y182D02*
X7Y182D01*
X504Y182D02*
X520Y182D01*
X869Y182D02*
X876Y182D01*
X0Y181D02*
X7Y181D01*
X504Y181D02*
X520Y181D01*
X869Y181D02*
X876Y181D01*
X0Y180D02*
X7Y180D01*
X504Y180D02*
X520Y180D01*
X869Y180D02*
X876Y180D01*
X0Y179D02*
X7Y179D01*
X504Y179D02*
X520Y179D01*
X869Y179D02*
X876Y179D01*
X0Y178D02*
X7Y178D01*
X504Y178D02*
X520Y178D01*
X869Y178D02*
X876Y178D01*
X0Y177D02*
X7Y177D01*
X504Y177D02*
X520Y177D01*
X869Y177D02*
X876Y177D01*
X0Y176D02*
X7Y176D01*
X504Y176D02*
X520Y176D01*
X869Y176D02*
X876Y176D01*
X0Y175D02*
X7Y175D01*
X504Y175D02*
X520Y175D01*
X869Y175D02*
X876Y175D01*
X0Y174D02*
X7Y174D01*
X504Y174D02*
X520Y174D01*
X869Y174D02*
X876Y174D01*
X0Y173D02*
X7Y173D01*
X504Y173D02*
X520Y173D01*
X869Y173D02*
X876Y173D01*
X0Y172D02*
X7Y172D01*
X504Y172D02*
X520Y172D01*
X869Y172D02*
X876Y172D01*
X0Y171D02*
X7Y171D01*
X504Y171D02*
X520Y171D01*
X869Y171D02*
X876Y171D01*
X0Y170D02*
X7Y170D01*
X504Y170D02*
X520Y170D01*
X869Y170D02*
X876Y170D01*
X0Y169D02*
X7Y169D01*
X504Y169D02*
X520Y169D01*
X869Y169D02*
X876Y169D01*
X0Y168D02*
X7Y168D01*
X504Y168D02*
X520Y168D01*
X869Y168D02*
X876Y168D01*
X0Y167D02*
X7Y167D01*
X504Y167D02*
X520Y167D01*
X869Y167D02*
X876Y167D01*
X0Y166D02*
X7Y166D01*
X504Y166D02*
X520Y166D01*
X869Y166D02*
X876Y166D01*
X0Y165D02*
X7Y165D01*
X504Y165D02*
X520Y165D01*
X869Y165D02*
X876Y165D01*
X0Y164D02*
X7Y164D01*
X504Y164D02*
X520Y164D01*
X869Y164D02*
X876Y164D01*
X0Y163D02*
X7Y163D01*
X504Y163D02*
X520Y163D01*
X869Y163D02*
X876Y163D01*
X0Y162D02*
X7Y162D01*
X504Y162D02*
X520Y162D01*
X869Y162D02*
X876Y162D01*
X0Y161D02*
X7Y161D01*
X504Y161D02*
X520Y161D01*
X869Y161D02*
X876Y161D01*
X0Y160D02*
X7Y160D01*
X504Y160D02*
X520Y160D01*
X869Y160D02*
X876Y160D01*
X0Y159D02*
X7Y159D01*
X11Y159D02*
X51Y159D01*
X98Y159D02*
X520Y159D01*
X869Y159D02*
X876Y159D01*
X0Y158D02*
X7Y158D01*
X11Y158D02*
X50Y158D01*
X99Y158D02*
X520Y158D01*
X869Y158D02*
X876Y158D01*
X0Y157D02*
X7Y157D01*
X11Y157D02*
X50Y157D01*
X99Y157D02*
X520Y157D01*
X869Y157D02*
X876Y157D01*
X0Y156D02*
X7Y156D01*
X11Y156D02*
X50Y156D01*
X99Y156D02*
X520Y156D01*
X869Y156D02*
X876Y156D01*
X0Y155D02*
X7Y155D01*
X11Y155D02*
X50Y155D01*
X99Y155D02*
X520Y155D01*
X869Y155D02*
X876Y155D01*
X0Y154D02*
X7Y154D01*
X11Y154D02*
X49Y154D01*
X99Y154D02*
X520Y154D01*
X869Y154D02*
X876Y154D01*
X0Y153D02*
X7Y153D01*
X11Y153D02*
X49Y153D01*
X100Y153D02*
X520Y153D01*
X869Y153D02*
X876Y153D01*
X0Y152D02*
X7Y152D01*
X11Y152D02*
X49Y152D01*
X100Y152D02*
X520Y152D01*
X869Y152D02*
X876Y152D01*
X0Y151D02*
X7Y151D01*
X11Y151D02*
X49Y151D01*
X100Y151D02*
X520Y151D01*
X869Y151D02*
X876Y151D01*
X0Y150D02*
X7Y150D01*
X11Y150D02*
X49Y150D01*
X100Y150D02*
X520Y150D01*
X869Y150D02*
X876Y150D01*
X0Y149D02*
X7Y149D01*
X11Y149D02*
X50Y149D01*
X99Y149D02*
X520Y149D01*
X869Y149D02*
X876Y149D01*
X0Y148D02*
X7Y148D01*
X11Y148D02*
X50Y148D01*
X99Y148D02*
X520Y148D01*
X869Y148D02*
X876Y148D01*
X0Y147D02*
X7Y147D01*
X11Y147D02*
X50Y147D01*
X99Y147D02*
X520Y147D01*
X869Y147D02*
X876Y147D01*
X0Y146D02*
X7Y146D01*
X11Y146D02*
X50Y146D01*
X99Y146D02*
X520Y146D01*
X869Y146D02*
X876Y146D01*
X0Y145D02*
X7Y145D01*
X11Y145D02*
X51Y145D01*
X98Y145D02*
X520Y145D01*
X869Y145D02*
X876Y145D01*
X0Y144D02*
X7Y144D01*
X11Y144D02*
X51Y144D01*
X98Y144D02*
X520Y144D01*
X869Y144D02*
X876Y144D01*
X0Y143D02*
X7Y143D01*
X11Y143D02*
X51Y143D01*
X98Y143D02*
X519Y143D01*
X869Y143D02*
X876Y143D01*
X0Y142D02*
X7Y142D01*
X869Y142D02*
X876Y142D01*
X0Y141D02*
X7Y141D01*
X869Y141D02*
X876Y141D01*
X0Y140D02*
X7Y140D01*
X869Y140D02*
X876Y140D01*
X0Y139D02*
X7Y139D01*
X869Y139D02*
X876Y139D01*
X0Y138D02*
X7Y138D01*
X869Y138D02*
X876Y138D01*
X0Y137D02*
X7Y137D01*
X869Y137D02*
X876Y137D01*
X0Y136D02*
X7Y136D01*
X869Y136D02*
X876Y136D01*
X0Y135D02*
X7Y135D01*
X869Y135D02*
X876Y135D01*
X0Y134D02*
X7Y134D01*
X869Y134D02*
X876Y134D01*
X0Y133D02*
X7Y133D01*
X869Y133D02*
X876Y133D01*
X0Y132D02*
X7Y132D01*
X869Y132D02*
X876Y132D01*
X0Y131D02*
X7Y131D01*
X869Y131D02*
X876Y131D01*
X0Y130D02*
X7Y130D01*
X869Y130D02*
X876Y130D01*
X0Y129D02*
X7Y129D01*
X869Y129D02*
X876Y129D01*
X0Y128D02*
X7Y128D01*
X869Y128D02*
X876Y128D01*
X0Y127D02*
X7Y127D01*
X73Y127D02*
X106Y127D01*
X149Y127D02*
X149Y127D01*
X438Y127D02*
X438Y127D01*
X869Y127D02*
X876Y127D01*
X0Y126D02*
X7Y126D01*
X72Y126D02*
X111Y126D01*
X146Y126D02*
X151Y126D01*
X291Y126D02*
X296Y126D01*
X436Y126D02*
X440Y126D01*
X869Y126D02*
X876Y126D01*
X0Y125D02*
X7Y125D01*
X72Y125D02*
X113Y125D01*
X145Y125D02*
X152Y125D01*
X290Y125D02*
X297Y125D01*
X435Y125D02*
X441Y125D01*
X869Y125D02*
X876Y125D01*
X0Y124D02*
X7Y124D01*
X72Y124D02*
X115Y124D01*
X145Y124D02*
X153Y124D01*
X289Y124D02*
X298Y124D01*
X434Y124D02*
X442Y124D01*
X869Y124D02*
X876Y124D01*
X0Y123D02*
X7Y123D01*
X72Y123D02*
X116Y123D01*
X145Y123D02*
X153Y123D01*
X289Y123D02*
X298Y123D01*
X434Y123D02*
X442Y123D01*
X869Y123D02*
X876Y123D01*
X0Y122D02*
X7Y122D01*
X72Y122D02*
X117Y122D01*
X144Y122D02*
X153Y122D01*
X289Y122D02*
X298Y122D01*
X433Y122D02*
X443Y122D01*
X869Y122D02*
X876Y122D01*
X0Y121D02*
X7Y121D01*
X72Y121D02*
X118Y121D01*
X144Y121D02*
X154Y121D01*
X289Y121D02*
X298Y121D01*
X433Y121D02*
X443Y121D01*
X869Y121D02*
X876Y121D01*
X0Y120D02*
X7Y120D01*
X72Y120D02*
X119Y120D01*
X144Y120D02*
X154Y120D01*
X289Y120D02*
X298Y120D01*
X433Y120D02*
X443Y120D01*
X869Y120D02*
X876Y120D01*
X0Y119D02*
X7Y119D01*
X72Y119D02*
X119Y119D01*
X144Y119D02*
X154Y119D01*
X289Y119D02*
X298Y119D01*
X433Y119D02*
X443Y119D01*
X869Y119D02*
X876Y119D01*
X0Y118D02*
X7Y118D01*
X72Y118D02*
X120Y118D01*
X144Y118D02*
X154Y118D01*
X289Y118D02*
X298Y118D01*
X433Y118D02*
X443Y118D01*
X869Y118D02*
X876Y118D01*
X0Y117D02*
X7Y117D01*
X72Y117D02*
X120Y117D01*
X144Y117D02*
X154Y117D01*
X289Y117D02*
X298Y117D01*
X433Y117D02*
X443Y117D01*
X869Y117D02*
X876Y117D01*
X0Y116D02*
X7Y116D01*
X72Y116D02*
X81Y116D01*
X109Y116D02*
X120Y116D01*
X144Y116D02*
X154Y116D01*
X289Y116D02*
X298Y116D01*
X433Y116D02*
X443Y116D01*
X869Y116D02*
X876Y116D01*
X0Y115D02*
X7Y115D01*
X72Y115D02*
X81Y115D01*
X111Y115D02*
X121Y115D01*
X144Y115D02*
X154Y115D01*
X289Y115D02*
X298Y115D01*
X433Y115D02*
X443Y115D01*
X869Y115D02*
X876Y115D01*
X0Y114D02*
X7Y114D01*
X72Y114D02*
X81Y114D01*
X111Y114D02*
X121Y114D01*
X144Y114D02*
X154Y114D01*
X289Y114D02*
X298Y114D01*
X433Y114D02*
X443Y114D01*
X869Y114D02*
X876Y114D01*
X0Y113D02*
X7Y113D01*
X72Y113D02*
X81Y113D01*
X112Y113D02*
X121Y113D01*
X144Y113D02*
X154Y113D01*
X289Y113D02*
X298Y113D01*
X433Y113D02*
X443Y113D01*
X869Y113D02*
X876Y113D01*
X0Y112D02*
X7Y112D01*
X72Y112D02*
X81Y112D01*
X112Y112D02*
X121Y112D01*
X144Y112D02*
X154Y112D01*
X289Y112D02*
X298Y112D01*
X433Y112D02*
X443Y112D01*
X869Y112D02*
X876Y112D01*
X0Y111D02*
X7Y111D01*
X72Y111D02*
X81Y111D01*
X112Y111D02*
X121Y111D01*
X144Y111D02*
X154Y111D01*
X289Y111D02*
X298Y111D01*
X433Y111D02*
X443Y111D01*
X869Y111D02*
X876Y111D01*
X0Y110D02*
X7Y110D01*
X72Y110D02*
X81Y110D01*
X112Y110D02*
X121Y110D01*
X144Y110D02*
X154Y110D01*
X289Y110D02*
X298Y110D01*
X433Y110D02*
X443Y110D01*
X869Y110D02*
X876Y110D01*
X0Y109D02*
X7Y109D01*
X72Y109D02*
X81Y109D01*
X112Y109D02*
X121Y109D01*
X144Y109D02*
X154Y109D01*
X289Y109D02*
X298Y109D01*
X433Y109D02*
X443Y109D01*
X869Y109D02*
X876Y109D01*
X0Y108D02*
X7Y108D01*
X72Y108D02*
X81Y108D01*
X112Y108D02*
X121Y108D01*
X144Y108D02*
X154Y108D01*
X289Y108D02*
X298Y108D01*
X433Y108D02*
X443Y108D01*
X869Y108D02*
X876Y108D01*
X0Y107D02*
X7Y107D01*
X72Y107D02*
X81Y107D01*
X112Y107D02*
X121Y107D01*
X144Y107D02*
X154Y107D01*
X289Y107D02*
X298Y107D01*
X433Y107D02*
X443Y107D01*
X869Y107D02*
X876Y107D01*
X0Y106D02*
X7Y106D01*
X72Y106D02*
X81Y106D01*
X112Y106D02*
X121Y106D01*
X144Y106D02*
X154Y106D01*
X289Y106D02*
X298Y106D01*
X433Y106D02*
X443Y106D01*
X869Y106D02*
X876Y106D01*
X0Y105D02*
X7Y105D01*
X72Y105D02*
X81Y105D01*
X112Y105D02*
X121Y105D01*
X144Y105D02*
X154Y105D01*
X168Y105D02*
X182Y105D01*
X219Y105D02*
X223Y105D01*
X259Y105D02*
X263Y105D01*
X289Y105D02*
X298Y105D01*
X374Y105D02*
X399Y105D01*
X433Y105D02*
X443Y105D01*
X452Y105D02*
X468Y105D01*
X869Y105D02*
X876Y105D01*
X0Y104D02*
X7Y104D01*
X72Y104D02*
X81Y104D01*
X112Y104D02*
X121Y104D01*
X144Y104D02*
X154Y104D01*
X165Y104D02*
X185Y104D01*
X218Y104D02*
X224Y104D01*
X258Y104D02*
X264Y104D01*
X289Y104D02*
X298Y104D01*
X372Y104D02*
X401Y104D01*
X433Y104D02*
X443Y104D01*
X450Y104D02*
X471Y104D01*
X869Y104D02*
X876Y104D01*
X0Y103D02*
X7Y103D01*
X72Y103D02*
X81Y103D01*
X112Y103D02*
X121Y103D01*
X144Y103D02*
X154Y103D01*
X164Y103D02*
X186Y103D01*
X217Y103D02*
X225Y103D01*
X257Y103D02*
X265Y103D01*
X289Y103D02*
X298Y103D01*
X372Y103D02*
X403Y103D01*
X433Y103D02*
X443Y103D01*
X448Y103D02*
X472Y103D01*
X869Y103D02*
X876Y103D01*
X0Y102D02*
X7Y102D01*
X72Y102D02*
X81Y102D01*
X112Y102D02*
X121Y102D01*
X144Y102D02*
X154Y102D01*
X162Y102D02*
X187Y102D01*
X217Y102D02*
X226Y102D01*
X256Y102D02*
X265Y102D01*
X289Y102D02*
X298Y102D01*
X371Y102D02*
X404Y102D01*
X433Y102D02*
X443Y102D01*
X447Y102D02*
X474Y102D01*
X869Y102D02*
X876Y102D01*
X0Y101D02*
X7Y101D01*
X72Y101D02*
X81Y101D01*
X112Y101D02*
X121Y101D01*
X144Y101D02*
X154Y101D01*
X160Y101D02*
X188Y101D01*
X217Y101D02*
X226Y101D01*
X256Y101D02*
X265Y101D01*
X289Y101D02*
X298Y101D01*
X371Y101D02*
X405Y101D01*
X433Y101D02*
X443Y101D01*
X445Y101D02*
X475Y101D01*
X869Y101D02*
X876Y101D01*
X0Y100D02*
X7Y100D01*
X72Y100D02*
X81Y100D01*
X112Y100D02*
X121Y100D01*
X144Y100D02*
X154Y100D01*
X159Y100D02*
X189Y100D01*
X217Y100D02*
X226Y100D01*
X256Y100D02*
X265Y100D01*
X289Y100D02*
X298Y100D01*
X371Y100D02*
X406Y100D01*
X433Y100D02*
X476Y100D01*
X869Y100D02*
X876Y100D01*
X0Y99D02*
X7Y99D01*
X72Y99D02*
X81Y99D01*
X112Y99D02*
X121Y99D01*
X144Y99D02*
X154Y99D01*
X157Y99D02*
X190Y99D01*
X217Y99D02*
X226Y99D01*
X256Y99D02*
X265Y99D01*
X289Y99D02*
X298Y99D01*
X371Y99D02*
X407Y99D01*
X433Y99D02*
X477Y99D01*
X869Y99D02*
X876Y99D01*
X0Y98D02*
X7Y98D01*
X72Y98D02*
X81Y98D01*
X112Y98D02*
X121Y98D01*
X144Y98D02*
X154Y98D01*
X156Y98D02*
X191Y98D01*
X217Y98D02*
X226Y98D01*
X256Y98D02*
X265Y98D01*
X289Y98D02*
X298Y98D01*
X372Y98D02*
X407Y98D01*
X433Y98D02*
X478Y98D01*
X869Y98D02*
X876Y98D01*
X0Y97D02*
X7Y97D01*
X72Y97D02*
X81Y97D01*
X112Y97D02*
X121Y97D01*
X144Y97D02*
X191Y97D01*
X217Y97D02*
X226Y97D01*
X256Y97D02*
X265Y97D01*
X289Y97D02*
X298Y97D01*
X373Y97D02*
X408Y97D01*
X433Y97D02*
X479Y97D01*
X869Y97D02*
X876Y97D01*
X0Y96D02*
X7Y96D01*
X72Y96D02*
X81Y96D01*
X112Y96D02*
X121Y96D01*
X144Y96D02*
X192Y96D01*
X217Y96D02*
X226Y96D01*
X256Y96D02*
X265Y96D01*
X289Y96D02*
X298Y96D01*
X375Y96D02*
X408Y96D01*
X433Y96D02*
X480Y96D01*
X869Y96D02*
X876Y96D01*
X0Y95D02*
X7Y95D01*
X72Y95D02*
X81Y95D01*
X112Y95D02*
X121Y95D01*
X144Y95D02*
X169Y95D01*
X181Y95D02*
X192Y95D01*
X217Y95D02*
X226Y95D01*
X256Y95D02*
X265Y95D01*
X289Y95D02*
X298Y95D01*
X398Y95D02*
X409Y95D01*
X433Y95D02*
X454Y95D01*
X467Y95D02*
X480Y95D01*
X869Y95D02*
X876Y95D01*
X0Y94D02*
X7Y94D01*
X72Y94D02*
X81Y94D01*
X112Y94D02*
X121Y94D01*
X144Y94D02*
X167Y94D01*
X182Y94D02*
X192Y94D01*
X217Y94D02*
X226Y94D01*
X256Y94D02*
X265Y94D01*
X289Y94D02*
X298Y94D01*
X398Y94D02*
X409Y94D01*
X433Y94D02*
X452Y94D01*
X468Y94D02*
X481Y94D01*
X869Y94D02*
X876Y94D01*
X0Y93D02*
X7Y93D01*
X72Y93D02*
X81Y93D01*
X112Y93D02*
X121Y93D01*
X144Y93D02*
X166Y93D01*
X183Y93D02*
X192Y93D01*
X217Y93D02*
X226Y93D01*
X256Y93D02*
X265Y93D01*
X289Y93D02*
X298Y93D01*
X399Y93D02*
X409Y93D01*
X433Y93D02*
X451Y93D01*
X470Y93D02*
X481Y93D01*
X869Y93D02*
X876Y93D01*
X0Y92D02*
X7Y92D01*
X72Y92D02*
X81Y92D01*
X111Y92D02*
X121Y92D01*
X144Y92D02*
X164Y92D01*
X183Y92D02*
X192Y92D01*
X217Y92D02*
X226Y92D01*
X256Y92D02*
X265Y92D01*
X289Y92D02*
X298Y92D01*
X399Y92D02*
X409Y92D01*
X433Y92D02*
X450Y92D01*
X471Y92D02*
X482Y92D01*
X869Y92D02*
X876Y92D01*
X0Y91D02*
X7Y91D01*
X72Y91D02*
X81Y91D01*
X111Y91D02*
X121Y91D01*
X144Y91D02*
X162Y91D01*
X183Y91D02*
X192Y91D01*
X217Y91D02*
X227Y91D01*
X255Y91D02*
X265Y91D01*
X289Y91D02*
X298Y91D01*
X399Y91D02*
X409Y91D01*
X433Y91D02*
X449Y91D01*
X472Y91D02*
X482Y91D01*
X869Y91D02*
X876Y91D01*
X0Y90D02*
X7Y90D01*
X72Y90D02*
X81Y90D01*
X110Y90D02*
X120Y90D01*
X144Y90D02*
X161Y90D01*
X183Y90D02*
X192Y90D01*
X217Y90D02*
X227Y90D01*
X255Y90D02*
X265Y90D01*
X289Y90D02*
X298Y90D01*
X400Y90D02*
X409Y90D01*
X433Y90D02*
X448Y90D01*
X473Y90D02*
X482Y90D01*
X869Y90D02*
X876Y90D01*
X0Y89D02*
X7Y89D01*
X72Y89D02*
X82Y89D01*
X107Y89D02*
X120Y89D01*
X144Y89D02*
X159Y89D01*
X183Y89D02*
X192Y89D01*
X218Y89D02*
X228Y89D01*
X254Y89D02*
X264Y89D01*
X289Y89D02*
X298Y89D01*
X400Y89D02*
X409Y89D01*
X433Y89D02*
X446Y89D01*
X473Y89D02*
X482Y89D01*
X869Y89D02*
X876Y89D01*
X0Y88D02*
X7Y88D01*
X72Y88D02*
X120Y88D01*
X144Y88D02*
X158Y88D01*
X183Y88D02*
X192Y88D01*
X218Y88D02*
X228Y88D01*
X254Y88D02*
X264Y88D01*
X289Y88D02*
X298Y88D01*
X400Y88D02*
X409Y88D01*
X433Y88D02*
X445Y88D01*
X473Y88D02*
X482Y88D01*
X869Y88D02*
X876Y88D01*
X0Y87D02*
X7Y87D01*
X72Y87D02*
X119Y87D01*
X144Y87D02*
X156Y87D01*
X183Y87D02*
X192Y87D01*
X219Y87D02*
X229Y87D01*
X253Y87D02*
X264Y87D01*
X289Y87D02*
X298Y87D01*
X400Y87D02*
X409Y87D01*
X433Y87D02*
X444Y87D01*
X473Y87D02*
X482Y87D01*
X869Y87D02*
X876Y87D01*
X0Y86D02*
X7Y86D01*
X72Y86D02*
X119Y86D01*
X144Y86D02*
X155Y86D01*
X183Y86D02*
X192Y86D01*
X219Y86D02*
X229Y86D01*
X253Y86D02*
X263Y86D01*
X289Y86D02*
X298Y86D01*
X400Y86D02*
X409Y86D01*
X433Y86D02*
X443Y86D01*
X473Y86D02*
X482Y86D01*
X869Y86D02*
X876Y86D01*
X0Y85D02*
X7Y85D01*
X72Y85D02*
X118Y85D01*
X144Y85D02*
X154Y85D01*
X183Y85D02*
X192Y85D01*
X219Y85D02*
X229Y85D01*
X253Y85D02*
X263Y85D01*
X289Y85D02*
X298Y85D01*
X400Y85D02*
X409Y85D01*
X433Y85D02*
X443Y85D01*
X473Y85D02*
X482Y85D01*
X869Y85D02*
X876Y85D01*
X0Y84D02*
X7Y84D01*
X72Y84D02*
X117Y84D01*
X144Y84D02*
X154Y84D01*
X183Y84D02*
X192Y84D01*
X220Y84D02*
X230Y84D01*
X252Y84D02*
X262Y84D01*
X289Y84D02*
X298Y84D01*
X372Y84D02*
X409Y84D01*
X433Y84D02*
X443Y84D01*
X473Y84D02*
X482Y84D01*
X869Y84D02*
X876Y84D01*
X0Y83D02*
X7Y83D01*
X72Y83D02*
X116Y83D01*
X144Y83D02*
X154Y83D01*
X183Y83D02*
X192Y83D01*
X220Y83D02*
X230Y83D01*
X252Y83D02*
X262Y83D01*
X289Y83D02*
X298Y83D01*
X369Y83D02*
X409Y83D01*
X433Y83D02*
X443Y83D01*
X473Y83D02*
X482Y83D01*
X869Y83D02*
X876Y83D01*
X0Y82D02*
X7Y82D01*
X72Y82D02*
X115Y82D01*
X144Y82D02*
X154Y82D01*
X183Y82D02*
X192Y82D01*
X221Y82D02*
X231Y82D01*
X251Y82D02*
X261Y82D01*
X289Y82D02*
X298Y82D01*
X368Y82D02*
X409Y82D01*
X433Y82D02*
X443Y82D01*
X473Y82D02*
X482Y82D01*
X869Y82D02*
X876Y82D01*
X0Y81D02*
X7Y81D01*
X72Y81D02*
X114Y81D01*
X144Y81D02*
X154Y81D01*
X183Y81D02*
X192Y81D01*
X221Y81D02*
X231Y81D01*
X251Y81D02*
X261Y81D01*
X289Y81D02*
X298Y81D01*
X366Y81D02*
X409Y81D01*
X433Y81D02*
X443Y81D01*
X473Y81D02*
X482Y81D01*
X869Y81D02*
X876Y81D01*
X0Y80D02*
X7Y80D01*
X72Y80D02*
X112Y80D01*
X144Y80D02*
X154Y80D01*
X183Y80D02*
X192Y80D01*
X222Y80D02*
X232Y80D01*
X250Y80D02*
X260Y80D01*
X289Y80D02*
X298Y80D01*
X365Y80D02*
X409Y80D01*
X433Y80D02*
X443Y80D01*
X473Y80D02*
X482Y80D01*
X869Y80D02*
X876Y80D01*
X0Y79D02*
X7Y79D01*
X72Y79D02*
X108Y79D01*
X144Y79D02*
X154Y79D01*
X183Y79D02*
X192Y79D01*
X222Y79D02*
X232Y79D01*
X250Y79D02*
X260Y79D01*
X289Y79D02*
X298Y79D01*
X365Y79D02*
X409Y79D01*
X433Y79D02*
X443Y79D01*
X473Y79D02*
X482Y79D01*
X869Y79D02*
X876Y79D01*
X0Y78D02*
X7Y78D01*
X72Y78D02*
X81Y78D01*
X144Y78D02*
X154Y78D01*
X183Y78D02*
X192Y78D01*
X222Y78D02*
X232Y78D01*
X250Y78D02*
X260Y78D01*
X289Y78D02*
X298Y78D01*
X364Y78D02*
X409Y78D01*
X433Y78D02*
X443Y78D01*
X473Y78D02*
X482Y78D01*
X869Y78D02*
X876Y78D01*
X0Y77D02*
X7Y77D01*
X72Y77D02*
X81Y77D01*
X144Y77D02*
X154Y77D01*
X183Y77D02*
X192Y77D01*
X223Y77D02*
X233Y77D01*
X249Y77D02*
X259Y77D01*
X289Y77D02*
X298Y77D01*
X363Y77D02*
X409Y77D01*
X433Y77D02*
X443Y77D01*
X473Y77D02*
X482Y77D01*
X869Y77D02*
X876Y77D01*
X0Y76D02*
X7Y76D01*
X72Y76D02*
X81Y76D01*
X144Y76D02*
X154Y76D01*
X183Y76D02*
X192Y76D01*
X223Y76D02*
X233Y76D01*
X249Y76D02*
X259Y76D01*
X289Y76D02*
X298Y76D01*
X363Y76D02*
X409Y76D01*
X433Y76D02*
X443Y76D01*
X473Y76D02*
X482Y76D01*
X869Y76D02*
X876Y76D01*
X0Y75D02*
X7Y75D01*
X72Y75D02*
X81Y75D01*
X144Y75D02*
X154Y75D01*
X183Y75D02*
X192Y75D01*
X224Y75D02*
X234Y75D01*
X248Y75D02*
X258Y75D01*
X289Y75D02*
X298Y75D01*
X362Y75D02*
X409Y75D01*
X433Y75D02*
X443Y75D01*
X473Y75D02*
X482Y75D01*
X869Y75D02*
X876Y75D01*
X0Y74D02*
X7Y74D01*
X72Y74D02*
X81Y74D01*
X144Y74D02*
X154Y74D01*
X183Y74D02*
X192Y74D01*
X224Y74D02*
X234Y74D01*
X248Y74D02*
X258Y74D01*
X289Y74D02*
X298Y74D01*
X362Y74D02*
X373Y74D01*
X397Y74D02*
X409Y74D01*
X433Y74D02*
X443Y74D01*
X473Y74D02*
X482Y74D01*
X678Y74D02*
X691Y74D01*
X869Y74D02*
X876Y74D01*
X0Y73D02*
X7Y73D01*
X72Y73D02*
X81Y73D01*
X144Y73D02*
X154Y73D01*
X183Y73D02*
X192Y73D01*
X225Y73D02*
X235Y73D01*
X247Y73D02*
X257Y73D01*
X289Y73D02*
X298Y73D01*
X362Y73D02*
X372Y73D01*
X399Y73D02*
X409Y73D01*
X433Y73D02*
X443Y73D01*
X473Y73D02*
X482Y73D01*
X676Y73D02*
X691Y73D01*
X869Y73D02*
X876Y73D01*
X0Y72D02*
X7Y72D01*
X72Y72D02*
X81Y72D01*
X144Y72D02*
X154Y72D01*
X183Y72D02*
X192Y72D01*
X225Y72D02*
X235Y72D01*
X247Y72D02*
X257Y72D01*
X289Y72D02*
X298Y72D01*
X361Y72D02*
X371Y72D01*
X400Y72D02*
X409Y72D01*
X433Y72D02*
X443Y72D01*
X473Y72D02*
X482Y72D01*
X676Y72D02*
X691Y72D01*
X869Y72D02*
X876Y72D01*
X0Y71D02*
X7Y71D01*
X72Y71D02*
X81Y71D01*
X144Y71D02*
X154Y71D01*
X183Y71D02*
X192Y71D01*
X226Y71D02*
X236Y71D01*
X246Y71D02*
X257Y71D01*
X289Y71D02*
X298Y71D01*
X361Y71D02*
X371Y71D01*
X400Y71D02*
X409Y71D01*
X433Y71D02*
X443Y71D01*
X473Y71D02*
X482Y71D01*
X675Y71D02*
X691Y71D01*
X869Y71D02*
X876Y71D01*
X0Y70D02*
X7Y70D01*
X72Y70D02*
X81Y70D01*
X144Y70D02*
X154Y70D01*
X183Y70D02*
X192Y70D01*
X226Y70D02*
X236Y70D01*
X246Y70D02*
X256Y70D01*
X289Y70D02*
X298Y70D01*
X361Y70D02*
X370Y70D01*
X400Y70D02*
X409Y70D01*
X433Y70D02*
X443Y70D01*
X473Y70D02*
X482Y70D01*
X676Y70D02*
X691Y70D01*
X869Y70D02*
X876Y70D01*
X0Y69D02*
X7Y69D01*
X72Y69D02*
X81Y69D01*
X144Y69D02*
X154Y69D01*
X183Y69D02*
X192Y69D01*
X226Y69D02*
X236Y69D01*
X246Y69D02*
X256Y69D01*
X289Y69D02*
X298Y69D01*
X361Y69D02*
X370Y69D01*
X400Y69D02*
X409Y69D01*
X433Y69D02*
X443Y69D01*
X473Y69D02*
X482Y69D01*
X677Y69D02*
X691Y69D01*
X869Y69D02*
X876Y69D01*
X0Y68D02*
X7Y68D01*
X72Y68D02*
X81Y68D01*
X144Y68D02*
X154Y68D01*
X183Y68D02*
X192Y68D01*
X227Y68D02*
X237Y68D01*
X245Y68D02*
X255Y68D01*
X289Y68D02*
X298Y68D01*
X361Y68D02*
X370Y68D01*
X400Y68D02*
X409Y68D01*
X433Y68D02*
X444Y68D01*
X473Y68D02*
X482Y68D01*
X686Y68D02*
X691Y68D01*
X869Y68D02*
X876Y68D01*
X0Y67D02*
X7Y67D01*
X72Y67D02*
X81Y67D01*
X144Y67D02*
X154Y67D01*
X183Y67D02*
X192Y67D01*
X227Y67D02*
X237Y67D01*
X245Y67D02*
X255Y67D01*
X289Y67D02*
X298Y67D01*
X361Y67D02*
X370Y67D01*
X400Y67D02*
X409Y67D01*
X433Y67D02*
X445Y67D01*
X473Y67D02*
X482Y67D01*
X686Y67D02*
X691Y67D01*
X869Y67D02*
X876Y67D01*
X0Y66D02*
X7Y66D01*
X72Y66D02*
X81Y66D01*
X144Y66D02*
X154Y66D01*
X183Y66D02*
X192Y66D01*
X228Y66D02*
X238Y66D01*
X244Y66D02*
X254Y66D01*
X289Y66D02*
X298Y66D01*
X361Y66D02*
X370Y66D01*
X400Y66D02*
X409Y66D01*
X433Y66D02*
X446Y66D01*
X473Y66D02*
X482Y66D01*
X686Y66D02*
X691Y66D01*
X869Y66D02*
X876Y66D01*
X0Y65D02*
X7Y65D01*
X72Y65D02*
X81Y65D01*
X144Y65D02*
X154Y65D01*
X183Y65D02*
X192Y65D01*
X228Y65D02*
X238Y65D01*
X244Y65D02*
X254Y65D01*
X289Y65D02*
X298Y65D01*
X361Y65D02*
X370Y65D01*
X400Y65D02*
X409Y65D01*
X433Y65D02*
X447Y65D01*
X473Y65D02*
X482Y65D01*
X686Y65D02*
X691Y65D01*
X869Y65D02*
X876Y65D01*
X0Y64D02*
X7Y64D01*
X72Y64D02*
X81Y64D01*
X144Y64D02*
X154Y64D01*
X183Y64D02*
X192Y64D01*
X229Y64D02*
X239Y64D01*
X243Y64D02*
X253Y64D01*
X289Y64D02*
X298Y64D01*
X361Y64D02*
X370Y64D01*
X398Y64D02*
X409Y64D01*
X433Y64D02*
X449Y64D01*
X472Y64D02*
X482Y64D01*
X686Y64D02*
X691Y64D01*
X869Y64D02*
X876Y64D01*
X0Y63D02*
X7Y63D01*
X72Y63D02*
X81Y63D01*
X144Y63D02*
X154Y63D01*
X183Y63D02*
X192Y63D01*
X229Y63D02*
X253Y63D01*
X289Y63D02*
X298Y63D01*
X361Y63D02*
X370Y63D01*
X396Y63D02*
X409Y63D01*
X433Y63D02*
X450Y63D01*
X471Y63D02*
X482Y63D01*
X686Y63D02*
X691Y63D01*
X869Y63D02*
X876Y63D01*
X0Y62D02*
X7Y62D01*
X72Y62D02*
X81Y62D01*
X144Y62D02*
X154Y62D01*
X183Y62D02*
X192Y62D01*
X229Y62D02*
X253Y62D01*
X289Y62D02*
X298Y62D01*
X361Y62D02*
X371Y62D01*
X394Y62D02*
X409Y62D01*
X433Y62D02*
X451Y62D01*
X470Y62D02*
X481Y62D01*
X557Y62D02*
X559Y62D01*
X568Y62D02*
X577Y62D01*
X603Y62D02*
X615Y62D01*
X637Y62D02*
X639Y62D01*
X659Y62D02*
X661Y62D01*
X686Y62D02*
X691Y62D01*
X869Y62D02*
X876Y62D01*
X0Y61D02*
X7Y61D01*
X72Y61D02*
X81Y61D01*
X144Y61D02*
X154Y61D01*
X183Y61D02*
X192Y61D01*
X230Y61D02*
X252Y61D01*
X289Y61D02*
X298Y61D01*
X361Y61D02*
X371Y61D01*
X393Y61D02*
X409Y61D01*
X433Y61D02*
X452Y61D01*
X469Y61D02*
X481Y61D01*
X556Y61D02*
X560Y61D01*
X567Y61D02*
X579Y61D01*
X601Y61D02*
X617Y61D01*
X636Y61D02*
X640Y61D01*
X658Y61D02*
X662Y61D01*
X686Y61D02*
X691Y61D01*
X869Y61D02*
X876Y61D01*
X0Y60D02*
X7Y60D01*
X72Y60D02*
X81Y60D01*
X144Y60D02*
X154Y60D01*
X183Y60D02*
X192Y60D01*
X230Y60D02*
X252Y60D01*
X289Y60D02*
X298Y60D01*
X362Y60D02*
X373Y60D01*
X391Y60D02*
X409Y60D01*
X433Y60D02*
X453Y60D01*
X467Y60D02*
X480Y60D01*
X556Y60D02*
X560Y60D01*
X566Y60D02*
X580Y60D01*
X600Y60D02*
X618Y60D01*
X636Y60D02*
X640Y60D01*
X658Y60D02*
X662Y60D01*
X686Y60D02*
X691Y60D01*
X869Y60D02*
X876Y60D01*
X0Y59D02*
X7Y59D01*
X72Y59D02*
X81Y59D01*
X144Y59D02*
X154Y59D01*
X183Y59D02*
X192Y59D01*
X231Y59D02*
X251Y59D01*
X289Y59D02*
X333Y59D01*
X362Y59D02*
X409Y59D01*
X433Y59D02*
X480Y59D01*
X556Y59D02*
X560Y59D01*
X565Y59D02*
X581Y59D01*
X599Y59D02*
X619Y59D01*
X636Y59D02*
X640Y59D01*
X657Y59D02*
X662Y59D01*
X686Y59D02*
X691Y59D01*
X869Y59D02*
X876Y59D01*
X0Y58D02*
X7Y58D01*
X72Y58D02*
X81Y58D01*
X144Y58D02*
X154Y58D01*
X183Y58D02*
X192Y58D01*
X231Y58D02*
X251Y58D01*
X289Y58D02*
X336Y58D01*
X362Y58D02*
X409Y58D01*
X433Y58D02*
X479Y58D01*
X556Y58D02*
X560Y58D01*
X563Y58D02*
X581Y58D01*
X598Y58D02*
X620Y58D01*
X636Y58D02*
X640Y58D01*
X657Y58D02*
X662Y58D01*
X686Y58D02*
X691Y58D01*
X869Y58D02*
X876Y58D01*
X0Y57D02*
X7Y57D01*
X72Y57D02*
X81Y57D01*
X144Y57D02*
X154Y57D01*
X183Y57D02*
X192Y57D01*
X232Y57D02*
X250Y57D01*
X289Y57D02*
X337Y57D01*
X363Y57D02*
X409Y57D01*
X433Y57D02*
X478Y57D01*
X556Y57D02*
X582Y57D01*
X597Y57D02*
X621Y57D01*
X636Y57D02*
X640Y57D01*
X657Y57D02*
X662Y57D01*
X686Y57D02*
X691Y57D01*
X869Y57D02*
X876Y57D01*
X0Y56D02*
X7Y56D01*
X72Y56D02*
X81Y56D01*
X144Y56D02*
X154Y56D01*
X183Y56D02*
X192Y56D01*
X232Y56D02*
X250Y56D01*
X289Y56D02*
X337Y56D01*
X364Y56D02*
X409Y56D01*
X433Y56D02*
X477Y56D01*
X556Y56D02*
X569Y56D01*
X577Y56D02*
X582Y56D01*
X597Y56D02*
X603Y56D01*
X615Y56D02*
X621Y56D01*
X636Y56D02*
X640Y56D01*
X657Y56D02*
X662Y56D01*
X686Y56D02*
X691Y56D01*
X869Y56D02*
X876Y56D01*
X0Y55D02*
X7Y55D01*
X72Y55D02*
X81Y55D01*
X144Y55D02*
X154Y55D01*
X183Y55D02*
X192Y55D01*
X233Y55D02*
X250Y55D01*
X289Y55D02*
X338Y55D01*
X364Y55D02*
X409Y55D01*
X433Y55D02*
X476Y55D01*
X556Y55D02*
X567Y55D01*
X578Y55D02*
X582Y55D01*
X596Y55D02*
X602Y55D01*
X616Y55D02*
X622Y55D01*
X636Y55D02*
X640Y55D01*
X657Y55D02*
X662Y55D01*
X686Y55D02*
X691Y55D01*
X869Y55D02*
X876Y55D01*
X0Y54D02*
X7Y54D01*
X72Y54D02*
X81Y54D01*
X144Y54D02*
X153Y54D01*
X183Y54D02*
X192Y54D01*
X234Y54D02*
X249Y54D01*
X289Y54D02*
X338Y54D01*
X365Y54D02*
X409Y54D01*
X433Y54D02*
X443Y54D01*
X445Y54D02*
X475Y54D01*
X556Y54D02*
X566Y54D01*
X578Y54D02*
X582Y54D01*
X596Y54D02*
X601Y54D01*
X617Y54D02*
X622Y54D01*
X636Y54D02*
X641Y54D01*
X657Y54D02*
X662Y54D01*
X686Y54D02*
X691Y54D01*
X869Y54D02*
X876Y54D01*
X0Y53D02*
X7Y53D01*
X72Y53D02*
X81Y53D01*
X145Y53D02*
X153Y53D01*
X184Y53D02*
X192Y53D01*
X238Y53D02*
X249Y53D01*
X289Y53D02*
X337Y53D01*
X366Y53D02*
X398Y53D01*
X401Y53D02*
X409Y53D01*
X434Y53D02*
X442Y53D01*
X447Y53D02*
X474Y53D01*
X556Y53D02*
X565Y53D01*
X578Y53D02*
X582Y53D01*
X596Y53D02*
X600Y53D01*
X617Y53D02*
X622Y53D01*
X636Y53D02*
X641Y53D01*
X656Y53D02*
X661Y53D01*
X686Y53D02*
X691Y53D01*
X869Y53D02*
X876Y53D01*
X0Y52D02*
X7Y52D01*
X73Y52D02*
X81Y52D01*
X145Y52D02*
X153Y52D01*
X184Y52D02*
X192Y52D01*
X238Y52D02*
X248Y52D01*
X289Y52D02*
X337Y52D01*
X367Y52D02*
X396Y52D01*
X401Y52D02*
X409Y52D01*
X434Y52D02*
X442Y52D01*
X448Y52D02*
X472Y52D01*
X556Y52D02*
X564Y52D01*
X578Y52D02*
X582Y52D01*
X596Y52D02*
X600Y52D01*
X618Y52D02*
X622Y52D01*
X637Y52D02*
X642Y52D01*
X656Y52D02*
X661Y52D01*
X686Y52D02*
X691Y52D01*
X869Y52D02*
X876Y52D01*
X0Y51D02*
X7Y51D01*
X73Y51D02*
X80Y51D01*
X146Y51D02*
X152Y51D01*
X185Y51D02*
X191Y51D01*
X238Y51D02*
X248Y51D01*
X289Y51D02*
X337Y51D01*
X369Y51D02*
X395Y51D01*
X402Y51D02*
X408Y51D01*
X435Y51D02*
X441Y51D01*
X450Y51D02*
X471Y51D01*
X556Y51D02*
X563Y51D01*
X578Y51D02*
X582Y51D01*
X596Y51D02*
X600Y51D01*
X618Y51D02*
X622Y51D01*
X637Y51D02*
X642Y51D01*
X655Y51D02*
X661Y51D01*
X686Y51D02*
X691Y51D01*
X869Y51D02*
X876Y51D01*
X0Y50D02*
X7Y50D01*
X74Y50D02*
X79Y50D01*
X147Y50D02*
X151Y50D01*
X186Y50D02*
X190Y50D01*
X237Y50D02*
X247Y50D01*
X289Y50D02*
X335Y50D01*
X371Y50D02*
X393Y50D01*
X403Y50D02*
X407Y50D01*
X436Y50D02*
X440Y50D01*
X452Y50D02*
X469Y50D01*
X556Y50D02*
X562Y50D01*
X580Y50D02*
X580Y50D01*
X596Y50D02*
X600Y50D01*
X618Y50D02*
X622Y50D01*
X637Y50D02*
X643Y50D01*
X655Y50D02*
X660Y50D01*
X686Y50D02*
X691Y50D01*
X698Y50D02*
X701Y50D01*
X869Y50D02*
X876Y50D01*
X0Y49D02*
X7Y49D01*
X237Y49D02*
X247Y49D01*
X556Y49D02*
X561Y49D01*
X596Y49D02*
X600Y49D01*
X618Y49D02*
X622Y49D01*
X638Y49D02*
X643Y49D01*
X655Y49D02*
X660Y49D01*
X686Y49D02*
X691Y49D01*
X698Y49D02*
X702Y49D01*
X869Y49D02*
X876Y49D01*
X0Y48D02*
X7Y48D01*
X236Y48D02*
X246Y48D01*
X556Y48D02*
X560Y48D01*
X596Y48D02*
X622Y48D01*
X638Y48D02*
X643Y48D01*
X654Y48D02*
X659Y48D01*
X686Y48D02*
X691Y48D01*
X697Y48D02*
X702Y48D01*
X869Y48D02*
X876Y48D01*
X0Y47D02*
X7Y47D01*
X236Y47D02*
X246Y47D01*
X556Y47D02*
X560Y47D01*
X596Y47D02*
X622Y47D01*
X639Y47D02*
X644Y47D01*
X654Y47D02*
X659Y47D01*
X686Y47D02*
X691Y47D01*
X697Y47D02*
X702Y47D01*
X869Y47D02*
X876Y47D01*
X0Y46D02*
X7Y46D01*
X235Y46D02*
X246Y46D01*
X556Y46D02*
X560Y46D01*
X596Y46D02*
X622Y46D01*
X639Y46D02*
X644Y46D01*
X653Y46D02*
X658Y46D01*
X686Y46D02*
X691Y46D01*
X697Y46D02*
X702Y46D01*
X869Y46D02*
X876Y46D01*
X0Y45D02*
X7Y45D01*
X235Y45D02*
X245Y45D01*
X556Y45D02*
X560Y45D01*
X596Y45D02*
X622Y45D01*
X640Y45D02*
X645Y45D01*
X653Y45D02*
X658Y45D01*
X686Y45D02*
X691Y45D01*
X697Y45D02*
X702Y45D01*
X869Y45D02*
X876Y45D01*
X0Y44D02*
X7Y44D01*
X235Y44D02*
X245Y44D01*
X556Y44D02*
X560Y44D01*
X596Y44D02*
X622Y44D01*
X640Y44D02*
X645Y44D01*
X652Y44D02*
X657Y44D01*
X686Y44D02*
X691Y44D01*
X697Y44D02*
X702Y44D01*
X869Y44D02*
X876Y44D01*
X0Y43D02*
X7Y43D01*
X234Y43D02*
X244Y43D01*
X556Y43D02*
X560Y43D01*
X596Y43D02*
X620Y43D01*
X641Y43D02*
X646Y43D01*
X652Y43D02*
X657Y43D01*
X686Y43D02*
X691Y43D01*
X697Y43D02*
X702Y43D01*
X869Y43D02*
X876Y43D01*
X0Y42D02*
X7Y42D01*
X234Y42D02*
X244Y42D01*
X556Y42D02*
X560Y42D01*
X596Y42D02*
X600Y42D01*
X641Y42D02*
X646Y42D01*
X652Y42D02*
X657Y42D01*
X686Y42D02*
X691Y42D01*
X697Y42D02*
X702Y42D01*
X869Y42D02*
X876Y42D01*
X0Y41D02*
X7Y41D01*
X233Y41D02*
X243Y41D01*
X556Y41D02*
X560Y41D01*
X596Y41D02*
X600Y41D01*
X641Y41D02*
X646Y41D01*
X651Y41D02*
X656Y41D01*
X686Y41D02*
X691Y41D01*
X697Y41D02*
X702Y41D01*
X869Y41D02*
X876Y41D01*
X0Y40D02*
X7Y40D01*
X233Y40D02*
X243Y40D01*
X556Y40D02*
X560Y40D01*
X596Y40D02*
X601Y40D01*
X642Y40D02*
X647Y40D01*
X651Y40D02*
X656Y40D01*
X686Y40D02*
X691Y40D01*
X697Y40D02*
X702Y40D01*
X869Y40D02*
X876Y40D01*
X0Y39D02*
X7Y39D01*
X232Y39D02*
X243Y39D01*
X556Y39D02*
X560Y39D01*
X596Y39D02*
X601Y39D01*
X642Y39D02*
X647Y39D01*
X650Y39D02*
X655Y39D01*
X686Y39D02*
X691Y39D01*
X697Y39D02*
X702Y39D01*
X869Y39D02*
X876Y39D01*
X0Y38D02*
X7Y38D01*
X232Y38D02*
X242Y38D01*
X556Y38D02*
X560Y38D01*
X596Y38D02*
X602Y38D01*
X643Y38D02*
X648Y38D01*
X650Y38D02*
X655Y38D01*
X686Y38D02*
X691Y38D01*
X697Y38D02*
X702Y38D01*
X869Y38D02*
X876Y38D01*
X0Y37D02*
X7Y37D01*
X219Y37D02*
X242Y37D01*
X556Y37D02*
X560Y37D01*
X597Y37D02*
X604Y37D01*
X643Y37D02*
X654Y37D01*
X686Y37D02*
X691Y37D01*
X697Y37D02*
X702Y37D01*
X869Y37D02*
X876Y37D01*
X0Y36D02*
X7Y36D01*
X218Y36D02*
X241Y36D01*
X556Y36D02*
X560Y36D01*
X597Y36D02*
X621Y36D01*
X644Y36D02*
X654Y36D01*
X676Y36D02*
X702Y36D01*
X869Y36D02*
X876Y36D01*
X0Y35D02*
X7Y35D01*
X217Y35D02*
X241Y35D01*
X556Y35D02*
X560Y35D01*
X598Y35D02*
X622Y35D01*
X644Y35D02*
X654Y35D01*
X676Y35D02*
X702Y35D01*
X869Y35D02*
X876Y35D01*
X0Y34D02*
X7Y34D01*
X217Y34D02*
X240Y34D01*
X556Y34D02*
X560Y34D01*
X600Y34D02*
X622Y34D01*
X644Y34D02*
X653Y34D01*
X675Y34D02*
X702Y34D01*
X869Y34D02*
X876Y34D01*
X0Y33D02*
X7Y33D01*
X217Y33D02*
X240Y33D01*
X556Y33D02*
X560Y33D01*
X601Y33D02*
X622Y33D01*
X645Y33D02*
X653Y33D01*
X676Y33D02*
X702Y33D01*
X869Y33D02*
X876Y33D01*
X0Y32D02*
X7Y32D01*
X217Y32D02*
X239Y32D01*
X557Y32D02*
X560Y32D01*
X602Y32D02*
X621Y32D01*
X646Y32D02*
X652Y32D01*
X676Y32D02*
X701Y32D01*
X869Y32D02*
X876Y32D01*
X0Y31D02*
X7Y31D01*
X217Y31D02*
X239Y31D01*
X869Y31D02*
X876Y31D01*
X0Y30D02*
X7Y30D01*
X218Y30D02*
X238Y30D01*
X869Y30D02*
X876Y30D01*
X0Y29D02*
X7Y29D01*
X219Y29D02*
X238Y29D01*
X869Y29D02*
X876Y29D01*
X0Y28D02*
X7Y28D01*
X221Y28D02*
X235Y28D01*
X869Y28D02*
X876Y28D01*
X0Y27D02*
X7Y27D01*
X869Y27D02*
X876Y27D01*
X0Y26D02*
X7Y26D01*
X869Y26D02*
X876Y26D01*
X0Y25D02*
X7Y25D01*
X869Y25D02*
X876Y25D01*
X0Y24D02*
X7Y24D01*
X869Y24D02*
X876Y24D01*
X0Y23D02*
X7Y23D01*
X869Y23D02*
X876Y23D01*
X0Y22D02*
X7Y22D01*
X869Y22D02*
X876Y22D01*
X0Y21D02*
X7Y21D01*
X869Y21D02*
X876Y21D01*
X0Y20D02*
X7Y20D01*
X869Y20D02*
X876Y20D01*
X0Y19D02*
X7Y19D01*
X869Y19D02*
X876Y19D01*
X0Y18D02*
X7Y18D01*
X869Y18D02*
X876Y18D01*
X0Y17D02*
X7Y17D01*
X869Y17D02*
X876Y17D01*
X0Y16D02*
X7Y16D01*
X869Y16D02*
X876Y16D01*
X0Y15D02*
X7Y15D01*
X869Y15D02*
X876Y15D01*
X0Y14D02*
X7Y14D01*
X869Y14D02*
X876Y14D01*
X0Y13D02*
X7Y13D01*
X869Y13D02*
X876Y13D01*
X0Y12D02*
X7Y12D01*
X869Y12D02*
X876Y12D01*
X0Y11D02*
X7Y11D01*
X869Y11D02*
X876Y11D01*
X0Y10D02*
X7Y10D01*
X869Y10D02*
X876Y10D01*
X0Y9D02*
X7Y9D01*
X869Y9D02*
X876Y9D01*
X0Y8D02*
X876Y8D01*
X0Y7D02*
X876Y7D01*
X0Y6D02*
X876Y6D01*
X0Y5D02*
X876Y5D01*
X0Y4D02*
X876Y4D01*
X0Y3D02*
X876Y3D01*
X0Y2D02*
X876Y2D01*
X0Y1D02*
X876Y1D01*
D02*
G04 End of Silk1*
M02*