; NON-PLATED HOLES START AT T1
; THROUGH (PLATED) HOLES START AT T100
M48
INCH
T100C0.015748
T101C0.038000
%
T100
X004555Y008652
X003194Y008680
X000749Y001513
X005222Y009180
T101
X006364Y002460
X003459Y010713
X003459Y011713
X004459Y010713
X007364Y006460
X001459Y010713
X007364Y008460
X006364Y004460
X004459Y011713
X006364Y005460
X006364Y001460
X006364Y006460
X007364Y001460
X006364Y010460
X006364Y009460
X002459Y011713
X006364Y012460
X006364Y011460
X007364Y007460
X007364Y012460
X006364Y007460
X007364Y011460
X007364Y005460
X007364Y002460
X007364Y009460
X002459Y010713
X006364Y008460
X001459Y011713
X007364Y003460
X007364Y010460
X006364Y003460
X007364Y004460
T00
M30
